<svg width="48" height="48" viewBox="0 0 48 48" fill="none" xmlns="http://www.w3.org/2000/svg">
<path d="M44 38V18H36V31H12V18H4V38H44Z" fill="#2F88FF" stroke="black" stroke-width="4" stroke-linecap="round" stroke-linejoin="round"/>
<path d="M36 6H12L12 31H36L36 6Z" stroke="black" stroke-width="4" stroke-linecap="round" stroke-linejoin="round"/>
<path fill-rule="evenodd" clip-rule="evenodd" d="M10 44C12.2091 44 14 42.2091 14 40C12.9028 40.0044 6.7003 40 6 40C6 42.2091 7.79086 44 10 44Z" fill="black"/>
<path fill-rule="evenodd" clip-rule="evenodd" d="M38 44C40.2091 44 42 42.2091 42 40C40.0954 39.9934 34.8627 40 34 40C34 42.2091 35.7909 44 38 44Z" fill="black"/>
</svg>