<svg width="48" height="48" viewBox="0 0 48 48" fill="none" xmlns="http://www.w3.org/2000/svg">
<rect width="48" height="48" fill="white" fill-opacity="0.01"/>
<path fill-rule="evenodd" clip-rule="evenodd" d="M19 10.3075C19 12.6865 17.2091 14.615 15 14.615C12.7909 14.615 11 12.6865 11 10.3075C11 7.92854 12.7909 6 15 6C17.2091 6 19 7.92854 19 10.3075ZM15 28.615C17.2091 28.615 19 26.6865 19 24.3075C19 21.9285 17.2091 20 15 20C12.7909 20 11 21.9285 11 24.3075C11 26.6865 12.7909 28.615 15 28.615ZM15 42.615C17.2091 42.615 19 40.6865 19 38.3075C19 35.9285 17.2091 34 15 34C12.7909 34 11 35.9285 11 38.3075C11 40.6865 12.7909 42.615 15 42.615Z" fill="black"/>
<path fill-rule="evenodd" clip-rule="evenodd" d="M37 10.3075C37 12.6865 35.2091 14.615 33 14.615C30.7909 14.615 29 12.6865 29 10.3075C29 7.92854 30.7909 6 33 6C35.2091 6 37 7.92854 37 10.3075ZM33 28.615C35.2091 28.615 37 26.6865 37 24.3075C37 21.9285 35.2091 20 33 20C30.7909 20 29 21.9285 29 24.3075C29 26.6865 30.7909 28.615 33 28.615ZM33 42.615C35.2091 42.615 37 40.6865 37 38.3075C37 35.9285 35.2091 34 33 34C30.7909 34 29 35.9285 29 38.3075C29 40.6865 30.7909 42.615 33 42.615Z" fill="black"/>
</svg>
