<svg width="48" height="48" viewBox="0 0 48 48" fill="none" xmlns="http://www.w3.org/2000/svg">
<path d="M24 20C27.866 20 31 16.866 31 13C31 9.13401 27.866 6 24 6C20.134 6 17 9.13401 17 13C17 16.866 20.134 20 24 20Z" fill="#2F88FF" stroke="black" stroke-width="4" stroke-linecap="round" stroke-linejoin="round"/>
<path d="M6 40.8V42H42V40.8C42 36.3196 42 34.0794 41.1281 32.3681C40.3611 30.8628 39.1372 29.6389 37.6319 28.8719C35.9206 28 33.6804 28 29.2 28H18.8C14.3196 28 12.0794 28 10.3681 28.8719C8.86278 29.6389 7.63893 30.8628 6.87195 32.3681C6 34.0794 6 36.3196 6 40.8Z" fill="#2F88FF" stroke="black" stroke-width="4" stroke-linecap="round" stroke-linejoin="round"/>
</svg>