<svg width="48" height="48" viewBox="0 0 48 48" fill="none" xmlns="http://www.w3.org/2000/svg">
<rect width="48" height="48" fill="white" fill-opacity="0.01"/>
<path d="M14 18C17.866 18 21 14.866 21 11C21 7.13401 17.866 4 14 4C10.134 4 7 7.13401 7 11C7 14.866 10.134 18 14 18Z" fill="#2F88FF" stroke="black" stroke-width="4" stroke-linejoin="round"/>
<path d="M34 18C37.866 18 41 14.866 41 11C41 7.13401 37.866 4 34 4C30.134 4 27 7.13401 27 11C27 14.866 30.134 18 34 18Z" fill="#2F88FF" stroke="black" stroke-width="4" stroke-linejoin="round"/>
<path d="M4 44C4 43.1111 4 40.1111 4 35C4 29.4772 7.77023 25 12.4211 25C14.6667 25 16.3509 25 17.4737 25C21.5587 25 24.0001 29.0269 24.0001 29.0269" stroke="black" stroke-width="4" stroke-linecap="round" stroke-linejoin="round"/>
<path d="M43.9998 44C43.9998 43.1111 43.9998 40.1111 43.9998 35C43.9998 29.4772 40.1847 25 35.4785 25C33.2062 25 31.502 25 30.3658 25C26.4046 25 23.992 29.0269 23.9997 29.0269" stroke="black" stroke-width="4" stroke-linecap="round" stroke-linejoin="round"/>
<path d="M11 40H38" stroke="black" stroke-width="4" stroke-linecap="round" stroke-linejoin="round"/>
<path d="M34.2954 36.2583L35.535 37.5055L38.0141 39.9998L35.535 42.5613L34.2954 43.8421" stroke="black" stroke-width="4" stroke-linecap="round" stroke-linejoin="round"/>
<path d="M14.3295 36.2321L13.0703 37.4857L10.5519 39.9928L13.0703 42.5415L14.3295 43.8159" stroke="black" stroke-width="4" stroke-linecap="round" stroke-linejoin="round"/>
</svg>
