<svg width="48" height="48" viewBox="0 0 48 48" fill="none" xmlns="http://www.w3.org/2000/svg">
<rect width="48" height="48" fill="white" fill-opacity="0.01"/>
<path d="M24 44C29.5228 44 34.5228 41.7614 38.1421 38.1421C41.7614 34.5228 44 29.5228 44 24C44 18.4772 41.7614 13.4772 38.1421 9.85786C34.5228 6.23858 29.5228 4 24 4C18.4772 4 13.4772 6.23858 9.85786 9.85786C6.23858 13.4772 4 18.4772 4 24C4 29.5228 6.23858 34.5228 9.85786 38.1421C13.4772 41.7614 18.4772 44 24 44Z" fill="#2F88FF" stroke="black" stroke-width="4" stroke-linejoin="round"/>
<path d="M24 28.6249V24.6249C27.3137 24.6249 30 21.9386 30 18.6249C30 15.3112 27.3137 12.6249 24 12.6249C20.6863 12.6249 18 15.3112 18 18.6249" stroke="white" stroke-width="4" stroke-linecap="round" stroke-linejoin="round"/>
<path fill-rule="evenodd" clip-rule="evenodd" d="M24 37.6249C25.3807 37.6249 26.5 36.5056 26.5 35.1249C26.5 33.7442 25.3807 32.6249 24 32.6249C22.6193 32.6249 21.5 33.7442 21.5 35.1249C21.5 36.5056 22.6193 37.6249 24 37.6249Z" fill="white"/>
</svg>
