<svg width="48" height="48" viewBox="0 0 48 48" fill="none" xmlns="http://www.w3.org/2000/svg">
<rect width="48" height="48" fill="white" fill-opacity="0.01"/>
<path d="M42 8C43.1046 8 44 8.89543 44 10V38C44 39.1046 43.1046 40 42 40H6C4.89543 40 4 39.1046 4 38V10C4 8.89543 4.89543 8 6 8H42Z" fill="#2F88FF"/>
<path d="M42 10V38H46V10H42ZM42 38H6V42H42V38ZM6 38V10H2V38H6ZM6 10H42V6H6V10ZM6 10V6C3.79086 6 2 7.79086 2 10H6ZM6 38H6H2C2 40.2091 3.79086 42 6 42V38ZM42 38V42C44.2091 42 46 40.2091 46 38H42ZM46 10C46 7.79086 44.2091 6 42 6V10H46Z" fill="black"/>
<path fill-rule="evenodd" clip-rule="evenodd" d="M4 29H44H4Z" fill="#2F88FF"/>
<path d="M4 29H44" stroke="white" stroke-width="4" stroke-linecap="round" stroke-linejoin="round"/>
<path fill-rule="evenodd" clip-rule="evenodd" d="M4 19H44H4Z" fill="#2F88FF"/>
<path d="M4 19H44" stroke="white" stroke-width="4" stroke-linecap="round" stroke-linejoin="round"/>
<path fill-rule="evenodd" clip-rule="evenodd" d="M17 40V19V40Z" fill="#2F88FF"/>
<path d="M17 40V19" stroke="white" stroke-width="4" stroke-linecap="round" stroke-linejoin="round"/>
<path fill-rule="evenodd" clip-rule="evenodd" d="M4 38V17V38Z" fill="#2F88FF"/>
<path d="M4 38V17" stroke="black" stroke-width="4" stroke-linecap="round" stroke-linejoin="round"/>
<path fill-rule="evenodd" clip-rule="evenodd" d="M44 38V17V38Z" fill="#2F88FF"/>
<path d="M44 38V17" stroke="black" stroke-width="4" stroke-linecap="round" stroke-linejoin="round"/>
<path fill-rule="evenodd" clip-rule="evenodd" d="M31 40V19V40Z" fill="#2F88FF"/>
<path d="M31 40V19" stroke="white" stroke-width="4" stroke-linecap="round" stroke-linejoin="round"/>
<path d="M9 40H39" stroke="black" stroke-width="4" stroke-linecap="round" stroke-linejoin="round"/>
</svg>
