<svg width="48" height="48" viewBox="0 0 48 48" fill="none" xmlns="http://www.w3.org/2000/svg">
<rect width="48" height="48" fill="white" fill-opacity="0.01"/>
<path d="M20.0084 34.0083H33.5V20.0083" stroke="black" stroke-width="4" stroke-linecap="round" stroke-linejoin="round"/>
<path d="M24.5 38.5L23 37L20 34L23 31L24.5 29.5" stroke="black" stroke-width="4" stroke-linecap="round" stroke-linejoin="round"/>
<path d="M29 24.5L30.5 23L33.5 20L36.5 23L38 24.5" stroke="black" stroke-width="4" stroke-linecap="round" stroke-linejoin="round"/>
<path d="M41 4H7C5.34315 4 4 5.34315 4 7V41C4 42.6569 5.34315 44 7 44H41C42.6569 44 44 42.6569 44 41V7C44 5.34315 42.6569 4 41 4Z" stroke="black" stroke-width="4"/>
<path d="M14 4L14 44" stroke="black" stroke-width="4" stroke-linecap="round"/>
<path d="M4 14.0378L44 14" stroke="black" stroke-width="4" stroke-linecap="round"/>
</svg>
