<svg width="48" height="48" viewBox="0 0 48 48" fill="none" xmlns="http://www.w3.org/2000/svg">
<path d="M23.9998 3L45.8741 18.8926L38 45H10L2.12549 18.8926L23.9998 3Z" fill="#2F88FF" stroke="black" stroke-width="4" stroke-linejoin="round"/>
<path d="M38 45L31 37" stroke="white" stroke-width="4" stroke-linecap="round" stroke-linejoin="round"/>
<path d="M10 45L17 37" stroke="white" stroke-width="4" stroke-linecap="round" stroke-linejoin="round"/>
<path d="M2 19L12 22" stroke="white" stroke-width="4" stroke-linecap="round" stroke-linejoin="round"/>
<path d="M46 19L36 22" stroke="white" stroke-width="4" stroke-linecap="round" stroke-linejoin="round"/>
<path d="M24 3V13" stroke="white" stroke-width="4" stroke-linecap="round" stroke-linejoin="round"/>
<path d="M24 13L30.0073 17.5706L36 22L31 37H17L12 22L17.9927 17.5706L24 13Z" fill="#43CCF8" stroke="white" stroke-width="4" stroke-linejoin="round"/>
<path d="M7.59406 14.9194L2.12549 18.8926L4.09412 25.4194" stroke="black" stroke-width="4" stroke-linejoin="round"/>
<path d="M8.03125 38.4731L9.99988 45H16.9999" stroke="black" stroke-width="4" stroke-linejoin="round"/>
<path d="M31 45H38L39.9685 38.4731" stroke="black" stroke-width="4" stroke-linejoin="round"/>
<path d="M40.4053 14.9194L45.8738 18.8926L43.9053 25.4194" stroke="black" stroke-width="4" stroke-linejoin="round"/>
<path d="M29.4684 6.97315L23.9998 3L18.5312 6.97315" stroke="black" stroke-width="4" stroke-linejoin="round"/>
</svg>