<svg width="281" height="50" viewBox="0 0 281 50" fill="none" xmlns="http://www.w3.org/2000/svg">
<g clip-path="url(#clip0)">
<path d="M81.9 5.30005L75.3 8.40005L75.2 44H81.9V5.30005Z" fill="#292C35"/>
<path d="M94.7 36.2001C93.1 34.7001 92.4 32.9001 92.4 30.7001C92.4 28.5001 93.2 26.7 94.8 25.3C96.4 23.9 98.2 23.2001 100.3 23.2001C102.7 23.2001 104.6 24.1001 106 25.7001L111.1 21.8C109.9 20.3 108.4 19.1001 106.5 18.2001C104.6 17.3001 102.5 16.8 100.3 16.8C96.4 16.8 93 18.1 90.2 20.6C87.4 23.1 86 26.5 86 30.5C86 34.5 87.4 37.9 90.2 40.5C93 43.1 96.4 44.4001 100.3 44.4001C102.5 44.4001 104.6 43.9 106.6 43C108.4 42.1 110 40.9001 111.2 39.4001L106 35.6C104.6 37.3 102.7 38.2001 100.3 38.2001C98.1 38.4001 96.3 37.6 94.7 36.2001Z" fill="#292C35"/>
<path d="M126 17C122.2 17 118.9 18.3 116.2 20.8C113.6 23.3 112.2 26.7 112.2 30.7C112.2 34.8 113.5 38.1 116.2 40.7C118.8 43.3 122.1 44.6 126 44.6C129.8 44.6 133.1 43.3 135.8 40.7C138.4 38.1 139.8 34.8 139.8 30.7C139.8 26.6 138.5 23.3 135.8 20.8C133.1 18.2 129.8 17 126 17ZM131.2 36.1C129.8 37.5 128 38.2 126 38.2C123.9 38.2 122.2 37.5 120.8 36.1C119.4 34.7 118.7 32.9 118.7 30.7C118.7 28.5 119.4 26.8 120.8 25.4C122.2 24 124 23.4 126 23.4C128.1 23.4 129.8 24.1 131.2 25.4C132.6 26.8 133.3 28.5 133.3 30.7C133.3 32.9 132.6 34.7 131.2 36.1Z" fill="#292C35"/>
<path d="M159 17.0001C155.2 16.8001 151.9 18.5001 150.5 20.2001L150 20.9001V17.7001L143.5 20.7001V44.0001H150V29.7001C150 25.5001 152.2 23.2001 156.2 23.2001C161.2 23.2001 161.6 28.0001 161.6 29.5001V44.0001H168.1V26.5001C168.1 22.1001 165.7 17.3001 159 17.0001Z" fill="#292C35"/>
<path d="M197.3 9.00002C195.3 6.60002 192.2 5.40002 188.2 5.40002H172.5V44H179.2V30.1H188.1C192.1 30.1 195.2 28.9 197.2 26.5C199.3 24.1 200.3 21.2 200.3 17.8C200.4 14.4 199.4 11.4 197.3 9.00002ZM192.2 22.2C191.2 23.5 189.7 24.2 187.9 24.2H179.3V11.3H188.1C189.9 11.3 191.3 12 192.3 13.3C193.2 14.6 193.7 16.1 193.7 17.8C193.7 19.4 193.2 20.9 192.2 22.2Z" fill="#292C35"/>
<path d="M218.6 17.9C217 17.3 215.5 17 214.1 17C210.5 17 207.3 18.3 204.6 20.8C202 23.3 200.6 26.7 200.6 30.7C200.6 34.8 202 38.1 204.6 40.6C207.3 43.1 210.5 44.4 214.1 44.4C215.6 44.4 217.1 44.1 218.7 43.4C220.3 42.7 221.5 41.8 222.2 40.6L222.7 39.8V44H229.2V17.6L222.7 20.6V21.5L222.2 20.7C221.3 19.5 220.1 18.5 218.6 17.9ZM220.4 36.2C218.9 37.6 217.1 38.3 215 38.3C212.9 38.3 211.1 37.6 209.6 36.2C208.1 34.8 207.3 32.9 207.3 30.8C207.3 28.6 208.1 26.8 209.6 25.4C211.1 24 213 23.3 215 23.3C217 23.3 218.8 24 220.4 25.3C221.9 26.7 222.7 28.5 222.7 30.8C222.7 33 221.9 34.9 220.4 36.2Z" fill="#292C35"/>
<path d="M239.9 19.9001L239.4 20.4001V17.6001L232.9 20.6001V44.0001H239.4V31.9001C239.4 26.6001 241.8 23.5001 246.4 23.0001C247.9 22.8001 250.1 23.2001 251.3 23.6001L251.4 17.8001C250.2 17.2001 248.9 17.0001 247.2 16.9001C244.8 16.8001 241.8 18.0001 239.9 19.9001Z" fill="#292C35"/>
<path d="M266.8 29.4L277.7 18H269.5L261.8 26.4V5.30005L255.4 8.30005V44H261.8V32.1L272.2 44H280.1L266.8 29.4Z" fill="#292C35"/>
<path d="M0 49.4L15.8 42V0L0 7.4V49.4Z" fill="#067C5A"/>
<path d="M20.9 49.4L36.8 42V0L20.9 7.4V49.4Z" fill="#08DFAD"/>
<path d="M41.8 30.9L57.7001 23.5V0L41.8 7.4V30.9Z" fill="#08DFAD"/>
</g>
<defs>
<clipPath id="clip0">
<rect width="280.1" height="49.4" fill="white"/>
</clipPath>
</defs>
</svg>
