<svg width="48" height="48" viewBox="0 0 48 48" fill="none" xmlns="http://www.w3.org/2000/svg">
<rect width="48" height="48" fill="white" fill-opacity="0.01"/>
<path d="M34 3.99976H44V13.9998M44 33.9998V43.9998H34M14 43.9998H4V33.9998M4 13.9998V3.99976H14" stroke="black" stroke-width="4" stroke-linecap="round" stroke-linejoin="round"/>
<path d="M24 39.9998C31.732 39.9998 38 32.8363 38 23.9998C38 15.1632 31.732 7.99976 24 7.99976C16.268 7.99976 10 15.1632 10 23.9998C10 32.8363 16.268 39.9998 24 39.9998Z" stroke="black" stroke-width="4"/>
<path d="M6 24.0081L42 23.9998" stroke="black" stroke-width="4" stroke-linecap="round"/>
<path d="M20.0697 32.1057C21.3375 33.0429 22.6476 33.5115 24 33.5115C25.3523 33.5115 26.6983 33.0429 28.0381 32.1057" stroke="black" stroke-width="4" stroke-linecap="round"/>
</svg>
