<svg width="48" height="48" viewBox="0 0 48 48" fill="none" xmlns="http://www.w3.org/2000/svg">
<path d="M18 22.9998C19.6569 22.9998 21 21.6566 21 19.9998C21 18.3429 19.6569 16.9998 18 16.9998C16.3431 16.9998 15 18.3429 15 19.9998C15 21.6566 16.3431 22.9998 18 22.9998Z" fill="#2F88FF" stroke="black" stroke-width="4"/>
<path d="M30 22.9998C31.6569 22.9998 33 21.6566 33 19.9998C33 18.3429 31.6569 16.9998 30 16.9998C28.3431 16.9998 27 18.3429 27 19.9998C27 21.6566 28.3431 22.9998 30 22.9998Z" fill="#2F88FF" stroke="black" stroke-width="4"/>
<path d="M24 34.9998C26.7614 34.9998 29 33.6566 29 31.9998C29 30.3429 26.7614 28.9998 24 28.9998C21.2386 28.9998 19 30.3429 19 31.9998C19 33.6566 21.2386 34.9998 24 34.9998Z" fill="#2F88FF" stroke="black" stroke-width="4"/>
<path d="M11.2715 38.1419C12.9295 39.9841 14.9094 41.4686 17.1095 42.4823C19.2318 43.4601 21.5589 43.9998 23.9994 43.9998C26.4399 43.9998 28.767 43.4601 30.8893 42.4823C33.0894 41.4686 35.0693 39.9841 36.7273 38.1419" stroke="black" stroke-width="4" stroke-linecap="round"/>
<path d="M40.6348 31.6552C41.5148 29.2971 42.0005 26.7115 42.0005 23.9998C42.0005 21.2881 41.5148 18.7024 40.6348 16.3443" stroke="black" stroke-width="4" stroke-linecap="round"/>
<path d="M7.36573 16.3443C6.48571 18.7024 6 21.2881 6 23.9998C6 26.7115 6.48571 29.2971 7.36573 31.6552" stroke="black" stroke-width="4" stroke-linecap="round"/>
<path d="M36.7273 9.85764C35.0693 8.01541 33.0894 6.5309 30.8893 5.51724C28.767 4.53944 26.4399 3.99977 23.9994 3.99977C19.0288 3.99977 14.5288 6.23835 11.2715 9.85764" stroke="black" stroke-width="4" stroke-linecap="round"/>
</svg>
