<svg width="48" height="48" viewBox="0 0 48 48" fill="none" xmlns="http://www.w3.org/2000/svg">
<path d="M44 44L4 4V44H44Z" stroke="black" stroke-width="4" stroke-linecap="round" stroke-linejoin="round"/>
<path fill-rule="evenodd" clip-rule="evenodd" d="M13 35H25L13 23V35Z" fill="#2F88FF"/>
<path fill-rule="evenodd" clip-rule="evenodd" d="M13 35H25L13 23V35Z" fill="#2F88FF"/>
<path fill-rule="evenodd" clip-rule="evenodd" d="M13 35H25L13 23V35Z" fill="#2F88FF"/>
<path fill-rule="evenodd" clip-rule="evenodd" d="M13 35H25L13 23V35Z" fill="#2F88FF"/>
<path fill-rule="evenodd" clip-rule="evenodd" d="M13 35H25L13 23V35Z" stroke="black" stroke-width="4" stroke-linecap="round" stroke-linejoin="round"/>
<path fill-rule="evenodd" clip-rule="evenodd" d="M13 35H25L13 23V35Z" stroke="black" stroke-width="4" stroke-linecap="round" stroke-linejoin="round"/>
<path fill-rule="evenodd" clip-rule="evenodd" d="M13 35H25L13 23V35Z" stroke="black" stroke-width="4" stroke-linecap="round" stroke-linejoin="round"/>
<path fill-rule="evenodd" clip-rule="evenodd" d="M13 35H25L13 23V35Z" stroke="black" stroke-width="4" stroke-linecap="round" stroke-linejoin="round"/>
<path d="M30 44V41" stroke="black" stroke-width="4" stroke-linecap="round" stroke-linejoin="round"/>
<path d="M24 44V41" stroke="black" stroke-width="4" stroke-linecap="round" stroke-linejoin="round"/>
<path d="M18 44V41" stroke="black" stroke-width="4" stroke-linecap="round" stroke-linejoin="round"/>
<path d="M12 44V41" stroke="black" stroke-width="4" stroke-linecap="round" stroke-linejoin="round"/>
<path d="M4 36H7" stroke="black" stroke-width="4" stroke-linecap="round" stroke-linejoin="round"/>
<path d="M4 30H7" stroke="black" stroke-width="4" stroke-linecap="round" stroke-linejoin="round"/>
<path d="M4 24H7" stroke="black" stroke-width="4" stroke-linecap="round" stroke-linejoin="round"/>
<path d="M4 18H7" stroke="black" stroke-width="4" stroke-linecap="round" stroke-linejoin="round"/>
</svg>