<svg width="48" height="48" viewBox="0 0 48 48" fill="none" xmlns="http://www.w3.org/2000/svg">
<path d="M34 4H14C12 5 9 9 9 19C9 31.5 14 44 17 44C19 44 19 41.5 19 41.5V24C19 19 27 19.5 27 24V35C27 43 34 46 36 44C38 42 34 40 34 37C34 32 38 28 38 15C38 10 35.6667 6 34 4Z" fill="#2F88FF" stroke="black" stroke-width="4" stroke-linejoin="round"/>
<path d="M10 12H37" stroke="white" stroke-width="4" stroke-linecap="round" stroke-linejoin="round"/>
<path d="M10.8032 8C10.0707 9.69577 9.46541 11.9812 9.17871 15" stroke="black" stroke-width="4" stroke-linejoin="round"/>
<path d="M37.9995 15C37.9995 12.7719 37.5362 10.7424 36.875 9" stroke="black" stroke-width="4" stroke-linejoin="round"/>
</svg>