<svg width="48" height="48" viewBox="0 0 48 48" fill="none" xmlns="http://www.w3.org/2000/svg">
<path d="M36 33L42 4C42 4 31.5 6 31.5 10C31.5 12.5 35.5 14 34 15.5C32.5 17 27 18.5 27 22.5C27 25 28.6406 26.8594 27 28.5C25.5 30 24 29.2143 21.5 28.5C18.7 27.7 13 27 11 27.5C9 28 6.99997 29 7 32C7.00001 33.6492 8 35.5 10.5 36C13 36.5 16 34 20 34C24 34 29 37 32 37C35 37 36 33 36 33Z" fill="#2F88FF" stroke="black" stroke-width="4" stroke-linejoin="round"/>
<path d="M11 36L8 44H41L35 36" stroke="black" stroke-width="4" stroke-linejoin="round"/>
</svg>