<svg width="48" height="48" viewBox="0 0 48 48" fill="none" xmlns="http://www.w3.org/2000/svg">
<path d="M24 44C33.9411 44 42 35.9411 42 26C42 16.0589 33.9411 8 24 8C14.0589 8 6 16.0589 6 26C6 35.9411 14.0589 44 24 44Z" fill="#2F88FF" stroke="black" stroke-width="4" stroke-linejoin="round"/>
<path d="M24 8C23.75 7 22 4 18 4" stroke="black" stroke-width="4" stroke-linecap="round" stroke-linejoin="round"/>
<path d="M24 8C24.0833 7 24.6 4.8 26 4" stroke="black" stroke-width="4" stroke-linecap="round" stroke-linejoin="round"/>
<path d="M31 33C31 33 29 37 24 37C19 37 17 33 17 33" stroke="white" stroke-width="4" stroke-linecap="round" stroke-linejoin="round"/>
<path d="M31 33C31 33 32.5 29 30 29C27.5 29 27 36 27 36" stroke="white" stroke-width="4" stroke-linecap="round" stroke-linejoin="round"/>
<path d="M33 21H29" stroke="white" stroke-width="4" stroke-linecap="round" stroke-linejoin="round"/>
<path d="M17 19V23" stroke="white" stroke-width="4" stroke-linecap="round" stroke-linejoin="round"/>
<path d="M4 24V28" stroke="black" stroke-width="4" stroke-linecap="round" stroke-linejoin="round"/>
<path d="M44 24V28" stroke="black" stroke-width="4" stroke-linecap="round" stroke-linejoin="round"/>
</svg>