<svg width="48" height="48" viewBox="0 0 48 48" fill="none" xmlns="http://www.w3.org/2000/svg">
<path d="M24 40C35.0457 40 44 32.8366 44 24C44 15.1634 35.0457 8 24 8C12.9543 8 4 15.1634 4 24C4 32.8366 12.9543 40 24 40Z" stroke="black" stroke-width="4" stroke-linejoin="round"/>
<path d="M24 28C29.5228 28 34 25.3137 34 22C34 18.6863 29.5228 16 24 16C18.4772 16 14 18.6863 14 22C14 25.3137 18.4772 28 24 28Z" fill="#2F88FF" stroke="black" stroke-width="4" stroke-linejoin="round"/>
<path d="M24 16V8" stroke="black" stroke-width="4" stroke-linecap="round" stroke-linejoin="round"/>
<path d="M32 18C32 18 34.625 14 39 14" stroke="black" stroke-width="4" stroke-linecap="round" stroke-linejoin="round"/>
<path d="M16 18C16 18 14 14 9 14" stroke="black" stroke-width="4" stroke-linecap="round" stroke-linejoin="round"/>
<path d="M18 27C18 27 12 29 11 36" stroke="black" stroke-width="4" stroke-linecap="round" stroke-linejoin="round"/>
<path d="M30 27C30 27 36.5 29 37 36" stroke="black" stroke-width="4" stroke-linecap="round" stroke-linejoin="round"/>
</svg>