<svg width="48" height="48" viewBox="0 0 48 48" fill="none" xmlns="http://www.w3.org/2000/svg">
<path d="M8.00684 19.1972C12.4432 10.3245 22 7 28.5068 4.19687C31.4644 2.92276 32.196 7.72301 31.0068 10.6966C30.0068 13.1972 28.0068 16 28.0068 16H36.5068C38.4398 16 40.0068 17.567 40.0068 19.5C40.0068 21.433 38.4398 23 36.5068 23H38.5068C40.4398 23 42.0068 24.567 42.0068 26.5C42.0068 28.433 40.4398 30 38.5068 30H34.5068C36.4398 30 38.0068 31.567 38.0068 33.5C38.0068 35.433 36.4398 37 34.5068 37H31.5068C33.4398 37 35.0068 38.567 35.0068 40.5C35.0068 42.433 33.4413 44 31.5083 44H19.0068C15.5068 44 11.0068 42.1972 8.00684 37.1969C5.13102 32.4035 5.00684 25.1972 8.00684 19.1972Z" fill="#2F88FF" stroke="black" stroke-width="4" stroke-linecap="round" stroke-linejoin="round"/>
</svg>
