<svg width="48" height="48" viewBox="0 0 48 48" fill="none" xmlns="http://www.w3.org/2000/svg">
<path d="M20 33L26 35C26 35 41 32 43 32C45 32 45 34 43 36C41 38 34 44 28 44C22 44 18 41 14 41C10 41 4 41 4 41" stroke="black" stroke-width="4" stroke-linecap="round" stroke-linejoin="round"/>
<path d="M4 29C6 27 10 24 14 24C18 24 27.5 28 29 30C30.5 32 26 35 26 35" stroke="black" stroke-width="4" stroke-linecap="round" stroke-linejoin="round"/>
<circle cx="34" cy="22" r="3" fill="#2F88FF" stroke="black" stroke-width="4"/>
<circle cx="22" cy="15" r="3" fill="#2F88FF" stroke="black" stroke-width="4"/>
<circle cx="34" cy="7" r="3" fill="#2F88FF" stroke="black" stroke-width="4"/>
</svg>