<svg width="48" height="48" viewBox="0 0 48 48" fill="none" xmlns="http://www.w3.org/2000/svg">
<path d="M24 44C29.9601 44 26.3359 35.136 30 31C33.1264 27.4709 44 29.0856 44 24C44 12.9543 35.0457 4 24 4C12.9543 4 4 12.9543 4 24C4 35.0457 12.9543 44 24 44Z" fill="#2F88FF" stroke="black" stroke-width="4" stroke-linejoin="round"/>
<path d="M28 17C29.6569 17 31 15.6569 31 14C31 12.3431 29.6569 11 28 11C26.3431 11 25 12.3431 25 14C25 15.6569 26.3431 17 28 17Z" fill="#43CCF8" stroke="white" stroke-width="4" stroke-linejoin="round"/>
<path d="M16 21C17.6569 21 19 19.6569 19 18C19 16.3431 17.6569 15 16 15C14.3431 15 13 16.3431 13 18C13 19.6569 14.3431 21 16 21Z" fill="#43CCF8" stroke="white" stroke-width="4" stroke-linejoin="round"/>
<path d="M17 34C18.6569 34 20 32.6569 20 31C20 29.3431 18.6569 28 17 28C15.3431 28 14 29.3431 14 31C14 32.6569 15.3431 34 17 34Z" fill="#43CCF8" stroke="white" stroke-width="4" stroke-linejoin="round"/>
</svg>