<svg width="48" height="48" viewBox="0 0 48 48" fill="none" xmlns="http://www.w3.org/2000/svg">
<path d="M37 16C39.7614 16 42 13.7614 42 11C42 8.23858 39.7614 6 37 6C34.2386 6 32 8.23858 32 11C32 13.7614 34.2386 16 37 16Z" fill="#2F88FF" stroke="black" stroke-width="4" stroke-linejoin="round"/>
<path d="M11 42C13.7614 42 16 39.7614 16 37C16 34.2386 13.7614 32 11 32C8.23858 32 6 34.2386 6 37C6 39.7614 8.23858 42 11 42Z" fill="#2F88FF" stroke="black" stroke-width="4" stroke-linejoin="round"/>
<path d="M37 16V35.5042C37 39.0917 34.0917 42 30.5042 42V42C26.9166 42 24.0083 39.0917 24.0083 35.5042V12.5042C24.0083 8.91201 21.0963 6 17.5042 6V6C13.912 6 11 8.91201 11 12.5042L11 32" stroke="black" stroke-width="4" stroke-linecap="round" stroke-linejoin="round"/>
</svg>