<svg width="48" height="48" viewBox="0 0 48 48" fill="none" xmlns="http://www.w3.org/2000/svg">
<path d="M37 12C39.2091 12 41 10.2091 41 8C41 5.79086 39.2091 4 37 4C34.7909 4 33 5.79086 33 8C33 10.2091 34.7909 12 37 12Z" fill="#2F88FF" stroke="black" stroke-width="4" stroke-linejoin="round"/>
<path d="M11 12C13.2091 12 15 10.2091 15 8C15 5.79086 13.2091 4 11 4C8.79086 4 7 5.79086 7 8C7 10.2091 8.79086 12 11 12Z" fill="#2F88FF" stroke="black" stroke-width="4" stroke-linejoin="round"/>
<path d="M24 44C26.2091 44 28 42.2091 28 40C28 37.7909 26.2091 36 24 36C21.7909 36 20 37.7909 20 40C20 42.2091 21.7909 44 24 44Z" fill="#2F88FF" stroke="black" stroke-width="4" stroke-linejoin="round"/>
<path d="M11 12V15C11 22 24 25 24 32V36V32C24 25 37 22 37 15V12" stroke="black" stroke-width="4" stroke-linecap="round" stroke-linejoin="round"/>
</svg>