<svg width="48" height="48" viewBox="0 0 48 48" fill="none" xmlns="http://www.w3.org/2000/svg">
<path d="M13 8C14.5 8.00004 17.05 7.99905 18.0143 13.0614C18.989 18.1786 19.3286 22.8477 21 24" stroke="black" stroke-width="4" stroke-linecap="round" stroke-linejoin="round"/>
<path d="M35 40C33.5 40 30.95 40.001 29.9857 34.9386C29.011 29.8214 28.6714 25.1523 27 24.0001" stroke="black" stroke-width="4" stroke-linecap="round" stroke-linejoin="round"/>
<path d="M13 40C14.5 40 17.05 40.001 18.0143 34.9386C18.989 29.8214 19.3286 25.1523 21 24.0001" stroke="black" stroke-width="4" stroke-linecap="round" stroke-linejoin="round"/>
<path d="M35 8C33.5 8.00004 30.95 7.99905 29.9857 13.0614C29.011 18.1786 28.6714 22.8477 27 24" stroke="black" stroke-width="4" stroke-linecap="round" stroke-linejoin="round"/>
<circle r="4" transform="matrix(-1 0 0 1 21 24)" fill="black"/>
<circle r="4" transform="matrix(-1 0 0 1 27 24)" fill="black"/>
<path d="M21 24H13" stroke="black" stroke-width="4" stroke-linecap="round" stroke-linejoin="round"/>
<path d="M27 24L35 24" stroke="black" stroke-width="4" stroke-linecap="round" stroke-linejoin="round"/>
<path d="M7 24H5" stroke="black" stroke-width="4" stroke-linecap="round" stroke-linejoin="round"/>
<path d="M43 24H41" stroke="black" stroke-width="4" stroke-linecap="round" stroke-linejoin="round"/>
<path d="M7 8H5" stroke="black" stroke-width="4" stroke-linecap="round" stroke-linejoin="round"/>
<path d="M43 8H41" stroke="black" stroke-width="4" stroke-linecap="round" stroke-linejoin="round"/>
<path d="M7 40H5" stroke="black" stroke-width="4" stroke-linecap="round" stroke-linejoin="round"/>
<path d="M43 40H41" stroke="black" stroke-width="4" stroke-linecap="round" stroke-linejoin="round"/>
</svg>