<svg width="48" height="48" viewBox="0 0 48 48" fill="none" xmlns="http://www.w3.org/2000/svg">
<rect width="48" height="48" fill="white" fill-opacity="0.01"/>
<path d="M23.9999 11.2727C26.0082 11.2727 27.6363 9.64467 27.6363 7.63636C27.6363 5.62806 26.0082 4 23.9999 4C21.9916 4 20.3635 5.62806 20.3635 7.63636C20.3635 9.64467 21.9916 11.2727 23.9999 11.2727Z" fill="#2F88FF" stroke="black" stroke-width="4" stroke-linejoin="round"/>
<path d="M23.9999 44C26.0082 44 27.6363 42.372 27.6363 40.3637C27.6363 38.3554 26.0082 36.7273 23.9999 36.7273C21.9916 36.7273 20.3635 38.3554 20.3635 40.3637C20.3635 42.372 21.9916 44 23.9999 44Z" fill="#2F88FF" stroke="black" stroke-width="4" stroke-linejoin="round"/>
<path d="M7.63636 27.6363C9.64467 27.6363 11.2727 26.0082 11.2727 23.9999C11.2727 21.9916 9.64467 20.3635 7.63636 20.3635C5.62806 20.3635 4 21.9916 4 23.9999C4 26.0082 5.62806 27.6363 7.63636 27.6363Z" fill="#2F88FF" stroke="black" stroke-width="4" stroke-linejoin="round"/>
<path d="M40.3637 27.6363C42.372 27.6363 44 26.0082 44 23.9999C44 21.9916 42.372 20.3635 40.3637 20.3635C38.3554 20.3635 36.7273 21.9916 36.7273 23.9999C36.7273 26.0082 38.3554 27.6363 40.3637 27.6363Z" fill="#2F88FF" stroke="black" stroke-width="4" stroke-linejoin="round"/>
<path d="M32.7339 10.1597C34.7916 11.4609 36.539 13.2084 37.8403 15.266" stroke="black" stroke-width="4" stroke-linecap="round" stroke-linejoin="round"/>
<path d="M37.8403 32.7339C36.539 34.7916 34.7916 36.539 32.7339 37.8403" stroke="black" stroke-width="4" stroke-linecap="round" stroke-linejoin="round"/>
<path d="M15.266 37.8403C13.2084 36.539 11.4609 34.7916 10.1597 32.7339" stroke="black" stroke-width="4" stroke-linecap="round" stroke-linejoin="round"/>
<path d="M10.1597 15.266C11.4609 13.2084 13.2084 11.4609 15.266 10.1597" stroke="black" stroke-width="4" stroke-linecap="round" stroke-linejoin="round"/>
</svg>
