<svg width="48" height="48" viewBox="0 0 48 48" fill="none" xmlns="http://www.w3.org/2000/svg">
<path d="M24.0004 11.619C26.0933 11.619 27.7899 9.91347 27.7899 7.80952C27.7899 5.70558 26.0933 4 24.0004 4C21.9075 4 20.2109 5.70558 20.2109 7.80952C20.2109 9.91347 21.9075 11.619 24.0004 11.619Z" fill="#2F88FF" stroke="black" stroke-width="4" stroke-linejoin="round"/>
<path d="M9.78947 40.1906C11.8823 40.1906 13.5789 38.485 13.5789 36.3811C13.5789 34.2771 11.8823 32.5715 9.78947 32.5715C7.69661 32.5715 6 34.2771 6 36.3811C6 38.485 7.69661 40.1906 9.78947 40.1906Z" fill="#2F88FF" stroke="black" stroke-width="4" stroke-linejoin="round"/>
<path d="M38.2104 40.1906C40.3032 40.1906 41.9998 38.485 41.9998 36.3811C41.9998 34.2771 40.3032 32.5715 38.2104 32.5715C36.1175 32.5715 34.4209 34.2771 34.4209 36.3811C34.4209 38.485 36.1175 40.1906 38.2104 40.1906Z" fill="#2F88FF" stroke="black" stroke-width="4" stroke-linejoin="round"/>
<path d="M33.1426 10.3142C38.444 13.4629 41.9999 19.2664 41.9999 25.9048C41.9999 26.4816 41.9731 27.0522 41.9206 27.6152V27.6152" stroke="black" stroke-width="4" stroke-linecap="round" stroke-linejoin="round"/>
<path d="M31.014 42.575C28.8585 43.4926 26.4883 44.0001 24.0001 44.0001C21.512 44.0001 19.1418 43.4926 16.9863 42.575" stroke="black" stroke-width="4" stroke-linecap="round" stroke-linejoin="round"/>
<path d="M6.07936 27.6152C6.02685 27.0522 6 26.4816 6 25.9048C6 19.2664 9.5559 13.4629 14.8573 10.3142" stroke="black" stroke-width="4" stroke-linecap="round" stroke-linejoin="round"/>
</svg>