<?xml version="1.0" encoding="UTF-8"?>
<svg width="48px" height="48px" viewBox="0 0 48 48" version="1.1" xmlns="http://www.w3.org/2000/svg" xmlns:xlink="http://www.w3.org/1999/xlink">
    <!-- Generator: Sketch 55.2 (78181) - https://sketchapp.com -->
    <title>anchor1</title>
    <desc>Created with Sketch.</desc>
    <g id="anchor1" stroke="none" stroke-width="1" fill="none" fill-rule="evenodd" stroke-linejoin="round">
        <g id="编组" transform="translate(4.000000, 4.000000)" stroke="#000000" stroke-width="4">
            <path d="M32,36 L28,36 L20,36 L12,36 L8,36 M4,32 L4,28 L4,20 L4,12 L4,8 M8,4 L12,4 L20,4 L28,4 L32,4 M36,8 L36,12 L36,20 L36,28 L36,32" id="形状" stroke-linecap="round"></path>
            <rect id="矩形" fill="#2F88FF" fill-rule="nonzero" x="32" y="0" width="8" height="8" rx="2"></rect>
            <rect id="矩形" fill="#2F88FF" fill-rule="nonzero" x="0" y="0" width="8" height="8" rx="2"></rect>
            <rect id="矩形" fill="#2F88FF" fill-rule="nonzero" x="32" y="32" width="8" height="8" rx="2"></rect>
            <rect id="矩形" fill="#2F88FF" fill-rule="nonzero" x="0" y="32" width="8" height="8" rx="2"></rect>
        </g>
    </g>
</svg>