<svg width="48" height="48" viewBox="0 0 48 48" fill="none" xmlns="http://www.w3.org/2000/svg">
<g id="Others/at-sign">
<rect width="48" height="48" fill="white" fill-opacity="0.01"/>
<g id="at-sign">
<path id="&#232;&#183;&#175;&#229;&#190;&#132;" d="M44 24C44 12.9543 35.0457 4 24 4C12.9543 4 4 12.9543 4 24C4 35.0457 12.9543 44 24 44V44C28.9886 44 33.5507 42.1735 37.0539 39.1529" stroke="black" stroke-width="4" stroke-linecap="round" stroke-linejoin="round"/>
<path id="&#230;&#164;&#173;&#229;&#156;&#134;&#229;&#189;&#162;" d="M24 32C28.4183 32 32 28.4183 32 24C32 19.5817 28.4183 16 24 16C19.5817 16 16 19.5817 16 24C16 28.4183 19.5817 32 24 32Z" fill="#2F88FF" stroke="black" stroke-width="4" stroke-linejoin="round"/>
<path id="&#232;&#183;&#175;&#229;&#190;&#132;_2" d="M32 24C32 27.3137 34.6863 30 38 30V30C41.3137 30 44 27.3137 44 24" stroke="black" stroke-width="4" stroke-linecap="round" stroke-linejoin="round"/>
<path id="&#232;&#183;&#175;&#229;&#190;&#132; 26" d="M32 25V16" stroke="black" stroke-width="4" stroke-linecap="round" stroke-linejoin="round"/>
</g>
</g>
</svg>
