<?xml version="1.0" encoding="UTF-8"?>
<svg width="48px" height="48px" viewBox="0 0 48 48" version="1.1" xmlns="http://www.w3.org/2000/svg" xmlns:xlink="http://www.w3.org/1999/xlink">
    <!-- Generator: Sketch 55.2 (78181) - https://sketchapp.com -->
    <title>battery-charge</title>
    <desc>Created with Sketch.</desc>
    <g id="battery-charge" stroke="none" stroke-width="1" fill="none" fill-rule="evenodd">
        <g id="编组" transform="translate(4.000000, 14.000000)">
            <path d="M27,0 L33.75,0 C34.9926407,0 36,0.994922778 36,2.22222222 L36,17.7777778 C36,19.0050772 34.9926407,20 33.75,20 L27,20 M9,20 L2.25,20 C1.00735931,20 0,19.0050772 0,17.7777778 L0,2.22222222 C0,0.994922778 1.00735931,0 2.25,0 L2.25,0 L9,0" id="形状" stroke="#000000" stroke-width="4" stroke-linecap="round" stroke-linejoin="round"></path>
            <polyline id="路径-13" stroke="#000000" stroke-width="4" stroke-linecap="round" stroke-linejoin="round" points="18.001986 0 13 10.0011902 23.003972 10.0011902 18 20"></polyline>
            <path d="M38,6 L40,6 C41.1045695,6 42,6.8954305 42,8 L42,12 C42,13.1045695 41.1045695,14 40,14 L38,14 L38,6 Z" id="矩形" fill="#000000"></path>
        </g>
    </g>
</svg>