<?xml version="1.0" encoding="UTF-8"?>
<svg width="48px" height="48px" viewBox="0 0 48 48" version="1.1" xmlns="http://www.w3.org/2000/svg" xmlns:xlink="http://www.w3.org/1999/xlink">
    <!-- Generator: Sketch 55.1 (78136) - https://sketchapp.com -->
    <title>book2</title>
    <desc>Created with Sketch.</desc>
    <g id="book2" stroke="none" stroke-width="1" fill="none" fill-rule="evenodd" stroke-linejoin="round">
        <path d="M6,37 C6,31.8644935 6,23.1978268 6,11 C6,7.6862915 8.6862915,5 12,5 L36,5 L36,31 C23.4884079,31 15.4884079,31 12,31 C8.7,31 6,33.6841949 6,37 Z" id="Rectangle" stroke="#000000" stroke-width="4" fill="#2F88FF" fill-rule="nonzero"></path>
        <path d="M36,31 C20.7691304,31 12.7691304,31 12,31 C8.6862915,31 6,33.6862915 6,37 C6,40.3137085 8.6862915,43 12,43 C14.209139,43 26.8758057,43 42,43 L42,7" id="Oval-2" stroke="#000000" stroke-width="4" stroke-linecap="round"></path>
        <path d="M13,37 L35,37" id="Path-431" stroke="#000000" stroke-width="4" stroke-linecap="round"></path>
    </g>
</svg>