<?xml version="1.0" encoding="UTF-8"?>
<svg width="48px" height="48px" viewBox="0 0 48 48" version="1.1" xmlns="http://www.w3.org/2000/svg" xmlns:xlink="http://www.w3.org/1999/xlink">
    <!-- Generator: Sketch 55.2 (78181) - https://sketchapp.com -->
    <title>bowl</title>
    <desc>Created with Sketch.</desc>
    <g id="bowl" stroke="none" stroke-width="1" fill="none" fill-rule="evenodd" stroke-linejoin="round">
        <g id="编组" transform="translate(6.000000, 4.000000)" stroke="#000000" stroke-width="4">
            <path d="M26,40 C26,37.4236509 26.0005055,36.1330532 26.0015164,36.128207 C26.6986674,35.7816704 27.3701651,35.3912627 28.012397,34.9605962 C28.9895643,34.3053295 29.8989807,33.5568634 30.7279221,32.7279221 C33.9852814,29.4705627 36,24.9705627 36,20 C36,20 0,20 0,20 C0,24.9705627 2.01471863,29.4705627 5.27207794,32.7279221 C6.10860642,33.5644505 7.02708995,34.319024 8.01445158,34.9785654 C8.65304309,35.4051341 9.3204467,35.7919504 10.0131245,36.1354763 C10.0131245,36.1354763 10.0087497,37.4236509 10,40 L26,40 Z" id="椭圆形" fill="#2F88FF" fill-rule="nonzero"></path>
            <path d="M18,14.0083363 L18,4" id="路径-6" stroke-linecap="round"></path>
            <path d="M30,14.0083363 L30,8" id="路径-6" stroke-linecap="round"></path>
            <path d="M6,14.0083363 L6,8" id="路径-6" stroke-linecap="round"></path>
            <path d="M34,4 C31.790861,4 30,5.790861 30,8" id="路径" stroke-linecap="round"></path>
            <path d="M22,0 C19.790861,0 18,1.790861 18,4" id="路径" stroke-linecap="round"></path>
            <path d="M10,4 C7.790861,4 6,5.790861 6,8" id="路径" stroke-linecap="round"></path>
        </g>
    </g>
</svg>