<svg width="48" height="48" viewBox="0 0 48 48" fill="none" xmlns="http://www.w3.org/2000/svg">
<g id="Base/close-wifi">
<path d="M0 0H48V48H0V0Z" fill="white" fill-opacity="0.01"/>
<g id="&#231;&#188;&#150;&#231;&#187;&#132;">
<path id="Combined Shape" d="M4.00001 18.9653C4.58881 18.4073 5.19523 17.8786 5.81741 17.3792C6.36643 16.9386 6.92771 16.5208 7.5 16.1258M44 18.9653C37.2253 12.545 28.1189 10.0059 19.5 11.3481" stroke="black" stroke-width="4" stroke-linecap="round" stroke-linejoin="round"/>
<path id="Oval" d="M38 25.7992C35.2866 23.0858 31.9815 21.3246 28.5 20.5156M10 25.7992C11.3276 24.4716 12.7969 23.3719 14.3591 22.5002" stroke="black" stroke-width="4" stroke-linecap="round" stroke-linejoin="round"/>
<path id="Oval_2" d="M16 32.3136C17.4388 30.8748 19.1686 29.9046 21 29.4028" stroke="black" stroke-width="4" stroke-linecap="round" stroke-linejoin="round"/>
<path id="Oval 11 Copy 3" fill-rule="evenodd" clip-rule="evenodd" d="M24 40C25.3807 40 26.5 38.8807 26.5 37.5C26.5 36.1193 25.3807 35 24 35C22.6193 35 21.5 36.1193 21.5 37.5C21.5 38.8807 22.6193 40 24 40Z" fill="black"/>
<path id="Vector 62" d="M40 40L8 8" stroke="black" stroke-width="4" stroke-linecap="round" stroke-linejoin="round"/>
</g>
</g>
</svg>
