<svg width="48" height="48" viewBox="0 0 48 48" fill="none" xmlns="http://www.w3.org/2000/svg">
<rect width="48" height="48" fill="white" fill-opacity="0.01"/>
<path d="M9.45455 14.9091C10.5023 14.9091 12.3205 14.9091 14.9091 14.9091C14.9091 12.2333 14.9091 10.4151 14.9091 9.45455C14.9091 6.44208 12.467 4 9.45455 4C6.44208 4 4 6.44208 4 9.45455C4 12.467 6.44208 14.9091 9.45455 14.9091Z" fill="#2F88FF" stroke="black" stroke-width="4" stroke-linejoin="round"/>
<path d="M9.45455 33.0908H14.9091V38.5454C14.9091 41.5578 12.467 43.9999 9.45455 43.9999C6.44208 43.9999 4 41.5578 4 38.5454C4 35.5329 6.44208 33.0908 9.45455 33.0908Z" fill="#2F88FF" stroke="black" stroke-width="4" stroke-linejoin="round"/>
<rect x="14.9092" y="14.9092" width="18.1818" height="18.1818" stroke="black" stroke-width="4" stroke-linecap="round" stroke-linejoin="round"/>
<path d="M38.5454 14.9091H33.0908V9.45455C33.0908 6.44208 35.5329 4 38.5454 4C41.5578 4 43.9999 6.44208 43.9999 9.45455C43.9999 12.467 41.5578 14.9091 38.5454 14.9091Z" fill="#2F88FF" stroke="black" stroke-width="4" stroke-linejoin="round"/>
<path d="M38.5454 33.0908C41.5578 33.0908 43.9999 35.5329 43.9999 38.5454C43.9999 41.5578 41.5578 43.9999 38.5454 43.9999C35.5329 43.9999 33.0908 41.5578 33.0908 38.5454V33.0908H38.5454Z" fill="#2F88FF" stroke="black" stroke-width="4" stroke-linejoin="round"/>
</svg>
