<?xml version="1.0" encoding="UTF-8"?>
<svg width="48px" height="48px" viewBox="0 0 48 48" version="1.1" xmlns="http://www.w3.org/2000/svg" xmlns:xlink="http://www.w3.org/1999/xlink">
    <!-- Generator: Sketch 55.2 (78181) - https://sketchapp.com -->
    <title>command</title>
    <desc>Created with Sketch.</desc>
    <g id="command" stroke="none" stroke-width="1" fill="none" fill-rule="evenodd" stroke-linejoin="round">
        <g id="编组-2" transform="translate(4.000000, 4.000000)" stroke="#000000" stroke-width="4">
            <path d="M5.45454545,10.9090909 C6.50229041,10.9090909 8.32047227,10.9090909 10.9090909,10.9090909 C10.9090909,8.23329045 10.9090909,6.41510868 10.9090909,5.45454545 C10.9090909,2.44208318 8.46700773,0 5.45454545,0 C2.44208318,0 0,2.44208318 0,5.45454545 C0,8.46700773 2.44208318,10.9090909 5.45454545,10.9090909 Z" id="Oval" fill="#2F88FF" fill-rule="nonzero"></path>
            <path d="M5.45454545,29.0909091 L10.9090909,29.0909091 L10.9090909,34.5454545 C10.9090909,37.5579168 8.46700773,40 5.45454545,40 C2.44208318,40 0,37.5579168 0,34.5454545 C0,31.5329923 2.44208318,29.0909091 5.45454545,29.0909091 Z" id="Oval-Copy-2" fill="#2F88FF" fill-rule="nonzero"></path>
            <rect id="Rectangle" stroke-linecap="round" x="10.9090909" y="10.9090909" width="18.1818182" height="18.1818182"></rect>
            <path d="M34.5454545,10.9090909 L29.0909091,10.9090909 L29.0909091,5.45454545 C29.0909091,2.44208318 31.5329923,0 34.5454545,0 C37.5579168,0 40,2.44208318 40,5.45454545 C40,8.46700773 37.5579168,10.9090909 34.5454545,10.9090909 Z" id="Oval-Copy" fill="#2F88FF" fill-rule="nonzero"></path>
            <path d="M34.5454545,29.0909091 C37.5579168,29.0909091 40,31.5329923 40,34.5454545 C40,37.5579168 37.5579168,40 34.5454545,40 C31.5329923,40 29.0909091,37.5579168 29.0909091,34.5454545 L29.0909091,29.0909091 L34.5454545,29.0909091 Z" id="Oval-Copy-3" fill="#2F88FF" fill-rule="nonzero"></path>
        </g>
    </g>
</svg>