<svg width="48" height="48" viewBox="0 0 48 48" fill="none" xmlns="http://www.w3.org/2000/svg">
<rect width="48" height="48" fill="white" fill-opacity="0.01"/>
<path d="M12 9.92704V7C12 5.34315 13.3431 4 15 4H41C42.6569 4 44 5.34315 44 7V33C44 34.6569 42.6569 36 41 36H38.0174" stroke="black" stroke-width="4"/>
<rect x="4" y="10" width="34" height="34" rx="3" fill="#09C8E2"/>
<rect x="4" y="10" width="34" height="34" rx="3" fill="#2F88FF"/>
<rect x="4" y="10" width="34" height="34" rx="3" stroke="black" stroke-width="4" stroke-linejoin="round"/>
<path d="M18.4394 23.1098L23.7319 17.6002C25.1835 16.1486 27.5691 16.1805 29.0602 17.6716C30.5513 19.1627 30.5833 21.5483 29.1316 22.9999L27.2215 25.0228" stroke="white" stroke-width="4" stroke-linecap="round" stroke-linejoin="round"/>
<path d="M13.4661 28.7469C12.9558 29.2573 11.9006 30.2762 11.9006 30.2762C10.4489 31.7279 10.4095 34.3152 11.9006 35.8063C13.3917 37.2974 15.7772 37.3294 17.2289 35.8777L22.3931 31.1894" stroke="white" stroke-width="4" stroke-linecap="round" stroke-linejoin="round"/>
<path d="M18.6626 28.3283C17.97 27.6357 17.5922 26.7501 17.5317 25.8547C17.4619 24.8225 17.8138 23.7773 18.5912 23" stroke="white" stroke-width="4" stroke-linecap="round" stroke-linejoin="round"/>
<path d="M22.3213 25.8611C23.8124 27.3522 23.8444 29.7377 22.3927 31.1894" stroke="white" stroke-width="4" stroke-linecap="round" stroke-linejoin="round"/>
</svg>
