<?xml version="1.0" encoding="UTF-8"?>
<svg width="48px" height="48px" viewBox="0 0 48 48" version="1.1" xmlns="http://www.w3.org/2000/svg" xmlns:xlink="http://www.w3.org/1999/xlink">
    <!-- Generator: Sketch 55.2 (78181) - https://sketchapp.com -->
    <title>coupon</title>
    <desc>Created with Sketch.</desc>
    <g id="coupon" stroke="none" stroke-width="1" fill="none" fill-rule="evenodd" stroke-linejoin="round">
        <g id="编组" transform="translate(4.000000, 8.000000)" stroke-width="4">
            <path d="M0,11.3129605 L0,0 L40,0 L40,11.3129605 C37.8814684,12.0679939 36.3636364,14.1052655 36.3636364,16.5 C36.3636364,18.8947345 37.8814684,20.9320061 40,21.6870395 L40,33 L0,33 L0,21.6870395 C2.11853159,20.9320061 3.63636364,18.8947345 3.63636364,16.5 C3.63636364,14.1052655 2.11853159,12.0679939 3.33066907e-16,11.3129605 Z" id="Combined-Shape" stroke="#000000" fill="#2F88FF" fill-rule="nonzero"></path>
            <polyline id="Path-359" stroke="#FFFFFF" stroke-linecap="round" points="14.5454545 6.41666667 20 11.9166667 25.4545455 6.41666667"></polyline>
            <path d="M13.6363636,13.75 L26.3636364,13.75" id="Path-360" stroke="#FFFFFF" stroke-linecap="round"></path>
            <path d="M13.6363636,20.1666667 L26.3636364,20.1666667" id="Path-360-Copy" stroke="#FFFFFF" stroke-linecap="round"></path>
            <path d="M20,13.75 L20,26.5833333" id="Path-361" stroke="#FFFFFF" stroke-linecap="round"></path>
        </g>
    </g>
</svg>