<svg width="48" height="48" viewBox="0 0 48 48" fill="none" xmlns="http://www.w3.org/2000/svg">
<rect width="48" height="48" fill="white" fill-opacity="0.01"/>
<path fill-rule="evenodd" clip-rule="evenodd" d="M6 11L11 6L24 19L37 6L42 11L29 24L42 37L37 42L24 29L11 42L6 37L19 24L6 11Z" fill="#09C8E2"/>
<path fill-rule="evenodd" clip-rule="evenodd" d="M6 11L11 6L24 19L37 6L42 11L29 24L42 37L37 42L24 29L11 42L6 37L19 24L6 11Z" fill="#2F88FF"/>
<path fill-rule="evenodd" clip-rule="evenodd" d="M6 11L11 6L24 19L37 6L42 11L29 24L42 37L37 42L24 29L11 42L6 37L19 24L6 11Z" stroke="black" stroke-width="4" stroke-linecap="round" stroke-linejoin="round"/>
</svg>
