<?xml version="1.0" encoding="UTF-8"?>
<svg width="48px" height="48px" viewBox="0 0 48 48" version="1.1" xmlns="http://www.w3.org/2000/svg" xmlns:xlink="http://www.w3.org/1999/xlink">
    <!-- Generator: Sketch 55.2 (78181) - https://sketchapp.com -->
    <title>financing2</title>
    <desc>Created with Sketch.</desc>
    <g id="financing2" stroke="none" stroke-width="1" fill="none" fill-rule="evenodd" stroke-linejoin="round">
        <g id="编组" transform="translate(5.052033, 4.000000)" stroke-width="4">
            <path d="M9.94796701,10.3845825 C12.6982518,11.4615275 15.7010296,12 18.9563003,12 C22.2040814,12 25.2013036,11.4615275 27.947967,10.3845825 C31.7678684,14.842682 34.8603352,20.2037563 37.2253676,26.4678053 C39.1761452,31.6346531 36.5690046,37.4046281 31.4021566,39.3554051 C30.2732912,39.7816156 29.0766075,40 27.8699624,40 L9.99999802,40 C4.47715162,39.999998 -7.74833473e-14,35.5228464 -7.81597009e-14,30 C-7.83075385e-14,28.7928149 0.218579974,27.5956046 0.645162747,26.4663026 C3.0003292,20.2314184 6.10126395,14.870845 9.94796701,10.3845825 Z" id="矩形" stroke="#000000" fill="#2F88FF" fill-rule="nonzero"></path>
            <path d="M12.947967,24 L24.947967,24" id="路径-16" stroke="#FFFFFF" stroke-linecap="round"></path>
            <path d="M12.947967,30 L24.947967,30" id="路径-16" stroke="#FFFFFF" stroke-linecap="round"></path>
            <path d="M18.9563003,24 L18.9563003,34" id="路径-17" stroke="#FFFFFF" stroke-linecap="round"></path>
            <polyline id="路径-18" stroke="#FFFFFF" stroke-linecap="round" transform="translate(18.947967, 21.000000) rotate(90.000000) translate(-18.947967, -21.000000) " points="15.947967 15 21.947967 21 15.947967 27"></polyline>
            <ellipse id="椭圆形" stroke="#000000" stroke-linecap="round" cx="18.947967" cy="6" rx="13" ry="6"></ellipse>
        </g>
    </g>
</svg>