<svg width="48" height="48" viewBox="0 0 48 48" fill="none" xmlns="http://www.w3.org/2000/svg">
<rect width="48" height="48" fill="white" fill-opacity="0.01"/>
<path d="M4 9C4 7.89543 4.89543 7 6 7H19L24 13H42C43.1046 13 44 13.8954 44 15V39C44 40.1046 43.1046 41 42 41H6C4.89543 41 4 40.1046 4 39V9Z" fill="#09C8E2"/>
<path d="M4 9C4 7.89543 4.89543 7 6 7H19L24 13H42C43.1046 13 44 13.8954 44 15V39C44 40.1046 43.1046 41 42 41H6C4.89543 41 4 40.1046 4 39V9Z" fill="#2F88FF"/>
<path d="M4 9C4 7.89543 4.89543 7 6 7H19L24 13H42C43.1046 13 44 13.8954 44 15V39C44 40.1046 43.1046 41 42 41H6C4.89543 41 4 40.1046 4 39V9Z" stroke="black" stroke-width="4" stroke-linejoin="round"/>
<path d="M31.0277 26.9724L24 34.0001L16.988 26.9881" stroke="white" stroke-width="4" stroke-linecap="round" stroke-linejoin="round"/>
<path d="M24 20V33.5" stroke="white" stroke-width="4" stroke-linecap="round" stroke-linejoin="round"/>
</svg>
