<svg width="48" height="48" viewBox="0 0 48 48" fill="none" xmlns="http://www.w3.org/2000/svg">
<g id="base/folder-close">
<path d="M0 0H48V48H0V0Z" fill="white" fill-opacity="0.01"/>
<g id="Rectangle">
<path d="M4 9C4 7.89543 4.89543 7 6 7H19L24 13H42C43.1046 13 44 13.8954 44 15V22V39C44 40.1046 43.1046 41 42 41H6C4.89543 41 4 40.1046 4 39V22V9Z" fill="#2F88FF"/>
<path d="M44 22V15C44 13.8954 43.1046 13 42 13H24L19 7H6C4.89543 7 4 7.89543 4 9V22M44 22V39C44 40.1046 43.1046 41 42 41H6C4.89543 41 4 40.1046 4 39V22M44 22H4" stroke="black" stroke-width="4" stroke-linejoin="round"/>
</g>
</g>
</svg>
