<?xml version="1.0" encoding="UTF-8"?>
<svg width="48px" height="48px" viewBox="0 0 48 48" version="1.1" xmlns="http://www.w3.org/2000/svg" xmlns:xlink="http://www.w3.org/1999/xlink">
    <!-- Generator: Sketch 55.2 (78181) - https://sketchapp.com -->
    <title>folder-download</title>
    <desc>Created with Sketch.</desc>
    <g id="folder-download" stroke="none" stroke-width="1" fill="none" fill-rule="evenodd">
        <g id="编组-2">
            <g id="编组">
                <rect id="矩形" fill-opacity="0.01" fill="#FFFFFF" x="0" y="0" width="48" height="48"></rect>
                <path d="M6,7 L19,7 L24,13 L42,13 C43.1045695,13 44,13.8954305 44,15 L44,39 C44,40.1045695 43.1045695,41 42,41 L6,41 C4.8954305,41 4,40.1045695 4,39 L4,9 C4,7.8954305 4.8954305,7 6,7 Z" id="Rectangle" stroke="#000000" stroke-width="4" fill="#2F88FF" fill-rule="nonzero" stroke-linejoin="round"></path>
            </g>
            <g id="Group-3" transform="translate(16.000000, 20.000000)" stroke="#FFFFFF" stroke-linecap="round" stroke-linejoin="round" stroke-width="4">
                <polyline id="路径" transform="translate(8.007820, 10.486169) rotate(90.000000) translate(-8.007820, -10.486169) " points="4.49398915 3.46632702 11.5216513 10.4939892 4.5096296 17.5060108"></polyline>
                <path d="M1.25,6.75 L14.75,6.75" id="Path-11" transform="translate(8.000000, 6.750000) rotate(90.000000) translate(-8.000000, -6.750000) "></path>
            </g>
        </g>
    </g>
</svg>