<svg width="48" height="48" viewBox="0 0 48 48" fill="none" xmlns="http://www.w3.org/2000/svg">
<rect width="48" height="48" fill="#FBB0B0"/>
<path d="M4 7C4 5.34315 5.34315 4 7 4H24H41C42.6569 4 44 5.34315 44 7V24V41C44 42.6569 42.6569 44 41 44H24H7C5.34315 44 4 42.6569 4 41V24V7Z" fill="#2F88FF" stroke="black" stroke-width="4" stroke-linecap="round" stroke-linejoin="round"/>
<path d="M4 24H44" stroke="white" stroke-width="4" stroke-linecap="round" stroke-linejoin="round"/>
<path d="M24 44V4" stroke="white" stroke-width="4" stroke-linecap="round" stroke-linejoin="round"/>
<path d="M4 34V14" stroke="black" stroke-width="4" stroke-linecap="round" stroke-linejoin="round"/>
<path d="M44 34V14" stroke="black" stroke-width="4" stroke-linecap="round" stroke-linejoin="round"/>
<path d="M41 44H7" stroke="black" stroke-width="4" stroke-linecap="round" stroke-linejoin="round"/>
<path d="M41 4H7" stroke="black" stroke-width="4" stroke-linecap="round" stroke-linejoin="round"/>
<path d="M24.0002 23.9999C24.0002 23.9999 34.2663 19.3905 35.8284 17.8284C37.3905 16.2663 37.3905 13.7337 35.8284 12.1716C34.2663 10.6095 31.7337 10.6095 30.1716 12.1716C28.6095 13.7337 24.0002 23.9999 24.0002 23.9999ZM24.0002 23.9999C24.0002 23.9999 13.7337 19.3905 12.1716 17.8284M24.0002 23.9999C24.0002 23.9999 19.3905 13.7337 17.8284 12.1716M24.0002 23.9999C24.0002 23.9999 34.2661 28.6095 35.8282 30.1716M24.0002 23.9999C24.0002 23.9999 28.6093 34.2663 30.1714 35.8284M24.0002 23.9999C24.0002 23.9999 13.7339 28.6095 12.1718 30.1716C10.6097 31.7337 10.6097 34.2663 12.1718 35.8284C13.7339 37.3905 16.2666 37.3905 17.8287 35.8284C19.3908 34.2663 24.0002 23.9999 24.0002 23.9999Z" stroke="white" stroke-width="4" stroke-linecap="round" stroke-linejoin="round"/>
</svg>
