<?xml version="1.0" encoding="UTF-8"?>
<svg width="48px" height="48px" viewBox="0 0 48 48" version="1.1" xmlns="http://www.w3.org/2000/svg" xmlns:xlink="http://www.w3.org/1999/xlink">
    <!-- Generator: Sketch 55.2 (78181) - https://sketchapp.com -->
    <title>headset2</title>
    <desc>Created with Sketch.</desc>
    <g id="headset2" stroke="none" stroke-width="1" fill="none" fill-rule="evenodd" stroke-linejoin="round">
        <g id="编组" transform="translate(4.000000, 4.000000)" stroke="#000000" stroke-width="4">
            <path d="M32,28 L32,28 C36.418278,28 40,24.418278 40,20 C40,15.581722 36.418278,12 32,12" id="路径" fill="#2F88FF" fill-rule="nonzero"></path>
            <path d="M8,12 C3.581722,12 0,15.581722 0,20 C0,24.418278 3.581722,28 8,28 L8,28" id="路径" fill="#2F88FF" fill-rule="nonzero"></path>
            <path d="M8,28 L8,27.5 L8,25 L8,20 L8,12 C8,5.372583 13.372583,0 20,0 C26.627417,0 32,5.372583 32,12 L32,28 C32,34.627417 26.627417,40 20,40" id="路径" stroke-linecap="round"></path>
        </g>
    </g>
</svg>