<?xml version="1.0" encoding="UTF-8"?>
<svg width="48px" height="48px" viewBox="0 0 48 48" version="1.1" xmlns="http://www.w3.org/2000/svg" xmlns:xlink="http://www.w3.org/1999/xlink">
    <!-- Generator: Sketch 55.2 (78181) - https://sketchapp.com -->
    <title>headset1</title>
    <desc>Created with Sketch.</desc>
    <g id="headset1" stroke="none" stroke-width="1" fill="none" fill-rule="evenodd">
        <g id="编组" transform="translate(2.000000, 6.000000)">
            <path d="M40,24 L40,18.4615385 C40,8.26551231 31.9411255,0 22,0 C12.0588745,0 4,8.26551231 4,18.4615385 L4,24" id="形状" stroke="#000000" stroke-width="4" stroke-linecap="round" stroke-linejoin="round"></path>
            <path d="M36,22 L40,22 L40,36 L36,36 C33.790861,36 32,34.209139 32,32 L32,26 C32,23.790861 33.790861,22 36,22 Z" id="矩形" stroke="#000000" stroke-width="4" fill="#2F88FF" fill-rule="nonzero" stroke-linejoin="round"></path>
            <path d="M40,26 L42,26 C43.1045695,26 44,26.8954305 44,28 L44,30 C44,31.1045695 43.1045695,32 42,32 L40,32 L40,26 Z" id="矩形" fill="#000000"></path>
            <path d="M0,26 L2,26 C3.1045695,26 4,26.8954305 4,28 L4,30 C4,31.1045695 3.1045695,32 2,32 L0,32 L0,26 Z" id="矩形" fill="#000000" transform="translate(2.000000, 29.000000) scale(-1, 1) translate(-2.000000, -29.000000) "></path>
            <path d="M4,22 L8,22 C10.209139,22 12,23.790861 12,26 L12,32 C12,34.209139 10.209139,36 8,36 L4,36 L4,22 Z" id="矩形" stroke="#000000" stroke-width="4" fill="#2F88FF" fill-rule="nonzero" stroke-linejoin="round"></path>
        </g>
    </g>
</svg>