<?xml version="1.0" encoding="UTF-8"?>
<svg width="48px" height="48px" viewBox="0 0 48 48" version="1.1" xmlns="http://www.w3.org/2000/svg" xmlns:xlink="http://www.w3.org/1999/xlink">
    <!-- Generator: Sketch 55.1 (78136) - https://sketchapp.com -->
    <title>info</title>
    <desc>Created with Sketch.</desc>
    <g id="info" stroke="none" stroke-width="1" fill="none" fill-rule="evenodd">
        <g id="编组">
            <rect id="矩形" fill-opacity="0.01" fill="#FFFFFF" x="0" y="0" width="48" height="48"></rect>
            <path d="M24,44 C29.5228475,44 34.5228475,41.7614237 38.1421356,38.1421356 C41.7614237,34.5228475 44,29.5228475 44,24 C44,18.4771525 41.7614237,13.4771525 38.1421356,9.85786438 C34.5228475,6.23857625 29.5228475,4 24,4 C18.4771525,4 13.4771525,6.23857625 9.85786438,9.85786438 C6.23857625,13.4771525 4,18.4771525 4,24 C4,29.5228475 6.23857625,34.5228475 9.85786438,38.1421356 C13.4771525,41.7614237 18.4771525,44 24,44 Z" id="Oval-Copy" stroke="#000000" stroke-width="4" fill="#2F88FF" fill-rule="nonzero" stroke-linejoin="round"></path>
            <g id="Group-4" transform="translate(24.500000, 23.000000) scale(1, -1) translate(-24.500000, -23.000000) translate(21.000000, 11.000000)">
                <g id="Group-3">
                    <circle id="Oval" fill="#FFFFFF" cx="3" cy="21.5" r="2.5"></circle>
                    <g id="Group-5" transform="translate(0.000000, 0.500000)" stroke="#FFFFFF" stroke-linecap="round" stroke-linejoin="round" stroke-width="4">
                        <polyline id="Path-17" points="3.5 0.5 3.5 14.5 2.5 14.5 1.5 14.5"></polyline>
                        <path d="M0,0.5 L7,0.5" id="Path"></path>
                    </g>
                </g>
            </g>
        </g>
    </g>
</svg>