<?xml version="1.0" encoding="UTF-8"?>
<svg width="48px" height="48px" viewBox="0 0 48 48" version="1.1" xmlns="http://www.w3.org/2000/svg" xmlns:xlink="http://www.w3.org/1999/xlink">
    <!-- Generator: Sketch 55.1 (78136) - https://sketchapp.com -->
    <title>local</title>
    <desc>Created with Sketch.</desc>
    <g id="local" stroke="none" stroke-width="1" fill="none" fill-rule="evenodd">
        <g id="编组">
            <rect id="矩形" fill-opacity="0.01" fill="#FFFFFF" x="0" y="0" width="48" height="48"></rect>
            <path d="M9.85786438,32.7573593 C6.23857625,33.8431458 4,35.3431458 4,37 C4,40.3137085 12.954305,43 24,43 L24,43 C35.045695,43 44,40.3137085 44,37 C44,35.3431458 41.7614237,33.8431458 38.1421356,32.7573593" id="Path" stroke="#000000" stroke-width="4" stroke-linecap="round" stroke-linejoin="round"></path>
            <path d="M24,35 C32.6666667,29.3359832 37,23.2299226 37,16.6818182 C37,9.6778434 31.1797017,4 24,4 C16.8202983,4 11,9.6778434 11,16.6818182 C11,23.2299226 15.3333333,29.3359832 24,35 Z" id="Oval-22" stroke="#000000" stroke-width="4" fill="#2F88FF" fill-rule="nonzero" stroke-linejoin="round"></path>
            <circle id="Oval" stroke="#FFFFFF" stroke-width="4" fill="#43CCF8" fill-rule="nonzero" stroke-linejoin="round" cx="24" cy="17" r="5"></circle>
        </g>
    </g>
</svg>