<?xml version="1.0" encoding="UTF-8"?>
<svg width="48px" height="48px" viewBox="0 0 48 48" version="1.1" xmlns="http://www.w3.org/2000/svg" xmlns:xlink="http://www.w3.org/1999/xlink">
    <!-- Generator: Sketch 55.1 (78136) - https://sketchapp.com -->
    <title>male</title>
    <desc>Created with Sketch.</desc>
    <g id="male" stroke="none" stroke-width="1" fill="none" fill-rule="evenodd">
        <g id="编组" transform="translate(-1.000000, -4.809398)">
            <rect id="矩形" fill-opacity="0.01" fill="#FFFFFF" x="1" y="4.80939751" width="48" height="48"></rect>
            <g id="Group-2" transform="translate(26.809398, 27.000000) rotate(45.000000) translate(-26.809398, -27.000000) translate(12.309398, 4.000000)" stroke="#000000" stroke-linejoin="round" stroke-width="4">
                <polyline id="Path-30" stroke-linecap="round" transform="translate(14.500000, 6.535534) scale(-1, -1) rotate(-45.000000) translate(-14.500000, -6.535534) " points="10 2.03553391 10 11.0355339 19 11.0355339"></polyline>
                <path d="M14.7928932,45.0663889 C22.5248797,45.0663889 28.7928932,38.7983754 28.7928932,31.0663889 C28.7928932,27.2003957 27.2258898,23.7003957 24.6923882,21.166894 C22.1588865,18.6333923 18.6588865,17.0663889 14.7928932,17.0663889 C7.06090672,17.0663889 0.792893219,23.3344024 0.792893219,31.0663889 C0.792893219,38.7983754 7.06090672,45.0663889 14.7928932,45.0663889 Z" id="Oval" fill="#2F88FF" fill-rule="nonzero"></path>
                <path d="M14.5,17.0735931 L14.5,3" id="Path-44" stroke-linecap="round"></path>
            </g>
        </g>
    </g>
</svg>