<?xml version="1.0" encoding="UTF-8"?>
<svg width="48px" height="48px" viewBox="0 0 48 48" version="1.1" xmlns="http://www.w3.org/2000/svg" xmlns:xlink="http://www.w3.org/1999/xlink">
    <!-- Generator: Sketch 55.2 (78181) - https://sketchapp.com -->
    <title>map-distance</title>
    <desc>Created with Sketch.</desc>
    <g id="map-distance" stroke="none" stroke-width="1" fill="none" fill-rule="evenodd">
        <g id="编组">
            <rect id="矩形" fill-opacity="0.01" fill="#FFFFFF" x="0" y="0" width="48" height="48"></rect>
            <rect id="Rectangle-4-Copy" stroke="#000000" stroke-width="4" fill="#2F88FF" fill-rule="nonzero" stroke-linejoin="round" x="4" y="4" width="40" height="40" rx="3"></rect>
            <path d="M12,38 L37,28" id="Path-11-Copy-4" stroke="#FFFFFF" stroke-width="4" stroke-linecap="round" stroke-linejoin="round" stroke-dasharray="2,6"></path>
            <path d="M14,31 C16.6666667,27.139426 18,24.4727593 18,23 C18,20.790861 16.209139,19 14,19 C11.790861,19 10,20.790861 10,23 C10,24.4727593 11.3333333,27.139426 14,31 Z" id="Oval-6-Copy" stroke="#FFFFFF" stroke-width="4" fill="#43CCF8" fill-rule="nonzero" stroke-linejoin="round"></path>
            <path d="M34,22 C36.6666667,18.139426 38,15.4727593 38,14 C38,11.790861 36.209139,10 34,10 C31.790861,10 30,11.790861 30,14 C30,15.4727593 31.3333333,18.139426 34,22 Z" id="Oval-6-Copy" stroke="#FFFFFF" stroke-width="4" fill="#43CCF8" fill-rule="nonzero" stroke-linejoin="round"></path>
        </g>
    </g>
</svg>
