<?xml version="1.0" encoding="UTF-8"?>
<svg width="48px" height="48px" viewBox="0 0 48 48" version="1.1" xmlns="http://www.w3.org/2000/svg" xmlns:xlink="http://www.w3.org/1999/xlink">
    <!-- Generator: Sketch 55.1 (78136) - https://sketchapp.com -->
    <title>music1</title>
    <desc>Created with Sketch.</desc>
    <g id="music1" stroke="none" stroke-width="1" fill="none" fill-rule="evenodd">
        <rect id="矩形" fill-opacity="0.01" fill="#FFFFFF" x="0" y="0" width="48" height="48"></rect>
        <path d="M33.5,31 L41,31 L41,34.4 C41,36.3882251 39.3882251,38 37.4,38 L33.5,38 C31.5670034,38 30,36.4329966 30,34.5 C30,32.5670034 31.5670034,31 33.5,31 Z" id="Rectangle-Copy" stroke="#000000" stroke-width="4" fill="#2F88FF" fill-rule="nonzero" stroke-linejoin="round"></path>
        <path d="M9.5,35 L16,35 L16,38.4 C16,40.3882251 14.3882251,42 12.4,42 L9.5,42 C7.56700338,42 6,40.4329966 6,38.5 C6,36.5670034 7.56700338,35 9.5,35 Z" id="Rectangle-Copy-4" stroke="#000000" stroke-width="4" fill="#2F88FF" fill-rule="nonzero" stroke-linejoin="round"></path>
        <polyline id="路径" stroke="#000000" stroke-width="4" stroke-linecap="round" stroke-linejoin="round" points="16 18.0440457 16 18.0440457 41 12.125"></polyline>
        <polyline id="Path-36" stroke="#000000" stroke-width="4" stroke-linecap="round" stroke-linejoin="round" points="16 38 16 10 41 4 41 33.692395"></polyline>
    </g>
</svg>