<?xml version="1.0" encoding="UTF-8"?>
<svg width="48px" height="48px" viewBox="0 0 48 48" version="1.1" xmlns="http://www.w3.org/2000/svg" xmlns:xlink="http://www.w3.org/1999/xlink">
    <!-- Generator: Sketch 55.1 (78136) - https://sketchapp.com -->
    <title>notebook1</title>
    <desc>Created with Sketch.</desc>
    <g id="notebook1" stroke="none" stroke-width="1" fill="none" fill-rule="evenodd">
        <g id="编组">
            <rect id="矩形" fill-opacity="0.01" fill="#FFFFFF" x="0" y="0" width="48" height="48"></rect>
            <g id="Group-2" transform="translate(6.000000, 4.000000)" stroke-linejoin="round" stroke-width="4">
                <path d="M6,0 L34,0 C35.1045695,-2.02906125e-16 36,0.8954305 36,2 L36,38 C36,39.1045695 35.1045695,40 34,40 L6,40 C4.8954305,40 4,39.1045695 4,38 L4,2 C4,0.8954305 4.8954305,2.02906125e-16 6,0 Z" id="Path-5" stroke="#000000" fill="#2F88FF" fill-rule="nonzero"></path>
                <path d="M28,2 L28,38" id="Path-11" stroke="#FFFFFF"></path>
                <path d="M0,10 L8,10" id="Path-12" stroke="#000000" stroke-linecap="round"></path>
                <path d="M0,20 L8,20" id="Path-12-Copy" stroke="#000000" stroke-linecap="round"></path>
                <path d="M0,30 L8,30" id="Path-12-Copy-2" stroke="#000000" stroke-linecap="round"></path>
            </g>
        </g>
    </g>
</svg>