<?xml version="1.0" encoding="UTF-8"?>
<svg width="48px" height="48px" viewBox="0 0 48 48" version="1.1" xmlns="http://www.w3.org/2000/svg" xmlns:xlink="http://www.w3.org/1999/xlink">
    <!-- Generator: Sketch 55.2 (78181) - https://sketchapp.com -->
    <title>parachute</title>
    <desc>Created with Sketch.</desc>
    <g id="parachute" stroke="none" stroke-width="1" fill="none" fill-rule="evenodd" stroke-linejoin="round">
        <g id="编组" transform="translate(4.000000, 4.000000)" stroke="#000000" stroke-width="4">
            <path d="M12.7272727,20 C15.1515152,17.5757576 17.5757576,16.3636364 20,16.3636364 C22.4242424,16.3636364 24.8484848,17.5757576 27.2727273,20 C30.1010101,17.5757576 32.2222222,16.3636364 33.6363636,16.3636364 C35.0505051,16.3636364 37.1717172,17.5757576 40,20 C40,8.954305 31.045695,0 20,0 C8.954305,0 0,8.954305 0,20 C2.82828283,17.5757576 4.94949495,16.3636364 6.36363636,16.3636364 C7.77777778,16.3636364 9.8989899,17.5757576 12.7272727,20 Z" id="Oval-9" fill="#2F88FF" fill-rule="nonzero"></path>
            <polyline id="Path-17" stroke-linecap="round" points="0 20 20 40 12.7272727 20"></polyline>
            <polyline id="Path-18" stroke-linecap="round" points="27.2727273 20 20 40 40 20"></polyline>
        </g>
    </g>
</svg>