<?xml version="1.0" encoding="UTF-8"?>
<svg width="48px" height="48px" viewBox="0 0 48 48" version="1.1" xmlns="http://www.w3.org/2000/svg" xmlns:xlink="http://www.w3.org/1999/xlink">
    <!-- Generator: Sketch 55.1 (78136) - https://sketchapp.com -->
    <title>pic</title>
    <desc>Created with Sketch.</desc>
    <g id="pic" stroke="none" stroke-width="1" fill="none" fill-rule="evenodd" stroke-linejoin="round">
        <g id="编组备份-3" transform="translate(5.000000, 8.000000)" stroke="#000000">
            <path d="M2,0 L36,0 C37.1045695,-2.02906125e-16 38,0.8954305 38,2 L38,30 C38,31.1045695 37.1045695,32 36,32 L2,32 C0.8954305,32 1.3527075e-16,31.1045695 0,30 L0,2 C-1.3527075e-16,0.8954305 0.8954305,2.02906125e-16 2,0 Z" id="Rectangle" stroke-width="4" stroke-linecap="round"></path>
            <circle id="Oval" stroke-width="3" stroke-linecap="round" cx="9.5" cy="8.5" r="1.5"></circle>
            <path d="M10,16 L15,20 L21,13 L38,26 L38,30 C38,31.1045695 37.1045695,32 36,32 L2,32 C0.8954305,32 2.27508946e-13,31.1045695 2.27373675e-13,30 L2.27373675e-13,26 L10,16 Z" id="Path-3" stroke-width="4" fill="#2F88FF" fill-rule="nonzero"></path>
        </g>
    </g>
</svg>