<?xml version="1.0" encoding="UTF-8"?>
<svg width="48px" height="48px" viewBox="0 0 48 48" version="1.1" xmlns="http://www.w3.org/2000/svg" xmlns:xlink="http://www.w3.org/1999/xlink">
    <!-- Generator: Sketch 55.1 (78136) - https://sketchapp.com -->
    <title>preview-close</title>
    <desc>Created with Sketch.</desc>
    <g id="preview-close" stroke="none" stroke-width="1" fill="none" fill-rule="evenodd">
        <g id="编组">
            <rect id="矩形" fill-opacity="0.01" fill="#FFFFFF" x="0" y="0" width="48" height="48"></rect>
            <g id="Group-2" transform="translate(3.828427, 15.619262)" stroke="#000000" stroke-linecap="round" stroke-linejoin="round" stroke-width="4">
                <path d="M2.17157288,0.38073752 C2.80629169,1.60001442 3.76803281,2.73112128 4.99433248,3.73614732 C8.43259828,6.55401208 13.9505966,8.38073752 20.1715729,8.38073752 C26.3925492,8.38073752 31.9105475,6.55401208 35.3488133,3.73614732 C36.5751129,2.73112128 37.5368541,1.60001442 38.1715729,0.38073752" id="Path"></path>
                <path d="M22.1845102,12.2444408 L30.1845102,12.2444408" id="Path-6" transform="translate(26.184510, 12.244441) rotate(75.000000) translate(-26.184510, -12.244441) "></path>
                <path d="M32.3535534,8.56271804 L40.3535534,8.56271804" id="Path-6-Copy-2" transform="translate(36.353553, 8.562718) rotate(45.000000) translate(-36.353553, -8.562718) "></path>
                <path d="M0,8.56271804 L8,8.56271804" id="Path-6-Copy-3" transform="translate(4.000000, 8.562718) rotate(-45.000000) translate(-4.000000, -8.562718) "></path>
                <path d="M10.1344656,12.2444408 L18.1344656,12.2444408" id="Path-6-Copy" transform="translate(14.134466, 12.244441) rotate(-75.000000) translate(-14.134466, -12.244441) "></path>
            </g>
        </g>
    </g>
</svg>