<svg width="48" height="48" viewBox="0 0 48 48" fill="none" xmlns="http://www.w3.org/2000/svg">
<rect width="48" height="48" fill="white" fill-opacity="0.01"/>
<rect width="48" height="48" fill="white" fill-opacity="0.01"/>
<path d="M9.85786 18C6.23858 21 4 24 4 24C4 24 12.9543 36 24 36C25.3699 36 26.7076 35.8154 28 35.4921M20.0318 12.5C21.3144 12.1816 22.6414 12 24 12C35.0457 12 44 24 44 24C44 24 41.7614 27 38.1421 30" stroke="black" stroke-width="4" stroke-linecap="round" stroke-linejoin="round"/>
<path d="M20.3142 20.6213C19.4981 21.5112 19 22.6974 19 24C19 26.7614 21.2386 29 24 29C25.3627 29 26.5981 28.4548 27.5 27.5707" stroke="black" stroke-width="4" stroke-linecap="round" stroke-linejoin="round"/>
<path d="M42 42L6 6" stroke="black" stroke-width="4" stroke-linecap="round" stroke-linejoin="round"/>
</svg>
