<?xml version="1.0" encoding="UTF-8"?>
<svg width="48px" height="48px" viewBox="0 0 48 48" version="1.1" xmlns="http://www.w3.org/2000/svg" xmlns:xlink="http://www.w3.org/1999/xlink">
    <!-- Generator: Sketch 55.2 (78181) - https://sketchapp.com -->
    <title>puzzle</title>
    <desc>Created with Sketch.</desc>
    <g id="puzzle" stroke="none" stroke-width="1" fill="none" fill-rule="evenodd" stroke-linejoin="round">
        <g id="Combined-Shape-2" transform="translate(4.000000, 4.000000)" fill="#2F88FF" fill-rule="nonzero" stroke="#000000" stroke-width="4">
            <path d="M0,20 L0,8 L9,8 L9,6 C9,2.6862915 11.6862915,0 15,0 C18.3137085,0 21,2.6862915 21,6 L21,8 L30,8 L30,20 L34,20 C37.3137085,20 40,22.6862915 40,26 C40,29.3137085 37.3137085,32 34,32 L30,32 L30,40 L0,40 L0,32 L4,32 C7.3137085,32 10,29.3137085 10,26 C10,22.6862915 7.3137085,20 4,20 L0,20 Z" id="Combined-Shape"></path>
        </g>
    </g>
</svg>