<svg width="48" height="48" viewBox="0 0 48 48" fill="none" xmlns="http://www.w3.org/2000/svg">
<rect width="48" height="48" fill="white" fill-opacity="0.01"/>
<path d="M39.5 24C39.5 25.1046 40.3954 26 41.5 26C42.6046 26 43.5 25.1046 43.5 24H39.5ZM16.6101 7.36573L17.3762 9.21319L16.6101 7.36573ZM13.4993 9.03158L12.3867 7.36962L13.4993 9.03158ZM6.86962 12.8867C6.25515 13.8046 6.50111 15.0468 7.41898 15.6612C8.33686 16.2757 9.57908 16.0298 10.1935 15.1119L6.86962 12.8867ZM7.5 24C7.5 22.8954 6.60457 22 5.5 22C4.39543 22 3.5 22.8954 3.5 24H7.5ZM30.3899 40.6343L29.6238 38.7868L30.3899 40.6343ZM33.5007 38.9684L34.6133 40.6304L33.5007 38.9684ZM40.1304 35.1133C40.7449 34.1954 40.4989 32.9532 39.581 32.3388C38.6631 31.7243 37.4209 31.9702 36.8065 32.8881L40.1304 35.1133ZM43.5 24C43.5 12.9543 34.5457 4 23.5 4V8C32.3366 8 39.5 15.1634 39.5 24H43.5ZM23.5 4C20.792 4 18.2049 4.53931 15.844 5.51826L17.3762 9.21319C19.2599 8.4321 21.327 8 23.5 8V4ZM15.844 5.51826C14.6257 6.02345 13.4686 6.6453 12.3867 7.36962L14.6119 10.6935C15.4778 10.1138 16.403 9.61673 17.3762 9.21319L15.844 5.51826ZM12.3867 7.36962C11.2963 8.0996 10.2819 8.93378 9.35786 9.85786L12.1863 12.6863C12.9267 11.9459 13.7391 11.2778 14.6119 10.6935L12.3867 7.36962ZM9.35786 9.85786C8.43378 10.7819 7.5996 11.7963 6.86962 12.8867L10.1935 15.1119C10.7778 14.2391 11.4459 13.4267 12.1863 12.6863L9.35786 9.85786ZM3.5 24C3.5 35.0457 12.4543 44 23.5 44V40C14.6634 40 7.5 32.8366 7.5 24H3.5ZM23.5 44C26.208 44 28.7951 43.4607 31.156 42.4817L29.6238 38.7868C27.7401 39.5679 25.673 40 23.5 40V44ZM31.156 42.4817C32.3743 41.9766 33.5314 41.3547 34.6133 40.6304L32.3881 37.3065C31.5222 37.8862 30.597 38.3833 29.6238 38.7868L31.156 42.4817ZM34.6133 40.6304C35.7037 39.9004 36.7181 39.0662 37.6421 38.1421L34.8137 35.3137C34.0733 36.0541 33.2609 36.7222 32.3881 37.3065L34.6133 40.6304ZM37.6421 38.1421C38.5662 37.2181 39.4004 36.2037 40.1304 35.1133L36.8065 32.8881C36.2222 33.7609 35.5541 34.5733 34.8137 35.3137L37.6421 38.1421Z" fill="black"/>
<path d="M41.5 8V24" stroke="black" stroke-width="4" stroke-linecap="round" stroke-linejoin="round"/>
<path d="M5.5 24L5.5 40" stroke="black" stroke-width="4" stroke-linecap="round" stroke-linejoin="round"/>
</svg>
