<?xml version="1.0" encoding="UTF-8"?>
<svg width="48px" height="48px" viewBox="0 0 48 48" version="1.1" xmlns="http://www.w3.org/2000/svg" xmlns:xlink="http://www.w3.org/1999/xlink">
    <!-- Generator: Sketch 55.2 (78181) - https://sketchapp.com -->
    <title>save</title>
    <desc>Created with Sketch.</desc>
    <g id="save" stroke="none" stroke-width="1" fill="none" fill-rule="evenodd" stroke-linejoin="round">
        <g id="编组-2" transform="translate(6.000000, 5.000000)" stroke-width="4">
            <g id="编组">
                <path d="M3,1 L28.2814135,1 L36,8.20646467 L36,34 C36,35.6568542 34.6568542,37 33,37 L3,37 C1.34314575,37 2.02906125e-16,35.6568542 0,34 L0,4 C2.41183085e-16,2.34314575 1.34314575,1 3,1 Z" id="Rectangle-Copy" stroke="#000000" fill="#2F88FF" fill-rule="nonzero"></path>
                <path d="M18.0083333,1 L18,8.38461538 C18,8.72448292 17.5522847,9 17,9 L9,9 C8.44771525,9 8,8.72448292 8,8.38461538 L8,1" id="形状" stroke="#FFFFFF"></path>
                <path d="M3,1 L28.2814135,1" id="路径" stroke="#000000" stroke-linecap="round"></path>
                <path d="M8,21 L28,21" id="路径-2" stroke="#FFFFFF" stroke-linecap="round"></path>
                <path d="M8,29 L18.0083333,29" id="路径-2备份" stroke="#FFFFFF" stroke-linecap="round"></path>
            </g>
        </g>
    </g>
</svg>