<?xml version="1.0" encoding="UTF-8"?>
<svg width="48px" height="48px" viewBox="0 0 48 48" version="1.1" xmlns="http://www.w3.org/2000/svg" xmlns:xlink="http://www.w3.org/1999/xlink">
    <!-- Generator: Sketch 55.1 (78136) - https://sketchapp.com -->
    <title>setting-config</title>
    <desc>Created with Sketch.</desc>
    <g id="setting-config" stroke="none" stroke-width="1" fill="none" fill-rule="evenodd">
        <g id="编组-2">
            <rect id="矩形" fill-opacity="0.01" fill="#FFFFFF" x="0" y="0" width="48" height="48"></rect>
            <g id="编组" transform="translate(5.000000, 6.000000)" stroke="#000000" stroke-linecap="round" stroke-linejoin="round" stroke-width="4">
                <path d="M33.5,1 L33.5,7" id="Path-408" transform="translate(33.500000, 4.000000) rotate(90.000000) translate(-33.500000, -4.000000) "></path>
                <path d="M18.5,4 L26.5,4" id="Path-409" transform="translate(22.500000, 4.000000) rotate(90.000000) translate(-22.500000, -4.000000) "></path>
                <path d="M11.5,-7 L11.5,15" id="Path-410" transform="translate(11.500000, 4.000000) rotate(90.000000) translate(-11.500000, -4.000000) "></path>
                <path d="M4.5,14 L4.5,22" id="Path-411" transform="translate(4.500000, 18.000000) rotate(90.000000) translate(-4.500000, -18.000000) "></path>
                <path d="M12.5,18 L20.5,18" id="Path-412" transform="translate(16.500000, 18.000000) rotate(90.000000) translate(-16.500000, -18.000000) "></path>
                <path d="M27.5,7 L27.5,29" id="Path-413" transform="translate(27.500000, 18.000000) rotate(90.000000) translate(-27.500000, -18.000000) "></path>
                <path d="M33.5,29 L33.5,35" id="Path-414" transform="translate(33.500000, 32.000000) rotate(90.000000) translate(-33.500000, -32.000000) "></path>
                <path d="M18.5,32 L26.5,32" id="Path-415" transform="translate(22.500000, 32.000000) rotate(90.000000) translate(-22.500000, -32.000000) "></path>
                <path d="M11.5,21 L11.5,43" id="Path-416" transform="translate(11.500000, 32.000000) rotate(90.000000) translate(-11.500000, -32.000000) "></path>
            </g>
        </g>
    </g>
</svg>