<?xml version="1.0" encoding="UTF-8"?>
<svg width="48px" height="48px" viewBox="0 0 48 48" version="1.1" xmlns="http://www.w3.org/2000/svg" xmlns:xlink="http://www.w3.org/1999/xlink">
    <!-- Generator: Sketch 55.1 (78136) - https://sketchapp.com -->
    <title>system</title>
    <desc>Created with Sketch.</desc>
    <g id="system" stroke="none" stroke-width="1" fill="none" fill-rule="evenodd">
        <g id="编组">
            <rect id="矩形" fill-opacity="0.01" fill="#FFFFFF" x="0" y="0" width="48" height="48"></rect>
            <path d="M8.5638852,6 L17.4361148,6 C18.3276335,6 18.6509198,6.09282561 18.9768457,6.2671327 C19.3027716,6.4414398 19.5585602,6.69722837 19.7328673,7.0231543 C19.9071744,7.34908022 20,7.67236646 20,8.5638852 L20,17.4361148 C20,18.3276335 19.9071744,18.6509198 19.7328673,18.9768457 C19.5585602,19.3027716 19.3027716,19.5585602 18.9768457,19.7328673 C18.6509198,19.9071744 18.3276335,20 17.4361148,20 L8.5638852,20 C7.67236646,20 7.34908022,19.9071744 7.0231543,19.7328673 C6.69722837,19.5585602 6.4414398,19.3027716 6.2671327,18.9768457 C6.09282561,18.6509198 6,18.3276335 6,17.4361148 L6,8.5638852 C6,7.67236646 6.09282561,7.34908022 6.2671327,7.0231543 C6.4414398,6.69722837 6.69722837,6.4414398 7.0231543,6.2671327 C7.34908022,6.09282561 7.67236646,6 8.5638852,6 Z" id="Rectangle" stroke="#000000" stroke-width="4" fill="#2F88FF" fill-rule="nonzero" stroke-linejoin="round"></path>
            <path d="M8.5638852,28 L17.4361148,28 C18.3276335,28 18.6509198,28.0928256 18.9768457,28.2671327 C19.3027716,28.4414398 19.5585602,28.6972284 19.7328673,29.0231543 C19.9071744,29.3490802 20,29.6723665 20,30.5638852 L20,39.4361148 C20,40.3276335 19.9071744,40.6509198 19.7328673,40.9768457 C19.5585602,41.3027716 19.3027716,41.5585602 18.9768457,41.7328673 C18.6509198,41.9071744 18.3276335,42 17.4361148,42 L8.5638852,42 C7.67236646,42 7.34908022,41.9071744 7.0231543,41.7328673 C6.69722837,41.5585602 6.4414398,41.3027716 6.2671327,40.9768457 C6.09282561,40.6509198 6,40.3276335 6,39.4361148 L6,30.5638852 C6,29.6723665 6.09282561,29.3490802 6.2671327,29.0231543 C6.4414398,28.6972284 6.69722837,28.4414398 7.0231543,28.2671327 C7.34908022,28.0928256 7.67236646,28 8.5638852,28 Z" id="Rectangle-Copy-2" stroke="#000000" stroke-width="4" fill="#2F88FF" fill-rule="nonzero" stroke-linejoin="round"></path>
            <circle id="Oval" stroke="#000000" stroke-width="4" fill="#2F88FF" fill-rule="nonzero" stroke-linejoin="round" cx="35" cy="13" r="7"></circle>
            <path d="M30.5638852,28 L39.4361148,28 C40.3276335,28 40.6509198,28.0928256 40.9768457,28.2671327 C41.3027716,28.4414398 41.5585602,28.6972284 41.7328673,29.0231543 C41.9071744,29.3490802 42,29.6723665 42,30.5638852 L42,39.4361148 C42,40.3276335 41.9071744,40.6509198 41.7328673,40.9768457 C41.5585602,41.3027716 41.3027716,41.5585602 40.9768457,41.7328673 C40.6509198,41.9071744 40.3276335,42 39.4361148,42 L30.5638852,42 C29.6723665,42 29.3490802,41.9071744 29.0231543,41.7328673 C28.6972284,41.5585602 28.4414398,41.3027716 28.2671327,40.9768457 C28.0928256,40.6509198 28,40.3276335 28,39.4361148 L28,30.5638852 C28,29.6723665 28.0928256,29.3490802 28.2671327,29.0231543 C28.4414398,28.6972284 28.6972284,28.4414398 29.0231543,28.2671327 C29.3490802,28.0928256 29.6723665,28 30.5638852,28 Z" id="Rectangle-Copy-3" stroke="#000000" stroke-width="4" fill="#2F88FF" fill-rule="nonzero" stroke-linejoin="round"></path>
        </g>
    </g>
</svg>