<?xml version="1.0" encoding="UTF-8"?>
<svg width="48px" height="48px" viewBox="0 0 48 48" version="1.1" xmlns="http://www.w3.org/2000/svg" xmlns:xlink="http://www.w3.org/1999/xlink">
    <!-- Generator: Sketch 55.2 (78181) - https://sketchapp.com -->
    <title>tape</title>
    <desc>Created with Sketch.</desc>
    <g id="tape" stroke="none" stroke-width="1" fill="none" fill-rule="evenodd" stroke-linejoin="round">
        <g id="编组" transform="translate(4.000000, 9.000000)" stroke-width="4">
            <path d="M2,1 L6,1 L34,1 L38,1 C39.1045695,1 40,1.8954305 40,3 L40,27 C40,28.1045695 39.1045695,29 38,29 L2,29 C0.8954305,29 1.3527075e-16,28.1045695 0,27 L0,3 C-1.3527075e-16,1.8954305 0.8954305,1 2,1 Z" id="Rectangle" stroke="#000000" fill="#2F88FF" fill-rule="nonzero"></path>
            <polygon id="Rectangle" stroke="#FFFFFF" stroke-linecap="round" points="6 1 11 7 20 7 29 7 34 1"></polygon>
            <polyline id="路径" stroke="#000000" stroke-linecap="round" points="2 1 2 1 6 1 34 1 38 1"></polyline>
            <circle id="椭圆形" stroke="#FFFFFF" fill="#43CCF8" fill-rule="nonzero" cx="29" cy="18" r="4"></circle>
            <circle id="椭圆形复制" stroke="#FFFFFF" fill="#43CCF8" fill-rule="nonzero" cx="11" cy="18" r="4"></circle>
        </g>
    </g>
</svg>