<?xml version="1.0" encoding="UTF-8"?>
<svg width="48px" height="48px" viewBox="0 0 48 48" version="1.1" xmlns="http://www.w3.org/2000/svg" xmlns:xlink="http://www.w3.org/1999/xlink">
    <!-- Generator: Sketch 55.1 (78136) - https://sketchapp.com -->
    <title>thumbs-down</title>
    <desc>Created with Sketch.</desc>
    <g id="thumbs-down" stroke="none" stroke-width="1" fill="none" fill-rule="evenodd">
        <g id="编组">
            <rect id="矩形" fill-opacity="0.01" fill="#FFFFFF" x="0" y="0" width="48" height="48"></rect>
            <path d="M20.3796043,29.4 L20.3796043,36.6 C20.3796043,39.5823376 22.7972666,42 25.7796043,42 L32.9796043,25.8 L32.9796043,5.99976661 L12.0636043,5.99976661 C10.2684881,5.97970615 8.7327742,7.285063 8.46360428,9.06 L5.97960428,25.26 C5.82110344,26.3042604 6.12918937,27.3654442 6.82225896,28.1624742 C7.51532856,28.9595042 8.52345122,29.4119604 9.57960428,29.4 L20.3796043,29.4 Z" id="Path" stroke="#000000" stroke-width="4" fill="#2F88FF" fill-rule="nonzero" stroke-linejoin="round"></path>
            <path d="M32.9796043,6 L37.7856043,6 C39.8942856,5.96270749 41.6969066,7.51002165 41.9796043,9.6 L41.9796043,22.2 C41.6969066,24.2899783 39.8942856,26.0372925 37.7856043,26 L32.9796043,26 L32.9796043,6 Z" id="Path" stroke="#000000" stroke-width="4" fill="#2F88FF" fill-rule="nonzero" stroke-linejoin="round"></path>
        </g>
    </g>
</svg>