<svg width="48" height="48" viewBox="0 0 48 48" fill="none" xmlns="http://www.w3.org/2000/svg">
<rect width="48" height="48" fill="white" fill-opacity="0.01"/>
<path d="M40 20C40 26.8077 35.7484 32.6224 29.7555 34.9336H24H18.2445C12.2516 32.6224 8 26.8077 8 20C8 11.1634 15.1634 4 24 4C32.8366 4 40 11.1634 40 20Z" fill="#09C8E2"/>
<path d="M40 20C40 26.8077 35.7484 32.6224 29.7555 34.9336H24H18.2445C12.2516 32.6224 8 26.8077 8 20C8 11.1634 15.1634 4 24 4C32.8366 4 40 11.1634 40 20Z" fill="#2F88FF"/>
<path d="M40 20C40 26.8077 35.7484 32.6224 29.7555 34.9336H24H18.2445C12.2516 32.6224 8 26.8077 8 20C8 11.1634 15.1634 4 24 4C32.8366 4 40 11.1634 40 20Z" stroke="black" stroke-width="4" stroke-linecap="round" stroke-linejoin="round"/>
<path d="M29.7555 34.9336L29.0764 43.083C29.0332 43.6013 28.5999 44 28.0798 44H19.9201C19.4 44 18.9668 43.6013 18.9236 43.083L18.2444 34.9336" stroke="black" stroke-width="4" stroke-linecap="round" stroke-linejoin="round"/>
<path d="M18 17V23L24 20L30 23V17" stroke="white" stroke-width="4" stroke-linecap="round" stroke-linejoin="round"/>
</svg>
