<svg width="48" height="48" viewBox="0 0 48 48" fill="none" xmlns="http://www.w3.org/2000/svg">
<g id="Base/tips">
<path d="M0 0H48V48H0V0Z" fill="white" fill-opacity="0.01"/>
<g id="Vector">
<path d="M40 20C40 26.8077 35.7484 32.6224 29.7555 34.9336H24H18.2445C12.2516 32.6224 8 26.8077 8 20C8 11.1634 15.1634 4 24 4C32.8366 4 40 11.1634 40 20Z" fill="#2F88FF"/>
<path d="M29.7555 34.9336L29.0764 43.083C29.0332 43.6013 28.6 44 28.0799 44H19.9201C19.4 44 18.9668 43.6013 18.9236 43.083L18.2445 34.9336M29.7555 34.9336C35.7484 32.6224 40 26.8077 40 20C40 11.1634 32.8366 4 24 4C15.1634 4 8 11.1634 8 20C8 26.8077 12.2516 32.6224 18.2445 34.9336M29.7555 34.9336H24H18.2445" stroke="black" stroke-width="4" stroke-linecap="round" stroke-linejoin="round"/>
</g>
<path id="Vector_2" d="M18 17V23L24 20L30 23V17" stroke="white" stroke-width="4" stroke-linecap="round" stroke-linejoin="round"/>
</g>
</svg>
