<?xml version="1.0" encoding="UTF-8"?>
<svg width="48px" height="48px" viewBox="0 0 48 48" version="1.1" xmlns="http://www.w3.org/2000/svg" xmlns:xlink="http://www.w3.org/1999/xlink">
    <!-- Generator: Sketch 55.2 (78181) - https://sketchapp.com -->
    <title>umbrella</title>
    <desc>Created with Sketch.</desc>
    <g id="umbrella" stroke="none" stroke-width="1" fill="none" fill-rule="evenodd">
        <g id="编组-2">
            <rect id="矩形" fill-opacity="0.01" fill="#FFFFFF" x="0" y="0" width="48" height="48"></rect>
            <g id="编组" transform="translate(4.000000, 3.000000)" stroke="#000000" stroke-linejoin="round" stroke-width="4">
                <path d="M12.7272727,24 C15.1515152,21.5757576 17.5757576,20.3636364 20,20.3636364 C22.4242424,20.3636364 24.8484848,21.5757576 27.2727273,24 C30.1010101,21.5757576 32.2222222,20.3636364 33.6363636,20.3636364 C35.0505051,20.3636364 37.1717172,21.5757576 40,24 C40,12.954305 31.045695,4 20,4 C8.954305,4 0,12.954305 0,24 C2.82828283,21.5757576 4.94949495,20.3636364 6.36363636,20.3636364 C7.77777778,20.3636364 9.8989899,21.5757576 12.7272727,24 Z" id="Oval-9" fill="#2F88FF" fill-rule="nonzero"></path>
                <path d="M20,21 L20,35.5536268 C20,38.5677816 22.4858452,41.0112369 25.5,41.0112369 C28.5141548,41.0112369 31,38.5677816 31,35.5536268" id="Oval" stroke-linecap="round"></path>
                <path d="M20,0 L20,4" id="Path-3" stroke-linecap="round"></path>
            </g>
        </g>
    </g>
</svg>