<svg width="48" height="48" viewBox="0 0 48 48" fill="none" xmlns="http://www.w3.org/2000/svg">
<rect width="48" height="48" fill="white" fill-opacity="0.01"/>
<rect width="48" height="48" fill="white" fill-opacity="0.01"/>
<path d="M4 10C4 8.89543 4.89543 8 6 8H42C43.1046 8 44 8.89543 44 10V38C44 39.1046 43.1046 40 42 40H6C4.89543 40 4 39.1046 4 38V10Z" fill="#2F88FF" stroke="black" stroke-width="4" stroke-linejoin="round"/>
<path d="M36 8V40" stroke="black" stroke-width="4" stroke-linecap="square" stroke-linejoin="round"/>
<path d="M12 8V40" stroke="black" stroke-width="4" stroke-linecap="square" stroke-linejoin="round"/>
<path d="M38 18H44" stroke="black" stroke-width="4" stroke-linecap="square" stroke-linejoin="round"/>
<path d="M38 30H44" stroke="black" stroke-width="4" stroke-linecap="square" stroke-linejoin="round"/>
<path d="M4 18H10" stroke="black" stroke-width="4" stroke-linecap="square" stroke-linejoin="round"/>
<path d="M4 30H10" stroke="black" stroke-width="4" stroke-linecap="square" stroke-linejoin="round"/>
<path d="M21 19L29 24L21 29V19Z" fill="#43CCF8" stroke="white" stroke-width="4" stroke-linejoin="round"/>
</svg>
