<?xml version="1.0" encoding="UTF-8"?><svg width="24" height="24" viewBox="0 0 48 48" xmlns="http://www.w3.org/2000/svg"><g stroke="none" stroke-width="4" fill="none" fill-rule="evenodd"><g><rect fill-opacity="0.01" fill="#000" x="0" y="0" width="48" height="48"/><path d="M6,8 L42,8 C43.1045695,8 44,8.8954305 44,10 L44,38 C44,39.1045695 43.1045695,40 42,40 L6,40 C4.8954305,40 4,39.1045695 4,38 L4,10 C4,8.8954305 4.8954305,8 6,8 Z" stroke="#000" stroke-width="4" fill="rgba(255,255,255,0)" fill-rule="nonzero" stroke-linejoin="round"/><path d="M36,8 L36,40" stroke="#000" stroke-width="4" stroke-linecap="round" stroke-linejoin="round"/><path d="M12,8 L12,40" stroke="#000" stroke-width="4" stroke-linecap="round" stroke-linejoin="round"/><path d="M38,18 L44,18" stroke="#000" stroke-width="4" stroke-linecap="round" stroke-linejoin="round"/><path d="M38,30 L44,30" stroke="#000" stroke-width="4" stroke-linecap="round" stroke-linejoin="round"/><path d="M4,18 L10,18" stroke="#000" stroke-width="4" stroke-linecap="round" stroke-linejoin="round"/><path d="M4,30 L10,30" stroke="#000" stroke-width="4" stroke-linecap="round" stroke-linejoin="round"/><polygon stroke="#000" stroke-width="4" fill="rgba(255,255,255,0)" fill-rule="nonzero" stroke-linejoin="round" points="21 19 29 24 21 29"/></g></g></svg>