<svg width="48" height="48" viewBox="0 0 48 48" fill="none" xmlns="http://www.w3.org/2000/svg">
<path d="M7 32C10 37 15 40 20 41C25 42 30.8085 41.1437 35 38C41 33.5 43 26 43 21C43 16 41 10.5 40 9C39 7.5 37 7 37 7" stroke="black" stroke-width="4" stroke-linecap="round" stroke-linejoin="round"/>
<path d="M21.0002 13C16.6452 14.6046 12 13 8.00015 16C3.30352 19.5226 1.99983 25 5.00015 30C7.35207 33.9194 10.9997 36 16.9997 36C22.9997 36 26.7643 34.2354 30.9997 30C36.9997 24 38.9997 14.5 38.9997 11C38.9997 7.49999 36.5 5.49998 32.9997 5.99998C29.4994 6.49998 26.5726 10.9467 21.0002 13Z" fill="#2F88FF" stroke="black" stroke-width="4" stroke-linecap="round" stroke-linejoin="round"/>
<path d="M21.9452 20.1174C20.7223 20.5976 19.4178 20.1174 18.2945 21.0152C16.9755 22.0693 16.6094 23.7083 17.452 25.2045C18.1125 26.3774 19.1368 27 20.8218 27C22.5068 27 23.564 26.472 24.7534 25.2045C26.4383 23.4091 27 20.5663 27 19.519C27 18.4716 26.298 17.8731 25.315 18.0228C24.3321 18.1724 23.5101 19.503 21.9452 20.1174Z" fill="#43CCF8" stroke="white" stroke-width="4" stroke-linecap="round" stroke-linejoin="round"/>
</svg>
