<svg width="48" height="48" viewBox="0 0 48 48" fill="none" xmlns="http://www.w3.org/2000/svg">
<path d="M16 37.2414C16 39.1724 16.8571 44 28 44C39.1429 44 40 39.1724 40 37.2414C40 35.3103 40 16 40 16H28H16C16 16 16 35.3103 16 37.2414Z" fill="#2F88FF" stroke="black" stroke-width="4" stroke-linejoin="round"/>
<path d="M25 23V37" stroke="white" stroke-width="4" stroke-linecap="round" stroke-linejoin="round"/>
<path d="M31 23V37" stroke="white" stroke-width="4" stroke-linecap="round" stroke-linejoin="round"/>
<path d="M15.9983 16C15.9983 16 13.9992 11.5 16.9988 9C19.9983 6.5 22.9991 8 22.9991 8C22.9991 8 23.9983 4 27.9991 4C32 4 32.9985 8 32.9985 8C32.9985 8 36.5 6.5 39 9C41.5 11.5 39.9985 16 39.9985 16" stroke="black" stroke-width="4" stroke-linejoin="round"/>
<path d="M16 19H6C6 19 7 29 7.9991 32C8.99821 35 16 34 16 34" stroke="black" stroke-width="4" stroke-linejoin="round"/>
</svg>