<svg width="48" height="48" viewBox="0 0 48 48" fill="none" xmlns="http://www.w3.org/2000/svg">
<path d="M15 21.5597C15 18.1105 16.8097 14.9142 19.7674 13.1395V13.1395C19.9117 13.053 20 12.897 20 12.7288V4H28V12.7288C28 12.897 28.0883 13.053 28.2326 13.1395V13.1395C31.1903 14.9142 33 18.1105 33 21.5597V42C33 43.1046 32.1046 44 31 44H17C15.8954 44 15 43.1046 15 42V21.5597Z" fill="#2F88FF" stroke="black" stroke-width="4" stroke-linecap="round" stroke-linejoin="round"/>
<path d="M20 10L28 10" stroke="white" stroke-width="4" stroke-linecap="round"/>
<path d="M24 23V21C22.8954 21 22 21.8954 22 23H24ZM33 23H35V21H33V23ZM33 38V40H35V38H33ZM24 38H22C22 39.1046 22.8954 40 24 40V38ZM24 25H33V21H24V25ZM31 23V38H35V23H31ZM33 36H24V40H33V36ZM26 38V23H22V38H26Z" fill="white"/>
<path d="M33 40V21" stroke="black" stroke-width="4" stroke-linecap="round" stroke-linejoin="round"/>
<path d="M20 12V8" stroke="black" stroke-width="4" stroke-linecap="round" stroke-linejoin="round"/>
<path d="M28 12V8" stroke="black" stroke-width="4" stroke-linecap="round" stroke-linejoin="round"/>
</svg>
