<svg width="48" height="48" viewBox="0 0 48 48" fill="none" xmlns="http://www.w3.org/2000/svg">
<path d="M4 32.0833C4 30.8812 4.266 29.6884 4.97123 28.7148C7.04541 25.8514 12.6701 20 24 20C35.3299 20 40.9546 25.8514 43.0288 28.7148C43.734 29.6884 44 30.8812 44 32.0833C44 36.4556 40.4556 40 36.0833 40H11.9167C7.54441 40 4 36.4556 4 32.0833Z" fill="#2F88FF" stroke="black" stroke-width="4" stroke-linecap="round" stroke-linejoin="round"/>
<path d="M12 9L12 13" stroke="black" stroke-width="4" stroke-linecap="round"/>
<path d="M14 22L14 26" stroke="white" stroke-width="4" stroke-linecap="round"/>
<path d="M36 9L36 13" stroke="black" stroke-width="4" stroke-linecap="round"/>
<path d="M34 22L34 26" stroke="white" stroke-width="4" stroke-linecap="round"/>
<path d="M24 7L24 13" stroke="black" stroke-width="4" stroke-linecap="round"/>
<path d="M24 20L24 28" stroke="white" stroke-width="4" stroke-linecap="round"/>
<path d="M40 25.4434C36.9058 22.7787 31.8075 20 24 20C16.1925 20 11.0942 22.7787 8 25.4434" stroke="black" stroke-width="4" stroke-linecap="round"/>
</svg>