<svg width="48" height="48" viewBox="0 0 48 48" fill="none" xmlns="http://www.w3.org/2000/svg">
<path d="M43 20C43 17.8285 24.8921 8.11198 20.134 5.59629C19.4394 5.22904 18.603 5.31194 17.9852 5.79737L5 16" stroke="black" stroke-width="4" stroke-linecap="round" stroke-linejoin="round"/>
<path d="M5 17.6522C5 16.3232 6.2688 15.3543 7.55521 15.688C13.9619 17.3498 30.8602 21.3331 40.1615 19.7589C41.5557 19.523 43 20.5369 43 21.951V38.1025C43 39.1662 42.1674 40.0438 41.1051 40.0997L7.10512 41.8892C5.96083 41.9494 5 41.0378 5 39.892V17.6522Z" fill="#2F88FF" stroke="black" stroke-width="4" stroke-linecap="round" stroke-linejoin="round"/>
<circle cx="12" cy="25" r="2" fill="white"/>
<circle cx="25" cy="27" r="2" fill="white"/>
<circle cx="34" cy="32" r="2" fill="white"/>
<circle cx="18" cy="32" r="2" fill="white" stroke="white" stroke-width="2"/>
</svg>