<svg width="48" height="48" viewBox="0 0 48 48" fill="none" xmlns="http://www.w3.org/2000/svg">
<path d="M14.8385 4.71199C14.9656 4.28934 15.3548 4 15.7961 4H32.2039C32.6452 4 33.0344 4.28934 33.1615 4.71199L33.9576 7.35911C33.9857 7.45253 34 7.54957 34 7.64712V39.8706C34 39.9565 33.9889 40.0421 33.9671 40.1251L33.1436 43.2545C33.0279 43.6938 32.6308 44 32.1765 44H15.8235C15.3693 44 14.9721 43.6938 14.8564 43.2545L14.0329 40.1251C14.0111 40.0421 14 39.9565 14 39.8706V7.64712C14 7.54957 14.0143 7.45253 14.0424 7.35911L14.8385 4.71199Z" fill="white" stroke="black" stroke-width="4"/>
<path d="M36 37L33.2091 43.3997C33.0502 43.7643 32.6902 44 32.2925 44H15.7075C15.3098 44 14.9498 43.7643 14.7909 43.3997L12 37" stroke="black" stroke-width="4" stroke-linecap="round" stroke-linejoin="round"/>
<path d="M12 11L14.7909 4.60027C14.9498 4.2357 15.3098 4 15.7075 4H32.2925C32.6902 4 33.0502 4.2357 33.2091 4.60027L36 11" stroke="black" stroke-width="4" stroke-linecap="round" stroke-linejoin="round"/>
<path d="M12 12C12 10.8954 12.8954 10 14 10H34C35.1046 10 36 10.8954 36 12V36C36 37.1046 35.1046 38 34 38H14C12.8954 38 12 37.1046 12 36V12Z" fill="#2F88FF" stroke="black" stroke-width="4"/>
<path d="M13 22.5L19.3961 21.4901C21.4051 21.1729 23.2457 20.1798 24.6138 18.6748V18.6748C26.4382 16.668 29.0754 15.5985 31.7823 15.7676L35.5 16" stroke="white" stroke-width="4" stroke-linecap="round" stroke-linejoin="round"/>
<path d="M12.5 32.5L18.053 32.2476C21.4281 32.0942 24.4704 30.167 26.0512 27.1811V27.1811C27.2938 24.834 29.4584 23.1111 32.0245 22.4268L35.5 21.5" stroke="white" stroke-width="4" stroke-linecap="round" stroke-linejoin="round"/>
<path d="M36 12V32" stroke="black" stroke-width="4" stroke-linecap="round" stroke-linejoin="round"/>
<path d="M12 16V36" stroke="black" stroke-width="4" stroke-linecap="round" stroke-linejoin="round"/>
</svg>
