<svg width="48" height="48" viewBox="0 0 48 48" fill="none" xmlns="http://www.w3.org/2000/svg">
<path d="M5 16.9998C5 11.9998 6 1.99979 17.0008 5.99977C17.9464 9.78224 15 16.9998 5 16.9998Z" stroke="black" stroke-width="4" stroke-linecap="round" stroke-linejoin="round"/>
<path d="M43 16.9998C43.0006 11.9998 42 1.99979 31 5.99978C30.0544 9.78224 32.9994 16.9998 43 16.9998Z" stroke="black" stroke-width="4" stroke-linecap="round" stroke-linejoin="round"/>
<rect x="8" y="22" width="32" height="20" rx="10" fill="#2F88FF" stroke="black" stroke-width="4" stroke-linecap="round" stroke-linejoin="round"/>
<path d="M27 22V18" stroke="black" stroke-width="4" stroke-linecap="round" stroke-linejoin="round"/>
<path d="M21 22V18" stroke="black" stroke-width="4" stroke-linecap="round" stroke-linejoin="round"/>
<path d="M43 17C44 20 44 26 40 29" stroke="black" stroke-width="4" stroke-linecap="round" stroke-linejoin="round"/>
<path d="M5 17C4 20 5 25 8 29" stroke="black" stroke-width="4" stroke-linecap="round" stroke-linejoin="round"/>
<path d="M30 42H44L40 33" stroke="black" stroke-width="4" stroke-linecap="round" stroke-linejoin="round"/>
<path d="M18 42H4L8 33" stroke="black" stroke-width="4" stroke-linecap="round" stroke-linejoin="round"/>
</svg>