<svg width="48" height="48" viewBox="0 0 48 48" fill="none" xmlns="http://www.w3.org/2000/svg">
<path d="M21 22V12C21 10.8954 20.1046 10 19 10H16C14.8954 10 14 10.8954 14 12V21" stroke="black" stroke-width="4" stroke-linecap="round" stroke-linejoin="round"/>
<path d="M35 21V14C35 12.8954 34.1046 12 33 12H30C28.8954 12 28 12.8954 28 14V22" stroke="black" stroke-width="4" stroke-linecap="round" stroke-linejoin="round"/>
<path d="M28 22V6C28 4.89543 27.1046 4 26 4H23C21.8954 4 21 4.89543 21 6V22" stroke="black" stroke-width="4" stroke-linecap="round" stroke-linejoin="round"/>
<path d="M7 18C7 18 14 23 24 23C34 23 41 18 41 18L36.1819 44H11.8182L7 18Z" fill="#2F88FF" stroke="black" stroke-width="4" stroke-linecap="round" stroke-linejoin="round"/>
<ellipse cx="24" cy="33" rx="6" ry="3" fill="#43CCF8" stroke="white" stroke-width="4"/>
</svg>