<svg width="48" height="48" viewBox="0 0 48 48" fill="none" xmlns="http://www.w3.org/2000/svg">
<path d="M15.3396 22.5L21 37L24 43L27 37L32.6602 22.5" stroke="black" stroke-width="4" stroke-linecap="round" stroke-linejoin="round"/>
<path d="M19 32H29" stroke="black" stroke-width="4" stroke-linecap="round"/>
<path d="M24 3C18 3 16 9 16 9C16 9 10 11 10 16C10 21 15 23 15 23C15 23 18.5 21 24 21C29.5 21 33 23 33 23C33 23 38 21 38 16C38 11 32 9 32 9C32 9 30 3 24 3Z" fill="#2F88FF" stroke="black" stroke-width="4" stroke-linecap="round" stroke-linejoin="round"/>
</svg>