<svg width="48" height="48" viewBox="0 0 48 48" fill="none" xmlns="http://www.w3.org/2000/svg">
<path d="M14 30C14 30 14 34 14 40C14 46 22 46 22 40C22 34 22 30 22 30" stroke="black" stroke-width="4" stroke-linecap="round" stroke-linejoin="round"/>
<path d="M22 37H14" stroke="black" stroke-width="4" stroke-linecap="round" stroke-linejoin="round"/>
<path d="M14 6C14 4.89543 14.8954 4 16 4H32.6349C32.9537 4 33.2672 4.07486 33.5228 4.26546C34.5417 5.0254 37.1977 7.58171 38 14C38.7728 20.1822 36.6313 26.3644 35.6182 28.8547C35.3295 29.5645 34.6334 30 33.8672 30H14V6Z" fill="#2F88FF" stroke="black" stroke-width="4"/>
<circle cx="22" cy="10" r="2" fill="white"/>
</svg>