<svg width="48" height="48" viewBox="0 0 48 48" fill="none" xmlns="http://www.w3.org/2000/svg">
<path d="M24 38C33.3888 38 41 30.9411 41 21H7C7 30.9411 14.6112 38 24 38Z" fill="#2F88FF" stroke="black" stroke-width="4"/>
<path d="M30 21C30 15.4772 25.7467 11 20.5 11C15.2533 11 11 15.4772 11 21" stroke="black" stroke-width="4"/>
<path d="M39 21C39 17.6863 36.234 15 32.822 15C31.379 15 30.0515 15.4805 29 16.2857" stroke="black" stroke-width="4"/>
<path d="M33 15L36 5" stroke="black" stroke-width="4" stroke-linecap="round"/>
<path d="M38.0002 18.0001L42.0002 11.0001" stroke="black" stroke-width="4" stroke-linecap="round"/>
<path d="M18 37L16 43H32L30 37" stroke="black" stroke-width="4" stroke-linecap="round" stroke-linejoin="round"/>
</svg>