<svg width="48" height="48" viewBox="0 0 48 48" fill="none" xmlns="http://www.w3.org/2000/svg">
<g clip-path="url(#clip0)">
<path d="M17.7988 40.1421C17.7988 40.1421 21.9583 44.3016 26.4505 43.1369C30.9427 41.9723 42.2564 30.6586 43.4211 26.1664C44.5857 21.6742 40.4262 17.5147 40.4262 17.5147" stroke="black" stroke-width="4" stroke-linecap="round" stroke-linejoin="round"/>
<path d="M7.89941 30.2426C7.89941 30.2426 3.73996 26.0832 4.90461 21.591C6.06926 17.0988 17.383 5.78507 21.8752 4.62042C26.3674 3.45577 30.5268 7.61523 30.5268 7.61523" stroke="black" stroke-width="4" stroke-linecap="round" stroke-linejoin="round"/>
<rect x="5.07129" y="33.0711" width="40" height="14" rx="7" transform="rotate(-45 5.07129 33.0711)" fill="#2F88FF" stroke="black" stroke-width="4" stroke-linecap="round" stroke-linejoin="round"/>
<path d="M15.6779 33.7782L16.2406 32.0899C16.7822 30.4651 17.9928 29.1495 19.567 28.4749L19.9866 28.295C21.2939 27.7348 22.2992 26.6422 22.749 25.2929V25.2929C23.1987 23.9436 24.204 22.851 25.5113 22.2907L26.4608 21.8838C27.698 21.3536 28.6493 20.3197 29.075 19.0428V19.0428C29.544 17.6357 30.6481 16.5316 32.0552 16.0625L34.0627 15.3934" stroke="white" stroke-width="4" stroke-linecap="round" stroke-linejoin="round"/>
</g>
<defs>
<clipPath id="clip0">
<rect width="48" height="48" fill="white"/>
</clipPath>
</defs>
</svg>
