<svg width="48" height="48" viewBox="0 0 48 48" fill="none" xmlns="http://www.w3.org/2000/svg">
<path d="M24 43.9999C35.0457 43.9999 44 36.6126 44 27.4999C44 21.0579 39.5252 15.7014 33 12.9841L29.5 14.4999L30 19.9999L23.5 17.9999L17 19.9999V14.4999L14 12.9841C8.02199 15.837 4 21.3926 4 27.4999C4 36.6126 12.9543 43.9999 24 43.9999Z" fill="#2F88FF" stroke="black" stroke-width="4" stroke-linecap="round" stroke-linejoin="round"/>
<path d="M23.5 4L27.3088 9.11672L36 9.90983L29.6628 14.4833L31.5 21L23.5 18L15.5 21L17.3371 14.4833L11 9.90983L19.6911 9.11672L23.5 4Z" stroke="black" stroke-width="4" stroke-linecap="round" stroke-linejoin="round"/>
</svg>