<svg width="48" height="48" viewBox="0 0 48 48" fill="none" xmlns="http://www.w3.org/2000/svg">
<path d="M32 7.90249C33.5 7.5 35.3291 7.61106 36.4393 7.90249C38.9414 8.56028 40.7649 9.68991 41.8557 11.2615C43.1186 13.0795 43.3371 15.3991 42.508 18.1559C40.8094 23.7957 33.908 27.296 33.5 27.5" stroke="black" stroke-width="4" stroke-linecap="round" stroke-linejoin="round"/>
<path d="M27.2471 41.2702C27.7619 41.368 28.2851 41.4194 28.809 41.4215C30.2786 41.4215 31.5442 41.0058 32.5663 40.1871C33.6786 39.3024 34.5 38 34.8325 36.2785C35.165 34.5569 34.6799 32.943 34.1525 31.3686C33.7799 30.2501 33.5347 28.5637 33.5 27.5" stroke="black" stroke-width="4" stroke-linecap="round" stroke-linejoin="round"/>
<path d="M13 26.5C13 26.5 7.19013 23.7936 5.49291 18.1559C4.66304 15.3998 4.88161 13.0816 6.14446 11.2615C7.23662 9.69059 9.05804 8.56097 11.5601 7.90248C12.671 7.61105 13.7341 7.46326 14.7221 7.46326" stroke="black" stroke-width="4" stroke-linecap="round" stroke-linejoin="round"/>
<path d="M13.5 27C14 28 13.5675 29.7963 13.0402 31.3721C12.5128 32.9479 11.9688 34.5743 12.3595 36.2812C12.7501 37.9882 13.5127 39.3045 14.6236 40.1898C15.6485 41.0079 16.53 41.5 18.0003 41.5C18.5235 41.4979 20.0003 41 20.0003 41" stroke="black" stroke-width="4" stroke-linecap="round" stroke-linejoin="round"/>
<path d="M23.5 4C28.7466 4 33 6.64313 33 14.375C33 22.1076 23.5 32 23.5 32C23.5 32 14 22.1069 14 14.375C14 6.64241 18.2528 4 23.5 4Z" stroke="black" stroke-width="4" stroke-linecap="round" stroke-linejoin="round"/>
<path d="M23.9991 42.2291C21.9892 42.2292 20.2806 41.5672 19.1309 40.5596C17.8028 39.3925 17.127 37.7335 17.127 35.6269C17.127 33.8707 18.0762 32.4059 18.9942 30.9877C19.6457 29.9801 20.5484 27.9977 20.5484 27.9977C20.5484 27.9977 21.0229 26.3607 20.9447 25.2979C20.8 23.3333 18.8929 21.8542 18.5834 20.8404C18.208 19.5797 18.2996 18.8122 18.8679 18.4278C19.0427 18.3078 19.713 18.2675 19.713 18.2675C19.713 18.2675 19.5867 16.4218 19.6658 15.8133C19.7609 15.0834 20.142 14.0416 21.0376 13.9648C21.6576 13.9117 22.1478 14.0044 22.4656 14.6719C22.5683 14.8877 22.6391 15.1493 22.7383 15.5108C23.0395 16.6425 23.521 17.9664 23.9949 19.0426C24.4695 17.9692 24.9518 16.6453 25.255 15.5115C25.3542 15.15 25.4257 14.8884 25.5284 14.6719C25.8462 14.0044 26.3371 13.9125 26.9571 13.9662C27.7133 14.0316 28.2331 15.0847 28.3282 15.8133C28.4073 16.4218 28.392 17.2323 28.281 18.2675H28.3282C28.5433 18.2675 28.954 18.3064 29.1296 18.4271C29.6986 18.8115 29.7318 19.9461 29.4134 20.8397C29 22 27.2039 23.1328 27 25C26.8714 26.1771 27.0948 26.8692 27.4511 27.9984C27.8469 29.2529 28.3511 29.9808 29.0047 30.987C29.9227 32.4052 30.8719 33.8721 30.8719 35.6269C30.8719 37.7328 30.1975 39.3926 28.868 40.5583C27.7155 41.5658 26.0094 42.229 23.9991 42.2291Z" fill="#2F88FF" stroke="black" stroke-width="4" stroke-linecap="round" stroke-linejoin="round"/>
</svg>
