<svg width="48" height="48" viewBox="0 0 48 48" fill="none" xmlns="http://www.w3.org/2000/svg">
<path d="M8 14V17H6C4.89543 17 4 17.8954 4 19V29C4 30.1046 4.89543 31 6 31H8V34C8 35.1046 8.89543 36 10 36H37C38.1046 36 39 35.1046 39 34V31H42C43.1046 31 44 30.1046 44 29V19C44 17.8954 43.1046 17 42 17H39V14C39 12.8954 38.1046 12 37 12H10C8.89543 12 8 12.8954 8 14Z" fill="#2F88FF" stroke="black" stroke-width="4" stroke-linecap="round" stroke-linejoin="round"/>
<path d="M12 24H36" stroke="white" stroke-width="4" stroke-linecap="round" stroke-linejoin="round"/>
<circle cx="24" cy="24" r="4" fill="white"/>
<path d="M32 29V19" stroke="white" stroke-width="4" stroke-linecap="round" stroke-linejoin="round"/>
<path d="M16 29V19" stroke="white" stroke-width="4" stroke-linecap="round" stroke-linejoin="round"/>
</svg>