<svg width="48" height="48" viewBox="0 0 48 48" fill="none" xmlns="http://www.w3.org/2000/svg">
<g clip-path="url(#clip0_12383_8288)">
<path d="M38.8476 5.33887C31.884 6.56675 24.2643 12.2184 21.3141 19.9188C18.0892 28.336 17.2166 29.2574 13.284 31.3869C9.50172 33.435 4.59961 35.0723 4.59961 35.0723" stroke="black" stroke-width="4" stroke-linecap="round" stroke-linejoin="round"/>
<path d="M9.6377 33.1069C13.8571 30.5679 19.3456 33.1902 21.803 34.9109C24.2605 36.6317 26.7592 36.5501 28.1931 34.5022C29.627 32.4543 28.8491 30.0785 26.3917 28.3577C24.7533 27.2106 19.2649 24.5883 21.3136 19.9189" stroke="black" stroke-width="4" stroke-linecap="round" stroke-linejoin="round"/>
<path d="M43.189 9.59952C32.8663 12.1377 28.7696 15.3731 24.7537 27.2104" stroke="black" stroke-width="4" stroke-linecap="round" stroke-linejoin="round"/>
<path d="M20.9841 34.3374C20.2056 36.0304 18.6895 40.0553 18.853 42.6114" stroke="black" stroke-width="4" stroke-linecap="round" stroke-linejoin="round"/>
</g>
<defs>
<clipPath id="clip0_12383_8288">
<rect width="48" height="48" fill="white"/>
</clipPath>
</defs>
</svg>