<svg width="48" height="48" viewBox="0 0 48 48" fill="none" xmlns="http://www.w3.org/2000/svg">
<path d="M24 12H8C8 12 8 16 9 26C10 36 12 44 12 44H20C20 44 22 36 23 26C24 16 24 12 24 12Z" fill="#2F88FF" stroke="black" stroke-width="4" stroke-linecap="round" stroke-linejoin="round"/>
<path d="M42 34H28C28 34 28 36 29 39C30 42 31.5 44 31.5 44H38.5C38.5 44 40 42 41 39C42 36 42 34 42 34Z" fill="#2F88FF" stroke="black" stroke-width="4" stroke-linecap="round" stroke-linejoin="round"/>
<path d="M35 34V13" stroke="black" stroke-width="4" stroke-linecap="round"/>
<path d="M31 7H39L37 13H33L31 7Z" fill="#2F88FF" stroke="black" stroke-width="4" stroke-linecap="round" stroke-linejoin="round"/>
<rect x="11" y="6" width="10" height="6" fill="#2F88FF" stroke="black" stroke-width="4" stroke-linecap="round" stroke-linejoin="round"/>
</svg>