<svg width="48" height="48" viewBox="0 0 48 48" fill="none" xmlns="http://www.w3.org/2000/svg">
<rect x="17" y="37" width="14" height="7" fill="#2F88FF" stroke="black" stroke-width="4" stroke-linecap="round" stroke-linejoin="round"/>
<path d="M36 4H12C12 4 12 12 13 21C14 30 17 37 17 37H31C31 37 34 30 35 21C36 12 36 4 36 4Z" stroke="black" stroke-width="4" stroke-linecap="round" stroke-linejoin="round"/>
<path d="M20.643 21.8886C22.0743 20.0081 23.1776 17.4103 23.774 16C24.8177 17.4103 27.084 20.9484 27.7997 22.8288C28.6942 25.1793 26.4578 28 23.774 28C21.0903 28 18.8538 24.2391 20.643 21.8886Z" stroke="black" stroke-width="4" stroke-linecap="round" stroke-linejoin="round"/>
<path d="M13 10L35 10" stroke="black" stroke-width="4" stroke-linecap="round" stroke-linejoin="round"/>
</svg>