<svg width="48" height="48" viewBox="0 0 48 48" fill="none" xmlns="http://www.w3.org/2000/svg">
<path d="M14 13C14 13 14 16.3333 14 18.8333C14 21.3333 15.8182 23 18.5455 23C21.2727 23 26.7273 23 29.4545 23C32.1818 23 34 21.3333 34 18.8333C34 16.3333 34 13 34 13" stroke="black" stroke-width="4" stroke-linecap="round" stroke-linejoin="round"/>
<path d="M20 23L12 44" stroke="black" stroke-width="4" stroke-linecap="round" stroke-linejoin="round"/>
<path d="M28 23L36 44" stroke="black" stroke-width="4" stroke-linecap="round" stroke-linejoin="round"/>
<path d="M38 12H30V6C30 4.89543 29.1046 4 28 4H20C18.8954 4 18 4.89543 18 6V12H10" stroke="black" stroke-width="4" stroke-linecap="round" stroke-linejoin="round"/>
<path d="M17 31L31 31" stroke="black" stroke-width="4" stroke-linecap="round" stroke-linejoin="round"/>
<path d="M15 38L33 38" stroke="black" stroke-width="4" stroke-linecap="round" stroke-linejoin="round"/>
</svg>
