<svg width="48" height="48" viewBox="0 0 48 48" fill="none" xmlns="http://www.w3.org/2000/svg">
<path d="M35 25C27.89 22.42 20.11 22.42 13 25L12 14C19 11 29 11 36 14L35 25Z" fill="#2F88FF" stroke="black" stroke-width="4" stroke-miterlimit="2" stroke-linecap="round" stroke-linejoin="round"/>
<path d="M24 23L21 18" stroke="white" stroke-width="4" stroke-miterlimit="2" stroke-linecap="round" stroke-linejoin="round"/>
<path d="M42 39C42 40.6569 40.6569 42 39 42H9C7.34315 42 6 40.6569 6 39L6 9C6 7.34315 7.34315 6 9 6H39C40.6569 6 42 7.34315 42 9V39Z" stroke="black" stroke-width="4" stroke-miterlimit="2" stroke-linecap="round" stroke-linejoin="round"/>
<path d="M29 23.4552C25.6869 22.9349 22.3131 22.9349 19 23.4552" stroke="black" stroke-width="4" stroke-miterlimit="2" stroke-linecap="round" stroke-linejoin="round"/>
</svg>