<svg width="48" height="48" viewBox="0 0 48 48" fill="none" xmlns="http://www.w3.org/2000/svg">
<path d="M44 24H30C30 20.69 27.31 18 24 18C20.69 18 18 20.69 18 24H4C4 12.95 12.95 4 24 4C35.05 4 44 12.95 44 24Z" fill="#2F88FF" stroke="black" stroke-width="4" stroke-miterlimit="2" stroke-linejoin="round"/>
<path d="M18 24H4C4 35.05 12.95 44 24 44C35.05 44 44 35.05 44 24H30" stroke="black" stroke-width="4" stroke-miterlimit="2" stroke-linecap="round" stroke-linejoin="round"/>
<path d="M24 30C27.3137 30 30 27.3137 30 24C30 20.6863 27.3137 18 24 18C20.6863 18 18 20.6863 18 24C18 27.3137 20.6863 30 24 30Z" stroke="black" stroke-width="4" stroke-miterlimit="2" stroke-linejoin="round"/>
</svg>