<svg width="48" height="48" viewBox="0 0 48 48" fill="none" xmlns="http://www.w3.org/2000/svg">
<path d="M17 4H7C5.34315 4 4 5.34315 4 7V17V31V41C4 42.6569 5.34315 44 7 44H17H31H41C42.6569 44 44 42.6569 44 41V31V17V7C44 5.34315 42.6569 4 41 4H31H17Z" stroke="black" stroke-width="4" stroke-linecap="round" stroke-linejoin="round"/>
<line x1="23" y1="17" x2="44" y2="17" stroke="black" stroke-width="4" stroke-linecap="round" stroke-linejoin="round"/>
<line x1="4" y1="17" x2="13" y2="17" stroke="black" stroke-width="4" stroke-linecap="round" stroke-linejoin="round"/>
<line x1="35" y1="31" x2="44" y2="31" stroke="black" stroke-width="4" stroke-linecap="round" stroke-linejoin="round"/>
<line x1="6" y1="31" x2="25" y2="31" stroke="black" stroke-width="4" stroke-linecap="round" stroke-linejoin="round"/>
<line x1="17" y1="21" x2="17" y2="44" stroke="black" stroke-width="4" stroke-linecap="round" stroke-linejoin="round"/>
<path d="M31 4L31 27" stroke="black" stroke-width="4" stroke-linecap="round" stroke-linejoin="round"/>
<path d="M31 35L31 44" stroke="black" stroke-width="4" stroke-linecap="round" stroke-linejoin="round"/>
<path d="M17 4L17 13" stroke="black" stroke-width="4" stroke-linecap="round" stroke-linejoin="round"/>
<path d="M35 31C35 33.2091 33.2091 35 31 35C28.7909 35 27 33.2091 27 31C27 28.7909 28.7909 27 31 27C33.2091 27 35 28.7909 35 31Z" fill="#2F88FF" stroke="black" stroke-width="4" stroke-linecap="round" stroke-linejoin="round"/>
<path d="M21 17C21 19.2091 19.2091 21 17 21C14.7909 21 13 19.2091 13 17C13 14.7909 14.7909 13 17 13C19.2091 13 21 14.7909 21 17Z" fill="#2F88FF" stroke="black" stroke-width="4" stroke-linecap="round" stroke-linejoin="round"/>
</svg>