<svg width="48" height="48" viewBox="0 0 48 48" fill="none" xmlns="http://www.w3.org/2000/svg">
<path d="M17 24H14.09C8.52 24 4 19.5203 4 14C4 8.47968 8.52 4 14.09 4L20 9L25.91 4C31.48 4 36 8.47968 36 14C36 19.5203 31.48 24 25.91 24H23" stroke="black" stroke-width="4" stroke-miterlimit="2" stroke-linecap="round" stroke-linejoin="round"/>
<path d="M26 36H14V44H26V36Z" fill="#2F88FF" stroke="black" stroke-width="4" stroke-miterlimit="2" stroke-linecap="round" stroke-linejoin="round"/>
<path d="M26 40H36C40.42 40 44 36.42 44 32V14H36" stroke="black" stroke-width="4" stroke-miterlimit="2" stroke-linecap="round" stroke-linejoin="round"/>
<path d="M21.22 30H20H18.78C17.32 30 16.21 28.69 16.45 27.26L17.67 19.97C17.86 18.83 18.84 18 20 18C21.15 18 22.14 18.83 22.33 19.97L23.55 27.26C23.78 28.69 22.67 30 21.22 30Z" fill="#2F88FF" stroke="black" stroke-width="4" stroke-miterlimit="2" stroke-linecap="round" stroke-linejoin="round"/>
</svg>
