<svg width="48" height="48" viewBox="0 0 48 48" fill="none" xmlns="http://www.w3.org/2000/svg">
<path d="M43 25.9999C40.5466 24.992 36 21 28 26.9997C25.8971 25.8237 22 23 16 27.9997C15.299 25.1441 15.1588 18.6438 16 12.9997C16.3505 12.1598 17.7943 11.5652 22 15.9998L27 10.9999C26.6495 8.81612 24 6 16 6C13 6 10.2617 8.56527 9 12.9998C7.42284 17.5353 5 27.9998 5 33.9998C4.99999 35.8476 7.5 39.9999 17 39.9999C19 39.9999 24.8502 40.225 32 36.9998L38 41.9997" stroke="black" stroke-width="4" stroke-linecap="round" stroke-linejoin="round"/>
</svg>