<svg width="48" height="48" viewBox="0 0 48 48" fill="none" xmlns="http://www.w3.org/2000/svg">
<path d="M36 32C36 28.446 34.455 25.2529 32 23.0556C29.877 21.1554 27.0734 20 24 20C20.9266 20 18.123 21.1554 16 23.0556C13.545 25.2529 12 28.446 12 32C12 38.6274 17.3726 44 24 44C30.6274 44 36 38.6274 36 32Z" fill="#2F88FF"/>
<path d="M16 4H32V20V23.0556C29.877 21.1554 27.0734 20 24 20C20.9266 20 18.123 21.1554 16 23.0556V20V4Z" fill="#2F88FF"/>
<path d="M16 4H32M16 4H8V14L16 20M16 4V20M32 4H40V14L32 20M32 4V20M16 23.0556C18.123 21.1554 20.9266 20 24 20C27.0734 20 29.877 21.1554 32 23.0556M16 23.0556C13.545 25.2529 12 28.446 12 32C12 38.6274 17.3726 44 24 44C30.6274 44 36 38.6274 36 32C36 28.446 34.455 25.2529 32 23.0556M16 23.0556V20M32 23.0556V20" stroke="black" stroke-width="4" stroke-linecap="round" stroke-linejoin="round"/>
<path d="M32 4H40V14L32 20" stroke="black" stroke-width="4" stroke-linecap="round" stroke-linejoin="round"/>
<path d="M16 4H8V14L16 20" stroke="black" stroke-width="4" stroke-linecap="round" stroke-linejoin="round"/>
<path d="M36 32C36 28.446 34.455 25.2529 32 23.0556C29.877 21.1554 27.0734 20 24 20C20.9266 20 18.123 21.1554 16 23.0556C13.545 25.2529 12 28.446 12 32C12 38.6274 17.3726 44 24 44C30.6274 44 36 38.6274 36 32Z" fill="#2F88FF" stroke="black" stroke-width="4" stroke-linecap="round" stroke-linejoin="round"/>
<path d="M16 4.00009H32V20.0001V23.0557C29.877 21.1555 27.0734 20.0001 24 20.0001C20.9266 20.0001 18.123 21.1555 16 23.0557V20.0001V4.00009Z" fill="#2F88FF" stroke="black" stroke-width="4" stroke-linecap="round" stroke-linejoin="round"/>
<path d="M24 37V27L22 28M24 37H26M24 37H22" stroke="white" stroke-width="4" stroke-linecap="round" stroke-linejoin="round"/>
</svg>