<svg width="48" height="48" viewBox="0 0 48 48" fill="none" xmlns="http://www.w3.org/2000/svg">
<path d="M27 24C29.7614 24 32 21.7614 32 19C32 16.2386 29.7614 14 27 14C24.2386 14 22 16.2386 22 19C22 21.7614 24.2386 24 27 24Z" fill="#2F88FF" stroke="black" stroke-width="4" stroke-miterlimit="2"/>
<path d="M23 29L21 36L12 33L8 44" stroke="black" stroke-width="4" stroke-miterlimit="2" stroke-linecap="round" stroke-linejoin="round"/>
<path d="M21 36L22.49 42.48C22.71 43.37 23.51 44 24.43 44H35.01" stroke="black" stroke-width="4" stroke-miterlimit="2" stroke-linecap="round" stroke-linejoin="round"/>
<path d="M7 23L23 29L14 20L13 11" stroke="black" stroke-width="4" stroke-miterlimit="2" stroke-linecap="round" stroke-linejoin="round"/>
<path d="M12 4C14 4 14.69 4 17 4C29 4 44 5.45 44 32" stroke="black" stroke-width="4" stroke-miterlimit="2" stroke-linecap="round" stroke-linejoin="round"/>
</svg>