<svg width="48" height="48" viewBox="0 0 48 48" fill="none" xmlns="http://www.w3.org/2000/svg">
<path d="M21.37 36C22.82 30.75 27.89 27 33.73 27.62C39.29 28.21 43.71 32.9 43.99 38.48C44.06 39.95 43.86 41.36 43.43 42.67C43.17 43.47 42.39 44 41.54 44H11.7584C6.71004 44 2.92371 39.3814 3.91377 34.4311L9.99994 4H21.9999L25.9999 11L17.43 17.13L14.9999 14" fill="#2F88FF"/>
<path d="M21.37 36C22.82 30.75 27.89 27 33.73 27.62C39.29 28.21 43.71 32.9 43.99 38.48C44.06 39.95 43.86 41.36 43.43 42.67C43.17 43.47 42.39 44 41.54 44H11.7584C6.71004 44 2.92371 39.3814 3.91377 34.4311L9.99994 4H21.9999L25.9999 11L17.43 17.13L14.9999 14" stroke="black" stroke-width="4" stroke-miterlimit="2" stroke-linecap="round" stroke-linejoin="round"/>
<path d="M17.4395 17.1299L21.9995 33.9999" stroke="black" stroke-width="4" stroke-miterlimit="2" stroke-linecap="round" stroke-linejoin="round"/>
</svg>