<svg width="48" height="48" viewBox="0 0 48 48" fill="none" xmlns="http://www.w3.org/2000/svg">
<path d="M33 14C35.7614 14 38 11.7614 38 9C38 6.23858 35.7614 4 33 4C30.2386 4 28 6.23858 28 9C28 11.7614 30.2386 14 33 14Z" fill="#2F88FF" stroke="black" stroke-width="4" stroke-miterlimit="2"/>
<path d="M40 23H32.37C31.81 23 31.27 22.76 30.89 22.35L25.55 16.57C24.9 15.86 23.84 15.71 23.02 16.21L15.57 20.79C14.94 21.18 14.94 22.1 15.57 22.49L23.03 27.06C23.62 27.42 23.99 28.07 23.99 28.77L24 38" stroke="black" stroke-width="4" stroke-miterlimit="2" stroke-linecap="round" stroke-linejoin="round"/>
<circle cx="36.5" cy="36.5" r="7.5" stroke="black" stroke-width="4"/>
<circle cx="11.5" cy="36.5" r="7.5" stroke="black" stroke-width="4"/>
</svg>
