<svg width="48" height="48" viewBox="0 0 48 48" fill="none" xmlns="http://www.w3.org/2000/svg">
<path d="M8 28L6 24H42L40 28" stroke="black" stroke-width="4" stroke-miterlimit="2" stroke-linecap="round" stroke-linejoin="round"/>
<path d="M28.0001 4L10 24H28.0001V4Z" fill="#2F88FF" stroke="black" stroke-width="4" stroke-miterlimit="2" stroke-linecap="round" stroke-linejoin="round"/>
<path d="M28 11L38 24H28V11Z" stroke="black" stroke-width="4" stroke-miterlimit="2" stroke-linecap="round" stroke-linejoin="round"/>
<path d="M4 34L6.5 35.3514C8.1 36.2162 9.9 36.2162 11.5 35.3514C13.1 34.4865 14.9 34.4865 16.5 35.3514C18.1 36.2162 19.9 36.2162 21.5 35.3514C23.1 34.4865 24.9 34.4865 26.5 35.3514C28.1 36.2162 29.9 36.2162 31.5 35.3514C33.1 34.4865 34.9 34.4865 36.5 35.3514C38.1 36.2162 39.9 36.2162 41.5 35.3514L44 34" stroke="black" stroke-width="4" stroke-miterlimit="2" stroke-linecap="round" stroke-linejoin="round"/>
<path d="M4 40L6.5 41.3514C8.1 42.2162 9.9 42.2162 11.5 41.3514C13.1 40.4865 14.9 40.4865 16.5 41.3514C18.1 42.2162 19.9 42.2162 21.5 41.3514C23.1 40.4865 24.9 40.4865 26.5 41.3514C28.1 42.2162 29.9 42.2162 31.5 41.3514C33.1 40.4865 34.9 40.4865 36.5 41.3514C38.1 42.2162 39.9 42.2162 41.5 41.3514L44 40" stroke="black" stroke-width="4" stroke-miterlimit="2" stroke-linecap="round" stroke-linejoin="round"/>
</svg>