<svg width="48" height="48" viewBox="0 0 48 48" fill="none" xmlns="http://www.w3.org/2000/svg">
<path d="M28 33.1679C30.3069 32.16 32.16 30.3069 33.1679 28" stroke="black" stroke-width="4" stroke-linecap="round"/>
<path d="M14.832 28C15.84 30.3069 17.6931 32.16 19.9999 33.1679" stroke="black" stroke-width="4" stroke-linecap="round"/>
<path d="M19.9999 14.832C17.6931 15.84 15.84 17.6931 14.832 19.9999" stroke="black" stroke-width="4" stroke-linecap="round"/>
<path d="M28 14.832C30.3069 15.84 32.16 17.6931 33.1679 19.9999" stroke="black" stroke-width="4" stroke-linecap="round"/>
<path d="M30 40.9758C35.1145 39.1681 39.1681 35.1145 40.9758 30" stroke="black" stroke-width="4" stroke-linecap="round"/>
<path d="M7.02441 30C8.83212 35.1145 12.8857 39.1681 18.0002 40.9758" stroke="black" stroke-width="4" stroke-linecap="round"/>
<path d="M18.0002 7.02441C12.8857 8.83212 8.83212 12.8857 7.02441 18.0002" stroke="black" stroke-width="4" stroke-linecap="round"/>
<path d="M30 7.02441C35.1145 8.83212 39.1681 12.8857 40.9758 18.0002" stroke="black" stroke-width="4" stroke-linecap="round"/>
<path d="M27 17H21L18 7L20 4H28L30 7L27 17Z" fill="#2F88FF" stroke="black" stroke-width="4" stroke-miterlimit="2" stroke-linejoin="round"/>
<path d="M17 21V27L7 30L4 28L4 20L7 18L17 21Z" fill="#2F88FF" stroke="black" stroke-width="4" stroke-miterlimit="2" stroke-linejoin="round"/>
<path d="M21 31H27L30 41L28 44H20L18 41L21 31Z" fill="#2F88FF" stroke="black" stroke-width="4" stroke-miterlimit="2" stroke-linejoin="round"/>
<path d="M31 27V21L41 18C42.08 18.8 42.92 19.2 44 20V28C42.92 28.8 42.08 29.2 41 30L31 27Z" fill="#2F88FF" stroke="black" stroke-width="4" stroke-miterlimit="2" stroke-linejoin="round"/>
</svg>