<svg width="48" height="48" viewBox="0 0 48 48" fill="none" xmlns="http://www.w3.org/2000/svg">
<path d="M24 41C33.39 41 41 33.39 41 24C41 14.61 33.39 7 24 7C14.61 7 7 14.61 7 24C7 33.39 14.61 41 24 41Z" stroke="black" stroke-width="4" stroke-miterlimit="2" stroke-linejoin="round"/>
<path d="M24 32C28.42 32 32 28.42 32 24C32 19.58 28.42 16 24 16C19.58 16 16 19.58 16 24C16 28.42 19.58 32 24 32Z" stroke="black" stroke-width="4" stroke-miterlimit="2" stroke-linejoin="round"/>
<path d="M4 24H44" stroke="black" stroke-width="4" stroke-miterlimit="2" stroke-linecap="round" stroke-linejoin="round"/>
<path d="M24 4V44" stroke="black" stroke-width="4" stroke-miterlimit="2" stroke-linecap="round" stroke-linejoin="round"/>
</svg>