<svg width="48" height="48" viewBox="0 0 48 48" fill="none" xmlns="http://www.w3.org/2000/svg">
<path d="M4 34L6.5 35.3514C8.1 36.2162 9.9 36.2162 11.5 35.3514C13.1 34.4865 14.9 34.4865 16.5 35.3514C18.1 36.2162 19.9 36.2162 21.5 35.3514C23.1 34.4865 24.9 34.4865 26.5 35.3514C28.1 36.2162 29.9 36.2162 31.5 35.3514C33.1 34.4865 34.9 34.4865 36.5 35.3514C38.1 36.2162 39.9 36.2162 41.5 35.3514L44 34" stroke="black" stroke-width="4" stroke-miterlimit="2" stroke-linecap="round" stroke-linejoin="round"/>
<path d="M4 40L6.5 41.3514C8.1 42.2162 9.9 42.2162 11.5 41.3514C13.1 40.4865 14.9 40.4865 16.5 41.3514C18.1 42.2162 19.9 42.2162 21.5 41.3514C23.1 40.4865 24.9 40.4865 26.5 41.3514C28.1 42.2162 29.9 42.2162 31.5 41.3514C33.1 40.4865 34.9 40.4865 36.5 41.3514C38.1 42.2162 39.9 42.2162 41.5 41.3514L44 40" stroke="black" stroke-width="4" stroke-miterlimit="2" stroke-linecap="round" stroke-linejoin="round"/>
<path d="M43.5877 28C44.3774 24.171 44.0475 20.0621 42.398 16.1932C38.0894 6.02588 26.343 1.27715 16.1861 5.596C7.28884 9.37498 2.5503 18.8325 4.38973 27.94" stroke="black" stroke-width="4" stroke-miterlimit="2" stroke-linecap="round" stroke-linejoin="round"/>
<path d="M16 6C14.47 13.17 17.7899 20.11 23.9999 24" stroke="black" stroke-width="4" stroke-miterlimit="2" stroke-linecap="round" stroke-linejoin="round"/>
<path d="M23.3896 28C23.7396 26.71 23.9496 25.37 23.9996 24" stroke="black" stroke-width="4" stroke-miterlimit="2" stroke-linecap="round" stroke-linejoin="round"/>
<path d="M44 26.0002C38.55 21.0902 30.47 20.5602 24 24.0002" stroke="black" stroke-width="4" stroke-miterlimit="2" stroke-linecap="round" stroke-linejoin="round"/>
<path d="M18 16C18 16 28.56 7.50998 41 14" stroke="black" stroke-width="4" stroke-miterlimit="2" stroke-linecap="round" stroke-linejoin="round"/>
<path d="M13 28C10.01 24.73 7.26 20.29 7 14" stroke="black" stroke-width="4" stroke-miterlimit="2" stroke-linecap="round" stroke-linejoin="round"/>
<path d="M34.3097 22.0898C34.3097 22.0898 34.5297 24.5898 33.9297 28.0398" stroke="black" stroke-width="4" stroke-miterlimit="2" stroke-linecap="round" stroke-linejoin="round"/>
</svg>