<svg width="51" height="51" viewBox="0 0 51 51" fill="none" xmlns="http://www.w3.org/2000/svg">
<rect width="48" height="48" transform="translate(2)" fill="white" fill-opacity="0.01"/>
<rect x="3" width="48" height="48" fill="white" fill-opacity="0.01"/>
<path d="M17.3757 9.79423C18.1022 9.79423 18.7716 10.1883 19.1243 10.8235L21.5707 15.2303C21.891 15.8073 21.9061 16.5052 21.6109 17.0955L19.2541 21.8092C19.2541 21.8092 19.9371 25.3206 22.7955 28.179C25.654 31.0374 29.1536 31.7086 29.1536 31.7086L33.8665 29.3522C34.4572 29.0568 35.1556 29.0721 35.7328 29.393L40.1521 31.85C40.7868 32.2028 41.1803 32.8719 41.1803 33.598L41.1803 38.6715C41.1803 41.2552 38.7804 43.1213 36.3324 42.2952C31.3044 40.5987 23.4997 37.3685 18.5529 32.4216C13.606 27.4748 10.3758 19.6701 8.67928 14.6422C7.85326 12.1941 9.71935 9.79423 12.303 9.79423L17.3757 9.79423Z" fill="#2F88FF" stroke="black" stroke-width="4" stroke-linejoin="round"/>
<path d="M31 20L44 7.5" stroke="black" stroke-width="4" stroke-linecap="round" stroke-linejoin="round"/>
<path d="M44 20H31V7" stroke="black" stroke-width="4" stroke-linecap="round" stroke-linejoin="round"/>
</svg>
