<svg width="48" height="48" viewBox="0 0 48 48" fill="none" xmlns="http://www.w3.org/2000/svg">
<path d="M38.5121 9.5362C34.8466 6.10249 29.9188 4 24.5 4C13.1782 4 4 13.1782 4 24.5C4 35.8218 13.1782 45 24.5 45C30.1148 45 35.2024 42.7427 38.9048 39.0861L24 24L38.5121 9.5362Z" fill="#2F88FF" stroke="black" stroke-width="4" stroke-linejoin="round"/>
<path d="M40 28C42.2091 28 44 26.2091 44 24C44 21.7909 42.2091 20 40 20C37.7909 20 36 21.7909 36 24C36 26.2091 37.7909 28 40 28Z" fill="#2F88FF" stroke="black" stroke-width="4" stroke-linejoin="round"/>
<path d="M17 13V21" stroke="white" stroke-width="4" stroke-linecap="round" stroke-linejoin="round"/>
<path d="M13 17H21" stroke="white" stroke-width="4" stroke-linecap="round" stroke-linejoin="round"/>
</svg>