<svg width="48" height="48" viewBox="0 0 48 48" fill="none" xmlns="http://www.w3.org/2000/svg">
<path d="M32 18H16C9.37258 18 4 23.3726 4 30C4 36.6274 9.37258 42 16 42H32C38.6274 42 44 36.6274 44 30C44 23.3726 38.6274 18 32 18Z" fill="#2F88FF" stroke="black" stroke-width="4" stroke-linejoin="round"/>
<path d="M16 26V34" stroke="white" stroke-width="4" stroke-linecap="round" stroke-linejoin="round"/>
<path d="M12 30H20" stroke="white" stroke-width="4" stroke-linecap="round" stroke-linejoin="round"/>
<path d="M24 16V9.71429H32V4" stroke="black" stroke-width="4" stroke-linecap="round" stroke-linejoin="round"/>
<path d="M32 34C34.2091 34 36 32.2091 36 30C36 27.7909 34.2091 26 32 26C29.7909 26 28 27.7909 28 30C28 32.2091 29.7909 34 32 34Z" fill="#43CCF8" stroke="white" stroke-width="4" stroke-linejoin="round"/>
</svg>