<svg width="48" height="48" viewBox="0 0 48 48" fill="none" xmlns="http://www.w3.org/2000/svg">
<path d="M11.2632 44L14.6271 35.6852C10.031 32.5934 7 27.2927 7 21.2727C7 11.7333 14.6112 4 24 4C33.3888 4 41 11.7333 41 21.2727C41 27.2927 37.969 32.5934 33.3729 35.6852L36.7368 44H11.2632Z" fill="#2F88FF" stroke="black" stroke-width="4" stroke-linejoin="round"/>
<path d="M20 38V44" stroke="white" stroke-width="4" stroke-linecap="round" stroke-linejoin="round"/>
<path d="M28 38V44" stroke="white" stroke-width="4" stroke-linecap="round" stroke-linejoin="round"/>
<path d="M17 23C18.6569 23 20 21.6569 20 20C20 18.3431 18.6569 17 17 17C15.3431 17 14 18.3431 14 20C14 21.6569 15.3431 23 17 23Z" fill="#43CCF8" stroke="white" stroke-width="4" stroke-linejoin="round"/>
<path d="M31 23C32.6569 23 34 21.6569 34 20C34 18.3431 32.6569 17 31 17C29.3431 17 28 18.3431 28 20C28 21.6569 29.3431 23 31 23Z" fill="#43CCF8" stroke="white" stroke-width="4" stroke-linejoin="round"/>
<path d="M32 44H24" stroke="black" stroke-width="4" stroke-linecap="round" stroke-linejoin="round"/>
<path d="M24 44H16" stroke="black" stroke-width="4" stroke-linecap="round" stroke-linejoin="round"/>
</svg>