<svg width="48" height="48" viewBox="0 0 48 48" fill="none" xmlns="http://www.w3.org/2000/svg">
<path d="M24 30V24" stroke="black" stroke-width="4" stroke-linecap="round" stroke-linejoin="round"/>
<path d="M6 30H24H42V42H6V30Z" fill="#2F88FF" stroke="black" stroke-width="4" stroke-linecap="round" stroke-linejoin="round"/>
<line x1="6" y1="12.5" x2="6" y2="11.5" stroke="black" stroke-width="4" stroke-linecap="round" stroke-linejoin="round"/>
<line x1="6" y1="18" x2="6" y2="17" stroke="black" stroke-width="4" stroke-linecap="round" stroke-linejoin="round"/>
<line x1="6" y1="7" x2="6" y2="6" stroke="black" stroke-width="4" stroke-linecap="round" stroke-linejoin="round"/>
<line x1="42" y1="12.5" x2="42" y2="11.5" stroke="black" stroke-width="4" stroke-linecap="round" stroke-linejoin="round"/>
<line x1="42" y1="18" x2="42" y2="17" stroke="black" stroke-width="4" stroke-linecap="round" stroke-linejoin="round"/>
<line x1="42" y1="7" x2="42" y2="6" stroke="black" stroke-width="4" stroke-linecap="round" stroke-linejoin="round"/>
<line x1="42" y1="18" x2="41" y2="18" stroke="black" stroke-width="4" stroke-linecap="round" stroke-linejoin="round"/>
<line x1="7" y1="18" x2="6" y2="18" stroke="black" stroke-width="4" stroke-linecap="round" stroke-linejoin="round"/>
<line x1="7" y1="6" x2="6" y2="6" stroke="black" stroke-width="4" stroke-linecap="round" stroke-linejoin="round"/>
<line x1="14" y1="6" x2="13" y2="6" stroke="black" stroke-width="4" stroke-linecap="round" stroke-linejoin="round"/>
<line x1="21" y1="6" x2="20" y2="6" stroke="black" stroke-width="4" stroke-linecap="round" stroke-linejoin="round"/>
<line x1="21" y1="18" x2="20" y2="18" stroke="black" stroke-width="4" stroke-linecap="round" stroke-linejoin="round"/>
<line x1="28" y1="6" x2="27" y2="6" stroke="black" stroke-width="4" stroke-linecap="round" stroke-linejoin="round"/>
<line x1="14" y1="18" x2="13" y2="18" stroke="black" stroke-width="4" stroke-linecap="round" stroke-linejoin="round"/>
<line x1="28" y1="18" x2="27" y2="18" stroke="black" stroke-width="4" stroke-linecap="round" stroke-linejoin="round"/>
<line x1="35" y1="6" x2="34" y2="6" stroke="black" stroke-width="4" stroke-linecap="round" stroke-linejoin="round"/>
<line x1="35" y1="18" x2="34" y2="18" stroke="black" stroke-width="4" stroke-linecap="round" stroke-linejoin="round"/>
<line x1="42" y1="6" x2="41" y2="6" stroke="black" stroke-width="4" stroke-linecap="round" stroke-linejoin="round"/>
</svg>