<svg width="48" height="48" viewBox="0 0 48 48" fill="none" xmlns="http://www.w3.org/2000/svg">
<path d="M21 34.9929C21 35.8067 21 36.471 21 36.9857C21 37.8714 21 39.2 21 40.9714C21 41.5395 20.5772 42 20.0556 42H4.94444C4.42284 42 4 41.5395 4 40.9714V7.02857C4 6.46051 4.42284 6 4.94444 6H20.0556C20.5772 6 21 6.46051 21 7.02857C21 8.8 21 10.1286 21 11.0143C21 11.529 21 12.1933 21 13.0071" stroke="black" stroke-width="4" stroke-linecap="round"/>
<path d="M27 13.0071C27 12.1933 27 11.529 27 11.0143C27 10.1286 27 8.8 27 7.02857C27 6.46051 27.4228 6 27.9444 6H43.0556C43.5772 6 44 6.46051 44 7.02857V40.9714C44 41.5395 43.5772 42 43.0556 42H27.9444C27.4228 42 27 41.5395 27 40.9714C27 39.2 27 37.8714 27 36.9857C27 36.471 27 35.8067 27 34.9929" stroke="black" stroke-width="4" stroke-linecap="round"/>
<path d="M12.5 38C13.6046 38 14.5 37.1046 14.5 36C14.5 34.8954 13.6046 34 12.5 34C11.3954 34 10.5 34.8954 10.5 36C10.5 37.1046 11.3954 38 12.5 38Z" fill="black"/>
<path d="M35.5 38C36.6046 38 37.5 37.1046 37.5 36C37.5 34.8954 36.6046 34 35.5 34C34.3954 34 33.5 34.8954 33.5 36C33.5 37.1046 34.3954 38 35.5 38Z" fill="black"/>
<path d="M16 23.5H32" stroke="black" stroke-width="4" stroke-linecap="round"/>
<path d="M27.2231 28.2729L28.8141 26.682L31.9961 23.5L28.8141 20.318L27.2231 18.727" stroke="black" stroke-width="4" stroke-linecap="round" stroke-linejoin="round"/>
</svg>