<svg width="48" height="48" viewBox="0 0 48 48" fill="none" xmlns="http://www.w3.org/2000/svg">
<rect x="4" y="8" width="40" height="32" stroke="black" stroke-width="4" stroke-linecap="round" stroke-linejoin="round"/>
<path d="M4 19C4 19 13 13 24 19C35 25 44 19 44 19" stroke="black" stroke-width="4" stroke-linecap="round" stroke-linejoin="round"/>
<path d="M4 29C4 29 13 23 24 29C35 35 44 29 44 29" stroke="black" stroke-width="4" stroke-linecap="round" stroke-linejoin="round"/>
<path d="M31.0007 8C31.0007 8 37.0007 16 31.0007 24C25.0007 32 31.0007 40 31.0007 40" stroke="black" stroke-width="4" stroke-linecap="round" stroke-linejoin="round"/>
<path d="M17.0007 8C17.0007 8 23.0007 16 17.0007 24C11.0007 32 17.0007 40 17.0007 40" stroke="black" stroke-width="4" stroke-linecap="round" stroke-linejoin="round"/>
</svg>
