<svg width="48" height="48" viewBox="0 0 48 48" fill="none" xmlns="http://www.w3.org/2000/svg">
<path fill-rule="evenodd" clip-rule="evenodd" d="M24 37C28.4183 37 32.4183 35.2091 35.3138 32.3138C38.2091 29.4183 40 25.4183 40 21C40 16.5817 38.2091 12.5817 35.3138 9.68629C32.4183 6.79086 28.4183 5 24 5C19.5817 5 15.5817 6.79086 12.6863 9.68629C9.79086 12.5817 8 16.5817 8 21C8 25.4183 9.79086 29.4183 12.6863 32.3138C15.5817 35.2091 19.5817 37 24 37Z" fill="#2F88FF" stroke="black" stroke-width="4" stroke-linecap="round"/>
<path d="M39.5562 36.5564C35.5749 40.5374 30.0749 43 23.9997 43C17.9246 43 12.4246 40.5374 8.44336 36.5564" stroke="black" stroke-width="4" stroke-linecap="round"/>
</svg>