<svg width="48" height="48" viewBox="0 0 48 48" fill="none" xmlns="http://www.w3.org/2000/svg">
<path fill-rule="evenodd" clip-rule="evenodd" d="M21 40C25.4183 40 29.4183 38.2091 32.3138 35.3138C35.2091 32.4183 37 28.4183 37 24C37 19.5817 35.2091 15.5817 32.3138 12.6863C29.4183 9.79086 25.4183 8 21 8C16.5817 8 12.5817 9.79086 9.68629 12.6863C6.79086 15.5817 5 19.5817 5 24C5 28.4183 6.79086 32.4183 9.68629 35.3138C12.5817 38.2091 16.5817 40 21 40Z" fill="#2F88FF" stroke="black" stroke-width="4" stroke-linecap="round"/>
<path d="M36.5566 39.5564C40.5377 35.5751 43.0002 30.0751 43.0002 24C43.0002 17.9248 40.5377 12.4248 36.5566 8.4436" stroke="black" stroke-width="4" stroke-linecap="round"/>
</svg>