<svg width="48" height="48" viewBox="0 0 48 48" fill="none" xmlns="http://www.w3.org/2000/svg">
<path fill-rule="evenodd" clip-rule="evenodd" d="M27 40C31.4183 40 35.4183 38.2091 38.3138 35.3138C41.2091 32.4183 43 28.4183 43 24C43 19.5817 41.2091 15.5817 38.3138 12.6863C35.4183 9.79086 31.4183 8 27 8C22.5817 8 18.5817 9.79086 15.6863 12.6863C12.7909 15.5817 11 19.5817 11 24C11 28.4183 12.7909 32.4183 15.6863 35.3138C18.5817 38.2091 22.5817 40 27 40Z" fill="#2F88FF" stroke="black" stroke-width="4" stroke-linecap="round"/>
<path d="M11.4437 8.4436C7.46244 12.4248 5 17.9248 5 24C5 30.0751 7.46244 35.5751 11.4437 39.5564" stroke="black" stroke-width="4" stroke-linecap="round"/>
</svg>