<svg width="48" height="48" viewBox="0 0 48 48" fill="none" xmlns="http://www.w3.org/2000/svg">
<path fill-rule="evenodd" clip-rule="evenodd" d="M24 43C28.4183 43 32.4183 41.2091 35.3138 38.3138C38.2091 35.4183 40 31.4183 40 27C40 22.5817 38.2091 18.5817 35.3138 15.6863C32.4183 12.7909 28.4183 11 24 11C19.5817 11 15.5817 12.7909 12.6863 15.6863C9.79086 18.5817 8 22.5817 8 27C8 31.4183 9.79086 35.4183 12.6863 38.3138C15.5817 41.2091 19.5817 43 24 43Z" fill="#2F88FF" stroke="black" stroke-width="4" stroke-linecap="round"/>
<path d="M39.5566 11.4437C35.5754 7.46244 30.0754 5 24.0002 5C17.9251 5 12.4251 7.46244 8.44385 11.4437" stroke="black" stroke-width="4" stroke-linecap="round"/>
</svg>