<svg width="48" height="48" viewBox="0 0 48 48" fill="none" xmlns="http://www.w3.org/2000/svg">
<rect width="48" height="48" fill="white" fill-opacity="0.01"/>
<path d="M44 8V16V32V40H34V32H44V16H34V8H44Z" fill="#09C8E2"/>
<path d="M44 8V16V32V40H34V32H44V16H34V8H44Z" fill="#2F88FF"/>
<path d="M4 16V8H14V16H4V32H14V40H4V32V16Z" fill="#09C8E2"/>
<path d="M4 16V8H14V16H4V32H14V40H4V32V16Z" fill="#2F88FF"/>
<path d="M44 16V8H34M44 16V32M44 16H34M4 16V8H14M4 16V32M4 16H14M4 32V40H14M4 32H14M44 32V40H34M44 32H34M34 8V16M34 8H30M34 40V32M34 40H30M14 8V16M14 8H18M14 40V32M14 40H18M14 16H18M34 16H30M34 32H30M14 32H18" stroke="black" stroke-width="4" stroke-linecap="round" stroke-linejoin="round"/>
<path d="M24 4V44" stroke="black" stroke-width="4" stroke-linecap="round" stroke-linejoin="round" stroke-dasharray="2 6"/>
</svg>
