<svg width="48" height="48" viewBox="0 0 48 48" fill="none" xmlns="http://www.w3.org/2000/svg">
<rect x="6" y="6" width="36" height="36" rx="3" fill="#2F88FF" stroke="black" stroke-width="4" stroke-linejoin="round"/>
<path fill-rule="evenodd" clip-rule="evenodd" d="M24 22.5C25.3807 22.5 26.5 21.3807 26.5 20C26.5 18.6193 25.3807 17.5 24 17.5C22.6193 17.5 21.5 18.6193 21.5 20C21.5 21.3807 22.6193 22.5 24 22.5Z" fill="white"/>
<path fill-rule="evenodd" clip-rule="evenodd" d="M24 30.5C25.3807 30.5 26.5 29.3807 26.5 28C26.5 26.6193 25.3807 25.5 24 25.5C22.6193 25.5 21.5 26.6193 21.5 28C21.5 29.3807 22.6193 30.5 24 30.5Z" fill="white"/>
<path d="M15.5 17V31" stroke="white" stroke-width="4" stroke-linecap="round" stroke-linejoin="round"/>
<path d="M32.5 17V31" stroke="white" stroke-width="4" stroke-linecap="round" stroke-linejoin="round"/>
</svg>