<svg width="48" height="48" viewBox="0 0 48 48" fill="none" xmlns="http://www.w3.org/2000/svg">
<rect width="48" height="48" fill="white" fill-opacity="0.01"/>
<path d="M4 7.00012H44" stroke="black" stroke-width="4" stroke-linecap="round"/>
<path d="M4 23.0001H15" stroke="black" stroke-width="4" stroke-linecap="round"/>
<path d="M4 39.0001H15" stroke="black" stroke-width="4" stroke-linecap="round"/>
<path d="M31.5 34.0001C36.1944 34.0001 40 30.1945 40 25.5001C40 20.8057 36.1944 17.0001 31.5 17.0001C26.8056 17.0001 23 20.8057 23 25.5001C23 30.1945 26.8056 34.0001 31.5 34.0001Z" fill="#09C8E2"/>
<path d="M31.5 34.0001C36.1944 34.0001 40 30.1945 40 25.5001C40 20.8057 36.1944 17.0001 31.5 17.0001C26.8056 17.0001 23 20.8057 23 25.5001C23 30.1945 26.8056 34.0001 31.5 34.0001Z" fill="#2F88FF"/>
<path d="M31.5 34.0001C36.1944 34.0001 40 30.1945 40 25.5001C40 20.8057 36.1944 17.0001 31.5 17.0001C26.8056 17.0001 23 20.8057 23 25.5001C23 30.1945 26.8056 34.0001 31.5 34.0001Z" stroke="black" stroke-width="4"/>
<path d="M37 32.0001L44 39.0506" stroke="black" stroke-width="4" stroke-linecap="round"/>
</svg>
