<svg width="48" height="48" viewBox="0 0 48 48" fill="none" xmlns="http://www.w3.org/2000/svg">
<path d="M39 6H9C7.34315 6 6 7.34315 6 9V39C6 40.6569 7.34315 42 9 42H39C40.6569 42 42 40.6569 42 39V9C42 7.34315 40.6569 6 39 6Z" fill="#2F88FF" stroke="black" stroke-width="4" stroke-linejoin="round"/>
<path d="M24 28.625V24.625C27.3137 24.625 30 21.9387 30 18.625C30 15.3113 27.3137 12.625 24 12.625C20.6863 12.625 18 15.3113 18 18.625" stroke="white" stroke-width="4" stroke-linecap="round" stroke-linejoin="round"/>
<path fill-rule="evenodd" clip-rule="evenodd" d="M24 37.625C25.3807 37.625 26.5 36.5057 26.5 35.125C26.5 33.7443 25.3807 32.625 24 32.625C22.6193 32.625 21.5 33.7443 21.5 35.125C21.5 36.5057 22.6193 37.625 24 37.625Z" fill="white"/>
</svg>