<svg width="48" height="48" viewBox="0 0 48 48" fill="none" xmlns="http://www.w3.org/2000/svg">
<path d="M24 9C24 6.23858 21.7614 4 19 4C16.2386 4 14 6.23858 14 9V19C14 21.7614 16.2386 24 19 24C21.7614 24 24 21.7614 24 19V9Z" stroke="black" stroke-width="4"/>
<path d="M42 9C42 6.23858 39.7614 4 37 4C34.2386 4 32 6.23858 32 9V19C32 21.7614 34.2386 24 37 24C39.7614 24 42 21.7614 42 19V9Z" stroke="black" stroke-width="4"/>
<path d="M36 32L42 38L36 44" stroke="black" stroke-width="4" stroke-linecap="round" stroke-linejoin="round"/>
<path d="M6 24H7" stroke="black" stroke-width="4" stroke-linecap="round"/>
<path d="M42 38H19" stroke="black" stroke-width="4" stroke-linecap="round" stroke-linejoin="round"/>
</svg>