<svg width="48" height="48" viewBox="0 0 48 48" fill="none" xmlns="http://www.w3.org/2000/svg">
<path fill-rule="evenodd" clip-rule="evenodd" d="M24 44C29.5229 44 34.5229 41.7613 38.1422 38.1422C41.7613 34.5229 44 29.5229 44 24C44 18.4772 41.7613 13.4772 38.1422 9.85787C34.5229 6.23858 29.5229 4 24 4C18.4772 4 13.4772 6.23858 9.85787 9.85787C6.23858 13.4772 4 18.4772 4 24C4 29.5229 6.23858 34.5229 9.85787 38.1422C13.4772 41.7613 18.4772 44 24 44Z" fill="#2F88FF" stroke="black" stroke-width="4" stroke-linecap="round"/>
<path d="M14.1005 14.1005C11.567 16.634 10 20.134 10 24C10 27.866 11.567 31.366 14.1005 33.8995" stroke="white" stroke-width="4" stroke-linecap="round"/>
</svg>