<svg width="48" height="48" viewBox="0 0 48 48" fill="none" xmlns="http://www.w3.org/2000/svg">
<rect width="48" height="48" fill="white" fill-opacity="0.01"/>
<path d="M12 8C12 10.2091 10.2091 12 8 12C5.79086 12 4 10.2091 4 8C4 5.79086 5.79086 4 8 4C10.2091 4 12 5.79086 12 8Z" fill="#09C8E2"/>
<path d="M12 8C12 10.2091 10.2091 12 8 12C5.79086 12 4 10.2091 4 8C4 5.79086 5.79086 4 8 4C10.2091 4 12 5.79086 12 8Z" fill="#2F88FF"/>
<path d="M12 8C12 10.2091 10.2091 12 8 12M12 8C12 5.79086 10.2091 4 8 4C5.79086 4 4 5.79086 4 8C4 10.2091 5.79086 12 8 12M12 8H18M8 12V18" stroke="black" stroke-width="4" stroke-linecap="round" stroke-linejoin="round"/>
<path d="M12 40C12 37.7909 10.2091 36 8 36C5.79086 36 4 37.7909 4 40C4 42.2091 5.79086 44 8 44C10.2091 44 12 42.2091 12 40Z" fill="#09C8E2"/>
<path d="M12 40C12 37.7909 10.2091 36 8 36C5.79086 36 4 37.7909 4 40C4 42.2091 5.79086 44 8 44C10.2091 44 12 42.2091 12 40Z" fill="#2F88FF"/>
<path d="M12 40C12 37.7909 10.2091 36 8 36M12 40C12 42.2091 10.2091 44 8 44C5.79086 44 4 42.2091 4 40C4 37.7909 5.79086 36 8 36M12 40H18M8 36V30" stroke="black" stroke-width="4" stroke-linecap="round" stroke-linejoin="round"/>
<path d="M36 40C36 37.7909 37.7909 36 40 36C42.2091 36 44 37.7909 44 40C44 42.2091 42.2091 44 40 44C37.7909 44 36 42.2091 36 40Z" fill="#09C8E2"/>
<path d="M36 40C36 37.7909 37.7909 36 40 36C42.2091 36 44 37.7909 44 40C44 42.2091 42.2091 44 40 44C37.7909 44 36 42.2091 36 40Z" fill="#2F88FF"/>
<path d="M36 40C36 37.7909 37.7909 36 40 36M36 40C36 42.2091 37.7909 44 40 44C42.2091 44 44 42.2091 44 40C44 37.7909 42.2091 36 40 36M36 40H30M40 36V30" stroke="black" stroke-width="4" stroke-linecap="round" stroke-linejoin="round"/>
<path d="M36 8C36 10.2091 37.7909 12 40 12C42.2091 12 44 10.2091 44 8C44 5.79086 42.2091 4 40 4C37.7909 4 36 5.79086 36 8Z" fill="#09C8E2"/>
<path d="M36 8C36 10.2091 37.7909 12 40 12C42.2091 12 44 10.2091 44 8C44 5.79086 42.2091 4 40 4C37.7909 4 36 5.79086 36 8Z" fill="#2F88FF"/>
<path d="M36 8C36 10.2091 37.7909 12 40 12M36 8C36 5.79086 37.7909 4 40 4C42.2091 4 44 5.79086 44 8C44 10.2091 42.2091 12 40 12M36 8H30M40 12V18" stroke="black" stroke-width="4" stroke-linecap="round" stroke-linejoin="round"/>
<path d="M17 24H31" stroke="black" stroke-width="4" stroke-linecap="round" stroke-linejoin="round"/>
<path d="M24 31V17" stroke="black" stroke-width="4" stroke-linecap="round" stroke-linejoin="round"/>
</svg>
