<svg width="48" height="48" viewBox="0 0 48 48" fill="none" xmlns="http://www.w3.org/2000/svg">
<path d="M7.57932 35.4207C5.32303 32.1826 4 28.2458 4 24C4 12.9543 12.9543 4 24 4C35.0457 4 44 12.9543 44 24C44 35.0457 35.0457 44 24 44C19.7542 44 15.8174 42.677 12.5793 40.4207M7.57932 35.4207C8.93657 37.3685 10.6315 39.0634 12.5793 40.4207M7.57932 35.4207L16 27M12.5793 40.4207L21 32M16 27L20 23L25 28L21 32M16 27L21 32" stroke="black" stroke-width="4" stroke-linecap="round" stroke-linejoin="round"/>
<path d="M17 14H21M19 12V16" stroke="black" stroke-width="4" stroke-linecap="round" stroke-linejoin="round"/>
<path d="M28 17H34M31 14V20" stroke="black" stroke-width="4" stroke-linecap="round" stroke-linejoin="round"/>
<path d="M32 29H36M34 27V31" stroke="black" stroke-width="4" stroke-linecap="round" stroke-linejoin="round"/>
</svg>