<svg width="48" height="48" viewBox="0 0 48 48" fill="none" xmlns="http://www.w3.org/2000/svg">
<g id="Others/mind-mapping">
<rect width="48" height="48" fill="white" fill-opacity="0.01"/>
<g id="mind-mapping">
<path id="&#230;&#164;&#173;&#229;&#156;&#134;&#229;&#189;&#162;" d="M8 28C10.2091 28 12 26.2091 12 24C12 21.7909 10.2091 20 8 20C5.79086 20 4 21.7909 4 24C4 26.2091 5.79086 28 8 28Z" fill="#2F88FF" stroke="black" stroke-width="4" stroke-linejoin="round"/>
<path id="&#230;&#164;&#173;&#229;&#156;&#134;&#229;&#189;&#162;&#229;&#164;&#135;&#228;&#187;&#189;" d="M42 8C43.1046 8 44 7.10457 44 6C44 4.89543 43.1046 4 42 4C40.8954 4 40 4.89543 40 6C40 7.10457 40.8954 8 42 8Z" fill="#2F88FF" stroke="black" stroke-width="4" stroke-linejoin="round"/>
<path id="&#230;&#164;&#173;&#229;&#156;&#134;&#229;&#189;&#162;&#229;&#164;&#135;&#228;&#187;&#189; 2" d="M42 26C43.1046 26 44 25.1046 44 24C44 22.8954 43.1046 22 42 22C40.8954 22 40 22.8954 40 24C40 25.1046 40.8954 26 42 26Z" fill="#2F88FF" stroke="black" stroke-width="4" stroke-linejoin="round"/>
<path id="&#230;&#164;&#173;&#229;&#156;&#134;&#229;&#189;&#162;&#229;&#164;&#135;&#228;&#187;&#189; 3" d="M42 44C43.1046 44 44 43.1046 44 42C44 40.8954 43.1046 40 42 40C40.8954 40 40 40.8954 40 42C40 43.1046 40.8954 44 42 44Z" fill="#2F88FF" stroke="black" stroke-width="4" stroke-linejoin="round"/>
<path id="&#232;&#183;&#175;&#229;&#190;&#132;" d="M32 6H20V42H32" stroke="black" stroke-width="4" stroke-linecap="round" stroke-linejoin="round"/>
<path id="&#232;&#183;&#175;&#229;&#190;&#132; 2" d="M12 24H32" stroke="black" stroke-width="4" stroke-linecap="round" stroke-linejoin="round"/>
</g>
</g>
</svg>
