<?xml version="1.0" encoding="UTF-8"?>
<svg width="48px" height="48px" viewBox="0 0 48 48" version="1.1" xmlns="http://www.w3.org/2000/svg" xmlns:xlink="http://www.w3.org/1999/xlink">
    <!-- Generator: Sketch 55.1 (78136) - https://sketchapp.com -->
    <title>more3</title>
    <desc>Created with Sketch.</desc>
    <g id="more3" stroke="none" stroke-width="1" fill="none" fill-rule="evenodd">
        <g id="编组">
            <rect id="矩形" fill-opacity="0.01" fill="#FFFFFF" x="0" y="0" width="48" height="48"></rect>
            <circle id="Oval" stroke="#000000" stroke-width="4" fill="#2F88FF" fill-rule="nonzero" stroke-linejoin="round" cx="24" cy="24" r="20"></circle>
            <path d="M14,26.5 C12.6192881,26.5 11.5,25.3807119 11.5,24 C11.5,22.6192881 12.6192881,21.5 14,21.5 C15.3807119,21.5 16.5,22.6192881 16.5,24 C16.5,25.3807119 15.3807119,26.5 14,26.5 Z M24,26.5 C22.6192881,26.5 21.5,25.3807119 21.5,24 C21.5,22.6192881 22.6192881,21.5 24,21.5 C25.3807119,21.5 26.5,22.6192881 26.5,24 C26.5,25.3807119 25.3807119,26.5 24,26.5 Z M34,26.5 C32.6192881,26.5 31.5,25.3807119 31.5,24 C31.5,22.6192881 32.6192881,21.5 34,21.5 C35.3807119,21.5 36.5,22.6192881 36.5,24 C36.5,25.3807119 35.3807119,26.5 34,26.5 Z" id="Combined-Shape" fill="#FFFFFF"></path>
        </g>
    </g>
</svg>