<?xml version="1.0" encoding="UTF-8"?>
<svg width="48px" height="48px" viewBox="0 0 48 48" version="1.1" xmlns="http://www.w3.org/2000/svg" xmlns:xlink="http://www.w3.org/1999/xlink">
    <!-- Generator: Sketch 55.2 (78181) - https://sketchapp.com -->
    <title>more4</title>
    <desc>Created with Sketch.</desc>
    <g id="more4" stroke="none" stroke-width="1" fill="none" fill-rule="evenodd">
        <g id="编组" transform="translate(4.000000, 4.000000)">
            <circle id="Oval" stroke="#000000" stroke-width="4" fill="#2F88FF" fill-rule="nonzero" stroke-linejoin="round" cx="20" cy="20" r="20"></circle>
            <path d="M10,22.5 C8.61928813,22.5 7.5,21.3807119 7.5,20 C7.5,18.6192881 8.61928813,17.5 10,17.5 C11.3807119,17.5 12.5,18.6192881 12.5,20 C12.5,21.3807119 11.3807119,22.5 10,22.5 Z M20,22.5 C18.6192881,22.5 17.5,21.3807119 17.5,20 C17.5,18.6192881 18.6192881,17.5 20,17.5 C21.3807119,17.5 22.5,18.6192881 22.5,20 C22.5,21.3807119 21.3807119,22.5 20,22.5 Z M30,22.5 C28.6192881,22.5 27.5,21.3807119 27.5,20 C27.5,18.6192881 28.6192881,17.5 30,17.5 C31.3807119,17.5 32.5,18.6192881 32.5,20 C32.5,21.3807119 31.3807119,22.5 30,22.5 Z" id="Combined-Shape" fill="#FFFFFF" transform="translate(20.000000, 20.000000) rotate(90.000000) translate(-20.000000, -20.000000) "></path>
        </g>
    </g>
</svg>