<svg width="48" height="48" viewBox="0 0 48 48" fill="none" xmlns="http://www.w3.org/2000/svg">
<rect width="48" height="48" fill="white" fill-opacity="0.01"/>
<path d="M42 7H6C4.89543 7 4 7.89543 4 9V39C4 40.1046 4.89543 41 6 41H42C43.1046 41 44 40.1046 44 39V9C44 7.89543 43.1046 7 42 7Z" fill="#09C8E2"/>
<path d="M42 7H6C4.89543 7 4 7.89543 4 9V39C4 40.1046 4.89543 41 6 41H42C43.1046 41 44 40.1046 44 39V9C44 7.89543 43.1046 7 42 7Z" fill="#2F88FF"/>
<path d="M42 7H6C4.89543 7 4 7.89543 4 9V39C4 40.1046 4.89543 41 6 41H42C43.1046 41 44 40.1046 44 39V9C44 7.89543 43.1046 7 42 7Z" stroke="black" stroke-width="4"/>
<path d="M11 20.5799L15 18V30" stroke="white" stroke-width="4" stroke-linecap="round" stroke-linejoin="round"/>
<path d="M29 30V18L37 30V18" stroke="white" stroke-width="4" stroke-linecap="round" stroke-linejoin="round"/>
<path d="M22 20V21" stroke="white" stroke-width="4" stroke-linecap="round"/>
<path d="M22 27V28" stroke="white" stroke-width="4" stroke-linecap="round"/>
</svg>
