<svg width="48" height="48" viewBox="0 0 48 48" fill="none" xmlns="http://www.w3.org/2000/svg">
<rect width="48" height="48" fill="white" fill-opacity="0.01"/>
<path d="M16 7.99979H44" stroke="black" stroke-width="4" stroke-linecap="round"/>
<path d="M16 23.9998H44" stroke="black" stroke-width="4" stroke-linecap="round"/>
<path d="M16 39.9998H44" stroke="black" stroke-width="4" stroke-linecap="round"/>
<path d="M6.09846 25.8377L6.65788 25.4401C8.41881 24.2075 9.14728 23.39 9.14728 21.8668C9.14728 19.9905 7.81992 18.8528 6.13324 18.8528C4.44656 18.8528 3.11921 19.9905 3.11921 21.8668C3.11921 22.5005 3.6329 23.0142 4.26657 23.0142C4.858 23.0142 5.34492 22.5667 5.40721 21.9919L5.41394 21.8668C5.41394 21.3432 5.64214 21.1476 6.13324 21.1476C6.62434 21.1476 6.85254 21.3432 6.85254 21.8668C6.85254 22.3261 6.54208 22.7015 5.53835 23.4212L5.11062 23.7221C3.51966 24.8383 2.85254 25.5802 2.85254 26.9335V28.0002C2.85254 28.6339 3.36623 29.1476 3.99991 29.1476H7.99991C8.63358 29.1476 9.14728 28.6339 9.14728 28.0002C9.14728 27.3665 8.63358 26.8528 7.99991 26.8528H5.15404C5.19657 26.601 5.44658 26.3195 6.09846 25.8377Z" fill="black"/>
<path d="M4.22812 37.8742C3.64598 38.6077 4.12232 39.6746 5.02305 39.7623L5.14289 39.768C5.91339 39.768 6.83218 40.7328 6.83218 41.6002C6.83218 42.3176 6.34196 42.8323 6.00004 42.8323C5.47643 42.8323 5.1917 42.7277 5.03398 42.5399L4.98596 42.4742C4.64024 41.9297 3.91856 41.7685 3.37406 42.1142C2.82955 42.46 2.6684 43.1816 3.01412 43.7261C3.63061 44.6971 4.67706 45.168 6.00004 45.168C7.65811 45.168 9.16789 43.5828 9.16789 41.6002C9.16789 40.1693 8.29532 38.7823 7.09083 38.0244L8.91481 35.7262C9.52226 34.9608 8.97718 33.8323 8.00004 33.8323H4.00004C3.35505 33.8323 2.83218 34.3552 2.83218 35.0002C2.83218 35.6452 3.35505 36.168 4.00004 36.168H5.5822L4.22812 37.8742Z" fill="black"/>
<path d="M4.83105 13C4.83105 13.6455 5.35434 14.1688 5.99984 14.1688C6.64534 14.1688 7.16862 13.6455 7.16862 13V4.00002C7.16862 2.93993 5.8707 2.42739 5.1464 3.20146L3.1464 5.3389C2.70537 5.81024 2.72994 6.54986 3.20128 6.99089C3.63168 7.39362 4.2858 7.40811 4.73198 7.0487L4.83105 6.95913V13Z" fill="black"/>
</svg>
