<svg width="48" height="48" viewBox="0 0 48 48" fill="none" xmlns="http://www.w3.org/2000/svg">
<path d="M9 4V13" stroke="black" stroke-width="4" stroke-linecap="round" stroke-linejoin="round"/>
<path d="M12 13H6" stroke="black" stroke-width="4" stroke-linecap="round" stroke-linejoin="round"/>
<path d="M12 27H6" stroke="black" stroke-width="4" stroke-linecap="round" stroke-linejoin="round"/>
<path d="M6 19.9999C6 19.9999 9 16.9999 11 20C13 23 6 27 6 27" stroke="black" stroke-width="4" stroke-linecap="round" stroke-linejoin="round"/>
<path d="M6.00001 34.5001C6.00001 34.5001 8.00001 31.5 11 33.5C14 35.5 11 38 11 38C11 38 14 40.5 11 42.5C8 44.5 6 41.5 6 41.5" stroke="black" stroke-width="4" stroke-linecap="round" stroke-linejoin="round"/>
<path d="M11 38H9" stroke="black" stroke-width="4" stroke-linecap="round" stroke-linejoin="round"/>
<path d="M9 4L6 6" stroke="black" stroke-width="4" stroke-linecap="round" stroke-linejoin="round"/>
<path d="M21 24H43" stroke="black" stroke-width="4" stroke-linecap="round" stroke-linejoin="round"/>
<path d="M21 38H43" stroke="black" stroke-width="4" stroke-linecap="round" stroke-linejoin="round"/>
<path d="M21 10H43" stroke="black" stroke-width="4" stroke-linecap="round" stroke-linejoin="round"/>
</svg>
