<?xml version="1.0" encoding="UTF-8"?>
<svg width="48px" height="48px" viewBox="0 0 48 48" version="1.1" xmlns="http://www.w3.org/2000/svg" xmlns:xlink="http://www.w3.org/1999/xlink">
    <!-- Generator: Sketch 55.2 (78181) - https://sketchapp.com -->
    <title>sent-to-back</title>
    <desc>Created with Sketch.</desc>
    <g id="sent-to-back" stroke="none" stroke-width="1" fill="none" fill-rule="evenodd">
        <g id="编组">
            <rect id="矩形" fill-opacity="0.01" fill="#FFFFFF" x="0" y="0" width="48" height="48"></rect>
            <path d="M30,18 L41,18 C41.5522847,18 42,18.4477153 42,19 L42,41 C42,41.5522847 41.5522847,42 41,42 L19,42 C18.4477153,42 18,41.5522847 18,41 L18,30" id="形状" stroke="#000000" stroke-width="4" stroke-linecap="round" stroke-linejoin="round"></path>
            <polyline id="路径-22" stroke="#000000" stroke-width="4" stroke-linecap="round" stroke-linejoin="round" points="9.96906202 6 6 6 6 10.0336312"></polyline>
            <polyline id="路径-22备份-2" stroke="#000000" stroke-width="4" stroke-linecap="round" stroke-linejoin="round" transform="translate(7.998523, 28.005992) scale(1, -1) translate(-7.998523, -28.005992) " points="9.99704635 26.0119849 6 26.0119849 6 30"></polyline>
            <polyline id="路径-22备份-3" stroke="#000000" stroke-width="4" stroke-linecap="round" stroke-linejoin="round" transform="translate(27.998523, 28.005992) scale(-1, -1) translate(-27.998523, -28.005992) " points="29.9970463 26.0119849 26 26.0119849 26 30"></polyline>
            <polyline id="路径-22备份" stroke="#000000" stroke-width="4" stroke-linecap="round" stroke-linejoin="round" transform="translate(28.001140, 7.998925) scale(-1, 1) translate(-28.001140, -7.998925) " points="30 6 26.0022791 6 26.0022791 9.99784965"></polyline>
            <path d="M16.0284368,6 L20.0083937,6" id="路径-23" stroke="#000000" stroke-width="4" stroke-linecap="round"></path>
            <path d="M6,16 C6,18.6765168 6,20.0147752 6,20.0147752" id="路径-24" stroke="#000000" stroke-width="4" stroke-linecap="round" stroke-linejoin="round"></path>
            <path d="M30,16 C30,18.6765168 30,20.0147752 30,20.0147752" id="路径-24备份" stroke="#000000" stroke-width="4" stroke-linecap="round" stroke-linejoin="round"></path>
            <path d="M15.9925514,30 L20,30" id="路径-25" stroke="#000000" stroke-width="4" stroke-linecap="round" stroke-linejoin="round"></path>
        </g>
    </g>
</svg>