<svg width="48" height="48" viewBox="0 0 48 48" fill="none" xmlns="http://www.w3.org/2000/svg">
<path d="M32 16H41C42.1046 16 43 16.8954 43 18V41C43 42.1046 42.1046 43 41 43H18C16.8954 43 16 42.1046 16 41V32" stroke="black" stroke-width="4" stroke-linecap="round" stroke-linejoin="round"/>
<path d="M32 16V7C32 5.89543 31.1046 5 30 5H7C5.89543 5 5 5.89543 5 7V30C5 31.1046 5.89543 32 7 32H16" stroke="black" stroke-width="4" stroke-linecap="round" stroke-linejoin="round"/>
<path d="M41.0005 16L17.0005 40" stroke="black" stroke-width="4" stroke-linecap="round" stroke-linejoin="round"/>
<path d="M32.0005 7L7.00049 32" stroke="black" stroke-width="4" stroke-linecap="round" stroke-linejoin="round"/>
<path d="M32.0005 16L16.0005 32" stroke="black" stroke-width="4" stroke-linecap="round" stroke-linejoin="round"/>
<path d="M43.0005 24L24.0005 43" stroke="black" stroke-width="4" stroke-linecap="round" stroke-linejoin="round"/>
<path d="M24.0005 5L5.00049 24" stroke="black" stroke-width="4" stroke-linecap="round" stroke-linejoin="round"/>
<path d="M43.0005 34L34.0005 43" stroke="black" stroke-width="4" stroke-linecap="round" stroke-linejoin="round"/>
<path d="M14.0005 5L5.00049 14" stroke="black" stroke-width="4" stroke-linecap="round" stroke-linejoin="round"/>
</svg>