<svg width="48" height="48" viewBox="0 0 48 48" fill="none" xmlns="http://www.w3.org/2000/svg">
<path d="M16 6H8C6.89543 6 6 6.89543 6 8V16" stroke="black" stroke-width="4" stroke-linecap="round" stroke-linejoin="round"/>
<path d="M16 42H8C6.89543 42 6 41.1046 6 40V32" stroke="black" stroke-width="4" stroke-linecap="round" stroke-linejoin="round"/>
<path d="M32 42H40C41.1046 42 42 41.1046 42 40V32" stroke="black" stroke-width="4" stroke-linecap="round" stroke-linejoin="round"/>
<path d="M32 6H40C41.1046 6 42 6.89543 42 8V16" stroke="black" stroke-width="4" stroke-linecap="round" stroke-linejoin="round"/>
<path d="M13 33V18H19L21 15H27L29 18H35V33H13Z" fill="#2F88FF" stroke="black" stroke-width="4" stroke-linecap="round" stroke-linejoin="round"/>
<path d="M24 28C25.6569 28 27 26.6569 27 25C27 23.3431 25.6569 22 24 22C22.3431 22 21 23.3431 21 25C21 26.6569 22.3431 28 24 28Z" fill="#43CCF8" stroke="white" stroke-width="4" stroke-miterlimit="10"/>
</svg>