<svg width="48" height="48" viewBox="0 0 48 48" fill="none" xmlns="http://www.w3.org/2000/svg">
<rect width="48" height="48" fill="white" fill-opacity="0.01"/>
<path d="M4 6H40C40 6 44 8 44 13C44 18 40 20 40 20H4C4 20 8 18 8 13C8 8 4 6 4 6Z" fill="#2F88FF" stroke="black" stroke-width="4" stroke-linecap="round" stroke-linejoin="round"/>
<path d="M44 28H8C8 28 4 30 4 35C4 40 8 42 8 42H44C44 42 40 40 40 35C40 30 44 28 44 28Z" fill="#2F88FF" stroke="black" stroke-width="4" stroke-linecap="round" stroke-linejoin="round"/>
</svg>
