<svg width="48" height="48" viewBox="0 0 48 48" fill="none" xmlns="http://www.w3.org/2000/svg">
<path d="M10 18C10 10.268 16.268 4 24 4C31.732 4 38 10.268 38 18V30C38 37.732 31.732 44 24 44C16.268 44 10 37.732 10 30V18Z" fill="#2F88FF" stroke="black" stroke-width="4" stroke-linecap="round" stroke-linejoin="round"/>
<path d="M10 17L38 17" stroke="white" stroke-width="4" stroke-linecap="round" stroke-linejoin="round"/>
<path d="M22 11L26 11" stroke="white" stroke-width="4" stroke-linecap="round" stroke-linejoin="round"/>
<path d="M10 26C10 26 15.4 25.4 17 27C18.6 28.6 18 30.3687 18 30.3687C21 30.3687 24 30.527 24 34C24 36.5 20 38 17.5 36.3687C17.5 38.5 17 40 14 40" stroke="white" stroke-width="4" stroke-linecap="round" stroke-linejoin="round"/>
<path d="M38 23C38 23 34.5 21 33 22C31.5 23 32 25 32 25C30.5 24 28 25 28 27.5C28 30 30.5 31 33 30C34 33 36.5 33 38 32" stroke="white" stroke-width="4" stroke-linecap="round" stroke-linejoin="round"/>
<path d="M25 44V44C32.1797 44 38 38.1797 38 31V18C38 10.268 31.732 4 24 4V4" stroke="black" stroke-width="4" stroke-linecap="round" stroke-linejoin="round"/>
<path d="M23 44V44C15.8203 44 10 38.1797 10 31V18C10 10.268 16.268 4 24 4V4" stroke="black" stroke-width="4" stroke-linecap="round" stroke-linejoin="round"/>
</svg>