<svg width="48" height="48" viewBox="0 0 48 48" fill="none" xmlns="http://www.w3.org/2000/svg">
<path d="M30.3489 32L36.8554 7.7176C37.2842 6.1172 38.9292 5.16746 40.5296 5.59628V5.59628C42.13 6.02511 43.0798 7.67012 42.6509 9.27052L36.5606 32" stroke="black" stroke-width="4" stroke-linecap="round" stroke-linejoin="round"/>
<path d="M36 32L36 38L13 38C11.3431 38 10 36.6569 10 35C10 33.3431 11.3431 32 13 32L36 32Z" fill="#2F88FF" stroke="black" stroke-width="4" stroke-linecap="round" stroke-linejoin="round"/>
<path d="M21 44H29" stroke="black" stroke-width="4" stroke-linecap="round" stroke-linejoin="round"/>
<rect x="6" y="4" width="10" height="20" rx="5" fill="#2F88FF" stroke="black" stroke-width="4" stroke-linejoin="round"/>
<path d="M6 14L16 14" stroke="white" stroke-width="4" stroke-linecap="round" stroke-linejoin="round"/>
<path d="M6 9L6 19" stroke="black" stroke-width="4" stroke-linecap="round" stroke-linejoin="round"/>
<path d="M16 9V19" stroke="black" stroke-width="4" stroke-linecap="round" stroke-linejoin="round"/>
</svg>