<svg width="48" height="48" viewBox="0 0 48 48" fill="none" xmlns="http://www.w3.org/2000/svg">
<path d="M13.2797 42C12.4996 42 11.7907 41.5464 11.4637 40.8381L6.38682 29.8381C6.14138 29.3063 6.14138 28.6937 6.38682 28.1619L11.4637 17.1619C11.7907 16.4536 12.4996 16 13.2797 16L34.7203 16C35.5004 16 36.2093 16.4536 36.5363 17.1619L41.6132 28.1619C41.8586 28.6937 41.8586 29.3063 41.6132 29.8381L36.5363 40.8381C36.2093 41.5464 35.5004 42 34.7203 42L13.2797 42Z" fill="#2F88FF" stroke="black" stroke-width="4" stroke-linejoin="bevel"/>
<path d="M9 23L18 23L18 33L8 33" stroke="white" stroke-width="4" stroke-linecap="round" stroke-linejoin="round"/>
<path d="M39 23L25 23L25 32L40 32" stroke="white" stroke-width="4" stroke-linecap="round" stroke-linejoin="round"/>
<path d="M37.9993 4C37.9993 4 28.5 7.5 20.5641 8.39392C12.6282 9.28784 7.99988 9 7.99988 9" stroke="black" stroke-width="4" stroke-linecap="round" stroke-linejoin="round"/>
<path d="M26 8V16L17 9" stroke="black" stroke-width="4" stroke-linecap="round" stroke-linejoin="round"/>
<path d="M10.6154 19L6.38682 28.1619C6.14138 28.6937 6.14138 29.3063 6.38682 29.8381L9 35.5" stroke="black" stroke-width="4" stroke-linecap="round" stroke-linejoin="round"/>
<path d="M37.3848 19L41.6133 28.1619C41.8588 28.6937 41.8588 29.3063 41.6133 29.8381L39.0002 35.5" stroke="black" stroke-width="4" stroke-linecap="round" stroke-linejoin="bevel"/>
</svg>