<svg width="48" height="48" viewBox="0 0 48 48" fill="none" xmlns="http://www.w3.org/2000/svg">
<path d="M24 44C33.3888 44 41 36.3888 41 27C41 17.6112 33.3888 10 24 10C14.6112 10 7 17.6112 7 27C7 36.3888 14.6112 44 24 44Z" fill="#2F88FF" stroke="black" stroke-width="4"/>
<path d="M19 4H29" stroke="black" stroke-width="4" stroke-linecap="round" stroke-linejoin="round"/>
<path d="M20 27L24 20L28 27L24 34L20 27Z" stroke="white" stroke-width="4" stroke-linecap="round" stroke-linejoin="round"/>
<path d="M7 27H11" stroke="white" stroke-width="4" stroke-linecap="round" stroke-linejoin="round"/>
<path d="M37 27H41" stroke="white" stroke-width="4" stroke-linecap="round" stroke-linejoin="round"/>
<path d="M24 10L24 14" stroke="white" stroke-width="4" stroke-linecap="round" stroke-linejoin="round"/>
<path d="M24 40L24 44" stroke="white" stroke-width="4" stroke-linecap="round" stroke-linejoin="round"/>
<path d="M17.5 42.7131C19.5024 43.5424 21.6978 44 24 44C26.3022 44 28.4976 43.5424 30.5 42.7131" stroke="black" stroke-width="4" stroke-linecap="round" stroke-linejoin="round"/>
<path d="M8.28691 20.5C7.45764 22.5024 7 24.6978 7 27C7 29.3022 7.45764 31.4976 8.28691 33.5" stroke="black" stroke-width="4" stroke-linecap="round" stroke-linejoin="round"/>
<path d="M39.7129 20.5C40.5422 22.5024 40.9998 24.6978 40.9998 27C40.9998 29.3022 40.5422 31.4976 39.7129 33.5" stroke="black" stroke-width="4" stroke-linecap="round" stroke-linejoin="round"/>
<path d="M17.0078 11.5C19.1405 10.5364 21.5077 10 24.0001 10C26.4925 10 28.8597 10.5364 30.9924 11.5" stroke="black" stroke-width="4" stroke-linecap="round" stroke-linejoin="round"/>
</svg>