<svg width="48" height="48" viewBox="0 0 48 48" fill="none" xmlns="http://www.w3.org/2000/svg">
<path d="M31.8 6H10.2C7.8804 6 6 7.79086 6 10V18H17C17 16 18.5 14 21 14C23.5 14 25 16 25 18H36V10C36 7.79086 34.1196 6 31.8 6Z" fill="#2F88FF" stroke="black" stroke-width="4" stroke-linecap="round" stroke-linejoin="round"/>
<path d="M16 24C16 25.4912 17.25 30 21 30C24.75 30 26 25.4912 26 24" stroke="black" stroke-width="4" stroke-linecap="round" stroke-linejoin="round"/>
<path d="M42 6V38C42 42 39 44 36 44C33 44 30 42 30 38V36" stroke="black" stroke-width="4" stroke-linecap="round" stroke-linejoin="round"/>
</svg>