<svg width="48" height="48" viewBox="0 0 48 48" fill="none" xmlns="http://www.w3.org/2000/svg">
<path d="M11 12V24L24 19L37 24V12H11Z" fill="#2F88FF" stroke="black" stroke-width="4" stroke-linecap="round" stroke-linejoin="round"/>
<path d="M19 7V12H29V7C29 5.34315 27.6569 4 26 4H22C20.3431 4 19 5.34315 19 7Z" stroke="black" stroke-width="4" stroke-linecap="round" stroke-linejoin="round"/>
<path d="M12 44L6 26L24 19L42 26L36 44" stroke="black" stroke-width="4" stroke-linecap="round" stroke-linejoin="round"/>
<path d="M4 42C4 42 8.66336 44 12 44C17 44 19 42 24 42C29 42 31 44 36 44C39.3366 44 44 42 44 42" stroke="black" stroke-width="4" stroke-linecap="round" stroke-linejoin="round"/>
<path d="M24 19V42" stroke="black" stroke-width="4" stroke-linecap="round" stroke-linejoin="round"/>
</svg>