<svg width="48" height="48" viewBox="0 0 48 48" fill="none" xmlns="http://www.w3.org/2000/svg">
<path d="M8.00042 25.9999C10.3186 26.1968 18.0008 27.9999 18.0004 30.9999C18 34 13.8646 32.9889 12.0004 32.9999C10.3989 32.864 5.9996 33 5.99994 36C6.00027 39 13 41 20 42C27 43 38.0001 42.9999 38.0001 42.9999" stroke="black" stroke-width="4" stroke-linecap="round" stroke-linejoin="round"/>
<path d="M8 20L14 14" stroke="black" stroke-width="4" stroke-linecap="round" stroke-linejoin="round"/>
<path d="M28 6L38 6L42 10" stroke="black" stroke-width="4" stroke-linecap="round" stroke-linejoin="round"/>
<path d="M30 14L36 20H20L14 14H30Z" fill="#2F88FF" stroke="black" stroke-width="4" stroke-linecap="round" stroke-linejoin="round"/>
<path d="M42 22V16" stroke="black" stroke-width="4" stroke-linecap="round" stroke-linejoin="round"/>
<path d="M26 30V26" stroke="black" stroke-width="4" stroke-linecap="round" stroke-linejoin="round"/>
<path d="M32 34V26" stroke="black" stroke-width="4" stroke-linecap="round" stroke-linejoin="round"/>
</svg>