<svg width="48" height="48" viewBox="0 0 48 48" fill="none" xmlns="http://www.w3.org/2000/svg">
<path d="M14 28C17 28 26.5 29.5 26.5 33C26.5 36.5 21.394 35.7386 19 36C16.9274 36 12 36 12 39C12 43 32.5447 44 36.5 44" stroke="black" stroke-width="4" stroke-linecap="round" stroke-linejoin="round"/>
<path d="M31 15C31 10.7333 26.7297 4 20.805 4C14.8804 4 10.333 12 8.54511 19.4667C6.7572 26.9333 7.01261 36 7.01261 36" stroke="black" stroke-width="4" stroke-linecap="round" stroke-linejoin="round"/>
<path d="M26 24C26 21.5 27.4 17 32 17C36 17 38.2 21.0424 39 24.5C39.8 27.9576 40 33 40 33" stroke="black" stroke-width="4" stroke-linecap="round" stroke-linejoin="round"/>
</svg>