<svg width="48" height="48" viewBox="0 0 48 48" fill="none" xmlns="http://www.w3.org/2000/svg">
<path d="M9.85786 32.7574C6.23858 33.8432 4 35.3432 4 37C4 40.3137 12.9543 43 24 43C35.0457 43 44 40.3137 44 37C44 35.3432 41.7614 33.8432 38.1421 32.7574" stroke="black" stroke-width="4" stroke-linecap="round" stroke-linejoin="round"/>
<path d="M24 35C24 35 37 26.504 37 16.6818C37 9.67784 31.1797 4 24 4C16.8203 4 11 9.67784 11 16.6818C11 26.504 24 35 24 35Z" fill="#2F88FF" stroke="black" stroke-width="4" stroke-linejoin="round"/>
<path d="M24 22C26.7614 22 29 19.7614 29 17C29 14.2386 26.7614 12 24 12C21.2386 12 19 14.2386 19 17C19 19.7614 21.2386 22 24 22Z" fill="#43CCF8" stroke="white" stroke-width="4" stroke-linejoin="round"/>
</svg>