<svg width="48" height="48" viewBox="0 0 48 48" fill="none" xmlns="http://www.w3.org/2000/svg">
<path d="M39.3 6H8.7C7.20883 6 6 7.20883 6 8.7V39.3C6 40.7912 7.20883 42 8.7 42H39.3C40.7912 42 42 40.7912 42 39.3V8.7C42 7.20883 40.7912 6 39.3 6Z" fill="#2F88FF" stroke="black" stroke-width="4" stroke-linejoin="round"/>
<path d="M36 27L29 30" stroke="white" stroke-width="4" stroke-linecap="round" stroke-linejoin="round"/>
<path d="M21 33L14 36" stroke="white" stroke-width="4" stroke-linecap="round" stroke-linejoin="round"/>
<path d="M16 29C18 26.1046 19 24.1046 19 23C19 21.3431 17.6569 20 16 20C14.3431 20 13 21.3431 13 23C13 24.1046 14 26.1046 16 29Z" fill="#43CCF8" stroke="white" stroke-width="4" stroke-linejoin="round"/>
<path d="M32 22C34 19.1046 35 17.1046 35 16C35 14.3431 33.6569 13 32 13C30.3431 13 29 14.3431 29 16C29 17.1046 30 19.1046 32 22Z" fill="#43CCF8" stroke="white" stroke-width="4" stroke-linejoin="round"/>
</svg>