<svg width="48" height="48" viewBox="0 0 48 48" fill="none" xmlns="http://www.w3.org/2000/svg">
<path d="M9 7L21 7" stroke="black" stroke-width="4" stroke-linecap="round" stroke-linejoin="round"/>
<path d="M27 7H39" stroke="black" stroke-width="4" stroke-linecap="round" stroke-linejoin="round"/>
<path d="M19 36H16C14.3431 36 13 34.6569 13 33L13 24C13 19.5817 16.5817 16 21 16L27 16C31.4183 16 35 19.5817 35 24V33C35 34.6569 33.6569 36 32 36H29" stroke="black" stroke-width="4" stroke-linejoin="round"/>
<circle cx="24" cy="7" r="3" fill="#2F88FF" stroke="black" stroke-width="4"/>
<path d="M29 35V36.4C29 37.2837 28.2837 38 27.4 38H20.6C19.7163 38 19 37.2837 19 36.4V35C19 32.2386 21.2386 30 24 30C26.7614 30 29 32.2386 29 35Z" fill="#2F88FF" stroke="black" stroke-width="4" stroke-linecap="round" stroke-linejoin="round"/>
<path d="M21 38V41C21 42.6569 22.3431 44 24 44C25.6569 44 27 42.6569 27 41V38" stroke="black" stroke-width="4" stroke-linejoin="round"/>
</svg>