<svg width="48" height="48" viewBox="0 0 48 48" fill="none" xmlns="http://www.w3.org/2000/svg">
<g clip-path="url(#clip0_12383_10968)">
<path d="M34 13L34 6C34 4.89543 33.1046 4 32 4L8 4C6.89543 4 6 4.89543 6 6L6 34C6 35.1046 6.89543 36 8 36L23 36" stroke="black" stroke-width="4" stroke-linecap="round" stroke-linejoin="bevel"/>
<path d="M28.0005 42C21 38 24.3318 32.2257 22.9772 31C21.3247 29.5046 20.3874 28.1121 19.9996 26C19.6118 23.8878 21.0701 21.4737 22.9774 23C24.8847 24.5263 28 31 28 31L30 29L31 18C31 18 30 14 30 12C30 9.99999 34 13 36 16C36 26.4418 37.4995 36 41.9992 44" stroke="black" stroke-width="4" stroke-linecap="round" stroke-linejoin="round"/>
<path d="M25 17.4L21 11L13 27H20" stroke="black" stroke-width="4" stroke-linecap="round" stroke-linejoin="round"/>
<path d="M6 22L12 11L17 18" stroke="black" stroke-width="4" stroke-linecap="round" stroke-linejoin="round"/>
</g>
<defs>
<clipPath id="clip0_12383_10968">
<rect width="48" height="48" fill="white"/>
</clipPath>
</defs>
</svg>