<svg width="48" height="48" viewBox="0 0 48 48" fill="none" xmlns="http://www.w3.org/2000/svg">
<path d="M33 22C33 29 24 35 24 35C24 35 15 29 15 22C15 19.6131 15.9482 17.3239 17.636 15.636C19.3239 13.9482 21.6131 13 24 13C26.3869 13 28.6761 13.9482 30.364 15.636C32.0518 17.3239 33 19.6131 33 22Z" fill="#2F88FF" stroke="black" stroke-width="4" stroke-linecap="round" stroke-linejoin="round"/>
<path d="M24 25C25.6569 25 27 23.6569 27 22C27 20.3431 25.6569 19 24 19C22.3431 19 21 20.3431 21 22C21 23.6569 22.3431 25 24 25Z" fill="#43CCF8" stroke="white" stroke-width="4" stroke-linecap="round" stroke-linejoin="round"/>
<path d="M9 13.9999C9 13.9999 16.5 2.49984 29.5 6.99986C42.5 11.4999 42 24.4999 42 24.4999" stroke="black" stroke-width="4" stroke-linecap="round" stroke-linejoin="round"/>
<path d="M42 8V24" stroke="black" stroke-width="4" stroke-linecap="round" stroke-linejoin="round"/>
<path d="M39 34C39 34 33 45 19.5 41.5C6 38 6 24 6 24" stroke="black" stroke-width="4" stroke-linecap="round" stroke-linejoin="round"/>
<path d="M6 24L6 40" stroke="black" stroke-width="4" stroke-linecap="round" stroke-linejoin="round"/>
</svg>