<svg width="48" height="48" viewBox="0 0 48 48" fill="none" xmlns="http://www.w3.org/2000/svg">
<path d="M24 26V38" stroke="black" stroke-width="4" stroke-linecap="round" stroke-linejoin="round"/>
<path d="M24 6V26" stroke="white" stroke-width="4" stroke-linecap="round" stroke-linejoin="round"/>
<path d="M24 4V6" stroke="black" stroke-width="4" stroke-linecap="round" stroke-linejoin="round"/>
<path d="M8 40H34L40 34" stroke="black" stroke-width="4" stroke-linecap="round" stroke-linejoin="round"/>
<path d="M15 40V44" stroke="black" stroke-width="4" stroke-linecap="round" stroke-linejoin="round"/>
<path d="M32 40V44" stroke="black" stroke-width="4" stroke-linecap="round" stroke-linejoin="round"/>
<path d="M24 6C14.0589 6 6 14.034 6 23.9444V26C6 23.5224 8.01472 21 10.5 21C12.9853 21 15 23.5224 15 26C15 23.5224 17.0147 21 19.5 21C21.9853 21 24 23.5224 24 26C24 23.5224 26.0147 21 28.5 21C30.9853 21 33 23.5224 33 26C33 23.5224 35.0147 21 37.5 21C39.9853 21 42 23.5224 42 26V23.9444C42 14.034 33.9411 6 24 6Z" fill="#2F88FF" stroke="black" stroke-width="4" stroke-linecap="round" stroke-linejoin="round"/>
<path d="M15.0003 26C15.0003 26 13.4999 20.5 16.0005 15C18.5011 9.49998 24.0002 5.99999 24.0002 5.99999" stroke="white" stroke-width="4" stroke-linecap="round" stroke-linejoin="round"/>
<path d="M33.0002 26C33.0002 26 33.5006 21.5 31.0003 15C28.5 8.5 24.0002 5.99999 24.0002 5.99999" stroke="white" stroke-width="4" stroke-linecap="round" stroke-linejoin="round"/>
<path d="M24 25V6" stroke="white" stroke-width="4" stroke-linecap="round" stroke-linejoin="round"/>
<path d="M28.5 21C30.9853 21 33 23.5224 33 26C33 23.5224 35.0147 21 37.5 21" stroke="black" stroke-width="4" stroke-linecap="round" stroke-linejoin="round"/>
<path d="M28.5 21C26.0147 21 24 23.5224 24 26C24 23.5224 21.9853 21 19.5 21" stroke="black" stroke-width="4" stroke-linecap="round" stroke-linejoin="round"/>
<path d="M10.5 21C12.9853 21 15 23.5224 15 26C15 23.5224 17.0147 21 19.5 21" stroke="black" stroke-width="4" stroke-linecap="round" stroke-linejoin="round"/>
<path d="M15.7334 8C18.2088 6.72196 21.0197 6 23.9998 6C26.9798 6 29.7908 6.72196 32.2661 8" stroke="black" stroke-width="4" stroke-linecap="round" stroke-linejoin="round"/>
</svg>