<svg width="48" height="48" viewBox="0 0 48 48" fill="none" xmlns="http://www.w3.org/2000/svg">
<path d="M27 6H21L19.75 10.5L18.5 15L16 24L13.5 33L12.25 37.5L11 42H37L35.5 36.6L32 24L29.5 15L28.25 10.5L27 6Z" fill="#2F88FF"/>
<path d="M37 42L35.5 36.6L32 24L29.5 15L28.25 10.5L27 6H21L19.75 10.5L18.5 15L16 24L13.5 33L12.25 37.5L11 42M37 42H11H37ZM37 42H6H11H37ZM37 42H42H37Z" stroke="black" stroke-width="4" stroke-linecap="round" stroke-linejoin="round"/>
<path d="M13.5 33H34.5" stroke="white" stroke-width="4" stroke-linecap="round" stroke-linejoin="round"/>
<path d="M32 24H16" stroke="white" stroke-width="4" stroke-linecap="round" stroke-linejoin="round"/>
<path d="M29.5 15H18.5" stroke="white" stroke-width="4" stroke-linecap="round" stroke-linejoin="round"/>
<path d="M28.25 10.5L35.5 36.6" stroke="black" stroke-width="4" stroke-linecap="round" stroke-linejoin="round"/>
<path d="M12.25 37.5L19.75 10.5" stroke="black" stroke-width="4" stroke-linecap="round" stroke-linejoin="round"/>
</svg>