<svg width="48" height="48" viewBox="0 0 48 48" fill="none" xmlns="http://www.w3.org/2000/svg">
<path d="M29 14C31.7614 14 34 11.7614 34 9C34 6.23858 31.7614 4 29 4C26.2386 4 24 6.23858 24 9C24 11.7614 26.2386 14 29 14Z" fill="#2F88FF" stroke="black" stroke-width="4" stroke-miterlimit="2"/>
<path d="M24 19L19.71 27L27.31 33.02C27.62 33.26 27.84 33.59 27.97 33.96L31.31 44" stroke="black" stroke-width="4" stroke-miterlimit="2" stroke-linecap="round" stroke-linejoin="round"/>
<path d="M19.71 27L14.51 34.64C12.9732 36.8883 10.5 39.5 9.5 41" stroke="black" stroke-width="4" stroke-miterlimit="2" stroke-linecap="round" stroke-linejoin="round"/>
<path d="M42 24L35.06 24.1C34.7 24.1 34.34 24.01 34.02 23.83L30.75 21.92C26.74 19.57 22.35 17.96 17.78 17.14L14.56 16.57L12 21" stroke="black" stroke-width="4" stroke-miterlimit="2" stroke-linecap="round" stroke-linejoin="round"/>
<rect x="8.65234" y="19.1029" width="7.35873" height="9" transform="rotate(30 8.65234 19.1029)" fill="#2F88FF" stroke="black" stroke-width="4" stroke-linejoin="round"/>
</svg>