<svg width="48" height="48" viewBox="0 0 48 48" fill="none" xmlns="http://www.w3.org/2000/svg">
<path d="M24 44C35.0457 44 44 35.0457 44 24C44 12.9543 35.0457 4 24 4C12.9543 4 4 12.9543 4 24C4 35.0457 12.9543 44 24 44Z" stroke="black" stroke-width="4" stroke-linecap="round" stroke-linejoin="round"/>
<path d="M24 44V32" stroke="black" stroke-width="4" stroke-linecap="round" stroke-linejoin="round"/>
<path d="M4 24H16" stroke="black" stroke-width="4" stroke-linecap="round" stroke-linejoin="round"/>
<path d="M44 24H32" stroke="black" stroke-width="4" stroke-linecap="round" stroke-linejoin="round"/>
<path d="M32 24C32 28.4183 28.4183 32 24 32C19.5817 32 16 28.4183 16 24C16 19.5817 19.5817 16 24 16C28.4183 16 32 19.5817 32 24Z" fill="#2F88FF"/>
<path fill-rule="evenodd" clip-rule="evenodd" d="M32 24C32 28.4183 28.4183 32 24 32C19.5817 32 16 28.4183 16 24C16 19.5817 19.5817 16 24 16C28.4183 16 32 19.5817 32 24Z" fill="#2F88FF"/>
<path d="M32 24C32 28.4183 28.4183 32 24 32C19.5817 32 16 28.4183 16 24C16 19.5817 19.5817 16 24 16C28.4183 16 32 19.5817 32 24Z" stroke="black" stroke-width="4" stroke-linecap="round" stroke-linejoin="round"/>
</svg>