<svg width="48" height="48" viewBox="0 0 48 48" fill="none" xmlns="http://www.w3.org/2000/svg">
<path d="M9 8.83932C9 7.90724 9.43829 7.03279 10.2715 6.61502C12.2462 5.62486 16.6123 4 24 4C31.3877 4 35.7538 5.62486 37.7285 6.61502C38.5617 7.0328 39 7.90724 39 8.83932V36C39 37.1046 38.1046 38 37 38H11C9.89543 38 9 37.1046 9 36V8.83932Z" stroke="black" stroke-width="4" stroke-linejoin="round"/>
<path d="M34 38V42" stroke="black" stroke-width="4" stroke-linecap="round" stroke-linejoin="round"/>
<path d="M14 38V42" stroke="black" stroke-width="4" stroke-linecap="round" stroke-linejoin="round"/>
<path d="M20.5 32C20.5 32.8284 19.8284 33.5 19 33.5C18.1716 33.5 17.5 32.8284 17.5 32C17.5 31.1716 18.1716 30.5 19 30.5C19.8284 30.5 20.5 31.1716 20.5 32Z" fill="black" stroke="black"/>
<path d="M30.5 32C30.5 32.8284 29.8284 33.5 29 33.5C28.1716 33.5 27.5 32.8284 27.5 32C27.5 31.1716 28.1716 30.5 29 30.5C29.8284 30.5 30.5 31.1716 30.5 32Z" fill="black" stroke="black"/>
<path d="M20 44L28 44" stroke="black" stroke-width="4" stroke-linecap="round" stroke-linejoin="round"/>
<rect x="9" y="12" width="30" height="14" fill="#2F88FF" stroke="black" stroke-width="4" stroke-linejoin="round"/>
<path d="M24 12V26" stroke="white" stroke-width="4" stroke-linecap="round" stroke-linejoin="round"/>
<path d="M20 12L28 12" stroke="black" stroke-width="4" stroke-linecap="round" stroke-linejoin="round"/>
<path d="M20 26L28 26" stroke="black" stroke-width="4" stroke-linecap="round" stroke-linejoin="round"/>
</svg>