<svg width="48" height="48" viewBox="0 0 48 48" fill="none" xmlns="http://www.w3.org/2000/svg">
<path d="M29.6219 35.0001C28.2898 40.1757 23.5915 44 18 44C11.3726 44 6 38.6275 6 32.0001C6 27.1571 8.86894 22.9841 13 21.0881" stroke="black" stroke-width="4" stroke-linecap="round" stroke-linejoin="round"/>
<path d="M18 12L20 30L35 29L38 40H41" stroke="black" stroke-width="4" stroke-linecap="round" stroke-linejoin="round"/>
<path d="M22 8C22 10.2091 20.2091 12 18 12C15.7909 12 14 10.2091 14 8C14 5.79086 15.7909 4 18 4C20.2091 4 22 5.79086 22 8Z" fill="#2F88FF" stroke="black" stroke-width="4" stroke-linecap="round" stroke-linejoin="round"/>
<path d="M25 20H33" stroke="black" stroke-width="4" stroke-linecap="round" stroke-linejoin="round"/>
</svg>