<svg width="48" height="48" viewBox="0 0 48 48" fill="none" xmlns="http://www.w3.org/2000/svg">
<path d="M15 12H33C33 12 36.3632 15.0112 39 16C40.8645 16.6992 44 17 44 17C44 17 42.1839 17.6487 41 18C39.4563 18.458 37 19 37 19H24H11C11 19 8.54366 18.458 7 18C5.81607 17.6487 4 17 4 17C4 17 7.1355 16.6992 9 16C11.6368 15.0112 15 12 15 12Z" fill="#2F88FF" stroke="black" stroke-width="4" stroke-linejoin="round"/>
<path d="M18 12L24 4L30 12H18Z" stroke="black" stroke-width="4" stroke-linecap="round" stroke-linejoin="round"/>
<path d="M11 19L11 38" stroke="black" stroke-width="4" stroke-linecap="round"/>
<path d="M37 19V38" stroke="black" stroke-width="4" stroke-linecap="round"/>
<rect x="6" y="38" width="36" height="6" stroke="black" stroke-width="4" stroke-linejoin="round"/>
</svg>