<svg width="48" height="48" viewBox="0 0 48 48" fill="none" xmlns="http://www.w3.org/2000/svg">
<path d="M21 8C21 19 17.5 33 11 44" stroke="black" stroke-width="4" stroke-linecap="round" stroke-linejoin="round"/>
<path d="M27 8C27 19 30.5 33 37 44" stroke="black" stroke-width="4" stroke-linecap="round" stroke-linejoin="round"/>
<path d="M4 44H44" stroke="black" stroke-width="4" stroke-linecap="round" stroke-linejoin="round"/>
<path d="M14 30L34 30" stroke="black" stroke-width="4" stroke-linecap="round"/>
<path d="M17 21L31 21" stroke="black" stroke-width="4" stroke-linecap="round"/>
<path d="M20 8L28 8" stroke="black" stroke-width="4" stroke-linecap="round"/>
<path d="M24 4V8" stroke="black" stroke-width="4" stroke-linecap="round"/>
<path d="M18 44C18 44 18.8125 41.1875 20 40C21 39 22 38 24 38C26 38 27 39 28 40C29.3438 41.3437 30 44 30 44" stroke="black" stroke-width="4" stroke-linecap="round" stroke-linejoin="round"/>
</svg>