<svg width="48" height="48" viewBox="0 0 48 48" fill="none" xmlns="http://www.w3.org/2000/svg">
<path d="M22.9898 8.2015C23.1011 7.10255 22.3004 6.12146 21.2015 6.01018C20.1025 5.89889 19.1215 6.69955 19.0102 7.7985L22.9898 8.2015ZM9.22641 43.0757C8.71592 44.0552 9.09614 45.2631 10.0757 45.7736C11.0552 46.2841 12.2631 45.9039 12.7736 44.9243L9.22641 43.0757ZM18 27L16.0603 26.5124L18 27ZM21 8C19.0102 7.7985 19.0102 7.79846 19.0102 7.79846C19.0102 7.79853 19.0102 7.79857 19.0102 7.79869C19.0101 7.79894 19.0101 7.79936 19.01 7.79996C19.0099 7.80116 19.0097 7.80307 19.0094 7.80569C19.0089 7.81093 19.0081 7.81899 19.007 7.8298C19.0048 7.85143 19.0014 7.88409 18.9969 7.92728C18.9879 8.01365 18.9744 8.14211 18.9565 8.30863C18.9207 8.64171 18.8674 9.12692 18.7977 9.73211C18.6585 10.9429 18.4541 12.6317 18.194 14.5419C17.6708 18.3841 16.9327 23.0419 16.0603 26.5124L19.9397 27.4876C20.8692 23.7894 21.6311 18.9472 22.1574 15.0816C22.4221 13.1379 22.6299 11.4208 22.7715 10.1892C22.8424 9.5732 22.8968 9.07808 22.9335 8.73613C22.9519 8.56514 22.9659 8.43241 22.9753 8.34197C22.98 8.29675 22.9836 8.26209 22.986 8.23852C22.9873 8.22673 22.9882 8.2177 22.9888 8.21151C22.9891 8.20842 22.9894 8.20603 22.9895 8.20436C22.9896 8.20352 22.9897 8.20286 22.9897 8.20239C22.9898 8.20215 22.9898 8.20193 22.9898 8.20181C22.9898 8.20163 22.9898 8.2015 21 8ZM16.0603 26.5124C15.2401 29.7758 13.5535 33.8898 12.0281 37.2604C11.2727 38.9296 10.5701 40.3877 10.0567 41.4278C9.80013 41.9476 9.59122 42.3621 9.44706 42.6455C9.37499 42.7872 9.31914 42.8961 9.28164 42.9689C9.26289 43.0053 9.24874 43.0326 9.23944 43.0506C9.2348 43.0595 9.23137 43.0661 9.22918 43.0703C9.22809 43.0724 9.22731 43.0739 9.22685 43.0748C9.22662 43.0753 9.22647 43.0756 9.22639 43.0757C9.22636 43.0758 9.22636 43.0758 9.22634 43.0758C9.22637 43.0758 9.22641 43.0757 11 44C12.7736 44.9243 12.7737 44.9242 12.7738 44.924C12.7738 44.9238 12.774 44.9236 12.7741 44.9234C12.7743 44.9229 12.7747 44.9223 12.7751 44.9215C12.7759 44.9199 12.777 44.9177 12.7785 44.915C12.7814 44.9094 12.7855 44.9014 12.7909 44.891C12.8016 44.8703 12.8173 44.8401 12.8375 44.8008C12.878 44.7221 12.937 44.6071 13.0124 44.459C13.163 44.1628 13.3792 43.7339 13.6435 43.1984C14.1718 42.1281 14.8944 40.6286 15.6723 38.9096C17.2138 35.5034 19.0272 31.1175 19.9397 27.4876L16.0603 26.5124Z" fill="black"/>
<path d="M25.0102 8.2015C24.8989 7.10255 25.6996 6.12146 26.7985 6.01018C27.8975 5.89889 28.8785 6.69955 28.9898 7.7985L25.0102 8.2015ZM38.7736 43.0757C39.2841 44.0552 38.9039 45.2631 37.9243 45.7736C36.9448 46.2841 35.7369 45.9039 35.2264 44.9243L38.7736 43.0757ZM30 27L31.9397 26.5124L30 27ZM27 8C28.9898 7.7985 28.9898 7.79846 28.9898 7.79846C28.9898 7.79853 28.9898 7.79857 28.9898 7.79869C28.9899 7.79894 28.9899 7.79936 28.99 7.79996C28.9901 7.80116 28.9903 7.80307 28.9906 7.80569C28.9911 7.81093 28.9919 7.81899 28.993 7.8298C28.9952 7.85143 28.9986 7.88409 29.0031 7.92728C29.0121 8.01365 29.0256 8.14211 29.0435 8.30863C29.0793 8.64171 29.1326 9.12692 29.2023 9.73211C29.3415 10.9429 29.5459 12.6317 29.806 14.5419C30.3292 18.3841 31.0673 23.0419 31.9397 26.5124L28.0603 27.4876C27.1308 23.7894 26.3689 18.9472 25.8426 15.0816C25.5779 13.1379 25.3701 11.4208 25.2285 10.1892C25.1576 9.5732 25.1032 9.07808 25.0665 8.73613C25.0481 8.56514 25.0341 8.43241 25.0247 8.34197C25.02 8.29675 25.0164 8.26209 25.014 8.23852C25.0127 8.22673 25.0118 8.2177 25.0112 8.21151C25.0109 8.20842 25.0106 8.20603 25.0105 8.20436C25.0104 8.20352 25.0103 8.20286 25.0103 8.20239C25.0102 8.20215 25.0102 8.20193 25.0102 8.20181C25.0102 8.20163 25.0102 8.2015 27 8ZM31.9397 26.5124C32.7599 29.7758 34.4465 33.8898 35.9719 37.2604C36.7273 38.9296 37.4299 40.3877 37.9433 41.4278C38.1999 41.9476 38.4088 42.3621 38.5529 42.6455C38.625 42.7872 38.6809 42.8961 38.7184 42.9689C38.7371 43.0053 38.7513 43.0326 38.7606 43.0506C38.7652 43.0595 38.7686 43.0661 38.7708 43.0703C38.7719 43.0724 38.7727 43.0739 38.7732 43.0748C38.7734 43.0753 38.7735 43.0756 38.7736 43.0757C38.7736 43.0758 38.7736 43.0758 38.7737 43.0758C38.7736 43.0758 38.7736 43.0757 37 44C35.2264 44.9243 35.2263 44.9242 35.2262 44.924C35.2262 44.9238 35.226 44.9236 35.2259 44.9234C35.2257 44.9229 35.2253 44.9223 35.2249 44.9215C35.2241 44.9199 35.223 44.9177 35.2215 44.915C35.2186 44.9094 35.2145 44.9014 35.2091 44.891C35.1984 44.8703 35.1827 44.8401 35.1625 44.8008C35.122 44.7221 35.063 44.6071 34.9876 44.459C34.837 44.1628 34.6208 43.7339 34.3565 43.1984C33.8282 42.1281 33.1056 40.6286 32.3277 38.9096C30.7862 35.5034 28.9728 31.1175 28.0603 27.4876L31.9397 26.5124Z" fill="black"/>
<path d="M4 44H44" stroke="black" stroke-width="4" stroke-linecap="round" stroke-linejoin="round"/>
<path d="M14 30L34 30" stroke="black" stroke-width="4" stroke-linecap="round"/>
<path d="M17 21L31 21" stroke="black" stroke-width="4" stroke-linecap="round"/>
<path d="M20 8L28 8" stroke="black" stroke-width="4" stroke-linecap="round"/>
<path d="M24 4V8" stroke="black" stroke-width="4" stroke-linecap="round"/>
<path d="M18 44C18 44 18.8125 41.1875 20 40C21 39 22 38 24 38C26 38 27 39 28 40C29.3438 41.3437 30 44 30 44" stroke="black" stroke-width="4" stroke-linecap="round" stroke-linejoin="round"/>
</svg>
