<svg width="48" height="48" viewBox="0 0 48 48" fill="none" xmlns="http://www.w3.org/2000/svg">
<path d="M9 44L24 22" stroke="black" stroke-width="4" stroke-linecap="round"/>
<path d="M39 44L24 22" stroke="black" stroke-width="4" stroke-linecap="round"/>
<path d="M9.13217 23.9998C9.045 23.3455 9 22.6779 9 21.9998C9 19.8665 9.44534 17.8372 10.2481 15.9998C10.3285 15.8158 10.4125 15.6337 10.5 15.4536" stroke="black" stroke-width="4"/>
<path d="M11.1562 29.7529C13.2883 33.2772 16.83 35.8533 20.9998 36.6997" stroke="black" stroke-width="4"/>
<path d="M27 36.7001C31.2141 35.8446 34.7866 33.2226 36.911 29.6406" stroke="black" stroke-width="4"/>
<path d="M38.8678 23.9998C38.955 23.3455 39 22.6779 39 21.9998C39 19.6528 38.461 17.4318 37.5 15.4536" stroke="black" stroke-width="4"/>
<path d="M27 7.30029C29.6553 7.83929 32.0559 9.0797 34 10.8197" stroke="black" stroke-width="4"/>
<path d="M21.0001 7.30029C18.3448 7.83929 15.9442 9.0797 14.0001 10.8197C13.7899 11.0079 13.585 11.2019 13.3857 11.4014" stroke="black" stroke-width="4"/>
<circle cx="10" cy="27" r="3" fill="#2F88FF" stroke="black" stroke-width="4"/>
<circle cx="24" cy="37" r="3" fill="#2F88FF" stroke="black" stroke-width="4"/>
<circle cx="24" cy="7" r="3" fill="#2F88FF" stroke="black" stroke-width="4"/>
<circle cx="12" cy="13" r="3" fill="#2F88FF" stroke="black" stroke-width="4"/>
<circle cx="36" cy="13" r="3" fill="#2F88FF" stroke="black" stroke-width="4"/>
<circle cx="38" cy="27" r="3" fill="#2F88FF" stroke="black" stroke-width="4"/>
<circle cx="24" cy="22" r="4" fill="black"/>
<path d="M6 44L14 44" stroke="black" stroke-width="4" stroke-linecap="round" stroke-linejoin="round"/>
<path d="M34 44L42 44" stroke="black" stroke-width="4" stroke-linecap="round" stroke-linejoin="round"/>
</svg>