<svg width="48" height="48" viewBox="0 0 48 48" fill="none" xmlns="http://www.w3.org/2000/svg">
<path d="M9 44L24 22" stroke="black" stroke-width="4" stroke-linecap="round"/>
<path d="M39 44L24 22" stroke="black" stroke-width="4" stroke-linecap="round"/>
<path d="M9.13217 24C9.045 23.3457 9 22.6781 9 22C9 19.8667 9.44534 17.8374 10.2481 16C10.3285 15.816 10.4125 15.6339 10.5 15.4538" stroke="black" stroke-width="4"/>
<path d="M11.1567 29.7531C13.2888 33.2774 16.8305 35.8535 21.0002 36.6999" stroke="black" stroke-width="4"/>
<path d="M27 36.6999C31.2141 35.8445 34.7866 33.2225 36.911 29.6405" stroke="black" stroke-width="4"/>
<path d="M38.8678 24C38.955 23.3457 39 22.6781 39 22C39 19.653 38.461 17.432 37.5 15.4538" stroke="black" stroke-width="4"/>
<path d="M27 7.30006C29.6553 7.83906 32.0559 9.07946 34 10.8195" stroke="black" stroke-width="4"/>
<path d="M21.0001 7.30006C18.3448 7.83906 15.9442 9.07946 14.0001 10.8195C13.7899 11.0076 13.585 11.2016 13.3857 11.4012" stroke="black" stroke-width="4"/>
<circle cx="10" cy="27" r="3" fill="#2F88FF" stroke="black" stroke-width="4"/>
<circle cx="24" cy="37" r="3" fill="#2F88FF" stroke="black" stroke-width="4"/>
<circle cx="24" cy="7" r="3" fill="#2F88FF" stroke="black" stroke-width="4"/>
<circle cx="12" cy="13" r="3" fill="#2F88FF" stroke="black" stroke-width="4"/>
<circle cx="36" cy="13" r="3" fill="#2F88FF" stroke="black" stroke-width="4"/>
<circle cx="38" cy="27" r="3" fill="#2F88FF" stroke="black" stroke-width="4"/>
<circle cx="24" cy="22" r="4" fill="black"/>
<path d="M6 44L14 44" stroke="black" stroke-width="4" stroke-linecap="round" stroke-linejoin="round"/>
<path d="M34 44L42 44" stroke="black" stroke-width="4" stroke-linecap="round" stroke-linejoin="round"/>
</svg>
