<svg width="48" height="48" viewBox="0 0 48 48" fill="none" xmlns="http://www.w3.org/2000/svg">
<path d="M42 43V6C42 4.89543 41.1046 4 40 4H33C31.8954 4 31 4.89543 31 6V24" stroke="black" stroke-width="4" stroke-linejoin="round"/>
<path d="M24 22C14.0589 22 6 30.0589 6 40V44H42V40C42 30.0589 33.9411 22 24 22Z" stroke="black" stroke-width="4"/>
<path d="M8 31V8" stroke="black" stroke-width="4" stroke-linecap="round"/>
<path d="M16 24L16 14" stroke="black" stroke-width="4" stroke-linecap="round"/>
<path d="M31 14L42 14" stroke="black" stroke-width="4" stroke-linecap="round" stroke-linejoin="round"/>
<path d="M17 42C17 41 17 40.0237 17 39C17 29.6112 20.134 22 24 22C27.866 22 31 29.6112 31 39C31 40.3778 31 41 31 42" stroke="black" stroke-width="4"/>
<path d="M4 44H44" stroke="black" stroke-width="4" stroke-linecap="round" stroke-linejoin="round"/>
<path d="M7 35C7 35 17.3496 34 24 34C30.6504 34 41 35 41 35" stroke="black" stroke-width="4"/>
</svg>