<svg width="48" height="48" viewBox="0 0 48 48" fill="none" xmlns="http://www.w3.org/2000/svg">
<path d="M48 0H0V48H48V0Z" fill="white" fill-opacity="0.01"/>
<path d="M10.5 42C15.1944 42 19 38.1944 19 33.5C19 28.8056 15.1944 25 10.5 25C5.80558 25 2 28.8056 2 33.5C2 38.1944 5.80558 42 10.5 42Z" fill="#09C8E2"/>
<path d="M10.5 42C15.1944 42 19 38.1944 19 33.5C19 28.8056 15.1944 25 10.5 25C5.80558 25 2 28.8056 2 33.5C2 38.1944 5.80558 42 10.5 42Z" fill="#2F88FF"/>
<path d="M10.5 42C15.1944 42 19 38.1944 19 33.5C19 28.8056 15.1944 25 10.5 25C5.80558 25 2 28.8056 2 33.5C2 38.1944 5.80558 42 10.5 42Z" stroke="black" stroke-width="4" stroke-linecap="round" stroke-linejoin="round"/>
<path d="M37 42C41.9706 42 46 37.9706 46 33C46 28.0294 41.9706 24 37 24C32.0294 24 28 28.0294 28 33C28 37.9706 32.0294 42 37 42Z" fill="#09C8E2"/>
<path d="M37 42C41.9706 42 46 37.9706 46 33C46 28.0294 41.9706 24 37 24C32.0294 24 28 28.0294 28 33C28 37.9706 32.0294 42 37 42Z" fill="#2F88FF"/>
<path d="M37 42C41.9706 42 46 37.9706 46 33C46 28.0294 41.9706 24 37 24C32.0294 24 28 28.0294 28 33C28 37.9706 32.0294 42 37 42Z" stroke="black" stroke-width="4" stroke-linecap="round" stroke-linejoin="round"/>
<path d="M18.9971 6H27.9976L37.0004 33" stroke="black" stroke-width="4" stroke-linecap="round" stroke-linejoin="round"/>
<path fill-rule="evenodd" clip-rule="evenodd" d="M11.0576 33L31.6821 16.7632L11.0576 33Z" fill="#09C8E2"/>
<path fill-rule="evenodd" clip-rule="evenodd" d="M11.0576 33L31.6821 16.7632L11.0576 33Z" fill="#2F88FF"/>
<path d="M11.0576 33L31.6821 16.7632" stroke="black" stroke-width="4" stroke-linecap="round" stroke-linejoin="round"/>
<path d="M31.6816 15H40.1537L41.9998 10" stroke="black" stroke-width="4" stroke-linecap="round" stroke-linejoin="round"/>
<path d="M8 15.9737H15" stroke="black" stroke-width="4" stroke-linecap="round" stroke-linejoin="round"/>
<path d="M15 16L18.2727 26.4211" stroke="black" stroke-width="4" stroke-linecap="round" stroke-linejoin="round"/>
</svg>
