<svg width="48" height="48" viewBox="0 0 48 48" fill="none" xmlns="http://www.w3.org/2000/svg">
<path d="M48 0H0V48H48V0Z" fill="white" fill-opacity="0.01"/>
<path d="M6.01221 34.005V8.03619C6.01221 6.93162 6.90764 6.03619 8.01221 6.03619H39.9998C41.1044 6.03619 41.9998 6.93162 41.9998 8.03619V34.005C41.9998 35.6619 40.6567 37.005 38.9998 37.005H37.0047V38C37.0047 40.2091 35.2138 42 33.0047 42H33.0043C30.7951 42 29.0043 40.2091 29.0043 38V37.005H19.0077V38.0016C19.0077 40.2099 17.2176 42 15.0094 42C12.8011 42 11.011 40.2099 11.011 38.0016V37.005H9.01221C7.35535 37.005 6.01221 35.6619 6.01221 34.005Z" stroke="black" stroke-width="4" stroke-linejoin="round"/>
<path d="M42 23H6" stroke="black" stroke-width="4" stroke-linecap="round" stroke-linejoin="round"/>
<path d="M34 13H14V23H34V13Z" stroke="black" stroke-width="4" stroke-linecap="round" stroke-linejoin="round"/>
<path d="M14 30H16" stroke="black" stroke-width="4" stroke-linecap="round" stroke-linejoin="round"/>
<path d="M32 30H34" stroke="black" stroke-width="4" stroke-linecap="round" stroke-linejoin="round"/>
</svg>
