<svg width="48" height="48" viewBox="0 0 48 48" fill="none" xmlns="http://www.w3.org/2000/svg">
<path d="M48 0H0V48H48V0Z" fill="white" fill-opacity="0.01"/>
<path d="M40.0005 4H8.00069C6.89614 4 6.00071 4.89541 6.00069 5.99996L6.00004 42C6.00002 43.1045 6.89546 44 8.00004 44H40.0005C41.1051 44 42.0005 43.1046 42.0005 42V6C42.0005 4.89543 41.1051 4 40.0005 4Z" fill="#09C8E2"/>
<path d="M40.0005 4H8.00069C6.89614 4 6.00071 4.89541 6.00069 5.99996L6.00004 42C6.00002 43.1045 6.89546 44 8.00004 44H40.0005C41.1051 44 42.0005 43.1046 42.0005 42V6C42.0005 4.89543 41.1051 4 40.0005 4Z" fill="#2F88FF"/>
<path d="M40.0005 4H8.00069C6.89614 4 6.00071 4.89541 6.00069 5.99996L6.00004 42C6.00002 43.1045 6.89546 44 8.00004 44H40.0005C41.1051 44 42.0005 43.1046 42.0005 42V6C42.0005 4.89543 41.1051 4 40.0005 4Z" stroke="black" stroke-width="4" stroke-linejoin="round"/>
<path d="M35 10H13V19H35V10Z" fill="#43CCF8" stroke="white" stroke-width="4" stroke-linejoin="round"/>
<path d="M12 28L19 35" stroke="white" stroke-width="4" stroke-linecap="round" stroke-linejoin="round"/>
<path d="M19 28L12 35" stroke="white" stroke-width="4" stroke-linecap="round" stroke-linejoin="round"/>
<path d="M28 35H36" stroke="white" stroke-width="4" stroke-linecap="round" stroke-linejoin="round"/>
<path d="M28 29H36" stroke="white" stroke-width="4" stroke-linecap="round" stroke-linejoin="round"/>
</svg>
