<?xml version="1.0" encoding="UTF-8"?>
<svg width="48px" height="48px" viewBox="0 0 48 48" version="1.1" xmlns="http://www.w3.org/2000/svg" xmlns:xlink="http://www.w3.org/1999/xlink">
    <!-- Generator: Sketch 55.1 (78136) - https://sketchapp.com -->
    <title>car</title>
    <desc>Created with Sketch.</desc>
    <g id="car" stroke="none" stroke-width="1" fill="none" fill-rule="evenodd">
        <g id="编组-2">
            <rect id="矩形" fill-opacity="0.01" fill="#FFFFFF" x="0" y="0" width="48" height="48"></rect>
            <g id="编组" transform="translate(4.000000, 6.000000)">
                <circle id="椭圆形" fill="#000000" cx="9.5" cy="23.5" r="2.5"></circle>
                <circle id="椭圆形-copy" fill="#000000" cx="30.5" cy="23.5" r="2.5"></circle>
                <path d="M-1.13686838e-13,28 L-1.13686838e-13,18.7096591 C-1.13686838e-13,16.4362682 1.28486268,14.3581322 3.31860205,13.3421546 L4.00052612,13.0014917 L6.31046481,3.09193569 C6.73255871,1.28116768 8.34671607,-2.84217094e-14 10.2060289,-2.84217094e-14 L29.8943096,-2.84217094e-14 C31.7675242,-2.84217094e-14 33.3898545,1.29998174 33.7981404,3.12815989 L36.0031455,13.0014917 L36.6833687,13.3416171 C38.716025,14.3579864 40,16.4355394 40,18.7081367 L40,28 C40,29.6568542 38.6568542,31 37,31 L35.0031455,31 L35.0031455,32 C35.0031455,34.209139 33.2122845,36 31.0031455,36 L31,36 C28.790861,36 27,34.209139 27,32 L27,31 L13,31 L13,32.0002631 C13,34.2092568 11.2092568,36 9.00026306,36 C6.79126935,36 5.00052612,34.2092568 5.00052612,32.0002631 L5.00052612,31 L3,31 C1.34314575,31 -1.13039842e-13,29.6568542 -1.13686838e-13,28 Z" id="路径" stroke="#000000" stroke-width="4" fill="#2F88FF" fill-rule="nonzero" stroke-linejoin="round"></path>
                <path d="M10,16 L30,16 L28.3480309,8.56613908 C28.1446809,7.65106397 27.3330541,7 26.3956568,7 L13.6043432,7 C12.6669459,7 11.8553191,7.65106397 11.6519691,8.56613908 L10,16 Z" id="路径-17" stroke="#FFFFFF" stroke-width="4" fill="#43CCF8" fill-rule="nonzero" stroke-linejoin="round"></path>
            </g>
        </g>
    </g>
</svg>