<svg width="48" height="48" viewBox="0 0 48 48" fill="none" xmlns="http://www.w3.org/2000/svg">
<path d="M22 6H9C7.34315 6 6 7.34315 6 9V31C6 32.6569 7.34315 34 9 34H39C40.6569 34 42 32.6569 42 31V22" stroke="black" stroke-width="4" stroke-linecap="round" stroke-linejoin="round"/>
<path d="M24 34V42" stroke="black" stroke-width="4" stroke-linecap="round" stroke-linejoin="round"/>
<path d="M14 42L34 42" stroke="black" stroke-width="4" stroke-linecap="round" stroke-linejoin="round"/>
<path d="M33.3 6C31.4775 6 30 7.43473 30 9.20455C30 12.4091 33.9 15.3223 36 16C38.1 15.3223 42 12.4091 42 9.20455C42 7.43473 40.5225 6 38.7 6C37.5839 6 36.5972 6.53804 36 7.3616C35.4028 6.53804 34.4161 6 33.3 6Z" fill="#2F88FF" stroke="black" stroke-width="4" stroke-linecap="round" stroke-linejoin="round"/>
</svg>