<svg width="48" height="48" viewBox="0 0 48 48" fill="none" xmlns="http://www.w3.org/2000/svg">
<rect width="48" height="48" fill="white" fill-opacity="0.01"/>
<path d="M8 17.012C8 16.4531 8.45311 16 9.01205 16H32.988C33.5469 16 34 16.4531 34 17.012V31C34 38.1797 28.1797 44 21 44V44C13.8203 44 8 38.1797 8 31V17.012Z" stroke="black" stroke-width="4"/>
<rect x="8" y="23" width="26" height="8" fill="#2F88FF" stroke="black" stroke-width="4" stroke-linecap="round" stroke-linejoin="round"/>
<path d="M21 4V10" stroke="black" stroke-width="4" stroke-linecap="round" stroke-linejoin="round"/>
<path d="M13 6V8" stroke="black" stroke-width="4" stroke-linecap="round" stroke-linejoin="round"/>
<path d="M29 6V8" stroke="black" stroke-width="4" stroke-linecap="round" stroke-linejoin="round"/>
<path d="M34 34C37.866 34 41 30.866 41 27C41 23.134 37.866 20 34 20" stroke="black" stroke-width="4" stroke-linecap="round"/>
</svg>
