<svg width="48" height="48" viewBox="0 0 48 48" fill="none" xmlns="http://www.w3.org/2000/svg">
<path d="M12 12L19 19M36 36L29 29" stroke="black" stroke-width="4" stroke-linecap="round" stroke-linejoin="round"/>
<path d="M36 12L29 19M12 36L19 29" stroke="black" stroke-width="4" stroke-linecap="round" stroke-linejoin="round"/>
<rect x="19" y="19" width="10" height="10" fill="#2F88FF" stroke="black" stroke-width="4" stroke-linecap="round" stroke-linejoin="round"/>
<path d="M36 19C37.3845 19 38.7378 18.5895 39.889 17.8203C41.0401 17.0511 41.9373 15.9579 42.4672 14.6788C42.997 13.3997 43.1356 11.9922 42.8655 10.6344C42.5954 9.2765 41.9287 8.02922 40.9497 7.05026C39.9708 6.07129 38.7235 5.4046 37.3656 5.13451C36.0078 4.86441 34.6003 5.00303 33.3212 5.53285C32.0421 6.06266 30.9489 6.95987 30.1797 8.11101C29.4105 9.26215 29 10.6155 29 12" stroke="black" stroke-width="4" stroke-linecap="round" stroke-linejoin="round"/>
<path d="M36 29C37.3845 29 38.7378 29.4105 39.889 30.1797C41.0401 30.9489 41.9373 32.0421 42.4672 33.3212C42.997 34.6003 43.1356 36.0078 42.8655 37.3656C42.5954 38.7235 41.9287 39.9708 40.9497 40.9497C39.9708 41.9287 38.7235 42.5954 37.3656 42.8655C36.0078 43.1356 34.6003 42.997 33.3212 42.4672C32.0421 41.9373 30.9489 41.0401 30.1797 39.889C29.4105 38.7378 29 37.3845 29 36" stroke="black" stroke-width="4" stroke-linecap="round" stroke-linejoin="round"/>
<path d="M12 29C10.6155 29 9.26216 29.4105 8.11101 30.1797C6.95987 30.9489 6.06266 32.0421 5.53285 33.3212C5.00303 34.6003 4.86441 36.0078 5.13451 37.3656C5.4046 38.7235 6.07129 39.9708 7.05026 40.9497C8.02922 41.9287 9.2765 42.5954 10.6344 42.8655C11.9922 43.1356 13.3997 42.997 14.6788 42.4672C15.9579 41.9373 17.0511 41.0401 17.8203 39.889C18.5895 38.7378 19 37.3845 19 36" stroke="black" stroke-width="4" stroke-linecap="round" stroke-linejoin="round"/>
<path d="M12 19C10.6155 19 9.26216 18.5895 8.11101 17.8203C6.95987 17.0511 6.06266 15.9579 5.53285 14.6788C5.00303 13.3997 4.86441 11.9922 5.13451 10.6344C5.4046 9.2765 6.07129 8.02922 7.05026 7.05026C8.02922 6.07129 9.2765 5.4046 10.6344 5.13451C11.9922 4.86441 13.3997 5.00303 14.6788 5.53285C15.9579 6.06266 17.0511 6.95987 17.8203 8.11101C18.5895 9.26215 19 10.6155 19 12" stroke="black" stroke-width="4" stroke-linecap="round" stroke-linejoin="round"/>
</svg>