<svg width="48" height="48" viewBox="0 0 48 48" fill="none" xmlns="http://www.w3.org/2000/svg">
<path d="M4 16C4 14.8954 4.89543 14 6 14H42C43.1046 14 44 14.8954 44 16V23.802C44 23.9337 43.987 24.065 43.9612 24.1942L42.3216 32.3922C42.1346 33.3271 41.3138 34 40.3604 34H7.63961C6.68624 34 5.86542 33.3271 5.67845 32.3922L4.03884 24.1942C4.01301 24.065 4 23.9337 4 23.802V16Z" fill="#2F88FF" stroke="black" stroke-width="4" stroke-linecap="round" stroke-linejoin="round"/>
<path d="M10 24H16" stroke="white" stroke-width="4" stroke-linecap="round" stroke-linejoin="round"/>
<path d="M21 21H23" stroke="white" stroke-width="4" stroke-linecap="round" stroke-linejoin="round"/>
<path d="M21 27H23" stroke="white" stroke-width="4" stroke-linecap="round" stroke-linejoin="round"/>
<path d="M28 21H30" stroke="white" stroke-width="4" stroke-linecap="round" stroke-linejoin="round"/>
<path d="M28 27H30" stroke="white" stroke-width="4" stroke-linecap="round" stroke-linejoin="round"/>
<path d="M35 21H37" stroke="white" stroke-width="4" stroke-linecap="round" stroke-linejoin="round"/>
<path d="M35 27H37" stroke="white" stroke-width="4" stroke-linecap="round" stroke-linejoin="round"/>
</svg>