<svg width="48" height="48" viewBox="0 0 48 48" fill="none" xmlns="http://www.w3.org/2000/svg">
<path d="M7 19C7 17.8954 6.10457 17 5 17C3.89543 17 3 17.8954 3 19L7 19ZM17 30L17 33L21 33L21 30L17 30ZM7 33L7 19L3 19L3 33L7 33ZM12 38C9.23858 38 7 35.7614 7 33L3 33C3 37.9706 7.02944 42 12 42L12 38ZM12 42C16.9706 42 21 37.9706 21 33L17 33C17 35.7614 14.7614 38 12 38L12 42Z" fill="black"/>
<path d="M29 30L29 33C29 36.866 32.134 40 36 40V40C39.866 40 43 36.866 43 33L43 19" stroke="black" stroke-width="4" stroke-linecap="round" stroke-linejoin="round"/>
<rect x="5" y="8" width="38" height="22" rx="11" fill="#2F88FF" stroke="black" stroke-width="4"/>
<path d="M21 19H13" stroke="white" stroke-width="4" stroke-linecap="round" stroke-linejoin="round"/>
<path d="M17 15V23" stroke="white" stroke-width="4" stroke-linecap="round" stroke-linejoin="round"/>
<rect x="32" y="15" width="4" height="4" rx="2" fill="white"/>
<rect x="28" y="20" width="4" height="4" rx="2" fill="white"/>
</svg>
