<svg width="48" height="48" viewBox="0 0 48 48" fill="none" xmlns="http://www.w3.org/2000/svg">
<path d="M21 16H15V25C15 26.6569 16.3431 28 18 28C19.6569 28 21 26.6569 21 25V16Z" fill="#2F88FF" stroke="black" stroke-width="4" stroke-linecap="round" stroke-linejoin="round"/>
<path d="M18 28V38L12 38" stroke="black" stroke-width="4" stroke-linecap="round" stroke-linejoin="round"/>
<path d="M21 16V4H10.5C8 4 5 6 5 10C5 14 8.5 16 11 16H21Z" stroke="black" stroke-width="4" stroke-linecap="round" stroke-linejoin="round"/>
<path d="M27 22V10H37.5C40 10 43 12 43 16C43 20 39.5 22 37 22H27Z" stroke="black" stroke-width="4" stroke-linecap="round" stroke-linejoin="round"/>
<path d="M33 22H27V31C27 32.6569 28.3431 34 30 34C31.6569 34 33 32.6569 33 31V22Z" fill="#2F88FF" stroke="black" stroke-width="4" stroke-linecap="round" stroke-linejoin="round"/>
<path d="M30 34L30 44L36 44" stroke="black" stroke-width="4" stroke-linecap="round" stroke-linejoin="round"/>
</svg>