<svg width="48" height="48" viewBox="0 0 48 48" fill="none" xmlns="http://www.w3.org/2000/svg">
<rect width="48" height="48" fill="white" fill-opacity="0.01"/>
<rect x="16" y="4" width="16" height="28" rx="8" stroke="black" stroke-width="4" stroke-linecap="round" stroke-linejoin="round"/>
<path d="M10 21V24C10 31.732 16.268 38 24 38V38C31.732 38 38 31.732 38 24V21" stroke="black" stroke-width="4" stroke-linecap="round" stroke-linejoin="round"/>
<path d="M24 5V11" stroke="black" stroke-width="4" stroke-linecap="round" stroke-linejoin="round"/>
<path d="M16 16H21" stroke="black" stroke-width="4" stroke-linecap="round" stroke-linejoin="round"/>
<path d="M27 16H32" stroke="black" stroke-width="4" stroke-linecap="round" stroke-linejoin="round"/>
<path d="M16 22H21" stroke="black" stroke-width="4" stroke-linecap="round" stroke-linejoin="round"/>
<path d="M27 22H32" stroke="black" stroke-width="4" stroke-linecap="round" stroke-linejoin="round"/>
<path d="M24 38V44" stroke="black" stroke-width="4"/>
<path d="M16 42C14.8954 42 14 42.8954 14 44C14 45.1046 14.8954 46 16 46V42ZM32 46C33.1046 46 34 45.1046 34 44C34 42.8954 33.1046 42 32 42V46ZM16 46L32 46V42L16 42V46Z" fill="black"/>
</svg>
