<svg width="48" height="48" viewBox="0 0 48 48" fill="none" xmlns="http://www.w3.org/2000/svg">
<path d="M44 26C44 28.6393 43.2696 31.1081 42 33.2152C40.8198 35.1737 39.1737 36.8198 37.2152 38C35.1081 39.2696 32.6393 40 30 40C27.3607 40 24.8919 39.2696 22.7848 38C18.7192 35.5502 16 31.0927 16 26C16 20.9073 18.7192 16.4498 22.7848 14C24.8919 12.7304 27.3607 12 30 12C32.6393 12 35.1081 12.7304 37.2152 14C39.1737 15.1802 40.8198 16.8263 42 18.7848C43.2696 20.8919 44 23.3607 44 26Z" fill="#2F88FF"/>
<path d="M4 14V38H22.7848C18.7192 35.5502 16 31.0927 16 26C16 20.9073 18.7192 16.4498 22.7848 14H4Z" fill="#2F88FF"/>
<path d="M37.2152 14C35.1081 12.7304 32.6393 12 30 12C27.3607 12 24.8919 12.7304 22.7848 14M37.2152 14H42V18.7848M37.2152 14C39.1737 15.1802 40.8198 16.8263 42 18.7848M22.7848 14H4V38H22.7848M22.7848 14C18.7192 16.4498 16 20.9073 16 26C16 31.0927 18.7192 35.5502 22.7848 38M37.2152 38C35.1081 39.2696 32.6393 40 30 40C27.3607 40 24.8919 39.2696 22.7848 38M37.2152 38H42V33.2152M37.2152 38C39.1737 36.8198 40.8198 35.1737 42 33.2152M42 18.7848C43.2696 20.8919 44 23.3607 44 26C44 28.6393 43.2696 31.1081 42 33.2152" stroke="black" stroke-width="4" stroke-linecap="round" stroke-linejoin="round"/>
<rect x="8" y="9" width="9" height="5" fill="#2F88FF" stroke="black" stroke-width="4" stroke-linecap="round" stroke-linejoin="round"/>
<path d="M10 22V30" stroke="white" stroke-width="4" stroke-linecap="round" stroke-linejoin="round"/>
<path d="M36 26C36 29.3137 33.3137 32 30 32M24 26C24 22.6863 26.6863 20 30 20" stroke="white" stroke-width="4" stroke-linecap="round" stroke-linejoin="round"/>
</svg>