<svg width="48" height="48" viewBox="0 0 48 48" fill="none" xmlns="http://www.w3.org/2000/svg">
<path d="M5 8C5 6.89543 5.89543 6 7 6H41C42.1046 6 43 6.89543 43 8V32C43 33.1046 42.1046 34 41 34H7C5.89543 34 5 33.1046 5 32V8Z" stroke="black" stroke-width="4" stroke-linecap="round" stroke-linejoin="round"/>
<path d="M5 26C5 24.8954 5.89543 24 7 24H41C42.1046 24 43 24.8954 43 26V32C43 33.1046 42.1046 34 41 34H7C5.89543 34 5 33.1046 5 32V26Z" fill="#2F88FF" stroke="black" stroke-width="4" stroke-linecap="round" stroke-linejoin="round"/>
<path d="M16.4383 15.7506C15.7482 16.6131 15.8881 17.8717 16.7506 18.5617C17.6131 19.2518 18.8717 19.1119 19.5617 18.2494L16.4383 15.7506ZM23.5617 13.2494C24.2518 12.3869 24.1119 11.1283 23.2494 10.4383C22.3869 9.74824 21.1283 9.88809 20.4383 10.7506L23.5617 13.2494ZM19.5617 18.2494L23.5617 13.2494L20.4383 10.7506L16.4383 15.7506L19.5617 18.2494Z" fill="black"/>
<path d="M23.4 16.8C22.7373 17.6837 22.9163 18.9373 23.8 19.6C24.6837 20.2627 25.9373 20.0837 26.6 19.2L23.4 16.8ZM29.6 15.2C30.2627 14.3163 30.0837 13.0627 29.2 12.4C28.3163 11.7373 27.0627 11.9163 26.4 12.8L29.6 15.2ZM26.6 19.2L29.6 15.2L26.4 12.8L23.4 16.8L26.6 19.2Z" fill="black"/>
<circle cx="24" cy="29" r="2" fill="black"/>
<path d="M17 34L14 42H34L31 34" stroke="black" stroke-width="4" stroke-linecap="round" stroke-linejoin="round"/>
</svg>
