<svg width="48" height="48" viewBox="0 0 48 48" fill="none" xmlns="http://www.w3.org/2000/svg">
<rect width="48" height="48" fill="white" fill-opacity="0.01"/>
<rect x="12" y="12" width="24" height="32" rx="12" stroke="black" stroke-width="4"/>
<path d="M12 24C12 17.3726 17.3726 12 24 12C30.6274 12 36 17.3726 36 24V25H12V24Z" fill="#2F88FF" stroke="black" stroke-width="4"/>
<path d="M37 13C37 14.1046 37.8954 15 39 15C40.1046 15 41 14.1046 41 13H37ZM26 25V10H22V25H26ZM30 6H31.5V2H30V6ZM37 11.5V13H41V11.5H37ZM31.5 6C34.5376 6 37 8.46243 37 11.5H41C41 6.25329 36.7467 2 31.5 2V6ZM26 10C26 7.79086 27.7909 6 30 6V2C25.5817 2 22 5.58172 22 10H26Z" fill="black"/>
</svg>
