<svg width="48" height="48" viewBox="0 0 48 48" fill="none" xmlns="http://www.w3.org/2000/svg">
<path d="M41 4H7C5.34315 4 4 5.34315 4 7V41C4 42.6569 5.34315 44 7 44H41C42.6569 44 44 42.6569 44 41V7C44 5.34315 42.6569 4 41 4Z" fill="#2F88FF" stroke="black" stroke-width="4" stroke-linecap="round" stroke-linejoin="round"/>
<path d="M12 14C13.1046 14 14 13.1046 14 12C14 10.8954 13.1046 10 12 10C10.8954 10 10 10.8954 10 12C10 13.1046 10.8954 14 12 14Z" fill="white"/>
<path d="M12 38C13.1046 38 14 37.1046 14 36C14 34.8954 13.1046 34 12 34C10.8954 34 10 34.8954 10 36C10 37.1046 10.8954 38 12 38Z" fill="white"/>
<path d="M36 14C37.1046 14 38 13.1046 38 12C38 10.8954 37.1046 10 36 10C34.8954 10 34 10.8954 34 12C34 13.1046 34.8954 14 36 14Z" fill="white"/>
<path d="M36 38C37.1046 38 38 37.1046 38 36C38 34.8954 37.1046 34 36 34C34.8954 34 34 34.8954 34 36C34 37.1046 34.8954 38 36 38Z" fill="white"/>
<path d="M24 33C28.9706 33 33 28.9706 33 24C33 19.0294 28.9706 15 24 15C19.0294 15 15 19.0294 15 24C15 28.9706 19.0294 33 24 33Z" fill="#43CCF8" stroke="white" stroke-width="4" stroke-linecap="round" stroke-linejoin="round"/>
</svg>