<svg width="48" height="48" viewBox="0 0 48 48" fill="none" xmlns="http://www.w3.org/2000/svg">
<path d="M42 8H20C18.8954 8 18 8.89543 18 10V32C18 33.1046 18.8954 34 20 34H42C43.1046 34 44 33.1046 44 32V10C44 8.89543 43.1046 8 42 8Z" fill="#2F88FF" stroke="black" stroke-width="4" stroke-linejoin="round"/>
<path d="M4 34H18V20H11L4 26.4615V34Z" fill="#2F88FF" stroke="black" stroke-width="4" stroke-linejoin="round"/>
<path d="M18 36C18 38.2091 16.2091 40 14 40C11.7909 40 10 38.2091 10 36" stroke="black" stroke-width="4" stroke-linecap="round" stroke-linejoin="round"/>
<path d="M40 36C40 38.2091 38.2091 40 36 40C33.7909 40 32 38.2091 32 36" stroke="black" stroke-width="4" stroke-linecap="round" stroke-linejoin="round"/>
</svg>