<svg width="48" height="48" viewBox="0 0 48 48" fill="none" xmlns="http://www.w3.org/2000/svg">
<path d="M12 39C14.2091 39 16 37.2091 16 35C16 32.7909 14.2091 31 12 31C9.79086 31 8 32.7909 8 35C8 37.2091 9.79086 39 12 39Z" stroke="black" stroke-width="4" stroke-linejoin="round"/>
<path d="M35 39C37.2091 39 39 37.2091 39 35C39 32.7909 37.2091 31 35 31C32.7909 31 31 32.7909 31 35C31 37.2091 32.7909 39 35 39Z" stroke="black" stroke-width="4" stroke-linejoin="round"/>
<path d="M8 35H2V11H31V35H16" stroke="black" stroke-width="4" stroke-linecap="round" stroke-linejoin="round"/>
<path d="M31 35V18H39.5714L46 26.5V35H39.8112" stroke="black" stroke-width="4" stroke-linecap="round" stroke-linejoin="round"/>
</svg>