<svg width="48" height="48" viewBox="0 0 48 48" fill="none" xmlns="http://www.w3.org/2000/svg">
<path d="M4 18C4 16.3431 5.34315 15 7 15H41C42.6569 15 44 16.3431 44 18V24.1396C44 24.7019 43.842 25.2528 43.544 25.7296L39.8813 31.59C39.333 32.4671 38.3716 33 37.3373 33H10.6627C9.62837 33 8.66696 32.4671 8.11875 31.59L4.456 25.7296C4.15801 25.2528 4 24.7019 4 24.1396V18Z" fill="#2F88FF" stroke="black" stroke-width="4" stroke-linecap="round" stroke-linejoin="round"/>
<path d="M11 15H37V23H11V15Z" fill="#2F88FF" stroke="white" stroke-width="4" stroke-linecap="round" stroke-linejoin="round"/>
<path d="M21 23V21" stroke="white" stroke-width="4" stroke-linecap="round" stroke-linejoin="round"/>
<path d="M27 23V21" stroke="white" stroke-width="4" stroke-linecap="round" stroke-linejoin="round"/>
<path d="M32 23V21" stroke="white" stroke-width="4" stroke-linecap="round" stroke-linejoin="round"/>
<path d="M16 23V21" stroke="white" stroke-width="4" stroke-linecap="round" stroke-linejoin="round"/>
<path d="M8 15L40 15" stroke="black" stroke-width="4" stroke-linecap="round" stroke-linejoin="round"/>
</svg>