<svg width="48" height="48" viewBox="0 0 48 48" fill="none" xmlns="http://www.w3.org/2000/svg">
<rect width="48" height="48" fill="white" fill-opacity="0.01"/>
<path d="M40 34C40 35.1046 39.1046 36 38 36C36.8954 36 36 35.1046 36 34H40ZM28 22.2857C28 23.3903 27.1046 24.2857 26 24.2857C24.8954 24.2857 24 23.3903 24 22.2857H28ZM36 34V10H40V34H36ZM28 10V22.2857H24V10H28ZM32 6C29.7909 6 28 7.79086 28 10H24C24 5.58172 27.5817 2 32 2V6ZM36 10C36 7.79086 34.2091 6 32 6V2C36.4183 2 40 5.58172 40 10H36Z" fill="black"/>
<path d="M32.75 34H43.25L44 40H32L32.75 34Z" fill="#2F88FF" stroke="black" stroke-width="4" stroke-linecap="round" stroke-linejoin="round"/>
<path d="M10 40H25.8864C25.9491 40 26 39.9491 26 39.8864V23.2546C26 15.9343 20.0657 10 12.7454 10V10C9.57228 10 7 12.5723 7 15.7454V29" stroke="black" stroke-width="4" stroke-linecap="round" stroke-linejoin="round"/>
<circle cx="10" cy="34" r="6" fill="#2F88FF" stroke="black" stroke-width="4"/>
<path d="M14 10V29" stroke="black" stroke-width="4" stroke-linecap="round" stroke-linejoin="round"/>
</svg>
