<svg width="48" height="48" viewBox="0 0 48 48" fill="none" xmlns="http://www.w3.org/2000/svg">
<path fill-rule="evenodd" clip-rule="evenodd" d="M2 12H46V36H30L24 30L18 36H2V12Z" fill="#2F88FF" stroke="black" stroke-width="4" stroke-linecap="round" stroke-linejoin="round"/>
<path fill-rule="evenodd" clip-rule="evenodd" d="M13 28C15.2091 28 17 26.2091 17 24C17 21.7909 15.2091 20 13 20C10.7909 20 9 21.7909 9 24C9 26.2091 10.7909 28 13 28Z" fill="#43CCF8" stroke="white" stroke-width="4" stroke-linecap="round" stroke-linejoin="round"/>
<path fill-rule="evenodd" clip-rule="evenodd" d="M35 28C37.2091 28 39 26.2091 39 24C39 21.7909 37.2091 20 35 20C32.7909 20 31 21.7909 31 24C31 26.2091 32.7909 28 35 28Z" fill="#43CCF8" stroke="white" stroke-width="4" stroke-linecap="round" stroke-linejoin="round"/>
</svg>