<svg width="96" height="96" viewBox="0 0 96 96" fill="none" xmlns="http://www.w3.org/2000/svg">
<g id="hardware/vr-glasses">
<path d="M0 0H96V96H0V0Z" fill="white" fill-opacity="0.01"/>
<path id="Rectangle 2" fill-rule="evenodd" clip-rule="evenodd" d="M4 24H92V72H60L48 60L36 72H4V24Z" fill="#2F88FF" stroke="black" stroke-width="4" stroke-linecap="round" stroke-linejoin="round"/>
<path id="Oval" fill-rule="evenodd" clip-rule="evenodd" d="M26 56C30.4183 56 34 52.4183 34 48C34 43.5817 30.4183 40 26 40C21.5817 40 18 43.5817 18 48C18 52.4183 21.5817 56 26 56Z" fill="#43CCF8" stroke="white" stroke-width="4" stroke-linecap="round" stroke-linejoin="round"/>
<path id="Oval Copy" fill-rule="evenodd" clip-rule="evenodd" d="M70 56C74.4183 56 78 52.4183 78 48C78 43.5817 74.4183 40 70 40C65.5817 40 62 43.5817 62 48C62 52.4183 65.5817 56 70 56Z" fill="#43CCF8" stroke="white" stroke-width="4" stroke-linecap="round" stroke-linejoin="round"/>
</g>
</svg>
