<svg width="48" height="48" viewBox="0 0 48 48" fill="none" xmlns="http://www.w3.org/2000/svg">
<path d="M16 18C16 13.5817 19.5817 10 24 10C28.4183 10 32 13.5817 32 18V42C32 43.1046 31.1046 44 30 44H18C16.8954 44 16 43.1046 16 42V18Z" fill="#2F88FF" stroke="black" stroke-width="4" stroke-linejoin="round"/>
<path d="M24 24V34" stroke="white" stroke-width="4" stroke-linecap="round" stroke-linejoin="round"/>
<rect x="20" y="5" width="9" height="4" fill="#2F88FF" stroke="black" stroke-width="4" stroke-linejoin="round"/>
<path d="M29 5L38 4V10L29 9V5Z" fill="#2F88FF" stroke="black" stroke-width="4" stroke-linejoin="round"/>
<path d="M20 6.99981C17 6.99981 12.5 6.49981 10 8.99981C7.58343 11.4164 8.00004 13.9998 8.00004 17.9998" stroke="black" stroke-width="4" stroke-linecap="round" stroke-linejoin="round"/>
</svg>