<svg width="48" height="48" viewBox="0 0 48 48" fill="none" xmlns="http://www.w3.org/2000/svg">
<path d="M30.4417 5C32.406 5 34.265 5.44776 35.9207 6.24607L32.7172 9.42668C30.8706 11.2601 30.8706 14.2327 32.7172 16.0661C34.5638 17.8995 37.5578 17.8995 39.4044 16.0661L42.2571 13.2337C42.7379 14.5558 43 15.9818 43 17.4685C43 24.3547 37.3775 29.937 30.4417 29.937C28.7825 29.937 27.1985 29.6176 25.7486 29.0373L13.07 41.6253C11.2238 43.4582 8.2307 43.4582 6.38459 41.6253C4.53847 39.7924 4.53847 36.8207 6.38459 34.9877L18.9523 22.5099C18.2651 20.9684 17.8834 19.2627 17.8834 17.4685C17.8834 10.5823 23.5059 5 30.4417 5Z" fill="#2F88FF" stroke="black" stroke-width="4" stroke-linejoin="round"/>
</svg>