<svg width="48" height="48" viewBox="0 0 48 48" fill="none" xmlns="http://www.w3.org/2000/svg">
<path d="M4 39H44" stroke="black" stroke-width="4" stroke-linecap="round" stroke-linejoin="round"/>
<path d="M4 27H15.5" stroke="black" stroke-width="4" stroke-linecap="round" stroke-linejoin="round"/>
<path d="M32.5 27L44 27" stroke="black" stroke-width="4" stroke-linecap="round" stroke-linejoin="round"/>
<path d="M15.5143 27C15.3799 26.8372 15.25 26.6705 15.125 26.5C15.0052 26.3367 14.8898 26.17 14.7789 26C13.6538 24.2744 13 22.2136 13 20C13 13.9249 17.9249 9 24 9C30.0751 9 35 13.9249 35 20C35 22.2136 34.3462 24.2744 33.2211 26C33.1102 26.17 32.9948 26.3367 32.875 26.5C32.75 26.6705 32.6201 26.8372 32.4857 27" stroke="black" stroke-width="4" stroke-linecap="round"/>
</svg>