<svg width="48" height="48" viewBox="0 0 48 48" fill="none" xmlns="http://www.w3.org/2000/svg">
<path d="M16 12C16 8.68629 13.3137 6 10 6C6.68629 6 4 8.68629 4 12" stroke="black" stroke-width="4" stroke-linecap="round" stroke-linejoin="round"/>
<path d="M28 12C28 8.68629 25.3137 6 22 6C18.6863 6 16 8.68629 16 12" stroke="black" stroke-width="4" stroke-linecap="round" stroke-linejoin="round"/>
<path d="M40 34C40 37.3137 37.3137 40 34 40C30.6863 40 28 37.3137 28 34" stroke="black" stroke-width="4" stroke-linecap="round" stroke-linejoin="round"/>
<path d="M4 12V30" stroke="black" stroke-width="4" stroke-linecap="round" stroke-linejoin="round"/>
<path d="M16 12V30" stroke="black" stroke-width="4" stroke-linecap="round" stroke-linejoin="round"/>
<path d="M28 12V34" stroke="black" stroke-width="4" stroke-linecap="round"/>
<path d="M40 23V34" stroke="black" stroke-width="4" stroke-linecap="round"/>
<path d="M36 27L40 23L44 27" stroke="black" stroke-width="4" stroke-linecap="round" stroke-linejoin="round"/>
</svg>