<svg width="48" height="48" viewBox="0 0 48 48" fill="none" xmlns="http://www.w3.org/2000/svg">
<path d="M44 21C44 19.8954 43.1046 19 42 19C40.8954 19 40 19.8954 40 21H44ZM23 8C24.1046 8 25 7.10457 25 6C25 4.89543 24.1046 4 23 4V8ZM39 40H9V44H39V40ZM8 39V9H4V39H8ZM40 21V39H44V21H40ZM9 8H23V4H9V8ZM9 40C8.44772 40 8 39.5523 8 39H4C4 41.7614 6.23857 44 9 44V40ZM39 44C41.7614 44 44 41.7614 44 39H40C40 39.5523 39.5523 40 39 40V44ZM8 9C8 8.44772 8.44771 8 9 8V4C6.23858 4 4 6.23857 4 9H8Z" fill="black"/>
<path d="M6 35L16.6931 25.198C17.4389 24.5143 18.5779 24.4953 19.3461 25.1538L32 36" stroke="black" stroke-width="4" stroke-linecap="round" stroke-linejoin="round"/>
<path d="M28 31L32.7735 26.2265C33.4772 25.5228 34.5914 25.4436 35.3877 26.0408L42 31" stroke="black" stroke-width="4" stroke-linecap="round" stroke-linejoin="round"/>
<path d="M33.3 6C31.4775 6 30 7.43473 30 9.20455C30 12.4091 33.9 15.3223 36 16C38.1 15.3223 42 12.4091 42 9.20455C42 7.43473 40.5225 6 38.7 6C37.5839 6 36.5972 6.53804 36 7.3616C35.4028 6.53804 34.4161 6 33.3 6Z" fill="#2F88FF" stroke="black" stroke-width="4" stroke-linecap="round" stroke-linejoin="round"/>
</svg>