<svg width="48" height="48" viewBox="0 0 48 48" fill="none" xmlns="http://www.w3.org/2000/svg">
<path d="M44.0002 23.999C44.0002 22.8945 43.1048 21.999 42.0002 21.999C40.8957 21.999 40.0002 22.8945 40.0002 23.999H44.0002ZM24.0002 7.99902C25.1048 7.99902 26.0002 7.10359 26.0002 5.99902C26.0002 4.89445 25.1048 3.99902 24.0002 3.99902V7.99902ZM39.0002 39.999H9.00024V43.999H39.0002V39.999ZM8.00024 38.999V8.99902H4.00024V38.999H8.00024ZM40.0002 23.999V38.999H44.0002V23.999H40.0002ZM9.00024 7.99902H24.0002V3.99902H9.00024V7.99902ZM9.00024 39.999C8.44796 39.999 8.00024 39.5513 8.00024 38.999H4.00024C4.00024 41.7604 6.23882 43.999 9.00024 43.999V39.999ZM39.0002 43.999C41.7617 43.999 44.0002 41.7604 44.0002 38.999H40.0002C40.0002 39.5513 39.5525 39.999 39.0002 39.999V43.999ZM8.00024 8.99902C8.00024 8.44674 8.44796 7.99902 9.00024 7.99902V3.99902C6.23882 3.99902 4.00024 6.2376 4.00024 8.99902H8.00024Z" fill="black"/>
<path d="M6 35L16.6931 25.198C17.4389 24.5143 18.5779 24.4953 19.3461 25.1538L32 36" stroke="black" stroke-width="4" stroke-linecap="round" stroke-linejoin="round"/>
<path d="M28 31L32.7735 26.2265C33.4772 25.5228 34.5914 25.4436 35.3877 26.0408L42 31" stroke="black" stroke-width="4" stroke-linecap="round" stroke-linejoin="round"/>
<circle cx="36.0002" cy="12" r="6" stroke="black" stroke-width="4"/>
<path d="M32 8L40 16" stroke="black" stroke-width="4" stroke-linecap="round" stroke-linejoin="round"/>
</svg>
