<svg width="48" height="48" viewBox="0 0 48 48" fill="none" xmlns="http://www.w3.org/2000/svg">
<path d="M40 23V14L31 4H10C8.89543 4 8 4.89543 8 6V42C8 43.1046 8.89543 44 10 44H22" stroke="black" stroke-width="4" stroke-linecap="round" stroke-linejoin="round"/>
<path d="M33 41C37.9706 41 42 35 42 35C42 35 37.9706 29 33 29C28.0294 29 24 35 24 35C24 35 28.0294 41 33 41Z" fill="#2F88FF" stroke="black" stroke-width="4" stroke-linejoin="round"/>
<path d="M33 37C34.1046 37 35 36.1046 35 35C35 33.8954 34.1046 33 33 33C31.8954 33 31 33.8954 31 35C31 36.1046 31.8954 37 33 37Z" fill="white"/>
<path d="M30 4V14H40" stroke="black" stroke-width="4" stroke-linecap="round" stroke-linejoin="round"/>
</svg>