<svg width="48" height="48" viewBox="0 0 48 48" fill="none" xmlns="http://www.w3.org/2000/svg">
<path d="M10 44H38C39.1046 44 40 43.1046 40 42V14H30V4H10C8.89543 4 8 4.89543 8 6V42C8 43.1046 8.89543 44 10 44Z" fill="#2F88FF" stroke="black" stroke-width="4" stroke-linecap="round" stroke-linejoin="round"/>
<path d="M30 4L40 14" stroke="black" stroke-width="4" stroke-linecap="round" stroke-linejoin="round"/>
<path d="M20.85 21C18.7237 21 17 23.0086 17 25.4864C17 29.9727 21.55 34.0513 24 35C26.45 34.0513 31 29.9727 31 25.4864C31 23.0086 29.2763 21 27.15 21C25.8479 21 24.6967 21.7533 24 22.9062C23.3033 21.7533 22.1521 21 20.85 21Z" fill="#43CCF8" stroke="white" stroke-width="4" stroke-linecap="round" stroke-linejoin="round"/>
</svg>