<svg width="48" height="48" viewBox="0 0 48 48" fill="none" xmlns="http://www.w3.org/2000/svg">
<path d="M10 38V44H38V38" stroke="black" stroke-width="4" stroke-linecap="round" stroke-linejoin="round"/>
<path d="M38 20V14L30 4H10V20" stroke="black" stroke-width="4" stroke-linecap="round" stroke-linejoin="round"/>
<path d="M28 4V14H38" stroke="black" stroke-width="4" stroke-linecap="round" stroke-linejoin="round"/>
<rect x="4" y="20" width="40" height="18" rx="2" stroke="black" stroke-width="4" stroke-linejoin="round"/>
<path d="M21 25V33" stroke="black" stroke-width="4" stroke-linecap="round"/>
<path d="M10 25V33" stroke="black" stroke-width="4" stroke-linecap="round"/>
<path d="M32 33V25H37" stroke="black" stroke-width="4" stroke-linecap="round" stroke-linejoin="round"/>
<path d="M32 30H37" stroke="black" stroke-width="4" stroke-linecap="round" stroke-linejoin="round"/>
<path d="M10 25H13.5C14.8807 25 16 26.1193 16 27.5V27.5C16 28.8807 14.8807 30 13.5 30H10" stroke="black" stroke-width="4" stroke-linecap="round" stroke-linejoin="round"/>
<path d="M21 25H23C25.2091 25 27 26.7909 27 29V29C27 31.2091 25.2091 33 23 33H21" stroke="black" stroke-width="4" stroke-linecap="round" stroke-linejoin="round"/>
<path d="M16 12H20" stroke="black" stroke-width="4" stroke-linecap="round"/>
</svg>