<svg width="48" height="48" viewBox="0 0 48 48" fill="none" xmlns="http://www.w3.org/2000/svg">
<path d="M40 23V14L31 4H10C8.89543 4 8 4.89543 8 6V42C8 43.1046 8.89543 44 10 44H22" stroke="black" stroke-width="4" stroke-linecap="round" stroke-linejoin="round"/>
<path d="M30.85 30C28.7237 30 27 32.0086 27 34.4864C27 38.9727 31.55 43.0513 34 44C36.45 43.0513 41 38.9727 41 34.4864C41 32.0086 39.2763 30 37.15 30C35.8479 30 34.6967 30.7533 34 31.9062C33.3033 30.7533 32.1521 30 30.85 30Z" fill="#2F88FF" stroke="black" stroke-width="4" stroke-linecap="round" stroke-linejoin="round"/>
<path d="M30 4V14H40" stroke="black" stroke-width="4" stroke-linecap="round" stroke-linejoin="round"/>
</svg>