<svg width="48" height="48" viewBox="0 0 48 48" fill="none" xmlns="http://www.w3.org/2000/svg">
<path d="M7 6C7 4.89543 7.89543 4 9 4H39C40.1046 4 41 4.89543 41 6V42C41 43.1046 40.1046 44 39 44H9C7.89543 44 7 43.1046 7 42V6Z" fill="#2F88FF" stroke="black" stroke-width="4" stroke-linecap="round" stroke-linejoin="round"/>
<path d="M16 29H20" stroke="white" stroke-width="4" stroke-linecap="round" stroke-linejoin="round"/>
<path d="M16 35H26" stroke="white" stroke-width="4" stroke-linecap="round" stroke-linejoin="round"/>
<path d="M8 5C8 5 11.7647 18 24 18C36.2353 18 40 5 40 5" stroke="white" stroke-width="4" stroke-linecap="round" stroke-linejoin="round"/>
<circle cx="24" cy="18" r="4" fill="#43CCF8" stroke="white" stroke-width="4" stroke-linecap="round" stroke-linejoin="round"/>
<path d="M15 4H9C7.89543 4 7 4.89543 7 6V12" stroke="black" stroke-width="4" stroke-linecap="round" stroke-linejoin="round"/>
<path d="M33 4H39C40.1046 4 41 4.89543 41 6V12" stroke="black" stroke-width="4" stroke-linecap="round" stroke-linejoin="round"/>
</svg>