<svg width="48" height="48" viewBox="0 0 48 48" fill="none" xmlns="http://www.w3.org/2000/svg">
<path d="M8 44V4H31L40 14.5V44H8Z" fill="#2F88FF" stroke="black" stroke-width="4" stroke-linecap="round" stroke-linejoin="round"/>
<path d="M34 25C34 30.5228 29.5228 35 24 35C18.4772 35 14 30.5228 14 25C14 19.4772 18.4772 15 24 15C26.6582 15 29.0742 16.0372 30.8653 17.729C32.7955 19.5521 34 22.1354 34 25Z" fill="#43CCF8" stroke="white" stroke-width="4" stroke-linecap="round" stroke-linejoin="round"/>
<path d="M17 18L31 32" stroke="white" stroke-width="4" stroke-linecap="round" stroke-linejoin="round"/>
<path d="M34 25C34 30.5228 29.5228 35 24 35M14 25C14 19.4772 18.4772 15 24 15" stroke="white" stroke-width="4" stroke-linecap="round" stroke-linejoin="round"/>
</svg>