<svg width="48" height="48" viewBox="0 0 48 48" fill="none" xmlns="http://www.w3.org/2000/svg">
<path d="M24 40H7C5.34315 40 4 38.6569 4 37V11C4 9.34315 5.34315 8 7 8H41C42.6569 8 44 9.34315 44 11V23.0588" stroke="black" stroke-width="4" stroke-linecap="round" stroke-linejoin="round"/>
<path d="M4 11C4 9.34315 5.34315 8 7 8H41C42.6569 8 44 9.34315 44 11V20H4V11Z" fill="#2F88FF" stroke="black" stroke-width="4"/>
<rect x="32" y="33" width="12" height="8" rx="3" stroke="black" stroke-width="4" stroke-linejoin="round"/>
<path d="M38 27C39.6569 27 41 28.3431 41 30L41 33L35 33L35 30C35 28.3431 36.3431 27 38 27V27Z" stroke="black" stroke-width="4" stroke-linejoin="round"/>
<circle r="2" transform="matrix(-1.31134e-07 -1 -1 1.31134e-07 10 14)" fill="white"/>
<circle r="2" transform="matrix(-1.31134e-07 -1 -1 1.31134e-07 16 14)" fill="white"/>
</svg>