<svg width="48" height="48" viewBox="0 0 48 48" fill="none" xmlns="http://www.w3.org/2000/svg">
<path d="M18 8H11C10.4477 8 10 8.44772 10 9V43C10 43.5523 10.4477 44 11 44H39C39.5523 44 40 43.5523 40 43V9C40 8.44772 39.5523 8 39 8H32" stroke="black" stroke-width="4"/>
<path d="M18 13V8H21.9505C21.9778 8 22 7.97784 22 7.9505V6C22 4.34315 23.3431 3 25 3C26.6569 3 28 4.34315 28 6V7.9505C28 7.97784 28.0222 8 28.0495 8H32V13C32 13.5523 31.5523 14 31 14H19C18.4477 14 18 13.5523 18 13Z" fill="#2F88FF" stroke="black" stroke-width="4"/>
</svg>