<svg width="48" height="48" viewBox="0 0 48 48" fill="none" xmlns="http://www.w3.org/2000/svg">
<rect x="8" y="4" width="32" height="40" rx="2" fill="#2F88FF" stroke="black" stroke-width="4" stroke-linejoin="round"/>
<path d="M21 14H33" stroke="white" stroke-width="4" stroke-linecap="round" stroke-linejoin="round"/>
<path d="M21 24H33" stroke="white" stroke-width="4" stroke-linecap="round" stroke-linejoin="round"/>
<path d="M21 34H33" stroke="white" stroke-width="4" stroke-linecap="round" stroke-linejoin="round"/>
<path fill-rule="evenodd" clip-rule="evenodd" d="M15 16C16.1046 16 17 15.1046 17 14C17 12.8954 16.1046 12 15 12C13.8954 12 13 12.8954 13 14C13 15.1046 13.8954 16 15 16Z" fill="white"/>
<path fill-rule="evenodd" clip-rule="evenodd" d="M15 26C16.1046 26 17 25.1046 17 24C17 22.8954 16.1046 22 15 22C13.8954 22 13 22.8954 13 24C13 25.1046 13.8954 26 15 26Z" fill="white"/>
<path fill-rule="evenodd" clip-rule="evenodd" d="M15 36C16.1046 36 17 35.1046 17 34C17 32.8954 16.1046 32 15 32C13.8954 32 13 32.8954 13 34C13 35.1046 13.8954 36 15 36Z" fill="white"/>
</svg>