<svg width="48" height="48" viewBox="0 0 48 48" fill="none" xmlns="http://www.w3.org/2000/svg">
<path d="M20 15L24 19L28 15" stroke="black" stroke-width="4" stroke-linecap="round" stroke-linejoin="round"/>
<path d="M24 19V8C24 5.79086 25.7909 4 28 4H40C42.2091 4 44 5.79086 44 8V19" stroke="black" stroke-width="4" stroke-linecap="round" stroke-linejoin="round"/>
<path d="M28 33L24 29L20 33" stroke="black" stroke-width="4" stroke-linecap="round" stroke-linejoin="round"/>
<path d="M24 29V40C24 42.2091 22.2091 44 20 44H8C5.79086 44 4 42.2091 4 40V29" stroke="black" stroke-width="4" stroke-linecap="round" stroke-linejoin="round"/>
<path d="M33 20L29 24L33 28" stroke="black" stroke-width="4" stroke-linecap="round" stroke-linejoin="round"/>
<path d="M29 24H40C42.2091 24 44 25.7909 44 28V40C44 42.2091 42.2091 44 40 44H29" stroke="black" stroke-width="4" stroke-linecap="round" stroke-linejoin="round"/>
<path d="M15 28L19 24L15 20" stroke="black" stroke-width="4" stroke-linecap="round" stroke-linejoin="round"/>
<path d="M19 24H8C5.79086 24 4 22.2091 4 20V8C4 5.79086 5.79086 4 8 4H19" stroke="black" stroke-width="4" stroke-linecap="round" stroke-linejoin="round"/>
</svg>