<?xml version="1.0" encoding="UTF-8"?>
<svg width="48px" height="48px" viewBox="0 0 48 48" version="1.1" xmlns="http://www.w3.org/2000/svg" xmlns:xlink="http://www.w3.org/1999/xlink">
    <!-- Generator: Sketch 55.1 (78136) - https://sketchapp.com -->
    <title>download3</title>
    <desc>Created with Sketch.</desc>
    <g id="download3" stroke="none" stroke-width="1" fill="none" fill-rule="evenodd">
        <g id="编组">
            <rect id="矩形" fill-opacity="0.01" fill="#FFFFFF" x="0" y="0" width="48" height="48"></rect>
            <g id="download-cloud" transform="translate(3.000000, 7.000000)" stroke="#000000" stroke-linecap="round" stroke-linejoin="round" stroke-width="4">
                <path d="M37.517692,27.3161117 C40.8042581,25.0049985 42.2135166,20.8301617 41,17 C39.7864834,13.1698383 36.0704359,11.0713692 32.0526316,11.074512 L29.7315789,11.074512 C28.2142636,5.16125036 23.2081058,0.795724382 17.1433735,0.0972036243 C11.0786412,-0.601317134 5.21111138,2.51180459 2.38920996,7.92528602 C-0.432691467,13.3387675 0.375344683,19.9316811 4.42105263,24.5034593" id="Path"></path>
            </g>
            <g id="Group-2" transform="translate(24.000000, 32.000000) scale(1, -1) translate(-24.000000, -32.000000) translate(17.500000, 23.000000)" stroke="#000000" stroke-linecap="round" stroke-linejoin="round" stroke-width="4">
                <path d="M6.50833333,0 L6.5,18" id="Path"></path>
                <polyline id="Path-30" transform="translate(6.500000, 6.363961) rotate(135.000000) translate(-6.500000, -6.363961) " points="2 1.86396103 2 10.863961 11 10.863961"></polyline>
            </g>
        </g>
    </g>
</svg>