<?xml version="1.0" encoding="UTF-8"?>
<svg width="48px" height="48px" viewBox="0 0 48 48" version="1.1" xmlns="http://www.w3.org/2000/svg" xmlns:xlink="http://www.w3.org/1999/xlink">
    <!-- Generator: Sketch 55.1 (78136) - https://sketchapp.com -->
    <title>full-screen2</title>
    <desc>Created with Sketch.</desc>
    <g id="full-screen2" stroke="none" stroke-width="1" fill="none" fill-rule="evenodd">
        <g id="编组">
            <rect id="矩形" fill-opacity="0.01" fill="#FFFFFF" x="0" y="0" width="48" height="48"></rect>
            <path d="M33,6 L42,6 L42,15 M42,33 L42,42 L33,42 M15,42 L6,42 L6,33 M6,15 L6,6 L6,6 L15,6" id="Shape" stroke="#000000" stroke-width="4" stroke-linecap="round" stroke-linejoin="round"></path>
            <path d="M6,6 L16,15.8994949" id="Path-35" stroke="#000000" stroke-width="4" stroke-linecap="round" stroke-linejoin="round"></path>
            <path d="M6,32 L16,41.8994949" id="Path-35-Copy" stroke="#000000" stroke-width="4" stroke-linecap="round" stroke-linejoin="round" transform="translate(11.000000, 36.949747) scale(1, -1) translate(-11.000000, -36.949747) "></path>
            <path d="M42,32 L32.1005051,41.8994949" id="Path-34-Copy" stroke="#000000" stroke-width="4" stroke-linecap="round" stroke-linejoin="round" transform="translate(37.050253, 36.949747) scale(1, -1) translate(-37.050253, -36.949747) "></path>
            <path d="M41.8994949,6 L32,15.8994949" id="Path-34" stroke="#000000" stroke-width="4" stroke-linecap="round" stroke-linejoin="round"></path>
        </g>
    </g>
</svg>