<svg width="48" height="48" viewBox="0 0 48 48" fill="none" xmlns="http://www.w3.org/2000/svg">
<rect width="48" height="48" fill="white" fill-opacity="0.01"/>
<path d="M18 13C18 10.7909 16.2091 9 14 9C11.7909 9 10 10.7909 10 13C10 15.2091 11.7909 17 14 17C16.2091 17 18 15.2091 18 13Z" fill="#09C8E2"/>
<path d="M18 13C18 10.7909 16.2091 9 14 9C11.7909 9 10 10.7909 10 13C10 15.2091 11.7909 17 14 17C16.2091 17 18 15.2091 18 13Z" fill="#2F88FF"/>
<path d="M18 13C18 10.7909 16.2091 9 14 9C11.7909 9 10 10.7909 10 13C10 15.2091 11.7909 17 14 17C16.2091 17 18 15.2091 18 13Z" stroke="black" stroke-width="4" stroke-linejoin="round"/>
<path d="M37 13C37 10.7909 35.2091 9 33 9C30.7909 9 29 10.7909 29 13C29 15.2091 30.7909 17 33 17C35.2091 17 37 15.2091 37 13Z" fill="#09C8E2"/>
<path d="M37 13C37 10.7909 35.2091 9 33 9C30.7909 9 29 10.7909 29 13C29 15.2091 30.7909 17 33 17C35.2091 17 37 15.2091 37 13Z" fill="#2F88FF"/>
<path d="M37 13C37 10.7909 35.2091 9 33 9C30.7909 9 29 10.7909 29 13C29 15.2091 30.7909 17 33 17C35.2091 17 37 15.2091 37 13Z" stroke="black" stroke-width="4" stroke-linejoin="round"/>
<path d="M4 13H10" stroke="black" stroke-width="4" stroke-linecap="round"/>
<path d="M18 13H29" stroke="black" stroke-width="4" stroke-linecap="round"/>
<path d="M37 13H44" stroke="black" stroke-width="4" stroke-linecap="round"/>
<path d="M10 29L4 35L10 41" stroke="black" stroke-width="4" stroke-linecap="round" stroke-linejoin="round"/>
<path d="M4 35H44" stroke="black" stroke-width="4" stroke-linecap="round" stroke-linejoin="round"/>
</svg>
