<?xml version="1.0" encoding="UTF-8"?>
<svg width="48px" height="48px" viewBox="0 0 48 48" version="1.1" xmlns="http://www.w3.org/2000/svg" xmlns:xlink="http://www.w3.org/1999/xlink">
    <!-- Generator: Sketch 55.1 (78136) - https://sketchapp.com -->
    <title>install</title>
    <desc>Created with Sketch.</desc>
    <g id="install" stroke="none" stroke-width="1" fill="none" fill-rule="evenodd">
        <g id="编组">
            <rect id="矩形" fill-opacity="0.01" fill="#FFFFFF" x="0" y="0" width="48" height="48"></rect>
            <polyline id="路径" stroke="#000000" stroke-width="4" stroke-linecap="round" stroke-linejoin="round" points="41.4004708 11.5509904 36.3333333 5 11.6666667 5 6.58409258 11.5509904"></polyline>
            <path d="M8,11 L40,11 C41.1045695,11 42,11.8954305 42,13 L42,40 C42,41.6568542 40.6568542,43 39,43 L9,43 C7.34314575,43 6,41.6568542 6,40 L6,13 C6,11.8954305 6.8954305,11 8,11 Z" id="矩形" stroke="#000000" stroke-width="4" fill="#2F88FF" fill-rule="nonzero" stroke-linejoin="round"></path>
            <g id="Group-2" transform="translate(24.000000, 27.000000) rotate(90.000000) translate(-24.000000, -27.000000) translate(16.000000, 19.000000)" stroke="#FFFFFF" stroke-linecap="round" stroke-linejoin="round" stroke-width="4">
                <polyline id="Path-8" points="8 0 16 8 8 16"></polyline>
                <path d="M0,8.00833628 L16,8.00833628" id="Path-11"></path>
            </g>
        </g>
    </g>
</svg>