<?xml version="1.0" encoding="UTF-8"?>
<svg width="48px" height="48px" viewBox="0 0 48 48" version="1.1" xmlns="http://www.w3.org/2000/svg" xmlns:xlink="http://www.w3.org/1999/xlink">
    <!-- Generator: Sketch 55.2 (78181) - https://sketchapp.com -->
    <title>reject</title>
    <desc>Created with Sketch.</desc>
    <g id="reject" stroke="none" stroke-width="1" fill="none" fill-rule="evenodd">
        <g id="编组">
            <rect id="矩形" fill-opacity="0.01" fill="#FFFFFF" x="0" y="0" width="48" height="48"></rect>
            <path d="M19.0099137,42 L9,42 C7.34314575,42 6,40.6568542 6,39 L6,9 C6,7.34314575 7.34314575,6 9,6 L9,6 L39,6 C40.6568542,6 42,7.34314575 42,9 L42,19.0303905" id="形状" stroke="#000000" stroke-width="4" stroke-linecap="round" stroke-linejoin="round"></path>
            <path d="M42,29.0345925 L42,41 C42,41.5522847 41.5522847,42 41,42 L29.037068,42" id="路径" stroke="#000000" stroke-width="4" stroke-linecap="round" stroke-linejoin="round"></path>
            <path d="M42,29.0345925 L18,29.0345925" id="路径-20" stroke="#000000" stroke-width="4" stroke-linecap="round" stroke-linejoin="round"></path>
            <polyline id="Path-367" stroke="#000000" stroke-width="4" stroke-linecap="round" stroke-linejoin="round" transform="translate(20.000000, 29.000000) scale(-1, 1) translate(-20.000000, -29.000000) " points="17 23 23 29 17 35"></polyline>
        </g>
    </g>
</svg>