<?xml version="1.0" encoding="UTF-8"?>
<svg width="48px" height="48px" viewBox="0 0 48 48" version="1.1" xmlns="http://www.w3.org/2000/svg" xmlns:xlink="http://www.w3.org/1999/xlink">
    <!-- Generator: Sketch 55.1 (78136) - https://sketchapp.com -->
    <title>Upload3</title>
    <desc>Created with Sketch.</desc>
    <g id="Upload3" stroke="none" stroke-width="1" fill="none" fill-rule="evenodd">
        <g id="编组">
            <rect id="矩形" fill-opacity="0.01" fill="#FFFFFF" x="0" y="0" width="48" height="48"></rect>
            <g id="download-cloud" transform="translate(3.000000, 7.000000)" stroke="#000000" stroke-linecap="round" stroke-linejoin="round" stroke-width="4">
                <g id="Group-2" transform="translate(20.627149, 24.921053) scale(1, -1) translate(-20.627149, -24.921053) translate(19.627149, 15.421053)">
                    <path d="M1.38118472,0.421052632 L1.37285138,18.4210526" id="Path"></path>
                </g>
                <path d="M37.517692,27.3161117 C40.8042581,25.0049985 42.2135166,20.8301617 41,17 C39.7864834,13.1698383 36.0704359,11.0713692 32.0526316,11.074512 L29.7315789,11.074512 C28.2142636,5.16125036 23.2081058,0.795724382 17.1433735,0.0972036243 C11.0786412,-0.601317134 5.21111138,2.51180459 2.38920996,7.92528602 C-0.432691467,13.3387675 0.375344683,19.9316811 4.42105263,24.5034593" id="Path"></path>
            </g>
        </g>
        <polyline id="Path-30" stroke="#000000" stroke-width="4" stroke-linecap="round" stroke-linejoin="round" transform="translate(24.000000, 27.636039) rotate(135.000000) translate(-24.000000, -27.636039) " points="19.5 23.136039 19.5 32.136039 28.5 32.136039"></polyline>
    </g>
</svg>