<svg width="48" height="48" viewBox="0 0 48 48" fill="none" xmlns="http://www.w3.org/2000/svg">
<g id="emoji/loudly-crying-face">
<rect width="48" height="48" fill="white" fill-opacity="0.01"/>
<g id="&#231;&#188;&#150;&#231;&#187;&#132;">
<rect id="&#231;&#159;&#169;&#229;&#189;&#162;" width="48" height="48" fill="white" fill-opacity="0.01"/>
<path id="Oval" d="M24 44C35.0457 44 44 35.0457 44 24C44 12.9543 35.0457 4 24 4C12.9543 4 4 12.9543 4 24C4 35.0457 12.9543 44 24 44Z" fill="#2F88FF" stroke="black" stroke-width="4" stroke-linejoin="round"/>
<path id="Path" d="M31 35C31 35 29 31 24 31C19 31 17 35 17 35" stroke="white" stroke-width="4" stroke-linecap="round" stroke-linejoin="round"/>
<path id="Vector" d="M35 18L28 17" stroke="white" stroke-width="4" stroke-linecap="round" stroke-linejoin="round"/>
<path id="Vector_2" d="M33 18V27" stroke="white" stroke-width="4" stroke-linecap="round" stroke-linejoin="round"/>
<path id="Vector_3" d="M20 17L13 18" stroke="white" stroke-width="4" stroke-linecap="round" stroke-linejoin="round"/>
<path id="Vector_4" d="M15 18V27" stroke="white" stroke-width="4" stroke-linecap="round" stroke-linejoin="round"/>
</g>
</g>
</svg>
