<svg width="48" height="48" viewBox="0 0 48 48" fill="none" xmlns="http://www.w3.org/2000/svg">
<path d="M24 44C35.0457 44 44 35.0457 44 24C44 12.9543 35.0457 4 24 4C12.9543 4 4 12.9543 4 24C4 35.0457 12.9543 44 24 44Z" fill="#2F88FF" stroke="black" stroke-width="4" stroke-linejoin="round"/>
<path d="M31 31C31 31 29 35 24 35C19 35 17 31 17 31" stroke="white" stroke-width="4" stroke-linecap="round" stroke-linejoin="round"/>
<path d="M20 19C20 19 19 21 17 21C15 21 14 19 14 19" stroke="white" stroke-width="4" stroke-linecap="round" stroke-linejoin="round"/>
<path d="M34 19C34 19 33 21 31 21C29 21 28 19 28 19" stroke="white" stroke-width="4" stroke-linecap="round" stroke-linejoin="round"/>
</svg>