<?xml version="1.0" encoding="UTF-8"?>
<svg width="48px" height="48px" viewBox="0 0 48 48" version="1.1" xmlns="http://www.w3.org/2000/svg" xmlns:xlink="http://www.w3.org/1999/xlink">
    <!-- Generator: Sketch 55.2 (78181) - https://sketchapp.com -->
    <title>cloudy</title>
    <desc>Created with Sketch.</desc>
    <g id="cloudy" stroke="none" stroke-width="1" fill="none" fill-rule="evenodd">
        <g id="base/notes">
            <g id="编组-2">
                <rect id="矩形" fill-opacity="0.01" fill="#FFFFFF" fill-rule="nonzero" x="0" y="0" width="48" height="48"></rect>
                <path d="M9.45454545,30.9942349 C6.14241809,28.4610159 4,24.4278269 4,19.8851211 C4,12.2165805 10.105208,6 17.6363636,6 C23.9334485,6 29.2336153,10.3461769 30.8015264,16.2532944 C32.0352574,15.6159461 33.430978,15.2567474 34.9090909,15.2567474 C39.9298614,15.2567474 44,19.4011344 44,24.5134948 C44,28.3093519 41.7561905,31.571579 38.5454545,33" id="Combined-Shape-Copy" stroke="#000000" stroke-width="4" stroke-linecap="round" stroke-linejoin="round"></path>
                <circle id="椭圆形" stroke="#000000" stroke-width="4" fill="#2F88FF" cx="26" cy="36" r="6"></circle>
                <path d="M22.2426407,15.7573593 C21.1568542,14.6715729 19.6568542,14 18,14 C14.6862915,14 12,16.6862915 12,20 C12,21.6568542 12.6715729,23.1568542 13.7573593,24.2426407" id="路径" stroke="#000000" stroke-width="4" stroke-linecap="round"></path>
            </g>
        </g>
    </g>
</svg>