<?xml version="1.0" encoding="UTF-8"?>
<svg width="48px" height="48px" viewBox="0 0 48 48" version="1.1" xmlns="http://www.w3.org/2000/svg" xmlns:xlink="http://www.w3.org/1999/xlink">
    <!-- Generator: Sketch 55.2 (78181) - https://sketchapp.com -->
    <title>sandstorm</title>
    <desc>Created with Sketch.</desc>
    <g id="sandstorm" stroke="none" stroke-width="1" fill="none" fill-rule="evenodd">
        <g id="base/notes" transform="translate(1.000000, 0.000000)">
            <g id="编组-2" transform="translate(-1.000000, 0.000000)">
                <rect id="矩形" fill-opacity="0.01" fill="#FFFFFF" fill-rule="nonzero" x="0" y="0" width="48" height="48"></rect>
                <path d="M4,22 L36,22 C40.418278,22 44,18.418278 44,14 C44,9.581722 40.418278,6 36,6 C31.581722,6 28,9.581722 28,14" id="路径" stroke="#000000" stroke-width="4" stroke-linecap="round"></path>
                <path d="M10,29 L4,29" id="路径-22" stroke="#000000" stroke-width="4" stroke-linecap="round"></path>
                <path d="M27,29 L21,29" id="路径-22" stroke="#000000" stroke-width="4" stroke-linecap="round"></path>
                <path d="M44,29 L38,29" id="路径-22" stroke="#000000" stroke-width="4" stroke-linecap="round"></path>
                <path d="M10,35 L4,35" id="路径-22" stroke="#000000" stroke-width="4" stroke-linecap="round"></path>
                <path d="M27,35 L21,35" id="路径-22" stroke="#000000" stroke-width="4" stroke-linecap="round"></path>
                <path d="M44,35 L38,35" id="路径-22" stroke="#000000" stroke-width="4" stroke-linecap="round"></path>
                <path d="M16,42 L4,42" id="路径-22" stroke="#000000" stroke-width="4" stroke-linecap="round"></path>
                <path d="M44,42 L32,42" id="路径-22" stroke="#000000" stroke-width="4" stroke-linecap="round"></path>
            </g>
        </g>
    </g>
</svg>