<svg width="48" height="48" viewBox="0 0 48 48" fill="none" xmlns="http://www.w3.org/2000/svg">
<path d="M24 37C31.1797 37 37 31.1797 37 24C37 16.8203 31.1797 11 24 11C16.8203 11 11 16.8203 11 24C11 31.1797 16.8203 37 24 37Z" fill="#2F88FF" stroke="black" stroke-width="4" stroke-linejoin="round"/>
<path d="M24 6C25.3807 6 26.5 4.88071 26.5 3.5C26.5 2.11929 25.3807 1 24 1C22.6193 1 21.5 2.11929 21.5 3.5C21.5 4.88071 22.6193 6 24 6Z" fill="black"/>
<path d="M38.5 12C39.8807 12 41 10.8807 41 9.5C41 8.11929 39.8807 7 38.5 7C37.1193 7 36 8.11929 36 9.5C36 10.8807 37.1193 12 38.5 12Z" fill="black"/>
<path d="M44.5 26.5C45.8807 26.5 47 25.3807 47 24C47 22.6193 45.8807 21.5 44.5 21.5C43.1193 21.5 42 22.6193 42 24C42 25.3807 43.1193 26.5 44.5 26.5Z" fill="black"/>
<path d="M38.5 41C39.8807 41 41 39.8807 41 38.5C41 37.1193 39.8807 36 38.5 36C37.1193 36 36 37.1193 36 38.5C36 39.8807 37.1193 41 38.5 41Z" fill="black"/>
<path d="M24 47C25.3807 47 26.5 45.8807 26.5 44.5C26.5 43.1193 25.3807 42 24 42C22.6193 42 21.5 43.1193 21.5 44.5C21.5 45.8807 22.6193 47 24 47Z" fill="black"/>
<path d="M9.5 41C10.8807 41 12 39.8807 12 38.5C12 37.1193 10.8807 36 9.5 36C8.11929 36 7 37.1193 7 38.5C7 39.8807 8.11929 41 9.5 41Z" fill="black"/>
<path d="M3.5 26.5C4.88071 26.5 6 25.3807 6 24C6 22.6193 4.88071 21.5 3.5 21.5C2.11929 21.5 1 22.6193 1 24C1 25.3807 2.11929 26.5 3.5 26.5Z" fill="black"/>
<path d="M9.5 12C10.8807 12 12 10.8807 12 9.5C12 8.11929 10.8807 7 9.5 7C8.11929 7 7 8.11929 7 9.5C7 10.8807 8.11929 12 9.5 12Z" fill="black"/>
</svg>