<?xml version="1.0" encoding="UTF-8"?>
<svg width="48px" height="48px" viewBox="0 0 48 48" version="1.1" xmlns="http://www.w3.org/2000/svg" xmlns:xlink="http://www.w3.org/1999/xlink">
    <!-- Generator: Sketch 55.2 (78181) - https://sketchapp.com -->
    <title>sunny</title>
    <desc>Created with Sketch.</desc>
    <g id="sunny" stroke="none" stroke-width="1" fill="none" fill-rule="evenodd">
        <g id="编组">
            <g id="编组-2">
                <rect id="矩形" fill-opacity="0.01" fill="#FFFFFF" x="0" y="0" width="48" height="48"></rect>
                <path d="M30.7826087,24.5652174 C34.52854,24.5652174 37.5652174,21.52854 37.5652174,17.7826087 C37.5652174,14.0366773 34.52854,11 30.7826087,11 C27.4337824,11 24.6518051,13.4269692 24.0996063,16.6179783" id="形状" stroke="#000000" stroke-width="4" stroke-linecap="round" stroke-linejoin="round"></path>
                <circle id="椭圆形" fill="#000000" cx="33" cy="5" r="2"></circle>
                <circle id="椭圆形备份-8" fill="#000000" cx="42" cy="10" r="2"></circle>
                <circle id="椭圆形备份-9" fill="#000000" cx="44" cy="19" r="2"></circle>
                <circle id="椭圆形备份-14" fill="#000000" cx="22" cy="8" r="2"></circle>
            </g>
            <path d="M9.45454545,39.9942349 C6.14241809,37.4610159 4,33.4278269 4,28.8851211 C4,21.2165805 10.105208,15 17.6363636,15 C23.9334485,15 29.2336153,19.3461769 30.8015264,25.2532944 C32.0352574,24.6159461 33.430978,24.2567474 34.9090909,24.2567474 C39.9298614,24.2567474 44,28.4011344 44,33.5134948 C44,37.3093519 41.7561905,40.571579 38.5454545,42" id="Combined-Shape-Copy" stroke="#000000" stroke-width="4" stroke-linecap="round" stroke-linejoin="round"></path>
            <path d="M22.2426407,24.7573593 C21.1568542,23.6715729 19.6568542,23 18,23 C14.6862915,23 12,25.6862915 12,29 C12,30.6568542 12.6715729,32.1568542 13.7573593,33.2426407" id="路径" stroke="#000000" stroke-width="4" stroke-linecap="round"></path>
        </g>
    </g>
</svg>