<svg width="48" height="48" viewBox="0 0 48 48" fill="none" xmlns="http://www.w3.org/2000/svg">
<path d="M30.7826 24.5652C34.5285 24.5652 37.5652 21.5285 37.5652 17.7826C37.5652 14.0367 34.5285 11 30.7826 11C27.4338 11 24.6518 13.427 24.0996 16.618" stroke="black" stroke-width="4" stroke-linecap="round" stroke-linejoin="round"/>
<path d="M33 7C34.1046 7 35 6.10457 35 5C35 3.89543 34.1046 3 33 3C31.8954 3 31 3.89543 31 5C31 6.10457 31.8954 7 33 7Z" fill="black"/>
<path d="M42 12C43.1046 12 44 11.1046 44 10C44 8.89543 43.1046 8 42 8C40.8954 8 40 8.89543 40 10C40 11.1046 40.8954 12 42 12Z" fill="black"/>
<path d="M44 21C45.1046 21 46 20.1046 46 19C46 17.8954 45.1046 17 44 17C42.8954 17 42 17.8954 42 19C42 20.1046 42.8954 21 44 21Z" fill="black"/>
<path d="M22 10C23.1046 10 24 9.10457 24 8C24 6.89543 23.1046 6 22 6C20.8954 6 20 6.89543 20 8C20 9.10457 20.8954 10 22 10Z" fill="black"/>
<path d="M9.45455 39.9942C6.14242 37.461 4 33.4278 4 28.8851C4 21.2166 10.1052 15 17.6364 15C23.9334 15 29.2336 19.3462 30.8015 25.2533C32.0353 24.6159 33.431 24.2567 34.9091 24.2567C39.9299 24.2567 44 28.4011 44 33.5135C44 37.3094 41.7562 40.5716 38.5455 42" stroke="black" stroke-width="4" stroke-linecap="round" stroke-linejoin="round"/>
<path d="M22.2426 24.7574C21.1569 23.6716 19.6569 23 18 23C14.6863 23 12 25.6863 12 29C12 30.6569 12.6716 32.1569 13.7574 33.2426" stroke="black" stroke-width="4" stroke-linecap="round" stroke-linejoin="round"/>
</svg>