<?xml version="1.0" encoding="UTF-8"?>
<svg width="48px" height="48px" viewBox="0 0 48 48" version="1.1" xmlns="http://www.w3.org/2000/svg" xmlns:xlink="http://www.w3.org/1999/xlink">
    <!-- Generator: Sketch 55.2 (78181) - https://sketchapp.com -->
    <title>thunderstorm</title>
    <desc>Created with Sketch.</desc>
    <g id="thunderstorm" stroke="none" stroke-width="1" fill="none" fill-rule="evenodd">
        <g id="base/notes">
            <g id="编组-2">
                <rect id="矩形" fill-opacity="0.01" fill="#FFFFFF" fill-rule="nonzero" x="0" y="0" width="48" height="48"></rect>
                <path d="M9.45454545,30.9942349 C6.14241809,28.4610159 4,24.4278269 4,19.8851211 C4,12.2165805 10.105208,6 17.6363636,6 C23.9334485,6 29.2336153,10.3461769 30.8015264,16.2532944 C32.0352574,15.6159461 33.430978,15.2567474 34.9090909,15.2567474 C39.9298614,15.2567474 44,19.4011344 44,24.5134948 C44,28.3093519 41.7561905,31.571579 38.5454545,33" id="Combined-Shape-Copy" stroke="#000000" stroke-width="4" stroke-linecap="round" stroke-linejoin="round"></path>
                <path d="M16,22 L16,26" id="Path-29" stroke="#000000" stroke-width="4" stroke-linecap="round" stroke-linejoin="round" transform="translate(16.000000, 24.000000) rotate(45.000000) translate(-16.000000, -24.000000) "></path>
                <polyline id="路径-13" stroke="#000000" stroke-width="4" stroke-linecap="round" stroke-linejoin="round" points="26.999649 24 19 32.0011902 29.003972 32.0011902 21.0003052 40.0017548"></polyline>
                <path d="M32,38 L32,42" id="Path-29-Copy-2" stroke="#000000" stroke-width="4" stroke-linecap="round" stroke-linejoin="round" transform="translate(32.000000, 40.000000) rotate(45.000000) translate(-32.000000, -40.000000) "></path>
            </g>
        </g>
    </g>
</svg>