<svg width="48" height="48" viewBox="0 0 48 48" fill="none" xmlns="http://www.w3.org/2000/svg">
<path d="M34 22V15M34 15V15C34 10.3088 34 7.96327 32.7601 6.34743C32.4409 5.93144 32.0686 5.55908 31.6526 5.23988C30.0367 4 27.6912 4 23 4H22C16.3431 4 13.5147 4 11.7574 5.75736C10 7.51472 10 10.3431 10 16V38H34V32C34 32 41 32 41 26C41 24 41 24 41 21C41 15 34 15 34 15Z" stroke="black" stroke-width="4" stroke-linecap="round" stroke-linejoin="round"/>
<path d="M9 38H35C36.6569 38 38 39.3431 38 41C38 42.6569 36.6569 44 35 44H9C7.34315 44 6 42.6569 6 41C6 39.3431 7.34315 38 9 38Z" fill="#2F88FF" stroke="black" stroke-width="4" stroke-linecap="round" stroke-linejoin="round"/>
</svg>