<svg width="48" height="48" viewBox="0 0 48 48" fill="none" xmlns="http://www.w3.org/2000/svg">
<rect width="48" height="48" fill="white" fill-opacity="0.01"/>
<path d="M11 44H37V37H44V23C44 20 42 16.5 39 14C36 11.5 30 10 30 10H18C18 10 12 11.5 9 14C6 16.5 4 20 4 23V37H11V44Z" fill="#2F88FF"/>
<path d="M37 23V37M11 37V44H37V37M11 37H4V23C4 20 6 16.5 9 14C12 11.5 18 10 18 10H30C30 10 36 11.5 39 14C42 16.5 44 20 44 23V37H37M11 37V23" stroke="black" stroke-width="4" stroke-linecap="round" stroke-linejoin="round"/>
<path d="M30 10H18V4H30V10Z" fill="#2F88FF" stroke="black" stroke-width="4" stroke-linecap="round" stroke-linejoin="round"/>
</svg>
