<svg width="48" height="48" viewBox="0 0 48 48" fill="none" xmlns="http://www.w3.org/2000/svg">
<path d="M6 11H42L42 19C42 19 42 27 38 31C34 35 27.8421 37 27.8421 37H20.1579C20.1579 37 14 35 10 31C6 27 6 19 6 19L6 11Z" stroke="black" stroke-width="4" stroke-linecap="round" stroke-linejoin="round"/>
<path d="M20.1579 37C20.1579 37 20.2572 29.9255 17 26C13.956 22.3315 6 19 6 19" stroke="black" stroke-width="4" stroke-linecap="round" stroke-linejoin="round"/>
<path d="M27.8421 37C27.8421 37 27.7428 29.9254 31 26C34.044 22.3315 42 19 42 19" stroke="black" stroke-width="4" stroke-linecap="round" stroke-linejoin="round"/>
</svg>