<svg width="48" height="48" viewBox="0 0 48 48" fill="none" xmlns="http://www.w3.org/2000/svg">
<path d="M37 21V37M11 37V44H37V37M11 37H4V10L18 4H30L44 10V37H37M11 37V21" stroke="black" stroke-width="4" stroke-linecap="round" stroke-linejoin="round"/>
<path d="M30 4L24 18M24 18L18 4M24 18V37V44" stroke="black" stroke-width="4" stroke-linecap="round" stroke-linejoin="round"/>
<path d="M30 4L24 18" stroke="black" stroke-width="4" stroke-linecap="round" stroke-linejoin="round"/>
<path d="M24 18L18 4" stroke="black" stroke-width="4" stroke-linecap="round" stroke-linejoin="round"/>
<path d="M18 4L14 12L18 17.5L16 23L24 37" stroke="black" stroke-width="4" stroke-linecap="round" stroke-linejoin="round"/>
<path d="M30 4L35 12L30 17.5L32 23L24 37" stroke="black" stroke-width="4" stroke-linecap="round" stroke-linejoin="round"/>
</svg>