<svg width="48" height="48" viewBox="0 0 48 48" fill="none" xmlns="http://www.w3.org/2000/svg">
<path d="M14 14C14 10.6863 16.6863 8 20 8H29C32.3137 8 35 10.6863 35 14V16H14V14Z" stroke="black" stroke-width="4" stroke-linecap="round" stroke-linejoin="round"/>
<rect x="4" y="16" width="40" height="24" rx="2" stroke="black" stroke-width="4" stroke-linecap="round" stroke-linejoin="round"/>
<path d="M4 25L24 30L44 25" stroke="black" stroke-width="4" stroke-linecap="round" stroke-linejoin="round"/>
<path d="M44 23V29" stroke="black" stroke-width="4" stroke-linecap="round" stroke-linejoin="round"/>
<path d="M4 23V29" stroke="black" stroke-width="4" stroke-linecap="round" stroke-linejoin="round"/>
<path d="M26.5 23C26.5 24.3807 25.3807 25.5 24 25.5C22.6193 25.5 21.5 24.3807 21.5 23C21.5 21.6193 22.6193 20.5 24 20.5C25.3807 20.5 26.5 21.6193 26.5 23Z" fill="black"/>
</svg>
