<svg width="48" height="48" viewBox="0 0 48 48" fill="none" xmlns="http://www.w3.org/2000/svg">
<path d="M44 15C40.9999 12 39 6 39 6C39 6 34 9.5 24 9.5C14 9.5 9 6 9 6C9 6 8 11 4 15C4.00015 27 21 42 21 42H27C27 42 44 27 44 15Z" stroke="black" stroke-width="4" stroke-linecap="round" stroke-linejoin="round"/>
<path d="M44 15C44 15 35.0004 16 31.0002 23C26.9999 30 27 42 27 42" stroke="black" stroke-width="4" stroke-linecap="round"/>
<path d="M4 15C4 15 12.9996 16 16.9998 23C21.0001 30 21 42 21 42" stroke="black" stroke-width="4" stroke-linecap="round"/>
</svg>