<svg width="48" height="48" viewBox="0 0 48 48" fill="none" xmlns="http://www.w3.org/2000/svg">
<path d="M40.0001 18C37.0001 18 32.0005 18 30.0003 23C28 28 30.5002 32.5 33.0002 35" stroke="black" stroke-width="4" stroke-linecap="round" stroke-linejoin="round"/>
<path d="M18 10L40 10" stroke="black" stroke-width="4" stroke-linecap="round" stroke-linejoin="round"/>
<path d="M20 4H38.0001C39.1047 4 40.0001 4.89543 40.0001 6V24.2876C40.0001 27.7198 38.3996 30.9554 35.664 33.0283C32.022 35.7881 27.0877 39.5088 25 41C21.5 43.5 15 46 10.0003 41C5.00055 36 6.25065 29.443 10.0005 26C13.7503 22.557 18 19.1519 18 19.1519V6C18 4.89543 18.8954 4 20 4Z" stroke="black" stroke-width="4" stroke-linecap="round" stroke-linejoin="round"/>
</svg>
