<svg width="48" height="48" viewBox="0 0 48 48" fill="none" xmlns="http://www.w3.org/2000/svg">
<path d="M34 22C34 16.4772 29.5228 12 24 12C18.4772 12 14 16.4772 14 22" stroke="black" stroke-width="4"/>
<path d="M14 23C8.02199 24.2044 4 26.4557 4 29.034C4 32.8812 12.9543 36 24 36C35.0457 36 44 32.8812 44 29.034C44 26.4557 39.978 24.2044 34 23" stroke="black" stroke-width="4"/>
<path d="M14 22C15 22.8333 18 26 24 26C30 26 33 23 34 22" stroke="black" stroke-width="4" stroke-linecap="round" stroke-linejoin="round"/>
<path d="M19 25L21 20" stroke="black" stroke-width="4" stroke-linecap="round" stroke-linejoin="round"/>
</svg>