<svg width="48" height="48" viewBox="0 0 48 48" fill="none" xmlns="http://www.w3.org/2000/svg">
<path d="M12 10C12 8.89543 12.8954 8 14 8H34C35.1046 8 36 8.89543 36 10V20H12V10Z" fill="#2F88FF" stroke="black" stroke-width="4" stroke-linecap="round" stroke-linejoin="round"/>
<path d="M44 35C42.8917 36.3333 41.625 40 36.4 40C33.6627 40 29.9439 38.3161 25 37" stroke="black" stroke-width="4" stroke-linecap="round" stroke-linejoin="round"/>
<path d="M4 35C4 35 10 26 12 20H36C38 26 44 35 44 35C38 31 19 40 12 40C6.5 40 5.16667 36.3333 4 35Z" stroke="black" stroke-width="4" stroke-linecap="round" stroke-linejoin="round"/>
</svg>