<svg width="48" height="48" viewBox="0 0 48 48" fill="none" xmlns="http://www.w3.org/2000/svg">
<path d="M42 26C42 34.8366 33.9411 42 24 42C14.0589 42 6 34.8366 6 26M15 12.1405C17.6476 10.7792 20.7214 10 24 10C27.2786 10 30.3524 10.7792 33 12.1405" stroke="black" stroke-width="4" stroke-linecap="round"/>
<path d="M6 26V8.48814C6 6.757 8.05005 5.84346 9.33729 7.00098L15 12.093" stroke="black" stroke-width="4" stroke-linecap="round" stroke-linejoin="round"/>
<path d="M42 26V8.48814C42 6.757 39.9499 5.84346 38.6627 7.00098L33 12.093" stroke="black" stroke-width="4" stroke-linecap="round" stroke-linejoin="round"/>
<circle cx="30" cy="22" r="2" fill="black"/>
<circle cx="18" cy="22" r="2" fill="black"/>
<circle cx="24" cy="28" r="2" fill="black"/>
<path d="M16 30L4 31" stroke="black" stroke-width="4" stroke-linecap="round" stroke-linejoin="round"/>
<path d="M19 35L7 41" stroke="black" stroke-width="4" stroke-linecap="round" stroke-linejoin="round"/>
<path d="M32 30L44 31" stroke="black" stroke-width="4" stroke-linecap="round" stroke-linejoin="round"/>
<path d="M29 35L41 41" stroke="black" stroke-width="4" stroke-linecap="round" stroke-linejoin="round"/>
</svg>