<svg width="48" height="48" viewBox="0 0 48 48" fill="none" xmlns="http://www.w3.org/2000/svg">
<path d="M11.4653 19.9231C10.682 12.4814 16.5169 6 23.9998 6V6C31.4826 6 37.3175 12.4814 36.5342 19.9231L35.0466 34.055C34.4515 39.7083 29.6843 44 23.9998 44V44C18.3152 44 13.548 39.7083 12.9529 34.0549L11.4653 19.9231Z" fill="#2F88FF" stroke="black" stroke-width="4"/>
<path d="M13.9998 31C17.4918 27.8746 25.4283 23.8297 33.9998 31" stroke="white" stroke-width="4" stroke-linecap="round" stroke-linejoin="round"/>
<circle cx="18.9998" cy="18" r="2" fill="white"/>
<circle cx="20.9998" cy="34" r="2" fill="white"/>
<circle cx="28.9998" cy="18" r="2" fill="white"/>
<circle cx="26.9998" cy="34" r="2" fill="white"/>
<path d="M32.9998 7.91262C35.1664 5.91262 40.392 2.30498 42.9998 4.91262C45.6075 7.5203 42.9998 9.9126 40.9998 10.4126C38.4998 11.0376 36.7998 12.7128 35.9998 13.9128" stroke="black" stroke-width="4" stroke-linecap="round" stroke-linejoin="round"/>
<path d="M15.0959 7.91262C12.9293 5.91262 7.70366 2.30498 5.09595 4.91262C2.48823 7.5203 5.09595 9.9126 7.09595 10.4126C9.59595 11.0376 11.2959 12.7128 12.0959 13.9128" stroke="black" stroke-width="4" stroke-linecap="round" stroke-linejoin="round"/>
<path d="M11.9998 25L12.9998 34.5" stroke="black" stroke-width="4"/>
<path d="M35.9998 25L34.9998 34.5" stroke="black" stroke-width="4"/>
</svg>
