<svg width="48" height="48" viewBox="0 0 48 48" fill="none" xmlns="http://www.w3.org/2000/svg">
<path d="M17.0001 10L14.9999 5C12.8332 5.83333 8.2 10.8 9 18" stroke="black" stroke-width="4" stroke-linecap="round" stroke-linejoin="round"/>
<path d="M30.9999 10L33.0001 5C35.1668 5.83333 39.8 10.8 39 18" stroke="black" stroke-width="4" stroke-linecap="round" stroke-linejoin="round"/>
<path d="M42 28.5C42 38.165 33.9411 43 24 43C14.0589 43 6 38.165 6 28.5C6 18.835 14.0589 9 24 9C33.9411 9 42 18.835 42 28.5Z" fill="#2F88FF" stroke="black" stroke-width="4"/>
<circle cx="20" cy="17" r="2" fill="white"/>
<circle cx="28" cy="17" r="2" fill="white"/>
<path d="M24 26C24 27.6569 24.5 31.5 21 31.5C19.3431 31.5 18 30.1569 18 28.5" stroke="white" stroke-width="4" stroke-linecap="round" stroke-linejoin="round"/>
<path d="M24.0249 26C24.0249 27.6569 23.5249 31.5 27.0249 31.5C28.6818 31.5 30.0249 30.1569 30.0249 28.5" stroke="white" stroke-width="4" stroke-linecap="round" stroke-linejoin="round"/>
<path d="M26 25.75C26 26.4404 24 27.5 24 27.5C24 27.5 22 26.4404 22 25.75C22 25.0596 22.5 24.5 24 24.5C25.5 24.5 26 25.0596 26 25.75Z" stroke="white" stroke-width="4" stroke-linejoin="round"/>
</svg>