<svg width="48" height="48" viewBox="0 0 48 48" fill="none" xmlns="http://www.w3.org/2000/svg">
<path d="M24 7.00009C14.2302 1.61319 9.68576 8.63208 7.99991 11.0005C2.33545 12.2185 5.14555 14.3238 6.99999 15.0005C8.2138 15.4065 11.1456 16.3233 13 17C13.4046 20.2481 14.6628 23.1541 15 24C15 23.188 16.3257 20.3534 17 19C25.0921 22.2481 30.7969 30.6015 34 35C32.7862 37.4361 31.5058 41.3083 31 43L37 40.0001L44 42.0001C44 38.752 39.8544 35.3535 38 34.0001C38.8092 21.0077 32.7089 13.1993 29 11.0001C29.4046 9.37604 30.1571 6.67677 31 6.00009C27.7632 4.37604 25.1801 6.15424 24 7.00009Z" fill="#2F88FF" stroke="black" stroke-width="4" stroke-linecap="round" stroke-linejoin="round"/>
<circle cx="16" cy="11" r="2" fill="white"/>
</svg>
