<svg width="48" height="48" viewBox="0 0 48 48" fill="none" xmlns="http://www.w3.org/2000/svg">
<g clip-path="url(#clip0_4374_1120)">
<path d="M34.0209 42.4941L37.7607 38.7543C40.1039 36.4111 40.1039 32.6122 37.7607 30.269V30.269C35.4176 27.9259 31.6186 27.9259 29.2754 30.269L27.0444 32.5" stroke="black" stroke-width="4" stroke-linecap="round"/>
<path d="M17.0741 25.5L23.6186 18.9555C25.9618 16.6123 25.9618 12.8133 23.6186 10.4702V10.4702C21.2755 8.12703 17.4765 8.12703 15.1333 10.4702L8.06227 17.5412" stroke="black" stroke-width="4" stroke-linecap="round"/>
<path d="M17.0746 25.5L8.76932 33.8053C6.42618 36.1484 6.42618 39.9474 8.76932 42.2906V42.2906C11.1125 44.6337 14.9115 44.6337 17.2546 42.2906L27.0209 32.5243" stroke="black" stroke-width="4" stroke-linecap="round"/>
<path d="M13 12V4" stroke="black" stroke-width="4" stroke-linecap="round" stroke-linejoin="round"/>
<path d="M38 30L43 25" stroke="black" stroke-width="4" stroke-linecap="round" stroke-linejoin="round"/>
</g>
<defs>
<clipPath id="clip0_4374_1120">
<rect width="48" height="48" fill="white"/>
</clipPath>
</defs>
</svg>
