<svg width="48" height="48" viewBox="0 0 48 48" fill="none" xmlns="http://www.w3.org/2000/svg">
<ellipse cx="24" cy="27" rx="18" ry="17" fill="#2F88FF" stroke="black" stroke-width="4"/>
<ellipse cx="16.9333" cy="24.6402" rx="3" ry="4" transform="rotate(15 16.9333 24.6402)" fill="#43CCF8" stroke="white" stroke-width="4"/>
<ellipse rx="3" ry="4" transform="matrix(-0.965926 0.258819 0.258819 0.965926 30.9329 24.6402)" fill="#43CCF8" stroke="white" stroke-width="4"/>
<path d="M40.9995 20.999C44.1237 17.8748 44.4376 12.7804 41.3134 9.65616C38.1892 6.53196 32.124 6.87507 28.9998 9.99927" stroke="black" stroke-width="4" stroke-linecap="round"/>
<path d="M7 20.9995C3.87581 17.8753 3.53224 12.7807 6.65644 9.65655C9.78063 6.53236 15.8758 6.87532 19 9.99951" stroke="black" stroke-width="4" stroke-linecap="round"/>
<path d="M20 35C20.5 36.2935 22.2 38.2769 25 35.8623C27.8 38.2769 29.5 36.2935 30 35" stroke="white" stroke-width="4" stroke-linecap="round" stroke-linejoin="round"/>
</svg>