<svg width="48" height="48" viewBox="0 0 48 48" fill="none" xmlns="http://www.w3.org/2000/svg">
<rect width="48" height="48" fill="white" fill-opacity="0.01"/>
<circle cx="24" cy="24" r="20" fill="#09C8E2"/>
<circle cx="24" cy="24" r="20" fill="#2F88FF"/>
<circle cx="24" cy="24" r="20" stroke="black" stroke-width="4" stroke-linecap="round" stroke-linejoin="round"/>
<path d="M38 38L35 35" stroke="black" stroke-width="4" stroke-linecap="round" stroke-linejoin="round"/>
<path d="M10 10L13 13" stroke="black" stroke-width="4" stroke-linecap="round" stroke-linejoin="round"/>
<path d="M21.1429 28L18 17L14.8571 28H21.1429Z" fill="#09C8E2"/>
<path d="M21.1429 28L18 17L14.8571 28H21.1429Z" fill="#2F88FF"/>
<path d="M14 31L14.8571 28M22 31L21.1429 28M21.1429 28L18 17L14.8571 28M21.1429 28H14.8571" stroke="white" stroke-width="4" stroke-linecap="round" stroke-linejoin="round"/>
<path d="M35 24C35 29 31.4183 31 27 31V17C31.4183 17 35 19 35 24Z" fill="#09C8E2"/>
<path d="M35 24C35 29 31.4183 31 27 31V17C31.4183 17 35 19 35 24Z" fill="#2F88FF"/>
<path d="M35 24C35 29 31.4183 31 27 31V17C31.4183 17 35 19 35 24Z" stroke="white" stroke-width="4" stroke-linecap="round" stroke-linejoin="round"/>
</svg>
