<svg width="48" height="48" viewBox="0 0 48 48" fill="none" xmlns="http://www.w3.org/2000/svg">
<g clip-path="url(#clip0)">
<rect width="48" height="48" fill="white" fill-opacity="0.01"/>
<path fill-rule="evenodd" clip-rule="evenodd" d="M24 43.6C32.432 43.6 39.5606 36.9192 41.8935 29.2497C42.4179 27.5255 46 27.5255 46 23.8C46 20.0745 42.3839 19.8601 41.7987 18.048C39.3724 10.5346 32.3209 4 24 4C15.6745 4 8.61973 10.5407 6.19725 18.0606C5.61467 19.8691 2 20.0091 2 23.8C2 27.5909 5.59225 27.5909 6.1349 29.3421C8.4967 36.9639 15.6018 43.6 24 43.6Z" fill="#2F88FF" stroke="black" stroke-width="4.4"/>
<path d="M19.1 21.5998C19.1 22.4261 18.8758 23.1516 18.5396 23.6559C18.2011 24.1637 17.7883 24.3998 17.4 24.3998C17.0117 24.3998 16.5989 24.1637 16.2604 23.6559C15.9242 23.1516 15.7 22.4261 15.7 21.5998C15.7 20.7735 15.9242 20.048 16.2604 19.5437C16.5989 19.0359 17.0117 18.7998 17.4 18.7998C17.7883 18.7998 18.2011 19.0359 18.5396 19.5437C18.8758 20.048 19.1 20.7735 19.1 21.5998Z" fill="white" stroke="white"/>
<path d="M32.3 21.5998C32.3 22.4261 32.0758 23.1516 31.7396 23.6559C31.4011 24.1637 30.9883 24.3998 30.6 24.3998C30.2117 24.3998 29.7989 24.1637 29.4604 23.6559C29.1242 23.1516 28.9 22.4261 28.9 21.5998C28.9 20.7735 29.1242 20.048 29.4604 19.5437C29.7989 19.0359 30.2117 18.7998 30.6 18.7998C30.9883 18.7998 31.4011 19.0359 31.7396 19.5437C32.0758 20.048 32.3 20.7735 32.3 21.5998Z" fill="white" stroke="white"/>
<path fill-rule="evenodd" clip-rule="evenodd" d="M18.4978 31.7505C20.4287 33.0501 22.2658 33.6999 24.0092 33.6999C25.7507 33.6999 27.4773 33.0515 29.1892 31.7547" fill="white"/>
<path d="M18.4978 31.7505C20.4287 33.0501 22.2658 33.6999 24.0092 33.6999C25.7507 33.6999 27.4773 33.0515 29.1892 31.7547" stroke="white" stroke-width="4.4" stroke-linecap="round"/>
<path d="M31.7283 6.2002C31.9963 8.13368 31.4066 9.54651 29.9592 10.4387C28.5118 11.3309 26.1602 11.749 22.9042 11.693" stroke="black" stroke-width="4.4" stroke-linecap="round"/>
</g>
<defs>
<clipPath id="clip0">
<rect width="48" height="48" fill="white"/>
</clipPath>
</defs>
</svg>
