<svg width="48" height="48" viewBox="0 0 48 48" fill="none" xmlns="http://www.w3.org/2000/svg">
<rect width="48" height="48" fill="white" fill-opacity="0.01"/>
<path fill-rule="evenodd" clip-rule="evenodd" d="M10 28C13.3137 28 16 25.3137 16 22H4C4 25.3137 6.68629 28 10 28Z" fill="#2F88FF"/>
<path d="M16 22C16 25.3137 13.3137 28 10 28C6.68629 28 4 25.3137 4 22M16 22L10 12L4 22M16 22H4" stroke="black" stroke-width="4" stroke-linecap="round" stroke-linejoin="round"/>
<path fill-rule="evenodd" clip-rule="evenodd" d="M38 28C41.3137 28 44 25.3137 44 22H32C32 25.3137 34.6863 28 38 28Z" fill="#2F88FF"/>
<path d="M44 22C44 25.3137 41.3137 28 38 28C34.6863 28 32 25.3137 32 22M44 22L38 12L32 22M44 22H32" stroke="black" stroke-width="4" stroke-linecap="round" stroke-linejoin="round"/>
<path d="M10 12H24M38 12H24M24 12V6M24 12V42M24 42H38M24 42H10" stroke="black" stroke-width="4" stroke-linecap="round" stroke-linejoin="round"/>
</svg>
