<svg width="48" height="48" viewBox="0 0 48 48" fill="none" xmlns="http://www.w3.org/2000/svg">
<rect width="48" height="48" fill="white" fill-opacity="0.01"/>
<path d="M16 22L10 12L4 22" stroke="black" stroke-width="4" stroke-linecap="round" stroke-linejoin="round"/>
<path fill-rule="evenodd" clip-rule="evenodd" d="M10 28C13.3137 28 16 25.3137 16 22H4C4 25.3137 6.68629 28 10 28Z" fill="#09C8E2"/>
<path fill-rule="evenodd" clip-rule="evenodd" d="M10 28C13.3137 28 16 25.3137 16 22H4C4 25.3137 6.68629 28 10 28Z" fill="#2F88FF"/>
<path fill-rule="evenodd" clip-rule="evenodd" d="M10 28C13.3137 28 16 25.3137 16 22H4C4 25.3137 6.68629 28 10 28Z" stroke="black" stroke-width="4" stroke-linecap="round" stroke-linejoin="round"/>
<path d="M44 22L38 12L32 22" stroke="black" stroke-width="4" stroke-linecap="round" stroke-linejoin="round"/>
<path fill-rule="evenodd" clip-rule="evenodd" d="M38 28C41.3137 28 44 25.3137 44 22H32C32 25.3137 34.6863 28 38 28Z" fill="#09C8E2"/>
<path fill-rule="evenodd" clip-rule="evenodd" d="M38 28C41.3137 28 44 25.3137 44 22H32C32 25.3137 34.6863 28 38 28Z" fill="#2F88FF"/>
<path fill-rule="evenodd" clip-rule="evenodd" d="M38 28C41.3137 28 44 25.3137 44 22H32C32 25.3137 34.6863 28 38 28Z" stroke="black" stroke-width="4" stroke-linecap="round" stroke-linejoin="round"/>
<path d="M24 6V42" stroke="black" stroke-width="4" stroke-linecap="round" stroke-linejoin="round"/>
<path d="M10 12H24H38" stroke="black" stroke-width="4" stroke-linecap="round" stroke-linejoin="round"/>
<path d="M10 12H24H38" stroke="black" stroke-width="4" stroke-linecap="round" stroke-linejoin="round"/>
<path d="M38 42H24H10" stroke="black" stroke-width="4" stroke-linecap="round" stroke-linejoin="round"/>
</svg>
