<svg width="48" height="48" viewBox="0 0 48 48" fill="none" xmlns="http://www.w3.org/2000/svg">
<rect width="48" height="48" fill="white" fill-opacity="0.01"/>
<rect x="4" y="5" width="40" height="28" fill="#2F88FF" stroke="black" stroke-width="4" stroke-linecap="round" stroke-linejoin="round"/>
<path d="M31 22V15H17V22" stroke="white" stroke-width="4" stroke-linecap="round" stroke-linejoin="round"/>
<path d="M14 27H16M34 27H32M16 27L24 27M16 27L17 33M18 39L17 43M18 39H24M18 39L17 33M32 27H24M32 27L31 33M30 39L31 43M30 39H24M30 39L31 33M24 27L24 39M24 43V39M17 33L31 33" stroke="black" stroke-width="4" stroke-linecap="round" stroke-linejoin="round"/>
</svg>
