<svg width="48" height="48" viewBox="0 0 48 48" fill="none" xmlns="http://www.w3.org/2000/svg">
<rect width="48" height="48" fill="white" fill-opacity="0.01"/>
<path d="M8 24H16H24H32H40V34V40H8V34V24Z" fill="#2F88FF"/>
<path d="M40 40H8M40 40H4H8M40 40H44M40 40V34M8 40V34M40 34V24H32M40 34L36 32L32 34L28 32L24 34L20 32L16 34L12 32L8 34M8 34V24H16M24 24V15M24 24H32M24 24H16M32 24V15M16 24V15M16 10V8M24 10V8M32 10V8" stroke="black" stroke-width="4" stroke-linecap="round" stroke-linejoin="round"/>
</svg>
