<svg width="48" height="48" viewBox="0 0 48 48" fill="none" xmlns="http://www.w3.org/2000/svg">
<rect width="48" height="48" fill="white" fill-opacity="0.01"/>
<path d="M18 14H30V26H18V14Z" fill="#09C8E2"/>
<path d="M18 14H30V26H18V14Z" fill="#2F88FF"/>
<path d="M18 14H30V26H18V14Z" stroke="black" stroke-width="4" stroke-linecap="round" stroke-linejoin="round"/>
<path d="M18 26H30V38H18V26Z" fill="#09C8E2"/>
<path d="M18 26H30V38H18V26Z" fill="#2F88FF"/>
<path d="M18 26H30V38H18V26Z" stroke="black" stroke-width="4" stroke-linecap="round" stroke-linejoin="round"/>
<path d="M30 14H42V26H30V14Z" fill="#09C8E2"/>
<path d="M30 14H42V26H30V14Z" fill="#2F88FF"/>
<path d="M30 14H42V26H30V14Z" stroke="black" stroke-width="4" stroke-linecap="round" stroke-linejoin="round"/>
<path d="M6 26H18V38H6V26Z" fill="#09C8E2"/>
<path d="M6 26H18V38H6V26Z" fill="#2F88FF"/>
<path d="M6 26H18V38H6V26Z" stroke="black" stroke-width="4" stroke-linecap="round" stroke-linejoin="round"/>
</svg>
