<svg width="48" height="48" viewBox="0 0 48 48" fill="none" xmlns="http://www.w3.org/2000/svg">
<rect width="48" height="48" fill="white" fill-opacity="0.01"/>
<path d="M6 18H18V30H6V18Z" fill="#2F88FF"/>
<path d="M18 6H30V18H18V6Z" fill="#2F88FF"/>
<path d="M18 18H30V30H18V18Z" fill="#2F88FF"/>
<path d="M30 18H42V30H30V18Z" fill="#2F88FF"/>
<path d="M18 30H30V42H18V30Z" fill="#2F88FF"/>
<path d="M18 18H6V30H18M18 18V30M18 18H30M18 18V6H30V18M18 30H30M18 30V42H30V30M30 18V30M30 18H42V30H30" stroke="black" stroke-width="4" stroke-linecap="round" stroke-linejoin="round"/>
</svg>
