<svg width="48" height="48" viewBox="0 0 48 48" fill="none" xmlns="http://www.w3.org/2000/svg">
<rect width="48" height="48" fill="white" fill-opacity="0.01"/>
<path d="M24 6H36V18H24V6Z" fill="#09C8E2"/>
<path d="M24 6H36V18H24V6Z" fill="#2F88FF"/>
<path d="M24 6H36V18H24V6Z" stroke="black" stroke-width="4" stroke-linecap="round" stroke-linejoin="round"/>
<path d="M24 6H36V18H24V6Z" fill="#09C8E2"/>
<path d="M24 6H36V18H24V6Z" fill="#2F88FF"/>
<path d="M24 6H36V18H24V6Z" stroke="black" stroke-width="4" stroke-linecap="round" stroke-linejoin="round"/>
<path d="M12 6H24V18H12V6Z" fill="#09C8E2"/>
<path d="M12 6H24V18H12V6Z" fill="#2F88FF"/>
<path d="M12 6H24V18H12V6Z" stroke="black" stroke-width="4" stroke-linecap="round" stroke-linejoin="round"/>
<path d="M12 30H24V42H12V30Z" fill="#09C8E2"/>
<path d="M12 30H24V42H12V30Z" fill="#2F88FF"/>
<path d="M12 30H24V42H12V30Z" stroke="black" stroke-width="4" stroke-linecap="round" stroke-linejoin="round"/>
<path d="M12 18H24V30H12V18Z" fill="#09C8E2"/>
<path d="M12 18H24V30H12V18Z" fill="#2F88FF"/>
<path d="M12 18H24V30H12V18Z" stroke="black" stroke-width="4" stroke-linecap="round" stroke-linejoin="round"/>
</svg>
