<?xml version="1.0" encoding="UTF-8"?>
<svg width="48px" height="48px" viewBox="0 0 48 48" version="1.1" xmlns="http://www.w3.org/2000/svg" xmlns:xlink="http://www.w3.org/1999/xlink">
    <!-- Generator: Sketch 55.1 (78136) - https://sketchapp.com -->
    <title>book1</title>
    <desc>Created with Sketch.</desc>
    <g id="book1" stroke="none" stroke-width="1" fill="none" fill-rule="evenodd">
        <g id="编组-2">
            <rect id="矩形" fill-opacity="0.01" fill="#FFFFFF" x="0" y="0" width="48" height="48"></rect>
            <g id="编组" transform="translate(8.000000, 4.000000)" stroke="#000000" stroke-linejoin="round" stroke-width="4">
                <path d="M-5.1159077e-13,36 C-5.1159077e-13,33.3333333 -5.1159077e-13,23.3333333 -5.1159077e-13,6 C-5.1159077e-13,2.6862915 2.8653776,0 6.4,0 L32,0 L32,32 C18.6543018,32 10.1209685,32 6.4,32 C1.36225433,32 -5.1159077e-13,32.6841949 -5.1159077e-13,36 Z" id="Rectangle" fill="#2F88FF" fill-rule="nonzero"></path>
                <path d="M4,40 L32,40 L32,32 L4,32 C1.790861,32 0,33.790861 0,36 C0,38.209139 1.790861,40 4,40 Z" id="Oval" stroke-linecap="round"></path>
            </g>
        </g>
    </g>
</svg>