<svg width="48" height="48" viewBox="0 0 48 48" fill="none" xmlns="http://www.w3.org/2000/svg">
<rect width="48" height="48" fill="white" fill-opacity="0.01"/>
<path d="M36 27C36 28.777 35.2275 30.3736 34 31.4722C32.9385 32.4223 31.5367 33 30 33C28.4633 33 27.0615 32.4223 26 31.4722C24.7725 30.3736 24 28.777 24 27C24 23.6863 26.6863 21 30 21C33.3137 21 36 23.6863 36 27Z" fill="#2F88FF"/>
<path d="M44 6H4V36H26V31.4722C24.7725 30.3736 24 28.777 24 27C24 23.6863 26.6863 21 30 21C33.3137 21 36 23.6863 36 27C36 28.777 35.2275 30.3736 34 31.4722V36H44V6Z" fill="#2F88FF"/>
<path d="M30 40L34 42V36V31.4722C32.9385 32.4223 31.5367 33 30 33C28.4633 33 27.0615 32.4223 26 31.4722V36V42L30 40Z" fill="#2F88FF"/>
<path d="M26 36H4V6H44V36H34M26 36V31.4722M26 36V42M34 36V31.4722M34 36V42M34 42L30 40L26 42M34 42V31.4722M26 42V31.4722M34 31.4722C35.2275 30.3736 36 28.777 36 27C36 23.6863 33.3137 21 30 21C26.6863 21 24 23.6863 24 27C24 28.777 24.7725 30.3736 26 31.4722M34 31.4722C32.9385 32.4223 31.5367 33 30 33C28.4633 33 27.0615 32.4223 26 31.4722" stroke="black" stroke-width="4" stroke-linecap="round" stroke-linejoin="round"/>
<path d="M12 14L36 14" stroke="white" stroke-width="4" stroke-linecap="round" stroke-linejoin="round"/>
<path d="M12 21H18" stroke="white" stroke-width="4" stroke-linecap="round" stroke-linejoin="round"/>
<path d="M12 28H16" stroke="white" stroke-width="4" stroke-linecap="round" stroke-linejoin="round"/>
</svg>
