<svg width="48" height="48" viewBox="0 0 48 48" fill="none" xmlns="http://www.w3.org/2000/svg">
<rect width="48" height="48" fill="white" fill-opacity="0.01"/>
<path d="M42 6H6C4.89543 6 4 6.89543 4 8V34C4 35.1046 4.89543 36 6 36H42C43.1046 36 44 35.1046 44 34V8C44 6.89543 43.1046 6 42 6Z" fill="#09C8E2"/>
<path d="M42 6H6C4.89543 6 4 6.89543 4 8V34C4 35.1046 4.89543 36 6 36H42C43.1046 36 44 35.1046 44 34V8C44 6.89543 43.1046 6 42 6Z" fill="#2F88FF"/>
<path d="M42 6H6C4.89543 6 4 6.89543 4 8V34C4 35.1046 4.89543 36 6 36H42C43.1046 36 44 35.1046 44 34V8C44 6.89543 43.1046 6 42 6Z" stroke="black" stroke-width="4" stroke-linecap="round" stroke-linejoin="round"/>
<path d="M12 14L36 14" stroke="white" stroke-width="4" stroke-linecap="round" stroke-linejoin="round"/>
<path d="M12 21H18" stroke="white" stroke-width="4" stroke-linecap="round" stroke-linejoin="round"/>
<path d="M12 28H16" stroke="white" stroke-width="4" stroke-linecap="round" stroke-linejoin="round"/>
<circle cx="30" cy="27" r="6" fill="#09C8E2"/>
<circle cx="30" cy="27" r="6" fill="#2F88FF"/>
<circle cx="30" cy="27" r="6" stroke="black" stroke-width="4"/>
<path d="M30 40L34 42V31.4722C34 31.4722 32.8594 33 30 33C27.1406 33 26 31.5 26 31.5V42L30 40Z" fill="#09C8E2"/>
<path d="M30 40L34 42V31.4722C34 31.4722 32.8594 33 30 33C27.1406 33 26 31.5 26 31.5V42L30 40Z" fill="#2F88FF"/>
<path d="M30 40L34 42V31.4722C34 31.4722 32.8594 33 30 33C27.1406 33 26 31.5 26 31.5V42L30 40Z" stroke="black" stroke-width="4" stroke-linecap="round" stroke-linejoin="round"/>
</svg>
