<svg width="48" height="48" viewBox="0 0 48 48" fill="none" xmlns="http://www.w3.org/2000/svg">
<rect width="48" height="48" fill="white" fill-opacity="0.01"/>
<path d="M20 14L16 12L24 4L32 12L28 14L36 22L30 24L39 34H27L28 44H20L21 34H9L17 24L12 22L20 14Z" fill="#2F88FF"/>
<path d="M21 34H9L17 24L12 22L20 14L16 12L24 4L32 12L28 14L36 22L30 24L39 34H27M21 34L20 44M21 34H27M20 44H17M20 44H28M31 44H28M27 34L28 44" stroke="black" stroke-width="4" stroke-linecap="round" stroke-linejoin="round"/>
</svg>
