<svg width="48" height="48" viewBox="0 0 48 48" fill="none" xmlns="http://www.w3.org/2000/svg">
<rect width="48" height="48" fill="white" fill-opacity="0.01"/>
<path d="M33 44H42L38 4H10L6 44H15L24 19L33 44Z" fill="#09C8E2"/>
<path d="M33 44H42L38 4H10L6 44H15L24 19L33 44Z" fill="#2F88FF"/>
<path d="M33 44H42L38 4H10L6 44H15L24 19L33 44Z" stroke="black" stroke-width="4" stroke-linecap="round" stroke-linejoin="round"/>
<path d="M24 4V9.5" stroke="black" stroke-width="4" stroke-linecap="round" stroke-linejoin="round"/>
<path d="M17 4C17 4 17 10 15 12C13 14 8.90002 15 8.90002 15" stroke="black" stroke-width="4" stroke-linecap="round" stroke-linejoin="round"/>
<path d="M31 4C31 4 31 10 33 12C35 14 39.1 15 39.1 15" stroke="black" stroke-width="4" stroke-linecap="round" stroke-linejoin="round"/>
</svg>
