<svg width="48" height="48" viewBox="0 0 48 48" fill="none" xmlns="http://www.w3.org/2000/svg">
<rect width="48" height="48" fill="white" fill-opacity="0.01"/>
<path d="M42 44H33L24 19L15 44H6L8.9 15L10 4H17H24H31H38L39.1 15L42 44Z" fill="#2F88FF"/>
<path d="M24 4V9.5M24 4H31M24 4H17M31 4H38L39.1 15M31 4C31 4 31 10 33 12C35 14 39.1 15 39.1 15M39.1 15L42 44H33L24 19L15 44H6L8.9 15M17 4H10L8.9 15M17 4C17 4 17 10 15 12C13 14 8.9 15 8.9 15" stroke="black" stroke-width="4" stroke-linecap="round" stroke-linejoin="round"/>
</svg>
