<svg width="48" height="48" viewBox="0 0 48 48" fill="none" xmlns="http://www.w3.org/2000/svg">
<rect width="48" height="48" fill="white" fill-opacity="0.01"/>
<path d="M11 44H37V37H44V17C44 14 42 10.5 39 8C36 5.5 30 4 30 4H18C18 4 12 5.5 9 8C6 10.5 4 14 4 17V37H11V44Z" fill="#2F88FF"/>
<path d="M37 17V37M11 37V44H37V37M11 37H4V17C4 14 6 10.5 9 8C12 5.5 18 4 18 4H30C30 4 36 5.5 39 8C42 10.5 44 14 44 17V37H37M11 37V17" stroke="black" stroke-width="4" stroke-linecap="round" stroke-linejoin="round"/>
<path d="M30 4C30 7.31371 27.3137 10 24 10C20.6863 10 18 7.31371 18 4" stroke="black" stroke-width="4" stroke-linecap="round" stroke-linejoin="round"/>
</svg>
