<svg width="48" height="48" viewBox="0 0 48 48" fill="none" xmlns="http://www.w3.org/2000/svg">
<rect width="48" height="48" fill="white" fill-opacity="0.01"/>
<path d="M11 44H37V37H44V17C44 14 42 10.5 39 8C36 5.5 32 4 32 4H16C16 4 12 5.5 9 8C6 10.5 4 14 4 17V37H11V44Z" fill="#09C8E2"/>
<path d="M11 44H37V37H44V17C44 14 42 10.5 39 8C36 5.5 32 4 32 4H16C16 4 12 5.5 9 8C6 10.5 4 14 4 17V37H11V44Z" fill="#2F88FF"/>
<path d="M37 17V37M11 37V44H37V37M11 37H4V17C4 14 6 10.5 9 8C12 5.5 16 4 16 4H32C32 4 36 5.5 39 8C42 10.5 44 14 44 17V37H37M11 37V17" stroke="black" stroke-width="4" stroke-linecap="round" stroke-linejoin="round"/>
<path d="M24 17V44" stroke="black" stroke-width="4" stroke-linecap="round" stroke-linejoin="round"/>
<path d="M24 17L16 4" stroke="black" stroke-width="4" stroke-linecap="round" stroke-linejoin="round"/>
<path d="M32 4L24 17" stroke="black" stroke-width="4" stroke-linecap="round" stroke-linejoin="round"/>
</svg>
