<svg width="48" height="48" viewBox="0 0 48 48" fill="none" xmlns="http://www.w3.org/2000/svg">
<rect width="48" height="48" fill="white" fill-opacity="0.01"/>
<path d="M11 44H37V37H44V10L30 4H18L4 10V37H11V44Z" fill="#2F88FF"/>
<path d="M37 21V37M11 37V44H37V37M11 37H4V10L18 4H30L44 10V37H37M11 37V21" stroke="black" stroke-width="4" stroke-linecap="round" stroke-linejoin="round"/>
<path d="M24 18L30 4L35 12L30 17.5L32 23L24 37L16 23L18 17.5L14 12L18 4L24 18Z" fill="#2F88FF"/>
<path d="M24 18L30 4L35 12L30 17.5L32 23L24 37M24 18L18 4L14 12L18 17.5L16 23L24 37M24 18V37M24 44V37" stroke="black" stroke-width="4" stroke-linecap="round" stroke-linejoin="round"/>
</svg>
