<svg width="48" height="48" viewBox="0 0 48 48" fill="none" xmlns="http://www.w3.org/2000/svg">
<rect width="48" height="48" fill="white" fill-opacity="0.01"/>
<path d="M37 44H11V37H4V23C4 20 6 16.5 9 14C12 11.5 18 10 18 10V4H30V10C30 10 36 11.5 39 14C42 16.5 44 20 44 23V37H37V44Z" fill="#2F88FF"/>
<path d="M37 23V37M11 37V44H37V37M11 37H4V23C4 20 6 16.5 9 14C12 11.5 18 10 18 10M11 37V23M37 37H44V23C44 20 42 16.5 39 14C36 11.5 30 10 30 10M18 10H30M18 10V4H30V10" stroke="black" stroke-width="4" stroke-linecap="round" stroke-linejoin="round"/>
</svg>
