<svg width="48" height="48" viewBox="0 0 48 48" fill="none" xmlns="http://www.w3.org/2000/svg">
<rect width="48" height="48" fill="white" fill-opacity="0.01"/>
<path d="M11 37V44H37V37H44V12L39 7L32 4H16L9 7L4 12V37H11Z" fill="#09C8E2"/>
<path d="M11 37V44H37V37H44V12L39 7L32 4H16L9 7L4 12V37H11Z" fill="#2F88FF"/>
<path d="M37 19V37M11 37V44H37V37M11 37H4V12L9 7L16 4H32L39 7L44 12V37H37M11 37V19" stroke="black" stroke-width="4" stroke-linecap="round" stroke-linejoin="round"/>
<path d="M24 21V44" stroke="black" stroke-width="4" stroke-linecap="round" stroke-linejoin="round"/>
<path d="M9 7L24 21" stroke="black" stroke-width="4" stroke-linecap="round" stroke-linejoin="round"/>
<path d="M16 4L24 21" stroke="black" stroke-width="4" stroke-linecap="round" stroke-linejoin="round"/>
<path d="M32 4L24 21" stroke="black" stroke-width="4" stroke-linecap="round" stroke-linejoin="round"/>
<path d="M39 7L24 21" stroke="black" stroke-width="4" stroke-linecap="round" stroke-linejoin="round"/>
</svg>
