<svg width="48" height="48" viewBox="0 0 48 48" fill="none" xmlns="http://www.w3.org/2000/svg">
<rect width="48" height="48" fill="white" fill-opacity="0.01"/>
<path d="M33 38L24 19L15 38H14L13 44H7V38H6L10 4H17H24H31H38L42 38H41V44H35L34 38H33Z" fill="#2F88FF"/>
<path d="M15 38L24 19L33 38H34M15 38H6M15 38H14L13 44H7V38H6M6 38L10 4H17H24M24 4L20 11.5M24 4H31H38L42 38H41M24 4L27 11M34 38L35 44H41V38M34 38H41" stroke="black" stroke-width="4" stroke-linecap="round" stroke-linejoin="round"/>
</svg>
