<?xml version="1.0" encoding="UTF-8"?>
<svg width="48px" height="48px" viewBox="0 0 48 48" version="1.1" xmlns="http://www.w3.org/2000/svg" xmlns:xlink="http://www.w3.org/1999/xlink">
    <!-- Generator: Sketch 55.1 (78136) - https://sketchapp.com -->
    <title>connection-point</title>
    <desc>Created with Sketch.</desc>
    <g id="connection-point" stroke="none" stroke-width="1" fill="none" fill-rule="evenodd">
        <g id="编组">
            <rect id="矩形" fill-opacity="0.01" fill="#FFFFFF" x="0" y="0" width="48" height="48"></rect>
            <path d="M6,24 L42,24" id="Path-206" stroke="#000000" stroke-width="4" stroke-linecap="round" stroke-linejoin="round"></path>
            <path d="M20.5638852,4 L27.4361148,4 C28.3276335,4 28.6509198,4.09282561 28.9768457,4.2671327 C29.3027716,4.4414398 29.5585602,4.69722837 29.7328673,5.0231543 C29.9071744,5.34908022 30,5.67236646 30,6.5638852 L30,13.4361148 C30,14.3276335 29.9071744,14.6509198 29.7328673,14.9768457 C29.5585602,15.3027716 29.3027716,15.5585602 28.9768457,15.7328673 C28.6509198,15.9071744 28.3276335,16 27.4361148,16 L20.5638852,16 C19.6723665,16 19.3490802,15.9071744 19.0231543,15.7328673 C18.6972284,15.5585602 18.4414398,15.3027716 18.2671327,14.9768457 C18.0928256,14.6509198 18,14.3276335 18,13.4361148 L18,6.5638852 C18,5.67236646 18.0928256,5.34908022 18.2671327,5.0231543 C18.4414398,4.69722837 18.6972284,4.4414398 19.0231543,4.2671327 C19.3490802,4.09282561 19.6723665,4 20.5638852,4 Z" id="Rectangle" stroke="#000000" stroke-width="4" fill="#2F88FF" fill-rule="nonzero" stroke-linejoin="round"></path>
            <path d="M8.5638852,32 L15.4361148,32 C16.3276335,32 16.6509198,32.0928256 16.9768457,32.2671327 C17.3027716,32.4414398 17.5585602,32.6972284 17.7328673,33.0231543 C17.9071744,33.3490802 18,33.6723665 18,34.5638852 L18,41.4361148 C18,42.3276335 17.9071744,42.6509198 17.7328673,42.9768457 C17.5585602,43.3027716 17.3027716,43.5585602 16.9768457,43.7328673 C16.6509198,43.9071744 16.3276335,44 15.4361148,44 L8.5638852,44 C7.67236646,44 7.34908022,43.9071744 7.0231543,43.7328673 C6.69722837,43.5585602 6.4414398,43.3027716 6.2671327,42.9768457 C6.09282561,42.6509198 6,42.3276335 6,41.4361148 L6,34.5638852 C6,33.6723665 6.09282561,33.3490802 6.2671327,33.0231543 C6.4414398,32.6972284 6.69722837,32.4414398 7.0231543,32.2671327 C7.34908022,32.0928256 7.67236646,32 8.5638852,32 Z" id="Rectangle-Copy-2" stroke="#000000" stroke-width="4" fill="#2F88FF" fill-rule="nonzero" stroke-linejoin="round"></path>
            <path d="M32.5638852,32 L39.4361148,32 C40.3276335,32 40.6509198,32.0928256 40.9768457,32.2671327 C41.3027716,32.4414398 41.5585602,32.6972284 41.7328673,33.0231543 C41.9071744,33.3490802 42,33.6723665 42,34.5638852 L42,41.4361148 C42,42.3276335 41.9071744,42.6509198 41.7328673,42.9768457 C41.5585602,43.3027716 41.3027716,43.5585602 40.9768457,43.7328673 C40.6509198,43.9071744 40.3276335,44 39.4361148,44 L32.5638852,44 C31.6723665,44 31.3490802,43.9071744 31.0231543,43.7328673 C30.6972284,43.5585602 30.4414398,43.3027716 30.2671327,42.9768457 C30.0928256,42.6509198 30,42.3276335 30,41.4361148 L30,34.5638852 C30,33.6723665 30.0928256,33.3490802 30.2671327,33.0231543 C30.4414398,32.6972284 30.6972284,32.4414398 31.0231543,32.2671327 C31.3490802,32.0928256 31.6723665,32 32.5638852,32 Z" id="Rectangle-Copy-3" stroke="#000000" stroke-width="4" fill="#2F88FF" fill-rule="nonzero" stroke-linejoin="round"></path>
            <path d="M24,24.0083363 L24.0083333,16" id="Path-27" stroke="#000000" stroke-width="4" stroke-linecap="round" stroke-linejoin="round"></path>
            <path d="M36,32.0083363 L36.0083333,24" id="Path-27" stroke="#000000" stroke-width="4" stroke-linecap="round" stroke-linejoin="round"></path>
            <path d="M12,32.0083363 L12.0083333,24" id="Path-27" stroke="#000000" stroke-width="4" stroke-linecap="round" stroke-linejoin="round"></path>
        </g>
    </g>
</svg>