<?xml version="1.0" encoding="UTF-8"?>
<svg width="48px" height="48px" viewBox="0 0 48 48" version="1.1" xmlns="http://www.w3.org/2000/svg" xmlns:xlink="http://www.w3.org/1999/xlink">
    <!-- Generator: Sketch 55.2 (78181) - https://sketchapp.com -->
    <title>cooking-pot</title>
    <desc>Created with Sketch.</desc>
    <g id="cooking-pot" stroke="none" stroke-width="1" fill="none" fill-rule="evenodd" stroke-linejoin="round">
        <rect width="48" height="48" fill="white" fill-opacity="0.01"/>
        <g id="编组" transform="translate(4.000000, 3.000000)" stroke="#000000" stroke-width="4">
            <path d="M6,41 L34,41 L34,17.9473684 C34,11.9013038 27.7319865,7 20,7 C12.2680135,7 6,11.9013038 6,17.9473684 L6,41 Z" id="Oval-10" stroke-linecap="round"></path>
            <path d="M34,19.0436777 C34,18.8000534 34,18.434617 34,17.9473684 C34,11.9013038 27.7319865,7 20,7 C12.2680135,7 6,11.9013038 6,17.9473684 C6,18.4331602 6,18.7975039 6,19.0403998 L34,19.0436777 Z" id="路径" fill="#2F88FF" fill-rule="nonzero"></path>
            <path d="M0,19 L40,19" id="Path-21" stroke-linecap="round"></path>
            <path d="M17,1 L23,1" id="Path-22" stroke-linecap="round"></path>
        </g>
    </g>
</svg>
