<svg width="48" height="48" viewBox="0 0 48 48" fill="none" xmlns="http://www.w3.org/2000/svg">
<rect width="48" height="48" fill="white" fill-opacity="0.01"/>
<path d="M32 8L44 20L36 28L28 20L22 26L17 23L32 8Z" fill="#2F88FF"/>
<path d="M16 8L4 20L24 40L28 36L32 32L36 28L28 20L22 26L17 23L24 16L16 8Z" fill="#2F88FF"/>
<path d="M36 28L24 40M36 28L32 32M36 28L44 20L32 8L17 23M36 28L28 20L22 26L17 23M24 40L4 20L16 8L24 16L17 23M24 40L28 36M32 32L29 29M32 32L28 36M28 36L25 33" stroke="black" stroke-width="4" stroke-linecap="round" stroke-linejoin="round"/>
</svg>
