<svg width="48" height="48" viewBox="0 0 48 48" fill="none" xmlns="http://www.w3.org/2000/svg">
<rect width="48" height="48" fill="white" fill-opacity="0.01"/>
<path d="M44 24C44 35.0457 35.0457 44 24 44C12.9543 44 4 35.0457 4 24C4 12.9543 12.9543 4 24 4C35.0457 4 44 12.9543 44 24Z" stroke="black" stroke-width="4" stroke-linecap="round" stroke-linejoin="round" stroke-dasharray="6 8"/>
<path d="M32 24C32 26.2091 31.1046 28.2091 29.6569 29.6569C28.2091 31.1046 26.2091 32 24 32C21.7909 32 19.7909 31.1046 18.3431 29.6569C16.8954 28.2091 16 26.2091 16 24C16 21.7909 16.8954 19.7909 18.3431 18.3431C19.7909 16.8954 21.7909 16 24 16C26.2091 16 28.2091 16.8954 29.6569 18.3431C31.1046 19.7909 32 21.7909 32 24Z" fill="#2F88FF"/>
<path d="M32 24H44M32 24C32 26.2091 31.1046 28.2091 29.6569 29.6569M32 24C32 21.7909 31.1046 19.7909 29.6569 18.3431M24 32V44M24 32C26.2091 32 28.2091 31.1046 29.6569 29.6569M24 32C21.7909 32 19.7909 31.1046 18.3431 29.6569M16 24H4M16 24C16 21.7909 16.8954 19.7909 18.3431 18.3431M16 24C16 26.2091 16.8954 28.2091 18.3431 29.6569M24 16V4M24 16C21.7909 16 19.7909 16.8954 18.3431 18.3431M24 16C26.2091 16 28.2091 16.8954 29.6569 18.3431M38 10L29.6569 18.3431M10 38L18.3431 29.6569M10 10L18.3431 18.3431M38 38L29.6569 29.6569" stroke="black" stroke-width="4" stroke-linecap="round" stroke-linejoin="round"/>
</svg>
