<svg width="48" height="48" viewBox="0 0 48 48" fill="none" xmlns="http://www.w3.org/2000/svg">
<rect width="48" height="48" fill="white" fill-opacity="0.01"/>
<path d="M42 39V9.00003C42 7.34317 40.6569 6.00003 39 6.00003L9.00001 6C7.34315 6 6 7.34315 6.00001 9.00001L6.00007 39C6.00007 40.6569 7.34321 42 9.00006 42H39C40.6569 42 42 40.6569 42 39Z" fill="#2F88FF" stroke="black" stroke-width="4" stroke-linejoin="round"/>
<path d="M23.9994 18.3158L21.1038 24.2263L14.5264 25.18L19.2911 29.8382L18.1521 36.3158L23.9994 33.1986L29.8479 36.3158L28.7173 29.8382L33.4737 25.18L26.9328 24.2263L23.9994 18.3158Z" fill="#43CCF8" stroke="white" stroke-width="4" stroke-linejoin="round"/>
<path d="M18.3158 12.6316H29.6842" stroke="white" stroke-width="4" stroke-linecap="round" stroke-linejoin="round"/>
</svg>
