<svg width="48" height="48" viewBox="0 0 48 48" fill="none" xmlns="http://www.w3.org/2000/svg">
<path d="M6.57198 37.428C3.70527 33.7128 2 29.0556 2 24C2 11.8497 11.8497 2 24 2C36.1503 2 46 11.8497 46 24C46 29.0556 44.2947 33.7128 41.428 37.428" stroke="black" stroke-width="4" stroke-linecap="round" stroke-linejoin="round"/>
<path d="M12.3035 31.6965C10.8474 29.4881 10 26.843 10 24C10 16.268 16.268 10 24 10C31.732 10 38 16.268 38 24C38 26.843 37.1526 29.4881 35.6965 31.6965" stroke="black" stroke-width="4" stroke-linecap="round" stroke-linejoin="round"/>
<path fill-rule="evenodd" clip-rule="evenodd" d="M24 30L40 46H8L24 30Z" fill="#2F88FF" stroke="black" stroke-width="4" stroke-linecap="round" stroke-linejoin="round"/>
</svg>