<svg width="48" height="48" viewBox="0 0 48 48" fill="none" xmlns="http://www.w3.org/2000/svg">
<rect width="48" height="48" fill="white" fill-opacity="0.01"/>
<path d="M4 38C4 34.6863 6.68629 32 10 32H38C41.3137 32 44 34.6863 44 38C44 41.3137 41.3137 44 38 44H10C6.68629 44 4 41.3137 4 38Z" fill="#2F88FF"/>
<path d="M10 32H38C41.3137 32 44 34.6863 44 38V10C44 6.68629 41.3137 4 38 4H10C6.68629 4 4 6.68629 4 10V38C4 34.6863 6.68629 32 10 32Z" fill="#2F88FF"/>
<path d="M4 38C4 41.3137 6.68629 44 10 44H38C41.3137 44 44 41.3137 44 38M4 38C4 34.6863 6.68629 32 10 32H38C41.3137 32 44 34.6863 44 38M4 38V10C4 6.68629 6.68629 4 10 4H38C41.3137 4 44 6.68629 44 10V38" stroke="black" stroke-width="4" stroke-linecap="round" stroke-linejoin="round"/>
<path d="M10 38H11" stroke="white" stroke-width="4" stroke-linecap="round" stroke-linejoin="round"/>
<path d="M26 38H38" stroke="white" stroke-width="4" stroke-linecap="round" stroke-linejoin="round"/>
</svg>
