<svg width="48" height="48" viewBox="0 0 48 48" fill="none" xmlns="http://www.w3.org/2000/svg">
<rect width="48" height="48" fill="white" fill-opacity="0.01"/>
<path d="M39 4H11C9.89543 4 9 4.89543 9 6V42C9 43.1046 9.89543 44 11 44H39C40.1046 44 41 43.1046 41 42V6C41 4.89543 40.1046 4 39 4Z" fill="#09C8E2"/>
<path d="M39 4H11C9.89543 4 9 4.89543 9 6V42C9 43.1046 9.89543 44 11 44H39C40.1046 44 41 43.1046 41 42V6C41 4.89543 40.1046 4 39 4Z" fill="#2F88FF"/>
<path d="M39 4H11C9.89543 4 9 4.89543 9 6V42C9 43.1046 9.89543 44 11 44H39C40.1046 44 41 43.1046 41 42V6C41 4.89543 40.1046 4 39 4Z" stroke="black" stroke-width="4" stroke-linecap="round" stroke-linejoin="round"/>
<path d="M17 30L31 30" stroke="white" stroke-width="4" stroke-linecap="round" stroke-linejoin="round"/>
<path d="M17 36H24" stroke="white" stroke-width="4" stroke-linecap="round" stroke-linejoin="round"/>
<rect x="17" y="12" width="14" height="10" fill="#09C8E2"/>
<rect x="17" y="12" width="14" height="10" fill="#2F88FF"/>
<rect x="17" y="12" width="14" height="10" stroke="white" stroke-width="4" stroke-linecap="round" stroke-linejoin="round"/>
</svg>
