<svg width="48" height="48" viewBox="0 0 48 48" fill="none" xmlns="http://www.w3.org/2000/svg">
<rect width="48" height="48" fill="white" fill-opacity="0.01"/>
<path d="M4 26C4 24.3431 5.34315 23 7 23H41C42.6569 23 44 24.3431 44 26V35H4V26Z" fill="#09C8E2"/>
<path d="M4 26C4 24.3431 5.34315 23 7 23H41C42.6569 23 44 24.3431 44 26V35H4V26Z" fill="#2F88FF"/>
<path d="M4 26C4 24.3431 5.34315 23 7 23H41C42.6569 23 44 24.3431 44 26V35H4V26Z" stroke="black" stroke-width="4" stroke-linecap="round" stroke-linejoin="round"/>
<path d="M8 12C8 10.3431 9.34315 9 11 9H37C38.6569 9 40 10.3431 40 12V23H8V12Z" fill="#09C8E2"/>
<path d="M8 12C8 10.3431 9.34315 9 11 9H37C38.6569 9 40 10.3431 40 12V23H8V12Z" fill="#2F88FF"/>
<path d="M8 12C8 10.3431 9.34315 9 11 9H37C38.6569 9 40 10.3431 40 12V23H8V12Z" stroke="black" stroke-width="4" stroke-linecap="round" stroke-linejoin="round"/>
<path d="M6 35V39" stroke="black" stroke-width="4" stroke-linecap="round" stroke-linejoin="round"/>
<path d="M42 35V39" stroke="black" stroke-width="4" stroke-linecap="round" stroke-linejoin="round"/>
<path d="M11 21C11 19.3431 12.3431 18 14 18H20C21.6569 18 23 19.3431 23 21V23H11V21Z" fill="#09C8E2"/>
<path d="M11 21C11 19.3431 12.3431 18 14 18H20C21.6569 18 23 19.3431 23 21V23H11V21Z" fill="#2F88FF"/>
<path d="M11 21C11 19.3431 12.3431 18 14 18H20C21.6569 18 23 19.3431 23 21V23H11V21Z" stroke="black" stroke-width="4" stroke-linecap="round" stroke-linejoin="round"/>
<path d="M25 21C25 19.3431 26.3431 18 28 18H34C35.6569 18 37 19.3431 37 21V23H25V21Z" fill="#09C8E2"/>
<path d="M25 21C25 19.3431 26.3431 18 28 18H34C35.6569 18 37 19.3431 37 21V23H25V21Z" fill="#2F88FF"/>
<path d="M25 21C25 19.3431 26.3431 18 28 18H34C35.6569 18 37 19.3431 37 21V23H25V21Z" stroke="black" stroke-width="4" stroke-linecap="round" stroke-linejoin="round"/>
</svg>
