<?xml version="1.0" encoding="UTF-8"?>
<svg width="48px" height="48px" viewBox="0 0 48 48" version="1.1" xmlns="http://www.w3.org/2000/svg" xmlns:xlink="http://www.w3.org/1999/xlink">
    <!-- Generator: Sketch 55.1 (78136) - https://sketchapp.com -->
    <title>drag</title>
    <desc>Created with Sketch.</desc>
    <g id="drag" stroke="none" stroke-width="1" fill="none" fill-rule="evenodd">
        <g id="编组">
            <rect id="矩形" fill-opacity="0.01" fill="#FFFFFF" x="0" y="0" width="48" height="48"></rect>
            <path d="M15,42 C12.790861,42 11,40.209139 11,38 C11,35.790861 12.790861,34 15,34 C17.209139,34 19,35.790861 19,38 C19,40.209139 17.209139,42 15,42 Z M15,28 C12.790861,28 11,26.209139 11,24 C11,21.790861 12.790861,20 15,20 C17.209139,20 19,21.790861 19,24 C19,26.209139 17.209139,28 15,28 Z M15,14 C12.790861,14 11,12.209139 11,10 C11,7.790861 12.790861,6 15,6 C17.209139,6 19,7.790861 19,10 C19,12.209139 17.209139,14 15,14 Z" id="more-vertical" fill="#000000"></path>
            <path d="M33,42 C30.790861,42 29,40.209139 29,38 C29,35.790861 30.790861,34 33,34 C35.209139,34 37,35.790861 37,38 C37,40.209139 35.209139,42 33,42 Z M33,28 C30.790861,28 29,26.209139 29,24 C29,21.790861 30.790861,20 33,20 C35.209139,20 37,21.790861 37,24 C37,26.209139 35.209139,28 33,28 Z M33,14 C30.790861,14 29,12.209139 29,10 C29,7.790861 30.790861,6 33,6 C35.209139,6 37,7.790861 37,10 C37,12.209139 35.209139,14 33,14 Z" id="more-vertical-copy" fill="#000000"></path>
        </g>
    </g>
</svg>