<svg width="48" height="48" viewBox="0 0 48 48" fill="none" xmlns="http://www.w3.org/2000/svg">
<rect width="48" height="48" fill="white" fill-opacity="0.01"/>
<path d="M6 7H24H42V41H24H6V7Z" fill="#2F88FF"/>
<path d="M6 7V41M6 7H4H42M6 7H24M42 7V41M42 7H44M42 7H24M42 41H44H24M42 41H24M6 41H4M6 41H24M24 7V41" stroke="black" stroke-width="4" stroke-linecap="round" stroke-linejoin="round"/>
<path d="M30 23L33 20M33 20L36 23M33 20V28" stroke="white" stroke-width="4" stroke-linecap="round" stroke-linejoin="round"/>
<path d="M12 25L15 28M15 28L18 25M15 28V20" stroke="white" stroke-width="4" stroke-linecap="round" stroke-linejoin="round"/>
</svg>
