<svg width="48" height="48" viewBox="0 0 48 48" fill="none" xmlns="http://www.w3.org/2000/svg">
<rect width="48" height="48" fill="white" fill-opacity="0.01"/>
<path d="M32 24C32 28.4183 28.4183 32 24 32C19.5817 32 16 28.4183 16 24V21H20H28H32V24Z" fill="#2F88FF"/>
<path fill-rule="evenodd" clip-rule="evenodd" d="M16 24C16 28.4183 19.5817 32 24 32C28.4183 32 32 28.4183 32 24V21H28H20H16V24Z" fill="#2F88FF"/>
<path d="M24 44C35.0457 44 44 35.0457 44 24C44 12.9543 35.0457 4 24 4C12.9543 4 4 12.9543 4 24C4 35.0457 12.9543 44 24 44ZM24 44V32M24 32C28.4183 32 32 28.4183 32 24V21H28M24 32C19.5817 32 16 28.4183 16 24V21H20M20 21V16M20 21H28M28 21V16" stroke="black" stroke-width="4" stroke-linecap="round" stroke-linejoin="round"/>
</svg>
