<svg width="48" height="48" viewBox="0 0 48 48" fill="none" xmlns="http://www.w3.org/2000/svg">
<path d="M8 31L8.00002 42C8.00002 43.1046 8.89545 44 10 44H38C39.1046 44 40 43.1046 40 42V31" stroke="black" stroke-width="4" stroke-linecap="round" stroke-linejoin="round"/>
<path d="M38 14H10C8.89543 14 8 14.8954 8 16L8.00002 22C8.00002 23.1046 8.89545 24 10 24H38C39.1046 24 40 23.1046 40 22V16C40 14.8954 39.1046 14 38 14Z" fill="#2F88FF" stroke="black" stroke-width="4" stroke-linejoin="round"/>
<path d="M16 4V8" stroke="black" stroke-width="4" stroke-linecap="round" stroke-linejoin="round"/>
<path d="M24 4V8" stroke="black" stroke-width="4" stroke-linecap="round" stroke-linejoin="round"/>
<path d="M32 4V8" stroke="black" stroke-width="4" stroke-linecap="round" stroke-linejoin="round"/>
<path d="M16 34H32" stroke="black" stroke-width="4" stroke-linecap="round" stroke-linejoin="round"/>
</svg>