<svg width="48" height="48" viewBox="0 0 48 48" fill="none" xmlns="http://www.w3.org/2000/svg">
<rect width="48" height="48" fill="white" fill-opacity="0.01"/>
<path d="M12 11H17L19 7H29L31 11H36V27H12V11Z" fill="#09C8E2"/>
<path d="M12 11H17L19 7H29L31 11H36V27H12V11Z" fill="#2F88FF"/>
<path d="M12 11H17L19 7H29L31 11H36V27H12V11Z" stroke="black" stroke-width="4" stroke-linecap="round" stroke-linejoin="round"/>
<circle cx="24" cy="18" r="4" fill="#09C8E2"/>
<circle cx="24" cy="18" r="4" fill="#2F88FF"/>
<circle cx="24" cy="18" r="4" stroke="black" stroke-width="4" stroke-linecap="round" stroke-linejoin="round"/>
<path d="M24 38C12.9543 38 4 33.5228 4 28C4 26.5778 4.59379 25.2249 5.66417 24M24 38L20 34M24 38L20 42" stroke="black" stroke-width="4" stroke-linecap="round" stroke-linejoin="round"/>
<path d="M32 37.1679C39.0636 35.6248 44 32.1006 44 28C44 26.5778 43.4062 25.2249 42.3358 24" stroke="black" stroke-width="4" stroke-linecap="round" stroke-linejoin="round"/>
</svg>
