<svg width="48" height="48" viewBox="0 0 48 48" fill="none" xmlns="http://www.w3.org/2000/svg">
<rect width="48" height="48" fill="white" fill-opacity="0.01"/>
<path d="M14 4V20M14 44V20M14 20C14 20 8 20 8 15V5M14 20C14 20 20 20 20 15V5" stroke="black" stroke-width="4" stroke-linecap="round" stroke-linejoin="round"/>
<path d="M40 12C40 16.4183 37.3137 20 34 20C30.6863 20 28 16.4183 28 12C28 7.58172 30.6863 4 34 4C37.3137 4 40 7.58172 40 12Z" fill="#2F88FF"/>
<path d="M34 20C37.3137 20 40 16.4183 40 12C40 7.58172 37.3137 4 34 4C30.6863 4 28 7.58172 28 12C28 16.4183 30.6863 20 34 20ZM34 20V44" stroke="black" stroke-width="4" stroke-linecap="round" stroke-linejoin="round"/>
</svg>
