<svg width="48" height="48" viewBox="0 0 48 48" fill="none" xmlns="http://www.w3.org/2000/svg">
<rect width="48" height="48" fill="white" fill-opacity="0.01"/>
<path d="M4 4H44V44H4V4Z" fill="#2F88FF"/>
<path d="M35.8284 12.1716C37.3905 13.7337 37.3905 16.2663 35.8284 17.8284C34.2663 19.3905 24.0002 23.9999 24.0002 23.9999C24.0002 23.9999 28.6095 13.7337 30.1716 12.1716C31.7337 10.6095 34.2663 10.6095 35.8284 12.1716Z" fill="#2F88FF"/>
<path d="M12.1718 35.8284C10.6097 34.2663 10.6097 31.7337 12.1718 30.1716C13.7339 28.6095 24.0002 23.9999 24.0002 23.9999C24.0002 23.9999 19.3907 34.2663 17.8286 35.8284C16.2666 37.3905 13.7339 37.3905 12.1718 35.8284Z" fill="#2F88FF"/>
<path d="M4 24H44M24 44V4M24.0002 23.9999C24.0002 23.9999 34.2663 19.3905 35.8284 17.8284C37.3905 16.2663 37.3905 13.7337 35.8284 12.1716C34.2663 10.6095 31.7337 10.6095 30.1716 12.1716C28.6095 13.7337 24.0002 23.9999 24.0002 23.9999ZM24.0002 23.9999C24.0002 23.9999 13.7337 19.3905 12.1716 17.8284M24.0002 23.9999C24.0002 23.9999 19.3905 13.7337 17.8284 12.1716M24.0002 23.9999C24.0002 23.9999 34.2661 28.6095 35.8282 30.1716M24.0002 23.9999C24.0002 23.9999 28.6093 34.2663 30.1714 35.8284M24.0002 23.9999C24.0002 23.9999 13.7339 28.6095 12.1718 30.1716C10.6097 31.7337 10.6097 34.2663 12.1718 35.8284C13.7339 37.3905 16.2666 37.3905 17.8286 35.8284C19.3907 34.2663 24.0002 23.9999 24.0002 23.9999ZM4 4H44V44H4V4Z" stroke="black" stroke-width="4" stroke-linecap="round" stroke-linejoin="round"/>
</svg>
