<svg width="48" height="48" viewBox="0 0 48 48" fill="none" xmlns="http://www.w3.org/2000/svg">
<rect width="48" height="48" fill="white" fill-opacity="0.01"/>
<path d="M35 16C35 22.5 29.6274 28 23 28C16.3726 28 11 22.6274 11 16C11 9.5 15 4 15 4H31C31 4 35 9.5 35 16Z" fill="#2F88FF"/>
<path d="M23 28C29.6274 28 35 22.5 35 16C35 9.5 31 4 31 4H15C15 4 11 9.5 11 16C11 22.6274 16.3726 28 23 28ZM23 28V44M23 44H33M23 44H13" stroke="black" stroke-width="4" stroke-linecap="round" stroke-linejoin="round"/>
</svg>
