<svg width="48" height="48" viewBox="0 0 48 48" fill="none" xmlns="http://www.w3.org/2000/svg">
<rect width="48" height="48" fill="white" fill-opacity="0.01"/>
<path fill-rule="evenodd" clip-rule="evenodd" d="M44 22C44 12.0589 35.0457 4 24 4C12.9543 4 4 12.0589 4 22H44Z" fill="#09C8E2"/>
<path fill-rule="evenodd" clip-rule="evenodd" d="M44 22C44 12.0589 35.0457 4 24 4C12.9543 4 4 12.0589 4 22H44Z" fill="#2F88FF"/>
<path fill-rule="evenodd" clip-rule="evenodd" d="M44 22C44 12.0589 35.0457 4 24 4C12.9543 4 4 12.0589 4 22H44Z" stroke="black" stroke-width="4" stroke-linecap="round" stroke-linejoin="round"/>
<rect x="4" y="38" width="40" height="6" fill="#09C8E2"/>
<rect x="4" y="38" width="40" height="6" fill="#2F88FF"/>
<rect x="4" y="38" width="40" height="6" stroke="black" stroke-width="4" stroke-linecap="round" stroke-linejoin="round"/>
<path d="M4 28L9.45455 32L16.7273 28L24 32L31.2727 28L38.5455 32L44 28" stroke="black" stroke-width="4" stroke-linecap="round" stroke-linejoin="round"/>
</svg>
