<svg width="48" height="48" viewBox="0 0 48 48" fill="none" xmlns="http://www.w3.org/2000/svg">
<rect width="48" height="48" fill="white" fill-opacity="0.01"/>
<path d="M41 38H19V44H41V38Z" fill="#2F88FF" stroke="black" stroke-width="4" stroke-linejoin="round"/>
<path fill-rule="evenodd" clip-rule="evenodd" d="M19 38C12.481 30.8771 8.74042 26.7492 7.77817 25.6162C6.33478 23.9168 6.94087 21.996 10.553 21.996C14.1652 21.996 16.2484 27.2814 19 27.2814C19.0164 27.2848 19.0175 20.5257 19.0033 7.00404C19.0016 5.3467 20.3437 4.00174 22.001 4L22.0042 4C23.6633 4 25.0084 5.34501 25.0084 7.00417V15.0136C32.9811 16.2224 37.3157 16.8893 38.012 17.0144C39.0565 17.2019 41 18.199 41 21.068C41 22.9807 41 27.9581 41 38H19Z" stroke="black" stroke-width="4" stroke-linejoin="round"/>
</svg>
