<svg width="48" height="48" viewBox="0 0 48 48" fill="none" xmlns="http://www.w3.org/2000/svg">
<rect width="48" height="48" fill="white" fill-opacity="0.01"/>
<path d="M24 11V4" stroke="black" stroke-width="4" stroke-linecap="round" stroke-linejoin="round"/>
<path d="M32 11L32 7" stroke="black" stroke-width="4" stroke-linecap="round" stroke-linejoin="round"/>
<path d="M16 11L16 7" stroke="black" stroke-width="4" stroke-linecap="round" stroke-linejoin="round"/>
<path d="M4 17H44C44 22.5856 40.4222 27.5028 35 30.3648L37.5332 39H10.4668L13 30.3648C7.57778 27.5028 4 22.5856 4 17Z" fill="#2F88FF"/>
<path d="M35 30.3648C40.4222 27.5028 44 22.5856 44 17H4C4 22.5856 7.57778 27.5028 13 30.3648M35 30.3648C31.8442 32.0305 28.0636 33 24 33C19.9364 33 16.1558 32.0305 13 30.3648M35 30.3648L37.5332 39M39 44L37.5332 39M13 30.3648L10.4668 39M9 44L10.4668 39M10.4668 39H37.5332" stroke="black" stroke-width="4" stroke-linecap="round" stroke-linejoin="round"/>
<path d="M20 25H28" stroke="white" stroke-width="4" stroke-linecap="round" stroke-linejoin="round"/>
</svg>
