<svg width="48" height="48" viewBox="0 0 48 48" fill="none" xmlns="http://www.w3.org/2000/svg">
<rect width="48" height="48" fill="white" fill-opacity="0.01"/>
<path fill-rule="evenodd" clip-rule="evenodd" d="M12 44C16.4183 44 20 40.4183 20 36H4C4 40.4183 7.58172 44 12 44Z" fill="#2F88FF"/>
<path fill-rule="evenodd" clip-rule="evenodd" d="M36 38C40.4183 38 44 34.4183 44 30H28C28 34.4183 31.5817 38 36 38Z" fill="#2F88FF"/>
<path d="M20 36C20 40.4183 16.4183 44 12 44C7.58172 44 4 40.4183 4 36M20 36L12 22M20 36H4M4 36L12 22M12 22L24 19M44 30C44 34.4183 40.4183 38 36 38C31.5817 38 28 34.4183 28 30M44 30L36 16M44 30H28M28 30L36 16M36 16L24 19M24 19V4" stroke="black" stroke-width="4" stroke-linecap="round" stroke-linejoin="round"/>
</svg>
