<svg width="48" height="48" viewBox="0 0 48 48" fill="none" xmlns="http://www.w3.org/2000/svg">
<rect width="48" height="48" fill="white" fill-opacity="0.01"/>
<path d="M24 44C35.0457 44 44 35.0457 44 24C44 12.9543 35.0457 4 24 4C12.9543 4 4 12.9543 4 24C4 35.0457 12.9543 44 24 44Z" stroke="black" stroke-width="4"/>
<path d="M6 30.9853C8.63192 32.0407 10.5266 32.0407 11.6839 30.9853C13.4199 29.4022 11.9219 24.5975 14.3532 23.2724C16.7844 21.9473 20.4886 27.8212 23.9508 25.8884C27.4129 23.9557 23.6246 18.8021 26.0272 16.7128C28.4298 14.6235 31.5541 16.9798 32.1001 13.4863C32.6462 9.9928 29.5521 11.5079 28.9584 8.20668C28.5625 6.00586 28.5625 4.84859 28.9584 4.73486" stroke="black" stroke-width="4" stroke-linecap="round"/>
<path d="M29.021 43.3502C27.1469 41.4323 26.4722 39.6494 26.997 38.0017C27.7842 35.5301 29.0827 35.6762 29.6489 34.1479C30.215 32.6197 28.6157 30.4431 32.1644 28.5824C34.5302 27.3419 37.783 28.7792 41.9228 32.8942" stroke="black" stroke-width="4" stroke-linecap="round"/>
</svg>
