<svg width="48" height="48" viewBox="0 0 48 48" fill="none" xmlns="http://www.w3.org/2000/svg">
<rect width="48" height="48" fill="white" fill-opacity="0.01"/>
<path d="M36 12H10V36H36V12Z" fill="#2F88FF" stroke="black" stroke-width="4" stroke-linejoin="round"/>
<path d="M27 24C27 21.7909 25.2091 20 23 20C20.7909 20 19 21.7909 19 24C19 26.2091 20.7909 28 23 28C25.2091 28 27 26.2091 27 24Z" fill="#43CCF8" stroke="white" stroke-width="4" stroke-linejoin="round"/>
<path d="M15 12C15 11.927 15.0083 11.8543 15.0246 11.7831L16.6321 4.78307C16.7372 4.32553 17.1565 4 17.6409 4H28.3837C28.8681 4 29.2874 4.32553 29.3925 4.78307L31 11.7831" stroke="black" stroke-width="4" stroke-linecap="round"/>
<path d="M15 36C15 36.073 15.0083 36.1457 15.0246 36.2169L16.6321 43.2169C16.7372 43.6745 17.1565 44 17.6409 44H28.3837C28.8681 44 29.2874 43.6745 29.3925 43.2169L31 36.2169" stroke="black" stroke-width="4" stroke-linecap="round"/>
<path d="M39 16V20" stroke="black" stroke-width="4" stroke-linecap="round"/>
</svg>
