<?xml version="1.0" encoding="UTF-8"?>
<svg width="48px" height="48px" viewBox="0 0 48 48" version="1.1" xmlns="http://www.w3.org/2000/svg" xmlns:xlink="http://www.w3.org/1999/xlink">
    <!-- Generator: Sketch 55.1 (78136) - https://sketchapp.com -->
    <title>key</title>
    <desc>Created with Sketch.</desc>
    <g id="key" stroke="none" stroke-width="1" fill="none" fill-rule="evenodd">
        <g id="编组">
            <rect id="矩形" fill-opacity="0.01" fill="#FFFFFF" x="0" y="0" width="48" height="48"></rect>
            <g id="key" transform="translate(6.000000, 7.000000)" stroke="#000000" stroke-linejoin="round" stroke-width="4">
                <path d="M16.8682292,17.298 C19.4105469,19.7932732 20.4138066,23.4523269 19.4971338,26.8860485 C18.5804609,30.3197701 15.8844213,33.0016199 12.4325319,33.9134683 C8.98064247,34.8253166 5.30222867,33.8273371 2.79375297,31.2984 C-0.977922831,27.413849 -0.923982562,21.2391607 2.91498715,17.4203961 C6.75395685,13.6016315 12.9613155,13.5479751 16.8664196,17.2998 L16.8682292,17.298 Z" id="Path" fill="#2F88FF" fill-rule="nonzero"></path>
                <polygon id="Path" fill="#2F88FF" fill-rule="nonzero" points="24.305372 9.9 29.7339434 15.3 36.0672768 9 30.6387053 3.6"></polygon>
                <path d="M34.257753,0 L30.6387053,3.6 L34.257753,0 Z M16.8682292,17.298 L24.305372,9.9 L16.8682292,17.298 Z M24.305372,9.9 L30.6387053,3.6 L24.305372,9.9 Z" id="Shape" stroke-linecap="round"></path>
            </g>
        </g>
    </g>
</svg>