<svg width="48" height="48" viewBox="0 0 48 48" fill="none" xmlns="http://www.w3.org/2000/svg">
<rect width="48" height="48" fill="white" fill-opacity="0.01"/>
<path d="M37 24C37 38.0938 24 44 24 44C24 44 11 39.375 11 24C11 8.625 24 4 24 4C24 4 37 9.90625 37 24Z" fill="#2F88FF"/>
<path d="M24 44C24 44 37 38.0938 37 24C37 9.90625 24 4 24 4C24 4 11 8.625 11 24C11 39.375 24 44 24 44ZM24 44V36M24 14V23M24 36L29 31M24 36V29M24 29L19 24M24 29V23M24 23L29 18" stroke="black" stroke-width="4" stroke-linecap="round" stroke-linejoin="round"/>
</svg>
