<svg width="48" height="48" viewBox="0 0 48 48" fill="none" xmlns="http://www.w3.org/2000/svg">
<rect width="48" height="48" fill="white" fill-opacity="0.01"/>
<path d="M24.0001 3.99988V11.9999" stroke="black" stroke-width="4" stroke-linecap="round" stroke-linejoin="round"/>
<path d="M38.1422 9.85779L32.4854 15.5146" stroke="black" stroke-width="4" stroke-linecap="round" stroke-linejoin="round"/>
<path d="M44.0001 23.9999H36.0001" stroke="black" stroke-width="4" stroke-linecap="round" stroke-linejoin="round"/>
<path d="M38.1422 38.142L32.4854 32.4851" stroke="black" stroke-width="4" stroke-linecap="round" stroke-linejoin="round"/>
<path d="M24.0001 43.9999V35.9999" stroke="black" stroke-width="4" stroke-linecap="round" stroke-linejoin="round"/>
<path d="M9.85791 38.142L15.5148 32.4851" stroke="black" stroke-width="4" stroke-linecap="round" stroke-linejoin="round"/>
<path d="M4.00006 23.9999H12.0001" stroke="black" stroke-width="4" stroke-linecap="round" stroke-linejoin="round"/>
<path d="M9.85791 9.85779L15.5148 15.5146" stroke="black" stroke-width="4" stroke-linecap="round" stroke-linejoin="round"/>
<path d="M31.6537 5.52234L30.123 9.21786M42.4776 16.3463L38.7821 17.877M42.4776 31.6536L38.7821 30.1229M31.6537 42.4775L30.123 38.782M16.3464 42.4775L17.8771 38.782M5.52246 31.6536L9.21798 30.1229M5.52246 16.3463L9.21798 17.877M16.3464 5.52234L17.8771 9.21786" stroke="black" stroke-width="4" stroke-linecap="round" stroke-linejoin="round"/>
</svg>
