<svg width="48" height="48" viewBox="0 0 48 48" fill="none" xmlns="http://www.w3.org/2000/svg">
<rect width="48" height="48" fill="white" fill-opacity="0.01"/>
<path d="M6 10V26C6 35.9411 14.0589 44 24 44C33.9411 44 42 35.9411 42 26V10M14 10V26C14 31.5228 18.4772 36 24 36C29.5228 36 34 31.5228 34 26V10" stroke="black" stroke-width="4" stroke-linecap="round" stroke-linejoin="round"/>
<path d="M14 4H6V10H14V4Z" fill="#09C8E2"/>
<path d="M14 4H6V10H14V4Z" fill="#2F88FF"/>
<path d="M14 4H6V10H14V4Z" stroke="black" stroke-width="4" stroke-linecap="round" stroke-linejoin="round"/>
<path d="M34 4H42V10H34V4Z" fill="#09C8E2"/>
<path d="M34 4H42V10H34V4Z" fill="#2F88FF"/>
<path d="M34 4H42V10H34V4Z" stroke="black" stroke-width="4" stroke-linecap="round" stroke-linejoin="round"/>
</svg>
