<svg width="48" height="48" viewBox="0 0 48 48" fill="none" xmlns="http://www.w3.org/2000/svg">
<rect width="48" height="48" fill="white" fill-opacity="0.01"/>
<path d="M12 8C12 10.2091 10.2091 12 8 12C5.79086 12 4 10.2091 4 8C4 5.79086 5.79086 4 8 4C10.2091 4 12 5.79086 12 8Z" fill="#2F88FF"/>
<path d="M12 40C12 42.2091 10.2091 44 8 44C5.79086 44 4 42.2091 4 40C4 37.7909 5.79086 36 8 36C10.2091 36 12 37.7909 12 40Z" fill="#2F88FF"/>
<path d="M28 8C28 10.2091 26.2091 12 24 12C21.7909 12 20 10.2091 20 8C20 5.79086 21.7909 4 24 4C26.2091 4 28 5.79086 28 8Z" fill="#2F88FF"/>
<path d="M28 40C28 42.2091 26.2091 44 24 44C21.7909 44 20 42.2091 20 40C20 37.7909 21.7909 36 24 36C26.2091 36 28 37.7909 28 40Z" fill="#2F88FF"/>
<path d="M44 8C44 10.2091 42.2091 12 40 12C37.7909 12 36 10.2091 36 8C36 5.79086 37.7909 4 40 4C42.2091 4 44 5.79086 44 8Z" fill="#2F88FF"/>
<path d="M8 12C10.2091 12 12 10.2091 12 8C12 5.79086 10.2091 4 8 4C5.79086 4 4 5.79086 4 8C4 10.2091 5.79086 12 8 12ZM8 12V24M8 36C5.79086 36 4 37.7909 4 40C4 42.2091 5.79086 44 8 44C10.2091 44 12 42.2091 12 40C12 37.7909 10.2091 36 8 36ZM8 36V24M24 12C26.2091 12 28 10.2091 28 8C28 5.79086 26.2091 4 24 4C21.7909 4 20 5.79086 20 8C20 10.2091 21.7909 12 24 12ZM24 12V36M24 36C21.7909 36 20 37.7909 20 40C20 42.2091 21.7909 44 24 44C26.2091 44 28 42.2091 28 40C28 37.7909 26.2091 36 24 36ZM40 12C42.2091 12 44 10.2091 44 8C44 5.79086 42.2091 4 40 4C37.7909 4 36 5.79086 36 8C36 10.2091 37.7909 12 40 12ZM40 12V24H8" stroke="black" stroke-width="4" stroke-linecap="round" stroke-linejoin="round"/>
<circle cx="40" cy="40" r="4" fill="#2F88FF" stroke="black" stroke-width="4" stroke-linecap="round" stroke-linejoin="round"/>
</svg>
