<svg width="48" height="48" viewBox="0 0 48 48" fill="none" xmlns="http://www.w3.org/2000/svg">
<rect width="48" height="48" fill="white" fill-opacity="0.01"/>
<rect x="4" y="16" width="40" height="26" fill="#2F88FF" stroke="black" stroke-width="4" stroke-linecap="round" stroke-linejoin="round"/>
<path d="M4 6H10H18H26H34H44V16H38H30H22H14H4V6Z" fill="#2F88FF"/>
<path d="M10 6H4V16H14M10 6L14 16M10 6H18M14 16H22M18 6L22 16M18 6H26M22 16H30M26 6L30 16M26 6H34M30 16H38M34 6H44V16H38M34 6L38 16" stroke="black" stroke-width="4" stroke-linecap="round" stroke-linejoin="round"/>
<path d="M12 24H36" stroke="white" stroke-width="4" stroke-linecap="round" stroke-linejoin="round"/>
<path d="M12 32H24" stroke="white" stroke-width="4" stroke-linecap="round" stroke-linejoin="round"/>
</svg>
