<svg width="48" height="48" viewBox="0 0 48 48" fill="none" xmlns="http://www.w3.org/2000/svg">
<rect width="48" height="48" fill="white" fill-opacity="0.01"/>
<path d="M4 4H24L25 12L26 20L27 28L28 36H20H4V4Z" fill="#2F88FF"/>
<path d="M44 44V12H25L26 20L27 28L28 36L21 44H44Z" fill="#2F88FF"/>
<path d="M21 44H44V12H25M21 44L28 36M21 44L20 36M28 36H20M28 36L27 28M25 12L24 4H4V36H20M25 12L26 20M26 20H35M26 20L27 28M27 28H35" stroke="black" stroke-width="4" stroke-linecap="round" stroke-linejoin="round"/>
<path d="M10 12H17" stroke="white" stroke-width="4" stroke-linecap="round" stroke-linejoin="round"/>
<path d="M10 20H18" stroke="white" stroke-width="4" stroke-linecap="round" stroke-linejoin="round"/>
<path d="M10 28H19" stroke="white" stroke-width="4" stroke-linecap="round" stroke-linejoin="round"/>
</svg>
