<svg width="48" height="48" viewBox="0 0 48 48" fill="none" xmlns="http://www.w3.org/2000/svg">
<rect width="48" height="48" fill="white" fill-opacity="0.01"/>
<path fill-rule="evenodd" clip-rule="evenodd" d="M24 43.9999C34.2524 43.9999 40 37.0456 40 25.9999C40 14.9542 31.1316 3.99988 24 3.99988C16.8684 3.99988 8 14.9542 8 25.9999C8 37.0456 13.7476 43.9999 24 43.9999Z" fill="#09C8E2"/>
<path fill-rule="evenodd" clip-rule="evenodd" d="M24 43.9999C34.2524 43.9999 40 37.0456 40 25.9999C40 14.9542 31.1316 3.99988 24 3.99988C16.8684 3.99988 8 14.9542 8 25.9999C8 37.0456 13.7476 43.9999 24 43.9999Z" fill="#2F88FF"/>
<path fill-rule="evenodd" clip-rule="evenodd" d="M24 43.9999C34.2524 43.9999 40 37.0456 40 25.9999C40 14.9542 31.1316 3.99988 24 3.99988C16.8684 3.99988 8 14.9542 8 25.9999C8 37.0456 13.7476 43.9999 24 43.9999Z" stroke="black" stroke-width="4"/>
<path d="M21 37.9999C22.6569 37.9999 24 36.6567 24 34.9999C24 33.343 22.6569 31.9999 21 31.9999C19.3431 31.9999 18 33.343 18 34.9999C18 36.6567 19.3431 37.9999 21 37.9999Z" fill="white"/>
<path fill-rule="evenodd" clip-rule="evenodd" d="M16 29.6674C17.1046 29.6674 18 28.7719 18 27.6674C18 26.5628 17.1046 25.6674 16 25.6674C14.8954 25.6674 14 26.5628 14 27.6674C14 28.7719 14.8954 29.6674 16 29.6674Z" fill="white"/>
</svg>
