<?xml version="1.0" encoding="UTF-8"?>
<svg width="48px" height="48px" viewBox="0 0 48 48" version="1.1" xmlns="http://www.w3.org/2000/svg" xmlns:xlink="http://www.w3.org/1999/xlink">
    <!-- Generator: Sketch 55.1 (78136) - https://sketchapp.com -->
    <title>phone-outgoing2</title>
    <desc>Created with Sketch.</desc>
    <g id="phone-outgoing2" stroke="none" stroke-width="1" fill="none" fill-rule="evenodd">
        <g id="编组" transform="translate(-0.347457, 0.000000)">
            <rect id="矩形" fill-opacity="0.01" fill="#FFFFFF" x="1.34745674" y="0" width="48" height="48"></rect>
            <g id="Group-2" transform="translate(21.500000, 26.880465) rotate(45.000000) translate(-21.500000, -26.880465) translate(0.000000, 18.880465)" fill="#2F88FF" fill-rule="nonzero" stroke="#000000" stroke-linejoin="round" stroke-width="4">
                <path d="M6.59037499,0.201487704 L11.4363566,1.58770413 C12.0708603,1.76920699 12.57498,2.25203679 12.7836756,2.87812343 L14.4502082,7.87772127 C16.4274651,9.2110546 18.7635762,9.87772127 21.4585415,9.87772127 C24.1535068,9.87772127 26.4840623,9.2110546 28.4502082,7.87772127 L30.1164866,2.87888608 C30.3253228,2.2523773 30.8299693,1.7693471 31.465015,1.58812122 L36.3273188,0.200543449 C37.0255529,0.00128520037 37.7769337,0.196113463 38.2903705,0.709550278 L41.7446852,4.16386496 C43.3067702,5.72596564 43.3067702,8.25861854 41.7446774,9.82071137 C41.4535377,10.1118511 41.1191927,10.3562949 40.7534577,10.5454047 C33.878385,14.1002824 27.4467463,15.8777213 21.4585415,15.8777213 C15.4703396,15.8777213 9.03870407,14.1002841 2.16363503,10.5454097 C0.201293452,9.53075394 -0.566950717,7.11741855 0.447710714,5.15507991 C0.636821355,4.78934302 0.881266351,4.45499642 1.17240748,4.16385529 L4.6261138,0.71014897 C5.13986909,0.196393679 5.89183331,0.00166648407 6.59037499,0.201487704 Z" id="Path-18"></path>
            </g>
            <g id="Group-3" transform="translate(26.967693, 6.000000)" stroke="#000000" stroke-linecap="round" stroke-linejoin="round" stroke-width="4">
                <g id="Group-2" transform="translate(0.379763, 0.000000)">
                    <polyline id="Path-8" points="8 0 16 8 8 16"></polyline>
                    <path d="M0,8.00833628 L16,8.00833628" id="Path-11"></path>
                </g>
            </g>
        </g>
    </g>
</svg>