<svg width="48" height="48" viewBox="0 0 48 48" fill="none" xmlns="http://www.w3.org/2000/svg">
<rect width="48" height="48" fill="white" fill-opacity="0.01"/>
<path d="M14.3757 9.79423C15.1022 9.79423 15.7716 10.1883 16.1243 10.8235L18.5707 15.2303C18.891 15.8073 18.9061 16.5052 18.6109 17.0955L16.2541 21.8092C16.2541 21.8092 16.9371 25.3206 19.7955 28.179C22.654 31.0374 26.1536 31.7086 26.1536 31.7086L30.8665 29.3522C31.4572 29.0568 32.1556 29.0721 32.7328 29.393L37.1521 31.85C37.7868 32.2029 38.1803 32.8719 38.1803 33.598L38.1803 38.6715C38.1803 41.2552 35.7804 43.1213 33.3323 42.2952C28.3044 40.5987 20.4997 37.3685 15.5529 32.4216C10.606 27.4748 7.37582 19.6701 5.67928 14.6422C4.85326 12.1941 6.71935 9.79423 9.303 9.79423L14.3757 9.79423Z" fill="#09C8E2"/>
<path d="M14.3757 9.79423C15.1022 9.79423 15.7716 10.1883 16.1243 10.8235L18.5707 15.2303C18.891 15.8073 18.9061 16.5052 18.6109 17.0955L16.2541 21.8092C16.2541 21.8092 16.9371 25.3206 19.7955 28.179C22.654 31.0374 26.1536 31.7086 26.1536 31.7086L30.8665 29.3522C31.4572 29.0568 32.1556 29.0721 32.7328 29.393L37.1521 31.85C37.7868 32.2029 38.1803 32.8719 38.1803 33.598L38.1803 38.6715C38.1803 41.2552 35.7804 43.1213 33.3323 42.2952C28.3044 40.5987 20.4997 37.3685 15.5529 32.4216C10.606 27.4748 7.37582 19.6701 5.67928 14.6422C4.85326 12.1941 6.71935 9.79423 9.303 9.79423L14.3757 9.79423Z" fill="#2F88FF"/>
<path d="M14.3757 9.79423C15.1022 9.79423 15.7716 10.1883 16.1243 10.8235L18.5707 15.2303C18.891 15.8073 18.9061 16.5052 18.6109 17.0955L16.2541 21.8092C16.2541 21.8092 16.9371 25.3206 19.7955 28.179C22.654 31.0374 26.1536 31.7086 26.1536 31.7086L30.8665 29.3522C31.4572 29.0568 32.1556 29.0721 32.7328 29.393L37.1521 31.85C37.7868 32.2029 38.1803 32.8719 38.1803 33.598L38.1803 38.6715C38.1803 41.2552 35.7804 43.1213 33.3323 42.2952C28.3044 40.5987 20.4997 37.3685 15.5529 32.4216C10.606 27.4748 7.37582 19.6701 5.67928 14.6422C4.85326 12.1941 6.71935 9.79423 9.303 9.79423L14.3757 9.79423Z" stroke="black" stroke-width="4" stroke-linejoin="round"/>
<path d="M39 15H27V5H39V8L44 6V14L39 12V15Z" fill="#09C8E2"/>
<path d="M39 15H27V5H39V8L44 6V14L39 12V15Z" fill="#2F88FF"/>
<path d="M39 15H27V5H39V8L44 6V14L39 12V15Z" stroke="black" stroke-width="4" stroke-linecap="round" stroke-linejoin="round"/>
</svg>
