<svg width="48" height="48" viewBox="0 0 48 48" fill="none" xmlns="http://www.w3.org/2000/svg">
<rect width="48" height="48" fill="white" fill-opacity="0.01"/>
<path d="M24 3L34.9505 10.928L45.8743 18.8926L41.7182 31.757L37.5191 44.6074L24 44.63L10.481 44.6074L6.28185 31.757L2.12573 18.8926L13.0496 10.928L24 3Z" stroke="black" stroke-width="4" stroke-linejoin="round"/>
<path d="M24 3L24.0136 25.9814L45.8743 18.8926L24.0219 26.0071L37.5191 44.6074L24 26.023L10.481 44.6074L23.9782 26.0071L2.12573 18.8926L23.9865 25.9814L24 3Z" fill="#2F88FF" stroke="black" stroke-width="4" stroke-linejoin="round"/>
<path d="M24 13L30.1893 17.4811L36.3637 21.9828L34.0146 29.2539L31.6412 36.5172L24 36.53L16.3588 36.5172L13.9853 29.2539L11.6362 21.9828L17.8106 17.4811L24 13Z" stroke="black" stroke-width="4" stroke-linejoin="round"/>
</svg>
