<svg width="48" height="48" viewBox="0 0 48 48" fill="none" xmlns="http://www.w3.org/2000/svg">
<rect width="48" height="48" fill="white" fill-opacity="0.01"/>
<path d="M42 8H6C4.89543 8 4 8.89543 4 10V38C4 39.1046 4.89543 40 6 40H42C43.1046 40 44 39.1046 44 38V10C44 8.89543 43.1046 8 42 8Z" fill="#09C8E2"/>
<path d="M42 8H6C4.89543 8 4 8.89543 4 10V38C4 39.1046 4.89543 40 6 40H42C43.1046 40 44 39.1046 44 38V10C44 8.89543 43.1046 8 42 8Z" fill="#2F88FF"/>
<path d="M42 8H6C4.89543 8 4 8.89543 4 10V38C4 39.1046 4.89543 40 6 40H42C43.1046 40 44 39.1046 44 38V10C44 8.89543 43.1046 8 42 8Z" stroke="black" stroke-width="4"/>
<path d="M24 17V31" stroke="white" stroke-width="4" stroke-linecap="round"/>
<path d="M32 24V31" stroke="white" stroke-width="4" stroke-linecap="round"/>
<path d="M16 22V31" stroke="white" stroke-width="4" stroke-linecap="round"/>
</svg>
