<svg width="48" height="48" viewBox="0 0 48 48" fill="none" xmlns="http://www.w3.org/2000/svg">
<rect width="48" height="48" fill="white" fill-opacity="0.01"/>
<path d="M34 6.67564C39.978 10.1337 44 16.5972 44 24M34 6.67564V14M34 6.67564H41.3244M41.3244 34C37.8663 39.978 31.4028 44 24 44M41.3244 34H34M41.3244 34V41.3244M14 41.3244C8.02199 37.8663 4 31.4028 4 24M14 41.3244V34M14 41.3244H6.67564M6.67564 14C10.1337 8.02199 16.5972 4 24 4M6.67564 14H14M6.67564 14V6.67564" stroke="black" stroke-width="4" stroke-linecap="round" stroke-linejoin="round"/>
</svg>
