<svg width="48" height="48" viewBox="0 0 48 48" fill="none" xmlns="http://www.w3.org/2000/svg">
<path d="M0 0H48V48H0V0Z" fill="white" fill-opacity="0.01"/>
<path d="M35 33.2426L33.5857 31.8284C33.426 31.9881 33.2945 32.1737 33.1968 32.3773L35 33.2426ZM9.99077 26C9.99077 27.1046 10.8862 28 11.9908 28C13.0953 28 13.9908 27.1046 13.9908 26H9.99077ZM41.1213 22.8787L39.707 24.2929L41.1213 22.8787ZM41.1213 27.1213L42.5355 28.5355L42.5355 28.5355L41.1213 27.1213ZM30 29.7573L28 29.7565C27.9996 30.5656 28.4868 31.2951 29.2342 31.6049C29.9816 31.9147 30.8421 31.7436 31.4142 31.1715L30 29.7573ZM30.0097 7.01313L32.0097 7.01399V7.01313H30.0097ZM27.0069 4.01038L27.0069 2.01038L27.0063 2.01038L27.0069 4.01038ZM27.0038 4.01038L27.0032 2.01038L27.0017 2.01038L27.0038 4.01038ZM38.9837 22L38.973 20L38.9837 22ZM41.9999 25L43.9999 25L41.9999 25ZM35 33.2426C33.1968 32.3773 33.1969 32.3771 33.197 32.3768C33.1971 32.3768 33.1971 32.3766 33.1972 32.3766C33.1972 32.3765 33.1972 32.3766 33.1971 32.3768C33.1968 32.3773 33.1963 32.3784 33.1955 32.3801C33.1938 32.3836 33.1909 32.3896 33.1868 32.398C33.1786 32.4149 33.1655 32.4415 33.1479 32.4772C33.1126 32.5487 33.0588 32.6564 32.9879 32.7952C32.846 33.073 32.6363 33.4741 32.3697 33.9572C31.8343 34.9274 31.0803 36.2087 30.1963 37.4791C29.303 38.763 28.3261 39.9638 27.3571 40.823C26.3374 41.7272 25.6111 42.0003 25.191 42.0003V46.0003C27.0943 46.0003 28.7558 44.9288 30.0109 43.8159C31.3167 42.658 32.5016 41.1694 33.4797 39.7638C34.4671 38.3448 35.2941 36.9367 35.8718 35.8898C36.1618 35.3644 36.3916 34.925 36.5502 34.6145C36.6296 34.4592 36.6912 34.3358 36.7338 34.2496C36.7551 34.2065 36.7716 34.1727 36.7832 34.1489C36.789 34.137 36.7936 34.1275 36.7969 34.1207C36.7986 34.1172 36.7999 34.1145 36.801 34.1123C36.8015 34.1112 36.8019 34.1103 36.8023 34.1096C36.8024 34.1092 36.8026 34.1088 36.8027 34.1086C36.8029 34.1082 36.8031 34.1079 35 33.2426ZM25.191 42.0003H13.3013V46.0003H25.191V42.0003ZM13.3013 42.0003C9.98519 42.0003 7.99078 39.177 7.99078 37.0604H3.99078C3.99078 41.1224 7.52123 46.0003 13.3013 46.0003V42.0003ZM7.99078 13.0094C7.99078 12.4571 8.4385 12.0094 8.99078 12.0094V8.0094C6.22935 8.0094 3.99078 10.248 3.99078 13.0094H7.99078ZM8.99078 12.0094H8.99985V8.0094H8.99078V12.0094ZM8.99985 12.0094C9.54712 12.0094 9.99077 12.453 9.99077 13.0003H13.9908C13.9908 10.2439 11.7563 8.0094 8.99985 8.0094V12.0094ZM9.99077 13.0003V26H13.9908V13.0003H9.99077ZM35.4644 21.4644L28.5857 28.3431L31.4142 31.1715L38.2928 24.2929L35.4644 21.4644ZM39.707 25.7071L33.5857 31.8284L36.4142 34.6568L42.5355 28.5355L39.707 25.7071ZM32 29.7582L32.0097 7.01399L28.0097 7.01228L28 29.7565L32 29.7582ZM32.0097 7.01313C32.0097 4.25019 29.7698 2.01038 27.0069 2.01038V6.01038C27.5607 6.01038 28.0097 6.45933 28.0097 7.01313H32.0097ZM27.0063 2.01038L27.0032 2.01038L27.0044 6.01038L27.0075 6.01038L27.0063 2.01038ZM27.0017 2.01038C24.2374 2.01323 21.9979 4.25498 21.9979 7.01934H25.9979C25.9979 6.46251 26.449 6.01095 27.0059 6.01038L27.0017 2.01038ZM21.9979 7.01934V25.023H25.9979V7.01934H21.9979ZM38.2928 24.2929C38.4872 24.0985 38.7374 24.0014 38.9945 24L38.973 20C37.7053 20.0068 36.4334 20.4955 35.4644 21.4644L38.2928 24.2929ZM38.9945 24C39.2554 23.9986 39.51 24.0959 39.707 24.2929L42.5355 21.4644C41.5526 20.4816 40.2584 19.9931 38.973 20L38.9945 24ZM39.707 24.2929C39.9027 24.4885 39.9999 24.741 39.9999 25L43.9999 25C43.9999 23.7235 43.5114 22.4404 42.5355 21.4644L39.707 24.2929ZM39.9999 25C39.9999 25.259 39.9027 25.5114 39.707 25.7071L42.5355 28.5355C43.5114 27.5596 43.9999 26.2765 43.9999 25L39.9999 25ZM15.9999 22V28H19.9999V22H15.9999ZM13.9999 28V22H9.99994V28H13.9999ZM14.9999 29C14.4477 29 13.9999 28.5523 13.9999 28H9.99994C9.99994 30.7614 12.2385 33 14.9999 33V29ZM15.9999 28C15.9999 28.5523 15.5522 29 14.9999 29V33C17.7614 33 19.9999 30.7614 19.9999 28H15.9999ZM14.9999 21C15.5522 21 15.9999 21.4477 15.9999 22H19.9999C19.9999 19.2386 17.7614 17 14.9999 17V21ZM14.9999 17C12.2385 17 9.99994 19.2386 9.99994 22H13.9999C13.9999 21.4477 14.4477 21 14.9999 21V17ZM20.9999 29C20.4477 29 19.9999 28.5523 19.9999 28H15.9999C15.9999 30.7614 18.2385 33 20.9999 33V29ZM21.9999 28C21.9999 28.5523 21.5522 29 20.9999 29V33C23.7614 33 25.9999 30.7614 25.9999 28H21.9999ZM20.9999 21C21.5522 21 21.9999 21.4477 21.9999 22H25.9999C25.9999 19.2386 23.7614 17 20.9999 17V21ZM20.9999 17C18.2385 17 15.9999 19.2386 15.9999 22H19.9999C19.9999 21.4477 20.4477 21 20.9999 21V17ZM7.99078 37.0604V13.0094H3.99078V37.0604H7.99078ZM21.9999 22V25H25.9999V22H21.9999ZM21.9999 25V28H25.9999V25H21.9999Z" fill="black"/>
</svg>
