<?xml version="1.0" encoding="UTF-8"?>
<svg width="48px" height="48px" viewBox="0 0 48 48" version="1.1" xmlns="http://www.w3.org/2000/svg" xmlns:xlink="http://www.w3.org/1999/xlink">
    <!-- Generator: Sketch 55.2 (78181) - https://sketchapp.com -->
    <title>rugby</title>
    <desc>Created with Sketch.</desc>
    <g id="rugby" stroke="none" stroke-width="1" fill="none" fill-rule="evenodd" stroke-linecap="round" stroke-linejoin="round">
        <rect width="48" height="48" fill="white" fill-opacity="0.01"/>
        <g id="编组" transform="translate(24.000000, 24.000000) rotate(-45.000000) translate(-24.000000, -24.000000) translate(0.000000, 10.000000)" stroke="#000000" stroke-width="4">
            <ellipse id="椭圆形" cx="24" cy="14" rx="24" ry="14"></ellipse>
            <path d="M24,18 L24,10" id="Path-20" transform="translate(24.000000, 14.000000) rotate(180.000000) translate(-24.000000, -14.000000) "></path>
            <path d="M30,18 L30,10" id="Path-20" transform="translate(30.000000, 14.000000) rotate(180.000000) translate(-30.000000, -14.000000) "></path>
            <path d="M18,18 L18,10" id="Path-20" transform="translate(18.000000, 14.000000) rotate(180.000000) translate(-18.000000, -14.000000) "></path>
            <path d="M8,14.0083363 L40,14.0083363" id="路径-12"></path>
            <path d="M8,24 L8,4" id="Path-20" transform="translate(8.000000, 14.000000) rotate(180.000000) translate(-8.000000, -14.000000) "></path>
            <path d="M40,24 L40,4" id="Path-20" transform="translate(40.000000, 14.000000) rotate(180.000000) translate(-40.000000, -14.000000) "></path>
        </g>
    </g>
</svg>
