<svg width="48" height="48" viewBox="0 0 48 48" fill="none" xmlns="http://www.w3.org/2000/svg">
<path d="M38.1421 38.1422C41.7614 34.5229 44 29.5229 44 24C44 18.4772 41.7614 13.4772 38.1421 9.85791" stroke="black" stroke-width="4" stroke-linecap="round"/>
<path d="M9.85786 9.85791C6.23858 13.4772 4 18.4772 4 24C4 29.5229 6.23858 34.5229 9.85786 38.1422" stroke="black" stroke-width="4" stroke-linecap="round"/>
<path d="M15.1005 14.1006C12.567 16.6341 11 20.1341 11 24.0001C11 27.8661 12.567 31.3661 15.1005 33.8996" stroke="black" stroke-width="4" stroke-linecap="round"/>
<path d="M32.8994 33.8996C35.4329 31.3661 36.9999 27.8661 36.9999 24.0001C36.9999 20.1341 35.4329 16.6341 32.8994 14.1006" stroke="black" stroke-width="4" stroke-linecap="round"/>
<path d="M24 44V34" stroke="black" stroke-width="4" stroke-linecap="round" stroke-linejoin="round"/>
<path d="M24 4V14" stroke="black" stroke-width="4" stroke-linecap="round" stroke-linejoin="round"/>
<path d="M24 27C25.6569 27 27 25.6569 27 24C27 22.3431 25.6569 21 24 21C22.3431 21 21 22.3431 21 24C21 25.6569 22.3431 27 24 27Z" fill="black"/>
</svg>