<svg width="48" height="48" viewBox="0 0 48 48" fill="none" xmlns="http://www.w3.org/2000/svg">
<rect width="48" height="48" fill="white" fill-opacity="0.01"/>
<path d="M12 38H5C4.44772 38 4 37.5287 4 36.9474V19.0526C4 18.4713 4.44772 18 5 18H12" stroke="black" stroke-width="4" stroke-linecap="round" stroke-linejoin="round"/>
<path d="M36 18H43C43.5523 18 44 18.4713 44 19.0526V36.9474C44 37.5287 43.5523 38 43 38H36" stroke="black" stroke-width="4" stroke-linecap="round" stroke-linejoin="round"/>
<path d="M36 38.0001H12M12 30.9971H36H12Z" stroke="black" stroke-width="4" stroke-linecap="round" stroke-linejoin="round"/>
<path fill-rule="evenodd" clip-rule="evenodd" d="M12 38V8.46154C12 7.10207 13.0233 6 14.2857 6H33.7143C34.9767 6 36 7.10207 36 8.46154V38H12Z" stroke="black" stroke-width="4" stroke-linecap="round" stroke-linejoin="round"/>
<path fill-rule="evenodd" clip-rule="evenodd" d="M10 44C12.2091 44 14 42.2091 14 40C12.9028 40.0044 6.7003 40 6 40C6 42.2091 7.79086 44 10 44Z" fill="black"/>
<path fill-rule="evenodd" clip-rule="evenodd" d="M38 44C40.2091 44 42 42.2091 42 40C40.0954 39.9934 34.8627 40 34 40C34 42.2091 35.7909 44 38 44Z" fill="black"/>
</svg>
