<?xml version="1.0" encoding="UTF-8"?>
<svg width="48px" height="48px" viewBox="0 0 48 48" version="1.1" xmlns="http://www.w3.org/2000/svg" xmlns:xlink="http://www.w3.org/1999/xlink">
    <!-- Generator: Sketch 55.1 (78136) - https://sketchapp.com -->
    <title>speed1</title>
    <desc>Created with Sketch.</desc>
    <g id="speed1" stroke="none" stroke-width="1" fill="none" fill-rule="evenodd">
        <g id="编组">
            <rect id="矩形" fill-opacity="0.01" fill="#FFFFFF" x="0" y="0" width="48" height="58"></rect>
            <path d="M34.0234142,6.68920943 C31.0763953,4.97911987 27.6525405,4 24,4 C12.954305,4 4,12.954305 4,24 C4,35.045695 12.954305,44 24,44 C35.045695,44 44,35.045695 44,24 C44,20.3726952 43.034363,16.9709271 41.3461313,14.0377377" id="Oval-36" stroke="#000000" stroke-width="4" stroke-linecap="round" stroke-linejoin="round"></path>
            <path d="M26.6464466,28.8535534 C29.3131133,22.9929794 30.6464466,19.3263127 30.6464466,17.8535534 C30.6464466,15.6444144 28.8555856,13.8535534 26.6464466,13.8535534 C24.4373076,13.8535534 22.6464466,15.6444144 22.6464466,17.8535534 C22.6464466,19.3263127 23.9797799,22.9929794 26.6464466,28.8535534 Z" id="Oval" stroke="#000000" stroke-width="4" fill="#2F88FF" fill-rule="nonzero" stroke-linejoin="round" transform="translate(26.646447, 21.353553) scale(1, -1) rotate(-45.000000) translate(-26.646447, -21.353553) "></path>
        </g>
    </g>
</svg>