<?xml version="1.0" encoding="UTF-8"?>
<svg width="48px" height="48px" viewBox="0 0 48 48" version="1.1" xmlns="http://www.w3.org/2000/svg" xmlns:xlink="http://www.w3.org/1999/xlink">
    <!-- Generator: Sketch 55.1 (78136) - https://sketchapp.com -->
    <title>speed2</title>
    <desc>Created with Sketch.</desc>
    <g id="speed2" stroke="none" stroke-width="1" fill="none" fill-rule="evenodd">
        <g id="编组-2">
            <rect id="矩形" fill-opacity="0.01" fill="#FFFFFF" x="0" y="0" width="48" height="48"></rect>
            <g id="编组" transform="translate(3.000000, 3.000000)" stroke="#000000" stroke-linejoin="round" stroke-width="4">
                <path d="M22.087297,28.673682 C24.7539636,22.813108 26.087297,19.1464413 26.087297,17.673682 C26.087297,15.464543 24.296436,13.673682 22.087297,13.673682 C19.878158,13.673682 18.087297,15.464543 18.087297,17.673682 C18.087297,19.1464413 19.4206303,22.813108 22.087297,28.673682 Z" id="Oval" fill="#2F88FF" fill-rule="nonzero" transform="translate(22.087297, 21.173682) scale(1, -1) rotate(-44.000000) translate(-22.087297, -21.173682) "></path>
                <g id="Group-3" stroke-linecap="round">
                    <path d="M35.8492424,35.8492424 C39.6494949,32.0489899 42,26.7989899 42,21 C42,9.40202025 32.5979797,0 21,0 C9.40202025,0 0,9.40202025 0,21 C0,26.7989899 2.35050506,32.0489899 6.1507576,35.8492424" id="Shape"></path>
                </g>
                <path d="M21,1 L21,5" id="Path-48" stroke-linecap="round"></path>
                <path d="M34.2911352,7.40067337 L34.2911352,11.4006734" id="Path-48" stroke-linecap="round" transform="translate(34.291135, 9.400673) rotate(51.000000) translate(-34.291135, -9.400673) "></path>
                <path d="M37.5737745,21.7828559 L37.5737745,25.7828559" id="Path-48" stroke-linecap="round" transform="translate(37.573775, 23.782856) rotate(103.000000) translate(-37.573775, -23.782856) "></path>
                <path d="M4.42622549,21.7828559 L4.42622549,25.7828559" id="Path-48" stroke-linecap="round" transform="translate(4.426225, 23.782856) rotate(257.000000) translate(-4.426225, -23.782856) "></path>
                <path d="M7.7088648,7.40067337 L7.7088648,11.4006734" id="Path-48" stroke-linecap="round" transform="translate(7.708865, 9.400673) rotate(309.000000) translate(-7.708865, -9.400673) "></path>
            </g>
        </g>
    </g>
</svg>