<svg width="48" height="48" viewBox="0 0 48 48" fill="none" xmlns="http://www.w3.org/2000/svg">
<rect width="48" height="48" fill="white" fill-opacity="0.01"/>
<path d="M43 6H23H5" stroke="black" stroke-width="4" stroke-linecap="round" stroke-linejoin="round"/>
<path d="M23 29V6" stroke="black" stroke-width="4" stroke-linecap="round" stroke-linejoin="round"/>
<path d="M8.42505 19.5798L40.3006 28.1209L38.5582 30.7598L34.5558 37.9696L32.8134 40.6085L4.80158 33.1028L8.42505 19.5798Z" fill="#09C8E2"/>
<path d="M8.42505 19.5798L40.3006 28.1209L38.5582 30.7598L34.5558 37.9696L32.8134 40.6085L4.80158 33.1028L8.42505 19.5798Z" fill="#2F88FF"/>
<path d="M8.42505 19.5798L40.3006 28.1209L38.5582 30.7598L34.5558 37.9696L32.8134 40.6085L4.80158 33.1028L8.42505 19.5798Z" stroke="black" stroke-width="4" stroke-linecap="round" stroke-linejoin="round"/>
<path d="M38.5583 30.7598L42.422 31.7951L40.3515 39.5225L34.5559 37.9696" stroke="black" stroke-width="4" stroke-linecap="round" stroke-linejoin="round"/>
</svg>
