<svg width="48" height="48" viewBox="0 0 48 48" fill="none" xmlns="http://www.w3.org/2000/svg">
<path d="M21.4172 18.5828C19.3962 19.5481 18 21.6109 18 23.9999C18 27.3136 20.6863 29.9999 24 29.9999C26.389 29.9999 28.4519 28.6037 29.4172 26.5828" stroke="black" stroke-width="4" stroke-linecap="round" stroke-linejoin="round"/>
<path d="M28.2793 11.7207C26.9392 11.2538 25.4992 11 24 11C16.8203 11 11 16.8203 11 24C11 31.1797 16.8203 37 24 37C31.1797 37 37 31.1797 37 24C37 22.5008 36.7462 21.0608 36.2793 19.7207" stroke="black" stroke-width="4" stroke-linecap="round" stroke-linejoin="round"/>
<path d="M33.5675 6.43255C30.7255 4.88151 27.4657 4 24 4C12.9543 4 4 12.9543 4 24C4 35.0457 12.9543 44 24 44C35.0457 44 44 35.0457 44 24C44 20.5343 43.1185 17.2745 41.5675 14.4325" stroke="black" stroke-width="4" stroke-linecap="round" stroke-linejoin="round"/>
<path d="M44 4L24 24" stroke="black" stroke-width="4" stroke-linecap="round" stroke-linejoin="round"/>
</svg>