<?xml version="1.0" encoding="UTF-8"?>
<svg width="48px" height="48px" viewBox="0 0 48 48" version="1.1" xmlns="http://www.w3.org/2000/svg" xmlns:xlink="http://www.w3.org/1999/xlink">
    <!-- Generator: Sketch 55.2 (78181) - https://sketchapp.com -->
    <title>taxi</title>
    <desc>Created with Sketch.</desc>
    <g id="taxi" stroke="none" stroke-width="1" fill="none" fill-rule="evenodd">
        <g id="编组">
            <g id="car" transform="translate(4.000000, 11.000000)">
                <path d="M0,24 L0,16.7096591 C0,14.4362682 1.28486268,12.3581322 3.31860205,11.3421546 L4.00052612,11.0014917 L6.31046481,3.09193569 C6.73255871,1.28116768 8.34671607,0 10.2060289,0 L29.8943096,0 C31.7675242,0 33.3898545,1.29998174 33.7981404,3.12815989 L36.0031455,11.0014917 L36.6833687,11.3416171 C38.716025,12.3579864 40,14.4355394 40,16.7081367 L40,24 C40,25.6568542 38.6568542,27 37,27 L35.0031455,27 L35.0031455,28 C35.0031455,30.209139 33.2122845,32 31.0031455,32 C28.790861,32 27,30.209139 27,28 L27,27 L13,27 L13,28.0002631 C13,30.2092568 11.2092568,32 9.00026306,32 C6.79126935,32 5.00052612,30.2092568 5.00052612,28.0002631 L5.00052612,27 L3,27 C1.34314575,27 0,25.6568542 0,24 Z" id="路径" stroke="#000000" stroke-width="4" fill="#2F88FF" fill-rule="nonzero" stroke-linejoin="round"></path>
                <circle id="椭圆形" fill="#FFFFFF" cx="9.5" cy="19.5" r="2.5"></circle>
                <circle id="椭圆形" fill="#FFFFFF" cx="30.5" cy="19.5" r="2.5"></circle>
            </g>
            <rect id="矩形" fill-opacity="0.01" fill="#FFFFFF" x="0" y="0" width="48" height="48"></rect>
            <path d="M18,11 L30,11 L29.0088185,6.04409272 C28.8868085,5.43404265 28.3998325,5 27.8373941,5 L20.1626059,5 C19.6001675,5 19.1131915,5.43404265 18.9911815,6.04409272 L18,11 Z" id="路径" stroke="#000000" stroke-width="4" stroke-linecap="round" stroke-linejoin="round"></path>
            <path d="M15,23 L33,23" id="路径-13" stroke="#FFFFFF" stroke-width="4" stroke-linecap="round" stroke-linejoin="round"></path>
        </g>
    </g>
</svg>