<svg width="48" height="48" viewBox="0 0 48 48" fill="none" xmlns="http://www.w3.org/2000/svg">
<rect width="48" height="48" fill="white" fill-opacity="0.01"/>
<path d="M7 43H39L23 17L7 43Z" fill="#09C8E2"/>
<path d="M7 43H39L23 17L7 43Z" fill="#2F88FF"/>
<path d="M7 43H39L23 17L7 43Z" stroke="black" stroke-width="4" stroke-linecap="round" stroke-linejoin="round"/>
<path d="M18.0769 25L23 28L27.9231 25" stroke="black" stroke-width="4" stroke-linecap="round" stroke-linejoin="round"/>
<path d="M23 17V12V4" stroke="black" stroke-width="4" stroke-linecap="round" stroke-linejoin="round"/>
<path d="M35 4H23V12H35L32 8L35 4Z" fill="#09C8E2"/>
<path d="M35 4H23V12H35L32 8L35 4Z" fill="#2F88FF"/>
<path d="M35 4H23V12H35L32 8L35 4Z" stroke="black" stroke-width="4" stroke-linecap="round" stroke-linejoin="round"/>
</svg>
