<svg width="48" height="48" viewBox="0 0 48 48" fill="none" xmlns="http://www.w3.org/2000/svg">
<path d="M8 25V38C8 39.6569 9.34315 41 11 41H37C38.6569 41 40 39.6569 40 38V25" stroke="black" stroke-width="4" stroke-linecap="round" stroke-linejoin="round"/>
<path d="M5 15C5 13.8954 5.89543 13 7 13H41C42.1046 13 43 13.8954 43 15V23C43 24.1046 42.1046 25 41 25H7C5.89543 25 5 24.1046 5 23V15Z" fill="#2F88FF" stroke="black" stroke-width="4" stroke-linejoin="round"/>
<path d="M31 13V9C31 7.89543 30.1046 7 29 7H19C17.8954 7 17 7.89543 17 9V13" stroke="black" stroke-width="4" stroke-linecap="round" stroke-linejoin="round"/>
<path d="M15 23V29" stroke="black" stroke-width="4" stroke-linecap="round" stroke-linejoin="round"/>
<path d="M33 23V29" stroke="black" stroke-width="4" stroke-linecap="round" stroke-linejoin="round"/>
</svg>