<?xml version="1.0" encoding="UTF-8"?>
<svg width="48px" height="48px" viewBox="0 0 48 48" version="1.1" xmlns="http://www.w3.org/2000/svg" xmlns:xlink="http://www.w3.org/1999/xlink">
    <!-- Generator: Sketch 55.2 (78181) - https://sketchapp.com -->
    <title>usb</title>
    <desc>Created with Sketch.</desc>
    <g id="usb" stroke="none" stroke-width="1" fill="none" fill-rule="evenodd">
        <g id="编组">
            <rect id="矩形" fill-opacity="0.01" fill="#FFFFFF" x="0" y="0" width="48" height="48"></rect>
            <path d="M12,22 C14.209139,22 16,20.209139 16,18 C16,15.790861 14.209139,14 12,14 C9.790861,14 8,15.790861 8,18 C8,20.209139 9.790861,22 12,22 Z" id="Oval-8" stroke="#000000" stroke-width="4" fill="#2F88FF" fill-rule="nonzero" stroke-linejoin="round"></path>
            <path d="M36,28 C38.209139,28 40,26.209139 40,24 C40,21.790861 38.209139,20 36,20 C33.790861,20 32,21.790861 32,24 C32,26.209139 33.790861,28 36,28 Z" id="Oval-8-Copy-3" stroke="#000000" stroke-width="4" fill="#2F88FF" fill-rule="nonzero" stroke-linejoin="round"></path>
            <polyline id="Path-2" stroke="#000000" stroke-width="4" stroke-linecap="round" stroke-linejoin="round" points="19 9 24 4 29 9"></polyline>
            <polyline id="Path-3" stroke="#000000" stroke-width="4" stroke-linecap="round" stroke-linejoin="round" points="25 39 12 28.2631579 12 22"></polyline>
            <polyline id="Path-4" stroke="#000000" stroke-width="4" stroke-linecap="round" stroke-linejoin="round" points="36 28 36 32.7894737 24 41"></polyline>
            <path d="M24,4 L24,43" id="Path-5" stroke="#000000" stroke-width="4" stroke-linecap="round" stroke-linejoin="round"></path>
            <path d="M21,44 L27,44" id="路径-11" stroke="#000000" stroke-width="4" stroke-linecap="round" stroke-linejoin="round"></path>
        </g>
    </g>
</svg>