<svg width="48" height="48" viewBox="0 0 48 48" fill="none" xmlns="http://www.w3.org/2000/svg">
<rect width="48" height="48" fill="white" fill-opacity="0.01"/>
<path d="M34.9563 31L30.9999 44H16.9999L13.0436 31" stroke="black" stroke-width="4" stroke-linecap="round" stroke-linejoin="round"/>
<path d="M13.0436 17L16.9999 4H30.9999L34.9563 17" stroke="black" stroke-width="4" stroke-linecap="round" stroke-linejoin="round"/>
<path d="M24 17V24L28 28" stroke="black" stroke-width="4" stroke-linecap="round" stroke-linejoin="round"/>
<path d="M37 24C37 26.5773 36.25 28.9794 34.9564 31C32.6462 34.6083 28.6024 37 24 37C19.3976 37 15.3538 34.6083 13.0436 31C11.75 28.9794 11 26.5773 11 24C11 21.4227 11.75 19.0206 13.0436 17C15.3538 13.3917 19.3976 11 24 11C28.6024 11 32.6462 13.3917 34.9564 17C36.25 19.0206 37 21.4227 37 24Z" stroke="black" stroke-width="4" stroke-linecap="round" stroke-linejoin="round"/>
</svg>
