<svg width="48" height="48" viewBox="0 0 48 48" fill="none" xmlns="http://www.w3.org/2000/svg">
<rect width="48" height="48" fill="white" fill-opacity="0.01"/>
<circle cx="15" cy="10" r="4" fill="#09C8E2"/>
<circle cx="15" cy="10" r="4" fill="#2F88FF"/>
<circle cx="15" cy="10" r="4" stroke="black" stroke-width="4" stroke-linecap="round" stroke-linejoin="round"/>
<circle cx="33" cy="10" r="4" fill="#09C8E2"/>
<circle cx="33" cy="10" r="4" fill="#2F88FF"/>
<circle cx="33" cy="10" r="4" stroke="black" stroke-width="4" stroke-linecap="round" stroke-linejoin="round"/>
<path d="M10 20H20L18 42H12L10 20Z" fill="#09C8E2"/>
<path d="M10 20H20L18 42H12L10 20Z" fill="#2F88FF"/>
<path d="M10 20H20L18 42H12L10 20Z" stroke="black" stroke-width="4" stroke-linecap="round" stroke-linejoin="round"/>
<path d="M28 20H38L36 42H30L28 20Z" fill="#09C8E2"/>
<path d="M28 20H38L36 42H30L28 20Z" fill="#2F88FF"/>
<path d="M28 20H38L36 42H30L28 20Z" stroke="black" stroke-width="4" stroke-linecap="round" stroke-linejoin="round"/>
</svg>
