<svg width="48" height="48" viewBox="0 0 48 48" fill="none" xmlns="http://www.w3.org/2000/svg">
<rect width="48" height="48" fill="white" fill-opacity="0.01"/>
<path d="M24 4L31.2 11.5292L41.3205 14L38.4 24L41.3205 34L31.2 36.4708L24 44L16.8 36.4708L6.67949 34L9.6 24L6.67949 14L16.8 11.5292L24 4Z" stroke="black" stroke-width="4" stroke-linecap="round" stroke-linejoin="round"/>
<path d="M30.9773 11.915L31.3719 19.7438L37.9545 24L31.3719 28.2561L30.9773 36.0849L24 32.5122L17.0228 36.0849L16.6282 28.2561L10.0455 24L16.6282 19.7438L17.0228 11.915L24 15.4877L30.9773 11.915Z" fill="#09C8E2"/>
<path d="M30.9773 11.915L31.3719 19.7438L37.9545 24L31.3719 28.2561L30.9773 36.0849L24 32.5122L17.0228 36.0849L16.6282 28.2561L10.0455 24L16.6282 19.7438L17.0228 11.915L24 15.4877L30.9773 11.915Z" fill="#2F88FF"/>
<path d="M30.9773 11.915L31.3719 19.7438L37.9545 24L31.3719 28.2561L30.9773 36.0849L24 32.5122L17.0228 36.0849L16.6282 28.2561L10.0455 24L16.6282 19.7438L17.0228 11.915L24 15.4877L30.9773 11.915Z" stroke="black" stroke-width="4" stroke-linecap="round" stroke-linejoin="round"/>
</svg>
