<svg width="48" height="48" viewBox="0 0 48 48" fill="none" xmlns="http://www.w3.org/2000/svg">
<rect width="48" height="48" fill="white" fill-opacity="0.01"/>
<path d="M43.9014 36H4.09888C5.10233 25.8934 13.6294 18 24.0001 18C34.3708 18 42.8979 25.8934 43.9014 36Z" fill="#09C8E2"/>
<path d="M43.9014 36H4.09888C5.10233 25.8934 13.6294 18 24.0001 18C34.3708 18 42.8979 25.8934 43.9014 36Z" fill="#2F88FF"/>
<path d="M43.9014 36H4.09888C5.10233 25.8934 13.6294 18 24.0001 18C34.3708 18 42.8979 25.8934 43.9014 36Z" stroke="black" stroke-width="4" stroke-linejoin="round"/>
<path d="M14 20L10 13" stroke="black" stroke-width="4" stroke-linecap="round" stroke-linejoin="round"/>
<path d="M33 20L37 13" stroke="black" stroke-width="4" stroke-linecap="round" stroke-linejoin="round"/>
<circle cx="15" cy="29" r="2" fill="white"/>
<circle cx="33" cy="29" r="2" fill="white"/>
</svg>
