<svg width="48" height="48" viewBox="0 0 48 48" fill="none" xmlns="http://www.w3.org/2000/svg">
<path d="M39 6H9C7.34315 6 6 7.34315 6 9V39C6 40.6569 7.34315 42 9 42H39C40.6569 42 42 40.6569 42 39V9C42 7.34315 40.6569 6 39 6Z" fill="#2F88FF" stroke="black" stroke-width="4"/>
<path d="M28 13L21.5 24L19.875 26.75L19.0625 28.125" stroke="white" stroke-width="4" stroke-linecap="round" stroke-linejoin="round"/>
<path d="M15 35L15.8125 33.625" stroke="white" stroke-width="4" stroke-linecap="round" stroke-linejoin="round"/>
<path d="M12 29L23 29" stroke="white" stroke-width="4" stroke-linecap="round" stroke-linejoin="round"/>
<path d="M30 29H36" stroke="white" stroke-width="4" stroke-linecap="round" stroke-linejoin="round"/>
<path d="M19 13L22.5 18.5L23.375 19.875" stroke="white" stroke-width="4" stroke-linecap="round" stroke-linejoin="round"/>
<path d="M33 35L29.5 29.5L27.75 26.75L26.875 25.375" stroke="white" stroke-width="4" stroke-linecap="round" stroke-linejoin="round"/>
</svg>