<svg width="48" height="48" viewBox="0 0 48 48" fill="none" xmlns="http://www.w3.org/2000/svg">
<path fill-rule="evenodd" clip-rule="evenodd" d="M12 24C17 24 20 21.2 20 17C20 12.8 17 10 12 10C7 10 4 10 4 10V24H12Z" stroke="black" stroke-width="4" stroke-linecap="round" stroke-linejoin="round"/>
<path fill-rule="evenodd" clip-rule="evenodd" d="M13.0312 40C18.5368 40 22 37 22 32C22 27 18.5368 24 13.0312 24H4V40H13.0312Z" stroke="black" stroke-width="4" stroke-linecap="round" stroke-linejoin="round"/>
<path d="M29 31H44C44 27 42 22 36 22C31 22 28 26 28 31C28 36 31 40 36 40C41 40 43 37 43 37" stroke="black" stroke-width="4" stroke-linecap="round" stroke-linejoin="round"/>
<path d="M42 15H30" stroke="black" stroke-width="4" stroke-linecap="round" stroke-linejoin="round"/>
</svg>