<svg width="48" height="48" viewBox="0 0 48 48" fill="none" xmlns="http://www.w3.org/2000/svg">
<rect width="48" height="48" fill="white" fill-opacity="0.01"/>
<path d="M8.00002 7.28206L19.5556 4L19.5555 16.7179L8 20L8.00002 7.28206Z" fill="#09C8E2"/>
<path d="M8.00002 7.28206L19.5556 4L19.5555 16.7179L8 20L8.00002 7.28206Z" fill="#2F88FF"/>
<path d="M8.00002 7.28206L19.5556 4L19.5555 16.7179L8 20L8.00002 7.28206Z" stroke="black" stroke-width="4" stroke-linecap="round" stroke-linejoin="round"/>
<path d="M8.00002 25.6752L19.5556 22.3932L19.5555 35.1111L8 38.3932L8.00002 25.6752Z" fill="#09C8E2"/>
<path d="M8.00002 25.6752L19.5556 22.3932L19.5555 35.1111L8 38.3932L8.00002 25.6752Z" fill="#2F88FF"/>
<path d="M8.00002 25.6752L19.5556 22.3932L19.5555 35.1111L8 38.3932L8.00002 25.6752Z" stroke="black" stroke-width="4" stroke-linecap="round" stroke-linejoin="round"/>
<path d="M24.889 21.0759L36.4445 18.2222L36.4445 41.1463L24.889 44L24.889 21.0759Z" fill="#09C8E2"/>
<path d="M24.889 21.0759L36.4445 18.2222L36.4445 41.1463L24.889 44L24.889 21.0759Z" fill="#2F88FF"/>
<path d="M24.889 21.0759L36.4445 18.2222L36.4445 41.1463L24.889 44L24.889 21.0759Z" stroke="black" stroke-width="4" stroke-linecap="round" stroke-linejoin="round"/>
</svg>
