<svg width="48" height="48" viewBox="0 0 48 48" fill="none" xmlns="http://www.w3.org/2000/svg">
<path fill-rule="evenodd" clip-rule="evenodd" d="M19.2782 12.14C21.181 12.4802 22.9856 12.9636 24.6924 13.5899C21.8825 13.6074 19.0791 14.7782 17.0541 17.103L16.8557 17.338C14.0164 20.8063 13.8258 25.7793 16.2839 29.4497L16.2224 29.3375C18.7497 33.9805 23.0519 38.0543 27.499 39.3643C31.0799 40.4191 34.4305 40.6989 37.5178 40.1993L37.5447 40.1811C33.8191 43.092 29.3272 44.553 24.831 44.5656H24.7149L24.2838 44.56C18.9676 44.4356 13.6883 42.2862 9.70805 38.1144L9.37863 37.7609C5.80885 33.8395 4.01583 28.845 4 23.8458V23.7129L4.00633 23.2584C4.09466 19.6851 5.09141 16.1308 6.99642 12.986L6.9277 13.0052C11.431 11.7594 15.5469 11.4727 19.2782 12.14ZM29.8165 32.6328C31.3625 31.897 33.2256 32.2537 34.4485 33.4761L39.4604 38.4855L39.1209 38.8174C39.0934 38.8437 39.0659 38.8699 39.0383 38.8959C35.6475 39.8087 31.8914 39.663 27.7688 38.4486C24.7892 37.5709 22.2332 35.4184 19.9509 32.7704L19.9015 32.7431C22.9258 34.3813 26.604 34.377 29.6249 32.7305L29.8165 32.6328ZM24.7544 2.99994L25.1975 3.00471C30.3656 3.11518 35.5015 5.14197 39.4455 9.08599L34.4485 14.083L34.2924 14.2313C33.0178 15.3811 31.1429 15.6554 29.6249 14.8281L29.3639 14.6908C29.3141 14.6655 29.2642 14.6407 29.2142 14.6163C26.2909 12.9805 23.0341 11.8419 19.4463 11.2003C15.8761 10.5619 11.9853 10.7621 7.77611 11.797C8.35234 10.9768 8.99698 10.1901 9.70805 9.44472L10.0345 9.10999C14.0951 5.03678 19.4211 2.99994 24.7495 2.99994H24.7544Z" fill="black"/>
<path fill-rule="evenodd" clip-rule="evenodd" d="M41.549 17.3253L33.6594 21.8806L33.4435 22.0288C33.4435 22.0288 32.7681 22.4814 32.8427 23.4385C32.9079 24.2756 33.5043 24.6288 33.5043 24.6288L41.7348 29.3768C41.7348 29.3768 42.3796 29.7247 43.1811 29.2913C44.0774 28.8066 44.0162 27.8599 44.0162 27.8599V18.7503C44.0162 18.7503 44.0171 18.7404 44.0171 18.7227V18.698C44.0152 18.5127 43.9623 17.8792 43.3674 17.4409C43.02 17.185 42.6771 17.1049 42.3841 17.1049C41.8974 17.1054 41.549 17.3253 41.549 17.3253Z" fill="black"/>
</svg>