<svg width="48" height="48" viewBox="0 0 48 48" fill="none" xmlns="http://www.w3.org/2000/svg">
<rect width="48" height="48" fill="white" fill-opacity="0.01"/>
<path d="M44 24C44 35.0457 35.0457 44 24 44C12.9543 44 4 35.0457 4 24C4 12.9543 12.9543 4 24 4C35.0457 4 44 12.9543 44 24Z" fill="#09C8E2"/>
<path d="M44 24C44 35.0457 35.0457 44 24 44C12.9543 44 4 35.0457 4 24C4 12.9543 12.9543 4 24 4C35.0457 4 44 12.9543 44 24Z" fill="#2F88FF"/>
<path d="M44 24C44 35.0457 35.0457 44 24 44C12.9543 44 4 35.0457 4 24C4 12.9543 12.9543 4 24 4C35.0457 4 44 12.9543 44 24ZM44 24C41.0816 24 33.0312 22.8993 25.8265 26.0632C18 29.5002 12.3324 34.8315 9.86298 38.1473M4.15473 21.5C7.93251 21.7278 17.9333 21.9332 24.3333 19.1999C30.7333 16.4666 36.2406 11.4397 38.1295 9.84525M16.5 5.45379C19.6304 8.34268 26.4603 15.6985 29 23C31.5397 30.3015 32.4809 39.2791 33.0606 41.8347" stroke="black" stroke-width="4" stroke-linecap="round" stroke-linejoin="round"/>
</svg>
