<svg width="48" height="48" viewBox="0 0 48 48" fill="none" xmlns="http://www.w3.org/2000/svg">
<rect width="48" height="48" fill="white" fill-opacity="0.01"/>
<path fill-rule="evenodd" clip-rule="evenodd" d="M7.85351 24.1205C5.1939 20.9018 3.17643 17.1239 2 12.9881C4.36896 16.1997 7.24581 19.0066 10.5116 21.2881C15.9334 16.1977 23.2025 13.0832 31.1931 13.0804C36.4326 13.0812 41.0896 15.5486 44.0949 19.392C44.2644 19.5941 44.4213 19.8051 44.5661 20.0249C45.2379 21.0356 45.6676 22.2224 45.773 23.5033C44.5317 22.9555 43.2592 22.4769 41.956 22.0709C38.8614 21.1052 35.5909 20.546 32.2034 20.4539C31.8466 20.4438 31.5265 20.4395 31.2054 20.4395C27.4561 20.4395 23.8449 21.0101 20.4456 22.0702C18.8497 22.5677 17.3004 23.173 15.8067 23.8782C15.6385 23.9571 15.4715 24.0378 15.3043 24.1195C15.4723 24.2012 15.6418 24.2829 15.8117 24.3628C17.3032 25.0657 18.8505 25.671 20.4445 26.1675C23.8449 27.2276 27.4584 27.7993 31.2034 27.7993C31.5255 27.7993 31.8466 27.7952 32.1669 27.7861C35.5916 27.693 38.8624 27.1338 41.957 26.1701C43.2599 25.7631 44.5307 25.2855 45.7669 24.7397C45.6676 26.0145 45.2379 27.2003 44.5691 28.208C44.419 28.4351 44.2561 28.6527 44.0829 28.8611C41.0795 32.6984 36.4266 35.1606 31.2034 35.1618C23.2015 35.1588 15.9304 32.0433 10.5083 26.9517C7.24455 29.2322 4.36896 32.039 2.00126 35.2496C3.17845 31.115 5.1949 27.3379 7.85351 24.1205Z" fill="black"/>
<path fill-rule="evenodd" clip-rule="evenodd" d="M32.5971 27.3822C34.1267 26.9178 35.2547 26.1393 35.2547 24.2439C35.2547 22.3474 34.1267 21.2815 32.5961 20.8161C32.5852 20.813 32.5741 20.8097 32.5642 20.806C32.2799 20.723 31.9826 20.6786 31.6763 20.6786C31.9914 20.6786 32.3056 20.6833 32.619 20.6935C32.62 20.6935 32.6439 20.6935 32.6558 20.6946C35.9808 20.797 39.1407 21.4318 42.2285 22.4235C43.5076 22.8751 44.5604 23.204 45.7729 23.8094C45.7729 24.0471 45.7729 23.9754 45.7729 24.2061C45.7729 24.4382 45.7729 24.3131 45.7451 24.547C44.4218 25.1005 43.5083 25.4218 42.2295 25.8744C39.1555 26.7389 35.9815 27.4019 32.6578 27.5041C32.6449 27.5055 32.6319 27.5055 32.62 27.5055C32.3056 27.5156 31.9905 27.5201 31.6743 27.5201C31.9816 27.5201 32.2799 27.4754 32.5652 27.3927C32.5753 27.3893 32.5862 27.3859 32.5971 27.3822Z" fill="black"/>
</svg>
