<svg width="48" height="48" viewBox="0 0 48 48" fill="none" xmlns="http://www.w3.org/2000/svg">
<rect width="48" height="48" fill="white" fill-opacity="0.01"/>
<path fill-rule="evenodd" clip-rule="evenodd" d="M24 4C12.9543 4 4 12.9543 4 24C4 35.0457 12.9543 44 24 44C35.0457 44 44 35.0457 44 24C44 12.9543 35.0457 4 24 4ZM0 24C0 10.7452 10.7452 0 24 0C37.2548 0 48 10.7452 48 24C48 37.2548 37.2548 48 24 48C10.7452 48 0 37.2548 0 24Z" fill="black"/>
<path fill-rule="evenodd" clip-rule="evenodd" d="M19.183 45.4715C18.9896 45.2218 18.9896 42.9972 19.183 38.798C17.1112 38.8695 15.8022 38.7257 15.256 38.3666C14.4368 37.8279 13.6166 36.1666 12.8889 34.9958C12.1612 33.825 10.546 33.6399 9.8938 33.3782C9.24158 33.1164 9.07785 32.0495 11.691 32.8564C14.3042 33.6633 14.4316 35.8606 15.256 36.3744C16.0804 36.8882 18.0512 36.6634 18.9446 36.2518C19.8379 35.8402 19.7722 34.3077 19.9315 33.7006C20.1329 33.1339 19.423 33.0082 19.4074 33.0036C18.5353 33.0036 13.9537 32.0072 12.6952 27.5705C11.4368 23.1339 13.0579 20.234 13.9227 18.9874C14.4992 18.1563 14.4482 16.3851 13.7697 13.6736C16.2333 13.3588 18.1344 14.1342 19.4732 16C19.4745 16.0107 21.2283 14.9571 24 14.9571C26.7718 14.9571 27.7551 15.8153 28.514 16C29.2728 16.1847 29.8798 12.734 34.5666 13.6736C33.5881 15.5968 32.7686 18 33.3941 18.9874C34.0195 19.9748 36.4742 23.1146 34.9664 27.5705C33.9611 30.5412 31.9851 32.3522 29.0382 33.0036C28.7002 33.1114 28.5313 33.2854 28.5313 33.5254C28.5313 33.8855 28.9881 33.9248 29.6463 35.6116C30.085 36.7361 30.1167 39.9479 29.7413 45.2469C28.7904 45.489 28.0506 45.6515 27.5219 45.7346C26.5845 45.8819 25.5667 45.9645 24.5666 45.9964C23.5666 46.0283 23.2193 46.0247 21.8368 45.896C20.9151 45.8102 20.0305 45.6687 19.183 45.4715Z" fill="black"/>
</svg>
