<svg width="48" height="48" viewBox="0 0 48 48" fill="none" xmlns="http://www.w3.org/2000/svg">
<rect width="48" height="48" fill="white" fill-opacity="0.01"/>
<path fill-rule="evenodd" clip-rule="evenodd" d="M41.0721 5.99408L3.31119 16.5187L12.3861 25.8126L20.8003 25.9594L30.4832 16.5187C30.2271 15.9943 30.099 15.5552 30.099 15.2013C30.099 14.4074 30.4108 13.7786 30.8952 13.333C31.7246 12.57 32.7226 12.4558 33.8894 12.9905L41.0721 5.99408Z" fill="black"/>
<path fill-rule="evenodd" clip-rule="evenodd" d="M42.1028 6.72849L31.5782 44.4894L22.2844 35.4145L22.1375 27.0003L31.5122 17.4817C32.0202 17.8455 32.575 18.0106 33.1766 17.9769C34.0791 17.9264 34.6621 17.3814 34.9356 17.0603C35.2091 16.7393 35.53 16.2052 35.5033 15.4114C35.4854 14.8822 35.3116 14.3941 34.982 13.9473L42.1028 6.72849Z" fill="black"/>
</svg>
