<svg width="48" height="48" viewBox="0 0 48 48" fill="none" xmlns="http://www.w3.org/2000/svg">
<rect width="48" height="48" fill="white" fill-opacity="0.01"/>
<path fill-rule="evenodd" clip-rule="evenodd" d="M24 3L24.3489 3.00285C35.7257 3.18912 45 12.4677 45 24.0738L44.9971 24.4238C44.8086 35.8365 35.4189 45 24 45L23.6511 44.9971C12.2743 44.8109 3 35.5316 3 24.0738C3 12.3493 12.4645 3 24 3ZM38.3795 25.3871L21.0667 29.7234C20.9031 29.7646 20.7389 29.7837 20.5776 29.7837L20.3895 29.7749C19.9542 29.7336 19.5478 29.5508 19.2294 29.2625L17.5405 35.141L17.5176 35.2716C17.3081 36.7881 19.0777 38.0278 20.9166 37.09L36.8999 27.9967L37.0914 27.882C38.2023 27.1815 38.6291 26.2588 38.3795 25.3871ZM17.9799 12.7779C16.7704 11.8504 14.8215 12.763 14.7143 14.8198L14.5981 33.2084C14.5891 34.6497 15.1893 35.563 16.1184 35.7937L21.0193 18.6331L21.0736 18.4693C21.2962 17.8829 21.7718 17.4535 22.337 17.2725L18.091 12.8703L17.9799 12.7779ZM21.0617 11.2793C19.8993 10.6675 18.887 10.7595 18.2574 11.4121L30.6688 24.2364C31.1534 24.7367 31.3249 25.4249 31.1884 26.0584L37.1238 24.5816L37.2594 24.5315C38.667 23.9479 38.8508 21.8039 37.1238 20.6831L21.2568 11.3878L21.0617 11.2793Z" fill="black"/>
</svg>
