<svg width="48" height="48" viewBox="0 0 48 48" fill="none" xmlns="http://www.w3.org/2000/svg">
<rect width="48" height="48" fill="white" fill-opacity="0.01"/>
<path d="M1.38649 27.2808C3.34881 36.6798 12.5108 42.7525 21.9457 40.9794L21.9398 40.9847C32.932 39.1893 38.0792 32.5475 42.2631 29.2233C44.4874 27.4561 45.6528 26.4232 46.7929 25.8277C46.7929 25.8273 46.7929 25.8273 46.7929 25.8273C46.0462 25.9535 45.5664 25.7263 44.922 25.4994C44.2108 25.2485 43.2988 24.9976 41.6079 25.2216C38.3848 25.6492 35.5645 28.871 35.5645 28.871L33.8454 30.3994C31.7852 31.9945 29.3378 33.158 26.6105 33.7226C23.4773 34.3708 20.3653 34.1491 17.5283 33.2229C16.3787 32.8475 15.275 32.3555 14.2323 31.7596C10.0056 29.3446 6.79602 25.2105 5.72617 20.0867C5.09542 17.0671 5.28499 14.0673 6.14192 11.3164C2.11343 15.3651 0.134037 21.2834 1.38649 27.2808Z" fill="black"/>
<path fill-rule="evenodd" clip-rule="evenodd" d="M21.9457 40.9794L21.9398 40.9847C32.932 39.1893 38.0792 32.5475 42.2631 29.2233C44.4874 27.4561 45.6528 26.4232 46.7929 25.8277C46.0462 25.9535 45.5664 25.7263 44.922 25.4994C44.2108 25.2485 43.2988 24.9976 41.6079 25.2216C38.3848 25.6492 35.5645 28.871 35.5645 28.871L33.8454 30.3994C31.7852 31.9945 29.3378 33.158 26.6105 33.7226C23.4773 34.3708 20.3653 34.1491 17.5283 33.2229C16.3787 32.8475 15.275 32.3555 14.2323 31.7596C10.0056 29.3446 6.79602 25.2105 5.72617 20.0867C5.09542 17.0671 5.28499 14.0673 6.14192 11.3164C2.11343 15.3651 0.134037 21.2834 1.38649 27.2808C3.34881 36.6798 12.5108 42.7525 21.9457 40.9794Z" fill="black"/>
<path fill-rule="evenodd" clip-rule="evenodd" d="M35.7488 28.5861C33.0742 37.9321 23.2964 43.3507 13.9086 40.6879C5.72338 38.367 0.537579 30.6683 1.11572 22.5388C1.79561 28.9823 6.31232 34.6762 12.9541 36.5597C21.6767 39.0343 30.762 33.9994 33.2471 25.3148C33.9653 22.8043 34.0532 20.2636 33.6046 17.8602C33.0555 14.9191 31.7028 12.1836 29.718 9.96094C32.2858 11.9843 34.2228 14.6737 35.3403 17.6917C36.591 21.0694 36.8153 24.8585 35.7488 28.5861Z" fill="black"/>
<path d="M27.4591 32.4684L27.9867 33.387L28.8427 33.0346L29.6329 32.6822C31.2258 31.8876 31.1507 32.0078 33.0672 30.7389C34.9837 29.47 35.9952 28.6989 37.4681 26.9248L36.6488 26.2754C35.6803 27.4972 34.6115 28.4137 32.7797 29.6265C31.625 30.391 29.8495 31.34 27.4591 32.4684Z" fill="white"/>
<path fill-rule="evenodd" clip-rule="evenodd" d="M18.6961 6.11816C21.0452 6.11816 23.3253 6.58757 25.4232 7.45286C16.7522 9.90027 11.2733 18.5291 12.8711 27.443C12.8722 27.4472 12.8729 27.4521 12.8732 27.4562C12.8976 27.5908 12.9234 27.7253 12.9509 27.8594C12.9527 27.8685 12.9544 27.8779 12.9565 27.8866C12.9603 27.9051 12.9635 27.9236 12.9673 27.942C12.9914 28.057 13.0172 28.171 13.0433 28.2846C13.0485 28.3065 13.0537 28.3281 13.059 28.3505C13.0698 28.3975 13.0806 28.4445 13.0942 28.4947C13.2715 29.2224 13.4943 29.9322 13.7598 30.6211C10.8093 28.5201 8.88121 25.9542 7.63998 23.2817C5.98964 19.7284 5.75005 15.6341 7.03241 10.4822C9.25017 8.54145 11.9862 7.12924 15.0819 6.4886C15.3259 6.43772 15.5698 6.39382 15.8137 6.35409C16.7808 6.19518 17.744 6.11816 18.6961 6.11816ZM5.38524 17.4173L5.39991 17.7682C5.32024 16.6813 5.34347 15.6048 5.46229 14.5496C5.3805 15.5336 5.3539 16.4903 5.38524 17.4173Z" fill="black"/>
</svg>
