<svg width="48" height="48" viewBox="0 0 48 48" fill="none" xmlns="http://www.w3.org/2000/svg">
<rect width="48" height="48" fill="white" fill-opacity="0.01"/>
<path d="M24 2C36.1503 2 46 11.8497 46 24C46 36.1503 36.1503 46 24 46C11.8497 46 1.99999 36.1503 1.99999 24C1.99999 11.8497 11.8497 2 24 2ZM24 6C14.0589 6 5.99999 14.0589 5.99999 24C5.99999 33.9411 14.0589 42 24 42C33.9411 42 42 33.9411 42 24C42 14.0589 33.9411 6 24 6ZM19.5334 12.6496L22.8657 13.3324C22.7748 13.9737 22.5584 14.6996 22.2164 15.5101C23.3062 15.1175 24.3489 14.8285 25.3438 14.6424C27.532 14.2332 29.2325 14 30.9182 14C32.604 14 33.9013 14.017 35.5465 15.3156C36.5701 16.1236 37.1999 17.1865 37.4358 18.5041L37.4803 18.7904V30.4072C37.4803 31.1829 37.2736 31.9836 36.8601 32.8093C36.4725 33.5834 35.7267 34.021 34.6228 34.1221L34.3972 34.1379H27.4855C27.0435 32.8462 27.0435 32.0836 27.4855 31.85C28.1484 31.4998 30.6963 32.4392 31.8154 31.85C32.5117 31.4835 32.8662 30.8012 32.8787 29.8031L32.8761 29.5844V18.6213C32.8761 16.9227 31.8371 15.7487 28.6363 15.9233C26.8988 16.018 24.8704 16.4495 22.5509 17.2176L23.3043 17.4468L24.2133 17.7562V18.0548C24.2133 18.5607 24.5892 18.9801 25.0791 19.0458L25.194 19.0546L31.8837 19.1836V21.0248H26.8828V23.3156H31.8837V24.7389H26.8282L26.8828 29.2064C27.3542 29.2422 27.819 29.1463 28.2773 28.9187C28.5845 28.766 28.8248 28.5447 28.9982 28.2547L28.6648 27.5955C28.6644 27.5948 28.6641 27.5941 28.6638 27.5934C28.4331 27.1354 28.5878 26.5843 29.006 26.309L29.1071 26.2505L30.256 25.6719C30.3016 25.6489 30.3489 25.6295 30.3975 25.6137C30.8854 25.4557 31.4065 25.6926 31.6147 26.148L31.6571 26.2568L32.3383 28.3595C32.4733 28.776 32.321 29.2267 31.9732 29.478L31.8736 29.5414L31.0483 30.001C31.0368 30.0074 31.0252 30.0136 31.0135 30.0195C30.556 30.2512 30.0045 30.0978 29.7283 29.6803L29.6696 29.5793L29.6571 29.5577C29.1512 30.1065 28.6721 30.5272 28.2198 30.8198C27.4712 31.3041 26.6636 31.6986 25.7324 31.761L25.4753 31.7696H20.659C20.2684 31.7696 19.5603 31.5162 18.833 30.8198C18.3886 30.3943 18.1182 29.7307 18.0219 28.829L18 28.5772V26.064H21.8099C21.8406 27.1508 21.9423 27.9885 22.115 28.5772C22.2763 29.1266 22.7036 29.3459 23.397 29.2352L23.5497 29.2064V24.7389H18V23.3156H23.5497V21.0248H22.4883L20.8061 23.129L18.9743 21.9706C20.1008 20.7007 20.7898 19.8783 21.0414 19.5035C21.2929 19.1286 21.2929 18.4829 21.0414 17.5663L21.084 17.733L21.0463 17.7484C20.3974 18.7291 19.5382 19.6796 18.4686 20.6L18.1175 20.8948L15.8201 18.6251C16.8662 17.8128 17.6319 17.0574 18.1175 16.3588C18.603 15.6602 19.075 14.4238 19.5334 12.6496ZM12.4791 18.3057L15.7577 21.3875C16.9469 22.5052 17.3329 24.2271 16.7519 25.7372L16.6706 25.933L13.2699 33.5488L9.52298 30.9452L14.2916 25.8954C14.3553 25.8279 14.4142 25.7561 14.468 25.6804C15.0756 24.825 14.9152 23.6554 14.1255 22.9921L13.9956 22.8917L10.5909 20.4733L12.4791 18.3057ZM14.5 12C15.8807 12 17 13.1193 17 14.5C17 15.8807 15.8807 17 14.5 17C13.1193 17 12 15.8807 12 14.5C12 13.1193 13.1193 12 14.5 12Z" fill="black"/>
</svg>
