<svg width="48" height="48" viewBox="0 0 48 48" fill="none" xmlns="http://www.w3.org/2000/svg">
<path d="M10 15.1142C10 13.8463 10.797 12.7154 11.991 12.2889L22.991 8.36036C23.6435 8.12733 24.3565 8.12733 25.009 8.36036L36.009 12.2889C37.203 12.7154 38 13.8463 38 15.1142V31.6041C38 32.4892 37.6101 33.3292 36.9082 33.8682C34.4672 35.7425 28.4345 40 24 40C19.5655 40 13.5328 35.7425 11.0918 33.8682C10.3899 33.3292 10 32.4892 10 31.6041V15.1142Z" fill="#2F88FF" stroke="black" stroke-width="4" stroke-linejoin="round"/>
<path d="M10 28C6.68629 28 4 24.8896 4 21.0526C4 17.2157 6.68629 16 10 16" stroke="black" stroke-width="4" stroke-linecap="round"/>
<path d="M38 28C41.3137 28 44 24.8896 44 21.0526C44 17.2157 41.3137 16 38 16" stroke="black" stroke-width="4" stroke-linecap="round"/>
<path d="M16 25L24 21L32 25" stroke="white" stroke-width="4" stroke-linecap="round" stroke-linejoin="round"/>
<path d="M19 31L24 29L29 31" stroke="white" stroke-width="4" stroke-linecap="round" stroke-linejoin="round"/>
</svg>