<svg width="48" height="48" viewBox="0 0 48 48" fill="none" xmlns="http://www.w3.org/2000/svg">
<rect width="48" height="48" fill="white" fill-opacity="0.01"/>
<path d="M14.5397 20.0186C12.8522 17.9434 11.2675 17.4979 9.78564 18.6821C7.5629 20.4583 6.92453 26.6496 8.71324 32.1086C10.502 37.5676 13.9801 45.0017 21.0016 45.0017C28.0231 45.0017 29.684 37.5222 32.5485 33.0001C35.413 28.478 36.9285 24.1152 34.1208 18.6821" stroke="black" stroke-width="4" stroke-linecap="round" stroke-linejoin="round"/>
<path d="M11 18.0368C9.29707 15.4428 7.96374 13.4306 6.99996 12.0002C5.5543 9.85464 9.25107 7.08164 11 8.96807C12.1659 10.2257 13.7148 12.078 15.6466 14.5249" stroke="black" stroke-width="4" stroke-linecap="round"/>
<path d="M15.0236 25.6396C14.5391 19.5759 14.9333 15.6276 16.2062 13.7947C18.1155 11.0455 21.6631 10.0031 25.0035 10.0031C26.9924 10.0031 28.8087 10.8502 30.4525 12.5444" stroke="black" stroke-width="4" stroke-linecap="round" stroke-linejoin="round"/>
<path fill-rule="evenodd" clip-rule="evenodd" d="M41.0003 12.6128C41.5858 14.6492 40.6294 16.5097 37.6844 16.931C34.7393 17.3523 32.5313 18.8332 30.9388 20.079C29.3463 21.3248 26.4983 25.1046 25.9361 27.0023C25.3738 28.9 22.1602 27.1547 21.2971 26.3971C20.434 25.6394 19.5855 23.9806 21.2971 22.2457C23.0086 20.5108 22.6383 20.1646 22.6383 18.4052C22.6383 16.6459 32.0003 10.8263 37.2729 10.2941C38.4449 10.2257 40.4147 10.5763 41.0003 12.6128Z" stroke="black" stroke-width="4"/>
<path d="M23.0078 4.00014V9.26283" stroke="black" stroke-width="4" stroke-linecap="round"/>
<path d="M20.3066 10.7178C17.2888 6.92534 14.8555 4.80868 13.0068 4.36781" stroke="black" stroke-width="4" stroke-linecap="round"/>
<path d="M17.0039 7.02894L17.9944 2.96156" stroke="black" stroke-width="4" stroke-linecap="round"/>
<path d="M35.6128 10.7174C35.2905 11.8219 35.2905 12.8575 35.6128 13.8241C35.935 14.7908 36.6255 15.8264 37.6842 16.9308" stroke="black" stroke-width="4" stroke-linecap="round"/>
</svg>
