<svg width="48" height="48" viewBox="0 0 48 48" fill="none" xmlns="http://www.w3.org/2000/svg">
<path d="M4 8C4 6.89543 4.89543 6 6 6H26C27.1046 6 28 6.89543 28 8V42H6C4.89543 42 4 41.1046 4 40V8Z" fill="#2F88FF" stroke="black" stroke-width="4" stroke-linejoin="round"/>
<path d="M21 42V33C21 31.3431 19.6569 30 18 30H14C12.3431 30 11 31.3431 11 33V42" stroke="white" stroke-width="4" stroke-linejoin="round"/>
<path d="M28 24H42C43.1046 24 44 24.8954 44 26V40C44 41.1046 43.1046 42 42 42H28V24Z" fill="#2F88FF" stroke="black" stroke-width="4" stroke-linejoin="round"/>
<path d="M12 18H20" stroke="white" stroke-width="4" stroke-linecap="round" stroke-linejoin="round"/>
<path d="M34 30H38" stroke="white" stroke-width="4" stroke-linecap="round" stroke-linejoin="round"/>
<path d="M34 36H38" stroke="white" stroke-width="4" stroke-linecap="round" stroke-linejoin="round"/>
<path d="M16 14V22" stroke="white" stroke-width="4" stroke-linecap="round" stroke-linejoin="round"/>
<path d="M7 42H25" stroke="black" stroke-width="4" stroke-linecap="round" stroke-linejoin="round"/>
</svg>