<svg width="48" height="48" viewBox="0 0 48 48" fill="none" xmlns="http://www.w3.org/2000/svg">
<rect width="48" height="48" fill="white" fill-opacity="0.01"/>
<path d="M16.0004 43.9998C14.5383 39.651 14.0665 35.9843 14.5849 32.9998C15.1033 30.0152 16.7154 28.0645 19.4211 27.1475C17.4078 33.2544 18.2328 37.7161 21.8962 40.5327C27.3912 44.7575 40.6336 42.8146 41.3511 28.5229C42.0686 14.2313 35.1948 3.91248 25.0302 3.91248C14.8656 3.91248 13.3462 14.9136 20.505 18.647C14.1711 20.0275 10.1518 22.861 8.44706 27.1475C6.74229 31.4341 6.60958 37.0515 8.04891 43.9998" stroke="black" stroke-width="4" stroke-linecap="round" stroke-linejoin="round"/>
<path d="M30.5997 14.9999C27.7023 16.7272 26.6522 18.3092 27.4494 19.7459C28.2466 21.1827 30.0547 21.1827 32.8737 19.7459" stroke="black" stroke-width="4" stroke-linecap="round" stroke-linejoin="round"/>
<path d="M33.2467 26.2403C29.5062 25.4782 27.257 25.7541 26.4991 27.068C25.3622 29.0388 30.3696 31.8941 32.1848 32.2509" stroke="black" stroke-width="4" stroke-linecap="round" stroke-linejoin="round"/>
</svg>
