<svg width="48" height="48" viewBox="0 0 48 48" fill="none" xmlns="http://www.w3.org/2000/svg">
<path d="M7 9.12739L24.0082 4L41 9.12739V19.6424C41 30.6945 34.153 40.5063 24.0025 44C13.8492 40.5064 7 30.6923 7 19.6376V9.12739Z" fill="#2F88FF" stroke="black" stroke-width="4" stroke-linejoin="round"/>
<path d="M24 30C27.866 30 31 26.866 31 23C31 19.134 27.866 16 24 16C20.134 16 17 19.134 17 23C17 26.866 20.134 30 24 30Z" fill="#43CCF8" stroke="white" stroke-width="4" stroke-linejoin="round"/>
<path d="M29 29L35 36" stroke="white" stroke-width="4" stroke-linecap="round" stroke-linejoin="round"/>
<path d="M41 19.6426C41 30.6946 34.153 40.5065 24.0024 44.0002" stroke="black" stroke-width="4" stroke-linejoin="round"/>
</svg>