<svg width="48" height="48" viewBox="0 0 48 48" fill="none" xmlns="http://www.w3.org/2000/svg">
<path fill-rule="evenodd" clip-rule="evenodd" d="M24 43C24.8653 43 26.8503 43 29.9551 43C30.0381 40.2631 30.4393 38.7582 31.1586 38.4852C38.6685 35.6357 44 28.434 44 20H4C4 28.2514 9.10319 35.3234 16.3568 38.2941C17.1151 38.6047 17.6815 40.1733 18.056 43C21.0857 43 23.067 43 24 43Z" fill="#2F88FF" stroke="black" stroke-width="4" stroke-linejoin="round"/>
<path d="M14.4434 27.0225C14.803 28.2103 15.2786 29.191 15.8702 29.9646C16.4484 30.7209 17.1619 31.4223 18.0104 32.0688" stroke="white" stroke-width="4" stroke-linecap="round"/>
<path d="M25.2139 20.0264C28.9697 12.2748 31.177 7.70521 31.8358 6.31775C32.8851 4.10791 35.0156 3.57614 36.9808 4.41569C38.9459 5.25524 39.7411 7.65828 38.9162 9.33311C38.4068 10.3675 36.6766 13.9245 33.7258 20.004" stroke="black" stroke-width="4" stroke-linecap="round"/>
</svg>