<svg width="48" height="48" viewBox="0 0 48 48" fill="none" xmlns="http://www.w3.org/2000/svg">
<path d="M0 0H48V48H0V0Z" fill="white" fill-opacity="0.01"/>
<path d="M32 18C31.0769 24 29 29.5 24.5 29.5C20 29.5 18.5 24.5 17 18C15.5 11.5 17 6 24.5 6C32 6 32.923 12 32 18Z" fill="#2F88FF" stroke="black" stroke-width="4"/>
<path d="M32.5 12.5C34.2499 10.8682 36.0328 10.3296 38.8405 10.5043C43.0519 10.7664 43.9999 13.648 43.9999 17.9564M43.9999 17.9564C43.9999 22.2648 42.3485 26.1825 39.0588 25.2961C35.7692 24.4097 36.2291 20.9096 37.7677 19.2686C39.3063 17.6276 41.9973 16.9589 43.9999 17.9564Z" stroke="black" stroke-width="4" stroke-linecap="round"/>
<path d="M16.5 12C14.7309 10.456 12.6403 10.3301 10.0869 10.5048C6.25672 10.7668 3.99996 13.6924 3.99996 18.0008M3.99996 18.0008C3.99996 22.3092 6.89649 26.1829 9.88826 25.2965C12.88 24.4101 12.4617 20.9101 11.0624 19.2691C9.66318 17.6281 5.82128 17.0033 3.99996 18.0008Z" stroke="black" stroke-width="4" stroke-linecap="round"/>
<path d="M20 27V43" stroke="black" stroke-width="4" stroke-linecap="round" stroke-linejoin="round"/>
<path d="M29 27V43" stroke="black" stroke-width="4" stroke-linecap="round" stroke-linejoin="round"/>
</svg>
