<svg width="48" height="48" viewBox="0 0 48 48" fill="none" xmlns="http://www.w3.org/2000/svg">
<rect width="48" height="48" fill="white" fill-opacity="0.01"/>
<path d="M15 14.3845C19.1254 15.9999 24.0083 15.9999 24.0083 15.9999C24.0083 15.9999 28.88 15.9999 33 14.3845C37.5017 19.6384 40.6564 26.5644 42.7297 32.3974C44.8286 38.3026 40.2005 43.9999 33.9334 43.9999H14.0197C7.76812 43.9999 3.14583 38.3287 5.23423 32.4363C7.29788 26.6137 10.4548 19.6854 15 14.3845Z" fill="#2F88FF" stroke="black" stroke-width="4" stroke-linejoin="round"/>
<path d="M18 28H30" stroke="white" stroke-width="4" stroke-linecap="round" stroke-linejoin="round"/>
<path d="M18 34H30" stroke="white" stroke-width="4" stroke-linecap="round" stroke-linejoin="round"/>
<path d="M24.0083 28V38" stroke="white" stroke-width="4" stroke-linecap="round" stroke-linejoin="round"/>
<path d="M30 22L24 28L18 22" stroke="white" stroke-width="4" stroke-linecap="round" stroke-linejoin="round"/>
<path fill-rule="evenodd" clip-rule="evenodd" d="M24 16C31.1797 16 37 13.3137 37 10C37 6.68629 31.1797 4 24 4C16.8203 4 11 6.68629 11 10C11 13.3137 16.8203 16 24 16Z" stroke="black" stroke-width="4" stroke-linecap="round" stroke-linejoin="round"/>
</svg>
