<svg width="48" height="48" viewBox="0 0 48 48" fill="none" xmlns="http://www.w3.org/2000/svg">
<rect width="48" height="48" fill="white" fill-opacity="0.01"/>
<ellipse cx="14" cy="10" rx="10" ry="5" stroke="black" stroke-width="4" stroke-linecap="round" stroke-linejoin="round"/>
<path d="M4 10C4 10 4 14.2386 4 17C4 19.7614 8.47715 22 14 22C19.5228 22 24 19.7614 24 17C24 15.3644 24 10 24 10" stroke="black" stroke-width="4" stroke-linecap="round" stroke-linejoin="round"/>
<path d="M4 17C4 17 4 21.2386 4 24C4 26.7614 8.47715 29 14 29C19.5228 29 24 26.7614 24 24C24 22.3644 24 17 24 17" stroke="black" stroke-width="4" stroke-linecap="round" stroke-linejoin="round"/>
<path d="M4 24C4 24 4 28.2386 4 31C4 33.7614 8.47715 36 14 36C19.5228 36 24 33.7614 24 31C24 29.3644 24 24 24 24" stroke="black" stroke-width="4" stroke-linecap="round" stroke-linejoin="round"/>
<path d="M4 31C4 31 4 35.2386 4 38C4 40.7614 8.47715 43 14 43C19.5228 43 24 40.7614 24 38C24 36.3644 24 31 24 31" stroke="black" stroke-width="4" stroke-linecap="round" stroke-linejoin="round"/>
<ellipse cx="34" cy="24" rx="10" ry="5" stroke="black" stroke-width="4" stroke-linecap="round" stroke-linejoin="round"/>
<path d="M24 24C24 24 24 28.2386 24 31C24 33.7614 28.4772 36 34 36C39.5228 36 44 33.7614 44 31C44 29.3644 44 24 44 24" stroke="black" stroke-width="4" stroke-linecap="round" stroke-linejoin="round"/>
<path d="M24 31C24 31 24 35.2386 24 38C24 40.7614 28.4772 43 34 43C39.5228 43 44 40.7614 44 38C44 36.3644 44 31 44 31" stroke="black" stroke-width="4" stroke-linecap="round" stroke-linejoin="round"/>
</svg>
