<svg width="48" height="48" viewBox="0 0 48 48" fill="none" xmlns="http://www.w3.org/2000/svg">
<path d="M4 13H44V37H4V13Z" stroke="black" stroke-width="4" stroke-linejoin="round"/>
<path fill-rule="evenodd" clip-rule="evenodd" d="M4 21C8.41828 21 12 17.4183 12 13H4V21Z" stroke="black" stroke-width="4" stroke-linecap="round" stroke-linejoin="round"/>
<path fill-rule="evenodd" clip-rule="evenodd" d="M4 29C8.41828 29 12 32.5817 12 37H4V29Z" stroke="black" stroke-width="4" stroke-linecap="round" stroke-linejoin="round"/>
<path fill-rule="evenodd" clip-rule="evenodd" d="M44 29V37H36C36 32.5817 39.5817 29 44 29Z" stroke="black" stroke-width="4" stroke-linecap="round" stroke-linejoin="round"/>
<path fill-rule="evenodd" clip-rule="evenodd" d="M44 21C39.5817 21 36 17.4183 36 13H44V21Z" stroke="black" stroke-width="4" stroke-linecap="round" stroke-linejoin="round"/>
<path d="M24 31C26.7614 31 29 28.3137 29 25C29 21.6863 26.7614 19 24 19C21.2386 19 19 21.6863 19 25C19 28.3137 21.2386 31 24 31Z" stroke="black" stroke-width="4" stroke-linejoin="round"/>
</svg>