<svg width="48" height="48" viewBox="0 0 48 48" fill="none" xmlns="http://www.w3.org/2000/svg">
<path fill-rule="evenodd" clip-rule="evenodd" d="M17.982 11.9689L31.7846 4L36.397 11.9889L17.982 11.9689Z" stroke="black" stroke-width="4" stroke-linecap="round" stroke-linejoin="round"/>
<path d="M4 14C4 12.8954 4.89543 12 6 12H42C43.1046 12 44 12.8954 44 14V42C44 43.1046 43.1046 44 42 44H6C4.89543 44 4 43.1046 4 42V14Z" fill="#2F88FF" stroke="black" stroke-width="4" stroke-linejoin="round"/>
<path d="M35.25 33H44V23H35.25C32.3505 23 30 25.2386 30 28C30 30.7614 32.3505 33 35.25 33Z" fill="#43CCF8" stroke="white" stroke-width="4" stroke-linejoin="round"/>
<path d="M44 16.5V40.5" stroke="black" stroke-width="4" stroke-linecap="round"/>
</svg>