<svg width="48" height="48" viewBox="0 0 48 48" fill="none" xmlns="http://www.w3.org/2000/svg">
<path fill-rule="evenodd" clip-rule="evenodd" d="M24 12C26.2091 12 28 10.2091 28 8C28 5.79086 26.2091 4 24 4C21.7909 4 20 5.79086 20 8C20 10.2091 21.7909 12 24 12Z" fill="#2F88FF" stroke="black" stroke-width="4" stroke-linecap="round" stroke-linejoin="round"/>
<path fill-rule="evenodd" clip-rule="evenodd" d="M24 28C26.2091 28 28 26.2091 28 24C28 21.7909 26.2091 20 24 20C21.7909 20 20 21.7909 20 24C20 26.2091 21.7909 28 24 28Z" fill="#2F88FF" stroke="black" stroke-width="4" stroke-linecap="round" stroke-linejoin="round"/>
<path fill-rule="evenodd" clip-rule="evenodd" d="M34.3925 18.0002C35.4971 19.9134 37.9434 20.5689 39.8566 19.4643C41.7698 18.3597 42.4253 15.9134 41.3207 14.0002C40.2161 12.087 37.7698 11.4315 35.8566 12.5361C33.9434 13.6407 33.2879 16.087 34.3925 18.0002Z" fill="#2F88FF" stroke="black" stroke-width="4" stroke-linecap="round" stroke-linejoin="round"/>
<path fill-rule="evenodd" clip-rule="evenodd" d="M34.3925 30.0002C33.2879 31.9134 33.9434 34.3597 35.8566 35.4643C37.7698 36.5689 40.2161 35.9134 41.3207 34.0002C42.4253 32.087 41.7698 29.6407 39.8566 28.5361C37.9434 27.4315 35.4971 28.087 34.3925 30.0002Z" fill="#2F88FF" stroke="black" stroke-width="4" stroke-linecap="round" stroke-linejoin="round"/>
<path fill-rule="evenodd" clip-rule="evenodd" d="M24 36C21.7909 36 20 37.7909 20 40C20 42.2091 21.7909 44 24 44C26.2091 44 28 42.2091 28 40C28 37.7909 26.2091 36 24 36Z" fill="#2F88FF" stroke="black" stroke-width="4" stroke-linecap="round" stroke-linejoin="round"/>
<path fill-rule="evenodd" clip-rule="evenodd" d="M13.6078 30.0002C12.5032 28.087 10.0569 27.4315 8.14373 28.5361C6.23056 29.6407 5.57506 32.087 6.67963 34.0002C7.7842 35.9134 10.2305 36.5689 12.1437 35.4643C14.0569 34.3597 14.7124 31.9134 13.6078 30.0002Z" fill="#2F88FF" stroke="black" stroke-width="4" stroke-linecap="round" stroke-linejoin="round"/>
<path fill-rule="evenodd" clip-rule="evenodd" d="M13.6078 18.0002C14.7124 16.087 14.0569 13.6407 12.1437 12.5361C10.2305 11.4315 7.7842 12.087 6.67963 14.0002C5.57506 15.9134 6.23056 18.3597 8.14373 19.4643C10.0569 20.5689 12.5032 19.9134 13.6078 18.0002Z" fill="#2F88FF" stroke="black" stroke-width="4" stroke-linecap="round" stroke-linejoin="round"/>
</svg>