<svg width="48" height="48" viewBox="0 0 48 48" fill="none" xmlns="http://www.w3.org/2000/svg">
<path d="M13.5 39.3706C16.3908 41.6439 20.0371 42.9999 24 42.9999C27.9629 42.9999 31.6092 41.6439 34.5 39.3706" stroke="black" stroke-width="4"/>
<path d="M19 9.74707C12.0513 11.8822 7 18.3511 7 25.9999C7 27.9247 7.31989 29.7748 7.9094 31.4999" stroke="black" stroke-width="4"/>
<path d="M29 9.74707C35.9487 11.8822 41 18.3511 41 25.9999C41 27.9247 40.6801 29.7748 40.0906 31.4999" stroke="black" stroke-width="4"/>
<path d="M43 36C43 37.3416 42.4716 38.5597 41.6117 39.4577C40.7015 40.4082 39.4199 41 38 41C35.2386 41 33 38.7614 33 36C33 33.9899 34.1861 32.2569 35.8967 31.4626C36.536 31.1657 37.2487 31 38 31C40.7614 31 43 33.2386 43 36Z" fill="#2F88FF" stroke="black" stroke-width="4" stroke-linecap="round" stroke-linejoin="round"/>
<path d="M15 36C15 37.3416 14.4716 38.5597 13.6117 39.4577C12.7015 40.4082 11.4199 41 10 41C7.23858 41 5 38.7614 5 36C5 33.9899 6.18614 32.2569 7.89667 31.4626C8.53604 31.1657 9.24867 31 10 31C12.7614 31 15 33.2386 15 36Z" fill="#2F88FF" stroke="black" stroke-width="4" stroke-linecap="round" stroke-linejoin="round"/>
<path d="M29 9C29 10.3416 28.4716 11.5597 27.6117 12.4577C26.7015 13.4082 25.4199 14 24 14C21.2386 14 19 11.7614 19 9C19 6.98991 20.1861 5.25686 21.8967 4.4626C22.536 4.16572 23.2487 4 24 4C26.7614 4 29 6.23858 29 9Z" fill="#2F88FF" stroke="black" stroke-width="4" stroke-linecap="round" stroke-linejoin="round"/>
</svg>