<svg width="48" height="48" viewBox="0 0 48 48" fill="none" xmlns="http://www.w3.org/2000/svg">
<rect width="48" height="48" fill="white" fill-opacity="0.01"/>
<path fill-rule="evenodd" clip-rule="evenodd" d="M24 12C26.2091 12 28 10.2091 28 8C28 5.79086 26.2091 4 24 4C21.7909 4 20 5.79086 20 8C20 10.2091 21.7909 12 24 12Z" fill="#2F88FF" stroke="black" stroke-width="4" stroke-linecap="round" stroke-linejoin="round"/>
<path fill-rule="evenodd" clip-rule="evenodd" d="M24 28C26.2091 28 28 26.2091 28 24C28 21.7909 26.2091 20 24 20C21.7909 20 20 21.7909 20 24C20 26.2091 21.7909 28 24 28Z" fill="#2F88FF" stroke="black" stroke-width="4" stroke-linecap="round" stroke-linejoin="round"/>
<path fill-rule="evenodd" clip-rule="evenodd" d="M34.3924 18C35.4969 19.9132 37.9433 20.5687 39.8565 19.4641C41.7696 18.3595 42.4251 15.9132 41.3206 14C40.216 12.0868 37.7696 11.4313 35.8565 12.5359C33.9433 13.6405 33.2878 16.0868 34.3924 18Z" fill="#2F88FF" stroke="black" stroke-width="4" stroke-linecap="round" stroke-linejoin="round"/>
<path fill-rule="evenodd" clip-rule="evenodd" d="M34.3924 30C33.2878 31.9132 33.9433 34.3595 35.8565 35.4641C37.7696 36.5687 40.216 35.9132 41.3206 34C42.4251 32.0868 41.7696 29.6405 39.8565 28.5359C37.9433 27.4313 35.4969 28.0868 34.3924 30Z" fill="#2F88FF" stroke="black" stroke-width="4" stroke-linecap="round" stroke-linejoin="round"/>
<path fill-rule="evenodd" clip-rule="evenodd" d="M24 36C21.7909 36 20 37.7909 20 40C20 42.2091 21.7909 44 24 44C26.2091 44 28 42.2091 28 40C28 37.7909 26.2091 36 24 36Z" fill="#2F88FF" stroke="black" stroke-width="4" stroke-linecap="round" stroke-linejoin="round"/>
<path fill-rule="evenodd" clip-rule="evenodd" d="M13.6076 30C12.5031 28.0868 10.0567 27.4313 8.14354 28.5359C6.23037 29.6405 5.57487 32.0868 6.67944 34C7.78401 35.9132 10.2304 36.5687 12.1435 35.4641C14.0567 34.3595 14.7122 31.9132 13.6076 30Z" fill="#2F88FF" stroke="black" stroke-width="4" stroke-linecap="round" stroke-linejoin="round"/>
<path fill-rule="evenodd" clip-rule="evenodd" d="M13.6076 18C14.7122 16.0868 14.0567 13.6405 12.1435 12.5359C10.2304 11.4313 7.78401 12.0868 6.67944 14C5.57487 15.9132 6.23037 18.3595 8.14354 19.4641C10.0567 20.5687 12.5031 19.9132 13.6076 18Z" fill="#2F88FF" stroke="black" stroke-width="4" stroke-linecap="round" stroke-linejoin="round"/>
</svg>
