<svg width="48" height="48" viewBox="0 0 48 48" fill="none" xmlns="http://www.w3.org/2000/svg">
<path d="M24 12C26.2091 12 28 10.2091 28 8C28 5.79086 26.2091 4 24 4C21.7909 4 20 5.79086 20 8C20 10.2091 21.7909 12 24 12Z" fill="#2F88FF" stroke="black" stroke-width="4" stroke-linejoin="round"/>
<path d="M24 44C26.2091 44 28 42.2091 28 40C28 37.7909 26.2091 36 24 36C21.7909 36 20 37.7909 20 40C20 42.2091 21.7909 44 24 44Z" fill="#2F88FF" stroke="black" stroke-width="4" stroke-linejoin="round"/>
<path d="M8 28C10.2091 28 12 26.2091 12 24C12 21.7909 10.2091 20 8 20C5.79086 20 4 21.7909 4 24C4 26.2091 5.79086 28 8 28Z" fill="#2F88FF" stroke="black" stroke-width="4" stroke-linejoin="round"/>
<path d="M40 28C42.2091 28 44 26.2091 44 24C44 21.7909 42.2091 20 40 20C37.7909 20 36 21.7909 36 24C36 26.2091 37.7909 28 40 28Z" fill="#2F88FF" stroke="black" stroke-width="4" stroke-linejoin="round"/>
<path d="M12 24H36" stroke="black" stroke-width="4" stroke-linecap="round" stroke-linejoin="round"/>
<path d="M24 12V36" stroke="black" stroke-width="4" stroke-linecap="round" stroke-linejoin="round"/>
<path d="M37.3053 15.1105C36.7212 14.238 36.0536 13.4261 35.3138 12.6864C34.574 11.9466 33.7621 11.2789 32.8896 10.6948M15.1105 10.6948C14.238 11.2789 13.4261 11.9466 12.6864 12.6864C11.9466 13.4261 11.2789 14.238 10.6948 15.1105L15.1105 10.6948ZM10.6948 32.8896C11.2789 33.7621 11.9466 34.574 12.6864 35.3138C13.4261 36.0536 14.238 36.7212 15.1105 37.3053L10.6948 32.8896ZM32.8896 37.3053C33.7621 36.7212 34.574 36.0536 35.3138 35.3138C36.0536 34.574 36.7212 33.7621 37.3053 32.8896L32.8896 37.3053Z" stroke="black" stroke-width="4" stroke-linecap="round" stroke-linejoin="round"/>
</svg>