<svg width="48" height="48" viewBox="0 0 48 48" fill="none" xmlns="http://www.w3.org/2000/svg">
<rect width="48" height="48" fill="white" fill-opacity="0.01"/>
<path d="M24.0002 4L32.6605 9L41.3207 14V24V34L32.6605 39L24.0002 44L15.3399 39L6.67969 34V24V14L15.3399 9L24.0002 4Z" fill="#2F88FF"/>
<path d="M24.0002 4L15.3399 9L6.67969 14M24.0002 4L32.6605 9L41.3207 14M24.0002 4V11V24M41.3207 14L32.6605 19M41.3207 14V24V34M41.3207 34L32.6605 39L24.0002 44M41.3207 34L34.3925 30L24.0002 24M24.0002 44L15.3399 39L6.67969 34M24.0002 44V34M6.67969 34V24V14M6.67969 34L13.6079 30L24.0002 24M6.67969 14L15.3399 19" stroke="black" stroke-width="4" stroke-linecap="round" stroke-linejoin="round"/>
</svg>
