<svg width="48" height="48" viewBox="0 0 48 48" fill="none" xmlns="http://www.w3.org/2000/svg">
<rect width="48" height="48" fill="white" fill-opacity="0.01"/>
<path d="M41.3207 14L32.6605 19M41.3207 14V24M41.3207 14L32.6605 9M24.0002 44L32.6605 39M24.0002 44L15.3399 39M24.0002 44V34M6.67969 14L15.3399 9M6.67969 14L15.3399 19M6.67969 14V24M24.0002 24L32.6605 19M24.0002 24L15.3399 19M24.0002 24V34M32.6605 19L15.3399 9M32.6605 19V39M15.3399 9L24.0002 4L32.6605 9M32.6605 39L41.3207 34V24M15.3399 39L6.67969 34V24M15.3399 39V19M15.3399 19L32.6605 9M6.67969 24L24.0002 34M24.0002 34L41.3207 24" stroke="black" stroke-width="4" stroke-linecap="round" stroke-linejoin="round"/>
</svg>
