<svg width="48" height="48" viewBox="0 0 48 48" fill="none" xmlns="http://www.w3.org/2000/svg">
<rect width="48" height="48" fill="white" fill-opacity="0.01"/>
<ellipse cx="41" cy="25" rx="3" ry="8" fill="#09C8E2"/>
<ellipse cx="41" cy="25" rx="3" ry="8" fill="#2F88FF"/>
<ellipse cx="41" cy="25" rx="3" ry="8" stroke="black" stroke-width="4" stroke-linecap="round" stroke-linejoin="round"/>
<ellipse cx="7" cy="25" rx="3" ry="8" fill="#09C8E2"/>
<ellipse cx="7" cy="25" rx="3" ry="8" fill="#2F88FF"/>
<ellipse cx="7" cy="25" rx="3" ry="8" stroke="black" stroke-width="4" stroke-linecap="round" stroke-linejoin="round"/>
<ellipse cx="24" cy="24" rx="6" ry="20" fill="#09C8E2"/>
<ellipse cx="24" cy="24" rx="6" ry="20" fill="#2F88FF"/>
<ellipse cx="24" cy="24" rx="6" ry="20" stroke="black" stroke-width="4" stroke-linecap="round" stroke-linejoin="round"/>
<ellipse cx="34" cy="24" rx="4" ry="16" fill="#09C8E2"/>
<ellipse cx="34" cy="24" rx="4" ry="16" fill="#2F88FF"/>
<ellipse cx="34" cy="24" rx="4" ry="16" stroke="black" stroke-width="4" stroke-linecap="round" stroke-linejoin="round"/>
<ellipse cx="14" cy="24" rx="4" ry="16" fill="#09C8E2"/>
<ellipse cx="14" cy="24" rx="4" ry="16" fill="#2F88FF"/>
<ellipse cx="14" cy="24" rx="4" ry="16" stroke="black" stroke-width="4" stroke-linecap="round" stroke-linejoin="round"/>
</svg>
