<svg width="48" height="48" viewBox="0 0 48 48" fill="none" xmlns="http://www.w3.org/2000/svg">
<rect width="48" height="48" fill="white" fill-opacity="0.01"/>
<path d="M20 4H28V8V12H20V8V4Z" fill="#2F88FF"/>
<path d="M20 36H28V40V44H20V40V36Z" fill="#2F88FF"/>
<path d="M4 20H8H12V28H8H4V20Z" fill="#2F88FF"/>
<path d="M36 20H40H44V28H40H36V20Z" fill="#2F88FF"/>
<path d="M40 20H36V28H40M40 20H44V28H40M40 20V8H28M28 8V4H20V8M28 8V12H20V8M20 8H8V20M8 20H4V28H8M8 20H12V28H8M8 28V40H20M20 40V44H28V40M20 40V36H28V40M28 40H40V28" stroke="black" stroke-width="4" stroke-linecap="round" stroke-linejoin="round"/>
<path d="M24 18V30" stroke="black" stroke-width="4" stroke-linecap="round" stroke-linejoin="round"/>
<path d="M18 24H30" stroke="black" stroke-width="4" stroke-linecap="round" stroke-linejoin="round"/>
</svg>
