<svg width="48" height="48" viewBox="0 0 48 48" fill="none" xmlns="http://www.w3.org/2000/svg">
<rect width="48" height="48" fill="white" fill-opacity="0.01"/>
<circle cx="10" cy="10" r="6" fill="#2F88FF" stroke="black" stroke-width="4" stroke-linecap="round" stroke-linejoin="round"/>
<path d="M6.28339 14.7108C5.42081 16.3525 4.77973 18.1288 4.3999 20" stroke="black" stroke-width="4" stroke-linecap="round" stroke-linejoin="round"/>
<path d="M14.7109 6.28358C16.3527 5.42099 18.129 4.77992 20.0002 4.40009" stroke="black" stroke-width="4" stroke-linecap="round" stroke-linejoin="round"/>
<circle cx="38" cy="10" r="6" fill="#2F88FF" stroke="black" stroke-width="4" stroke-linecap="round" stroke-linejoin="round"/>
<path d="M33.2893 6.28358C31.6475 5.42099 29.8712 4.77992 28 4.40009" stroke="black" stroke-width="4" stroke-linecap="round" stroke-linejoin="round"/>
<path d="M41.7163 14.7108C42.5789 16.3525 43.22 18.1288 43.5998 20" stroke="black" stroke-width="4" stroke-linecap="round" stroke-linejoin="round"/>
<circle cx="38" cy="38" r="6" fill="#2F88FF" stroke="black" stroke-width="4" stroke-linecap="round" stroke-linejoin="round"/>
<path d="M41.7163 33.2893C42.5789 31.6475 43.22 29.8712 43.5998 28" stroke="black" stroke-width="4" stroke-linecap="round" stroke-linejoin="round"/>
<path d="M33.2893 41.7164C31.6475 42.579 29.8712 43.2201 28 43.5999" stroke="black" stroke-width="4" stroke-linecap="round" stroke-linejoin="round"/>
<circle cx="10" cy="38" r="6" fill="#2F88FF" stroke="black" stroke-width="4" stroke-linecap="round" stroke-linejoin="round"/>
<path d="M14.7109 41.7164C16.3527 42.579 18.129 43.2201 20.0002 43.5999" stroke="black" stroke-width="4" stroke-linecap="round" stroke-linejoin="round"/>
<path d="M6.28339 33.2893C5.42081 31.6475 4.77973 29.8712 4.3999 28" stroke="black" stroke-width="4" stroke-linecap="round" stroke-linejoin="round"/>
<path d="M18 24H30M24 30V18" stroke="black" stroke-width="4" stroke-linecap="round" stroke-linejoin="round"/>
</svg>
