<svg width="48" height="48" viewBox="0 0 48 48" fill="none" xmlns="http://www.w3.org/2000/svg">
<path d="M38 30H10C6.68629 30 4 32.6863 4 36C4 39.3137 6.68629 42 10 42H38C41.3137 42 44 39.3137 44 36C44 32.6863 41.3137 30 38 30Z" fill="#2F88FF" stroke="black" stroke-width="4" stroke-linecap="round" stroke-linejoin="round"/>
<path d="M36 22C40.4183 22 44 18.4183 44 14C44 9.58172 40.4183 6 36 6C31.5817 6 28 9.58172 28 14C28 18.4183 31.5817 22 36 22Z" fill="#2F88FF" stroke="black" stroke-width="4" stroke-linecap="round" stroke-linejoin="round"/>
<path d="M4 14L13 5L22 14L13 23L4 14Z" fill="#2F88FF" stroke="black" stroke-width="4" stroke-linecap="round" stroke-linejoin="round"/>
</svg>