<svg width="48" height="48" viewBox="0 0 48 48" fill="none" xmlns="http://www.w3.org/2000/svg">
<path d="M39 14C41.7614 14 44 11.7614 44 9C44 6.23858 41.7614 4 39 4C36.2386 4 34 6.23858 34 9C34 11.7614 36.2386 14 39 14Z" fill="#2F88FF" stroke="black" stroke-width="4" stroke-linecap="round" stroke-linejoin="round"/>
<path d="M9 44C11.7614 44 14 41.7614 14 39C14 36.2386 11.7614 34 9 34C6.23858 34 4 36.2386 4 39C4 41.7614 6.23858 44 9 44Z" fill="#2F88FF" stroke="black" stroke-width="4" stroke-linecap="round" stroke-linejoin="round"/>
<path d="M14 4H4V14H14V4Z" fill="#2F88FF" stroke="black" stroke-width="4" stroke-linecap="round" stroke-linejoin="round"/>
<path d="M44 34H34V44H44V34Z" fill="#2F88FF" stroke="black" stroke-width="4" stroke-linecap="round" stroke-linejoin="round"/>
<path d="M34 9H14" stroke="black" stroke-width="4" stroke-linecap="round" stroke-linejoin="round"/>
<path d="M34 39H14" stroke="black" stroke-width="4" stroke-linecap="round" stroke-linejoin="round"/>
<path d="M9 34V14" stroke="black" stroke-width="4" stroke-linecap="round" stroke-linejoin="round"/>
<path d="M39 34V14" stroke="black" stroke-width="4" stroke-linecap="round" stroke-linejoin="round"/>
</svg>