<svg width="48" height="48" viewBox="0 0 48 48" fill="none" xmlns="http://www.w3.org/2000/svg">
<rect width="48" height="48" fill="white" fill-opacity="0.01"/>
<circle cx="39" cy="9" r="5" fill="#09C8E2"/>
<circle cx="39" cy="9" r="5" fill="#2F88FF"/>
<circle cx="39" cy="9" r="5" stroke="black" stroke-width="4" stroke-linecap="round" stroke-linejoin="round"/>
<circle cx="9" cy="39" r="5" fill="#09C8E2"/>
<circle cx="9" cy="39" r="5" fill="#2F88FF"/>
<circle cx="9" cy="39" r="5" stroke="black" stroke-width="4" stroke-linecap="round" stroke-linejoin="round"/>
<rect x="4" y="4" width="10" height="10" fill="#09C8E2"/>
<rect x="4" y="4" width="10" height="10" fill="#2F88FF"/>
<rect x="4" y="4" width="10" height="10" stroke="black" stroke-width="4" stroke-linecap="round" stroke-linejoin="round"/>
<rect x="34" y="34" width="10" height="10" fill="#09C8E2"/>
<rect x="34" y="34" width="10" height="10" fill="#2F88FF"/>
<rect x="34" y="34" width="10" height="10" stroke="black" stroke-width="4" stroke-linecap="round" stroke-linejoin="round"/>
<path d="M34 9H14" stroke="black" stroke-width="4" stroke-linecap="round" stroke-linejoin="round"/>
<path d="M34 39H14" stroke="black" stroke-width="4" stroke-linecap="round" stroke-linejoin="round"/>
<path d="M9 34L9 14" stroke="black" stroke-width="4" stroke-linecap="round" stroke-linejoin="round"/>
<path d="M39 34L39 14" stroke="black" stroke-width="4" stroke-linecap="round" stroke-linejoin="round"/>
</svg>
