<svg width="48" height="48" viewBox="0 0 48 48" fill="none" xmlns="http://www.w3.org/2000/svg">
<path d="M24 14C26.7614 14 29 11.7614 29 9C29 6.23858 26.7614 4 24 4C21.2386 4 19 6.23858 19 9C19 11.7614 21.2386 14 24 14Z" fill="#2F88FF" stroke="black" stroke-width="4" stroke-linecap="round" stroke-linejoin="round"/>
<path d="M24 44C26.7614 44 29 41.7614 29 39C29 36.2386 26.7614 34 24 34C21.2386 34 19 36.2386 19 39C19 41.7614 21.2386 44 24 44Z" fill="#2F88FF" stroke="black" stroke-width="4" stroke-linecap="round" stroke-linejoin="round"/>
<path d="M14 19H4V29H14V19Z" fill="#2F88FF" stroke="black" stroke-width="4" stroke-linecap="round" stroke-linejoin="round"/>
<path d="M44 19H34V29H44V19Z" fill="#2F88FF" stroke="black" stroke-width="4" stroke-linecap="round" stroke-linejoin="round"/>
<path d="M19 9H9V19" stroke="black" stroke-width="4" stroke-linecap="round" stroke-linejoin="round"/>
<path d="M19 39H9V29" stroke="black" stroke-width="4" stroke-linecap="round" stroke-linejoin="round"/>
<path d="M29 9H40V19" stroke="black" stroke-width="4" stroke-linecap="round" stroke-linejoin="round"/>
<path d="M29 39H39V29" stroke="black" stroke-width="4" stroke-linecap="round" stroke-linejoin="round"/>
</svg>