<svg width="48" height="48" viewBox="0 0 48 48" fill="none" xmlns="http://www.w3.org/2000/svg">
<rect width="48" height="48" fill="white" fill-opacity="0.01"/>
<path d="M24.0002 4L41.3207 14V34L24.0002 44L6.67969 34V14L24.0002 4Z" fill="#2F88FF"/>
<path d="M24.0002 4L41.3207 14M24.0002 4L6.67969 14M24.0002 4L41.3207 34M24.0002 4L6.67969 34M41.3207 14V34M41.3207 14H6.67969M41.3207 14L24.0002 44M41.3207 34L24.0002 44M41.3207 34H6.67969M24.0002 44L6.67969 34M24.0002 44L6.67969 14M6.67969 34V14" stroke="black" stroke-width="4" stroke-linecap="round" stroke-linejoin="round"/>
</svg>
