<svg width="48" height="48" viewBox="0 0 48 48" fill="none" xmlns="http://www.w3.org/2000/svg">
<rect width="48" height="48" fill="white" fill-opacity="0.01"/>
<path d="M19.0002 4H29.0002V15.3397L38.8207 9.66982L43.8207 18.3301L34.0002 24L43.8207 29.6698L38.8207 38.3301L29.0002 32.6602V44H19.0002V32.6602L9.17969 38.3301L4.17969 29.6698L14.0002 24L4.17969 18.3301L9.17969 9.66982L19.0002 15.3397V4Z" fill="#09C8E2"/>
<path d="M19.0002 4H29.0002V15.3397L38.8207 9.66982L43.8207 18.3301L34.0002 24L43.8207 29.6698L38.8207 38.3301L29.0002 32.6602V44H19.0002V32.6602L9.17969 38.3301L4.17969 29.6698L14.0002 24L4.17969 18.3301L9.17969 9.66982L19.0002 15.3397V4Z" fill="#2F88FF"/>
<path d="M19.0002 4H29.0002V15.3397L38.8207 9.66982L43.8207 18.3301L34.0002 24L43.8207 29.6698L38.8207 38.3301L29.0002 32.6602V44H19.0002V32.6602L9.17969 38.3301L4.17969 29.6698L14.0002 24L4.17969 18.3301L9.17969 9.66982L19.0002 15.3397V4Z" stroke="black" stroke-width="4" stroke-linecap="round" stroke-linejoin="round"/>
</svg>
