<svg width="48" height="48" viewBox="0 0 48 48" fill="none" xmlns="http://www.w3.org/2000/svg">
<rect width="48" height="48" fill="white" fill-opacity="0.01"/>
<path d="M6 6H42V42H6V6Z" fill="#2F88FF"/>
<path d="M36 24C36 30.6274 30.6274 36 24 36C17.3726 36 12 30.6274 12 24C12 17.3726 17.3726 12 24 12C30.6274 12 36 17.3726 36 24Z" fill="#2F88FF"/>
<path d="M44 4L4 44M4 4L44 44M6 6H42V42H6V6ZM36 24C36 30.6274 30.6274 36 24 36C17.3726 36 12 30.6274 12 24C12 17.3726 17.3726 12 24 12C30.6274 12 36 17.3726 36 24Z" stroke="black" stroke-width="4" stroke-linecap="round" stroke-linejoin="round"/>
</svg>
