<svg width="48" height="48" viewBox="0 0 48 48" fill="none" xmlns="http://www.w3.org/2000/svg">
<rect width="48" height="48" fill="white" fill-opacity="0.01"/>
<path d="M12 19C15.3137 19 18 16.3137 18 13C18 9.68629 15.3137 7 12 7C8.68629 7 6 9.68629 6 13C6 16.3137 8.68629 19 12 19Z" fill="#09C8E2"/>
<path d="M12 19C15.3137 19 18 16.3137 18 13C18 9.68629 15.3137 7 12 7C8.68629 7 6 9.68629 6 13C6 16.3137 8.68629 19 12 19Z" fill="#2F88FF"/>
<path d="M12 19C15.3137 19 18 16.3137 18 13C18 9.68629 15.3137 7 12 7C8.68629 7 6 9.68629 6 13C6 16.3137 8.68629 19 12 19Z" stroke="black" stroke-width="4" stroke-linejoin="round"/>
<rect x="7" y="31" width="10" height="10" fill="#09C8E2"/>
<rect x="7" y="31" width="10" height="10" fill="#2F88FF"/>
<rect x="7" y="31" width="10" height="10" stroke="black" stroke-width="4" stroke-linejoin="round"/>
<path d="M25.68 13H42V36H25" stroke="black" stroke-width="4" stroke-linecap="round" stroke-linejoin="round"/>
</svg>
