<svg width="48" height="48" viewBox="0 0 48 48" fill="none" xmlns="http://www.w3.org/2000/svg">
<rect width="48" height="48" fill="white" fill-opacity="0.01"/>
<path d="M44 24C44 35.0457 35.0457 44 24 44M44 24C44 12.9543 35.0457 4 24 4M44 24C44 29.5228 39.5228 34 34 34C28.4772 34 24 29.5228 24 24M24 44C12.9543 44 4 35.0457 4 24M24 44C18.4772 44 14 39.5228 14 34C14 28.4772 18.4772 24 24 24M4 24C4 12.9543 12.9543 4 24 4M4 24C4 18.4772 8.47715 14 14 14C19.5228 14 24 18.4772 24 24M24 4C29.5228 4 34 8.47715 34 14C34 19.5228 29.5228 24 24 24" stroke="black" stroke-width="4" stroke-linecap="round" stroke-linejoin="round"/>
</svg>
