<svg width="48" height="48" viewBox="0 0 48 48" fill="none" xmlns="http://www.w3.org/2000/svg">
<rect width="48" height="48" fill="white" fill-opacity="0.01"/>
<path d="M24 8L37.8564 16V32L24 40L10.1436 32V16L24 8Z" stroke="black" stroke-width="4" stroke-linecap="round" stroke-linejoin="round"/>
<circle cx="24" cy="40" r="4" fill="#09C8E2"/>
<circle cx="24" cy="40" r="4" fill="#2F88FF"/>
<circle cx="24" cy="40" r="4" stroke="black" stroke-width="4" stroke-linecap="round" stroke-linejoin="round"/>
<circle cx="24" cy="8" r="4" fill="#09C8E2"/>
<circle cx="24" cy="8" r="4" fill="#2F88FF"/>
<circle cx="24" cy="8" r="4" stroke="black" stroke-width="4" stroke-linecap="round" stroke-linejoin="round"/>
<circle cx="24" cy="24" r="4" fill="#09C8E2"/>
<circle cx="24" cy="24" r="4" fill="#2F88FF"/>
<circle cx="24" cy="24" r="4" stroke="black" stroke-width="4" stroke-linecap="round" stroke-linejoin="round"/>
<circle cx="38" cy="16" r="4" fill="#09C8E2"/>
<circle cx="38" cy="16" r="4" fill="#2F88FF"/>
<circle cx="38" cy="16" r="4" stroke="black" stroke-width="4" stroke-linecap="round" stroke-linejoin="round"/>
<circle cx="38" cy="32" r="4" fill="#09C8E2"/>
<circle cx="38" cy="32" r="4" fill="#2F88FF"/>
<circle cx="38" cy="32" r="4" stroke="black" stroke-width="4" stroke-linecap="round" stroke-linejoin="round"/>
<circle cx="10" cy="16" r="4" fill="#09C8E2"/>
<circle cx="10" cy="16" r="4" fill="#2F88FF"/>
<circle cx="10" cy="16" r="4" stroke="black" stroke-width="4" stroke-linecap="round" stroke-linejoin="round"/>
<circle cx="10" cy="32" r="4" fill="#09C8E2"/>
<circle cx="10" cy="32" r="4" fill="#2F88FF"/>
<circle cx="10" cy="32" r="4" stroke="black" stroke-width="4" stroke-linecap="round" stroke-linejoin="round"/>
</svg>
