<svg width="48" height="48" viewBox="0 0 48 48" fill="none" xmlns="http://www.w3.org/2000/svg">
<path d="M23.9999 24V12M23.9999 24L13.5 30.0621L23.9999 24ZM23.9999 24L34.4998 30.0621L23.9999 24Z" stroke="black" stroke-width="4" stroke-linecap="round" stroke-linejoin="round"/>
<path d="M14 16C14 18.2091 12.2091 20 10 20C7.79086 20 6 18.2091 6 16C6 13.7909 7.79086 12 10 12C12.2091 12 14 13.7909 14 16Z" fill="#2F88FF" stroke="black" stroke-width="4" stroke-linecap="round" stroke-linejoin="round"/>
<path d="M14 32C14 34.2091 12.2091 36 10 36C7.79086 36 6 34.2091 6 32C6 29.7909 7.79086 28 10 28C12.2091 28 14 29.7909 14 32Z" fill="#2F88FF" stroke="black" stroke-width="4" stroke-linecap="round" stroke-linejoin="round"/>
<path d="M28 40C28 42.2091 26.2091 44 24 44C21.7909 44 20 42.2091 20 40C20 37.7909 21.7909 36 24 36C26.2091 36 28 37.7909 28 40Z" fill="#2F88FF" stroke="black" stroke-width="4" stroke-linecap="round" stroke-linejoin="round"/>
<path d="M42 32C42 34.2091 40.2091 36 38 36C35.7909 36 34 34.2091 34 32C34 29.7909 35.7909 28 38 28C40.2091 28 42 29.7909 42 32Z" fill="#2F88FF" stroke="black" stroke-width="4" stroke-linecap="round" stroke-linejoin="round"/>
<path d="M42 16C42 18.2091 40.2091 20 38 20C35.7909 20 34 18.2091 34 16C34 13.7909 35.7909 12 38 12C40.2091 12 42 13.7909 42 16Z" fill="#2F88FF" stroke="black" stroke-width="4" stroke-linecap="round" stroke-linejoin="round"/>
<path d="M28 8C28 10.2091 26.2091 12 24 12C21.7909 12 20 10.2091 20 8C20 5.79086 21.7909 4 24 4C26.2091 4 28 5.79086 28 8Z" fill="#2F88FF" stroke="black" stroke-width="4" stroke-linecap="round" stroke-linejoin="round"/>
</svg>