<svg width="48" height="48" viewBox="0 0 48 48" fill="none" xmlns="http://www.w3.org/2000/svg">
<rect width="48" height="48" fill="white" fill-opacity="0.01"/>
<path d="M6 10L42 4V11L6 17V10Z" fill="#09C8E2"/>
<path d="M6 10L42 4V11L6 17V10Z" fill="#2F88FF"/>
<path d="M6 10L42 4V11L6 17V10Z" stroke="black" stroke-width="4" stroke-linecap="round" stroke-linejoin="round"/>
<path d="M6 24L42 18V25L6 31V24Z" fill="#09C8E2"/>
<path d="M6 24L42 18V25L6 31V24Z" fill="#2F88FF"/>
<path d="M6 24L42 18V25L6 31V24Z" stroke="black" stroke-width="4" stroke-linecap="round" stroke-linejoin="round"/>
<path d="M6 38L42 32V39L6 45V38Z" fill="#09C8E2"/>
<path d="M6 38L42 32V39L6 45V38Z" fill="#2F88FF"/>
<path d="M6 38L42 32V39L6 45V38Z" stroke="black" stroke-width="4" stroke-linecap="round" stroke-linejoin="round"/>
</svg>
