<svg width="48" height="48" viewBox="0 0 48 48" fill="none" xmlns="http://www.w3.org/2000/svg">
<rect width="48" height="48" fill="white" fill-opacity="0.01"/>
<path d="M14 9L24 3L34 9V21L24 27L14 21V9Z" fill="#09C8E2"/>
<path d="M14 9L24 3L34 9V21L24 27L14 21V9Z" fill="#2F88FF"/>
<path d="M4 27L14 21L24 27V39L14 45L4 39V27Z" fill="#09C8E2"/>
<path d="M4 27L14 21L24 27V39L14 45L4 39V27Z" fill="#2F88FF"/>
<path d="M24 27L34 21L44 27V39L34 45L24 39V27Z" fill="#09C8E2"/>
<path d="M24 27L34 21L44 27V39L34 45L24 39V27Z" fill="#2F88FF"/>
<path d="M14 21V9L24 3L34 9V21M14 21L24 27M14 21L4 27V39L14 45L24 39M24 27L34 21M24 27V39M34 21L44 27V39L34 45L24 39" stroke="black" stroke-width="4" stroke-linecap="round" stroke-linejoin="round"/>
</svg>
