<svg width="48" height="48" viewBox="0 0 48 48" fill="none" xmlns="http://www.w3.org/2000/svg">
<rect width="48" height="48" fill="white" fill-opacity="0.01"/>
<circle cx="24" cy="24" r="5" fill="#2F88FF" stroke="black" stroke-width="4" stroke-linecap="round" stroke-linejoin="round"/>
<path d="M23.5 44C16.5964 44 11 38.4036 11 31.5C11 24.5964 16.5964 19 23.5 19" stroke="black" stroke-width="4" stroke-linecap="round" stroke-linejoin="round"/>
<path d="M44 23.5C44 30.4036 38.4036 36 31.5 36C24.5964 36 19 30.4036 19 23.5" stroke="black" stroke-width="4" stroke-linecap="round" stroke-linejoin="round"/>
<path d="M23.5 29C30.4036 29 36 23.4036 36 16.5C36 9.59644 30.4036 4 23.5 4" stroke="black" stroke-width="4" stroke-linecap="round" stroke-linejoin="round"/>
<path d="M29 23.5C29 16.5964 23.4036 11 16.5 11C9.59644 11 4 16.5964 4 23.5" stroke="black" stroke-width="4" stroke-linecap="round" stroke-linejoin="round"/>
</svg>
