<svg width="64" height="64" viewBox="0 0 64 64" fill="none" xmlns="http://www.w3.org/2000/svg">
<rect width="64" height="64" fill="white" fill-opacity="0.01"/>
<path d="M4 18C4 16.1144 4 15.1716 4.58579 14.5858C5.17157 14 6.11438 14 8 14H22H42H56C57.8856 14 58.8284 14 59.4142 14.5858C60 15.1716 60 16.1144 60 18V46C60 47.8856 60 48.8284 59.4142 49.4142C58.8284 50 57.8856 50 56 50H42H22H8C6.11438 50 5.17157 50 4.58579 49.4142C4 48.8284 4 47.8856 4 46V18Z" fill="#2F88FF" stroke="black" stroke-width="4" stroke-linecap="round" stroke-linejoin="round"/>
<path d="M48 28L52 32L48 36" stroke="white" stroke-width="4" stroke-linecap="round" stroke-linejoin="round"/>
<path d="M16 28L12 32L16 36" stroke="white" stroke-width="4" stroke-linecap="round" stroke-linejoin="round"/>
<path d="M23 43H25" stroke="white" stroke-width="4" stroke-linecap="round" stroke-linejoin="round"/>
<path d="M31 43H33" stroke="white" stroke-width="4" stroke-linecap="round" stroke-linejoin="round"/>
<path d="M39 43H41" stroke="white" stroke-width="4" stroke-linecap="round" stroke-linejoin="round"/>
</svg>
