<svg width="64" height="64" viewBox="0 0 64 64" fill="none" xmlns="http://www.w3.org/2000/svg">
<rect width="64" height="64" fill="white" fill-opacity="0.01"/>
<path d="M60 54V10C60 8.11438 60 7.17157 59.4142 6.58579C58.8284 6 57.8856 6 56 6H8C6.11438 6 5.17157 6 4.58579 6.58579C4 7.17157 4 8.11438 4 10V54C4 55.8856 4 56.8284 4.58579 57.4142C5.17157 58 6.11438 58 8 58H56C57.8856 58 58.8284 58 59.4142 57.4142C60 56.8284 60 55.8856 60 54Z" fill="#2F88FF" stroke="black" stroke-width="4" stroke-linecap="round" stroke-linejoin="round"/>
<path d="M20 48V16" stroke="black" stroke-width="4" stroke-linecap="round" stroke-linejoin="round"/>
<line x1="6" y1="16" x2="58" y2="16" stroke="black" stroke-width="4" stroke-linecap="round"/>
<line x1="6" y1="48" x2="58" y2="48" stroke="black" stroke-width="4" stroke-linecap="round"/>
</svg>
