<svg width="64" height="64" viewBox="0 0 64 64" fill="none" xmlns="http://www.w3.org/2000/svg">
<rect width="64" height="64" fill="white" fill-opacity="0.01"/>
<path d="M32 58C39.7482 58 35.0367 46.4768 39.8 41.1C43.8644 36.5122 58 38.6112 58 32C58 17.6406 46.3594 6 32 6C17.6406 6 6 17.6406 6 32C6 46.3594 17.6406 58 32 58Z" fill="#2F88FF" stroke="black" stroke-width="4" stroke-linejoin="round"/>
<path d="M38 25C40.2091 25 42 23.2091 42 21C42 18.7909 40.2091 17 38 17C35.7909 17 34 18.7909 34 21C34 23.2091 35.7909 25 38 25Z" fill="#43CCF8" stroke="white" stroke-width="4" stroke-linejoin="round"/>
<path d="M21 28C23.2091 28 25 26.2091 25 24C25 21.7909 23.2091 20 21 20C18.7909 20 17 21.7909 17 24C17 26.2091 18.7909 28 21 28Z" fill="#43CCF8" stroke="white" stroke-width="4" stroke-linejoin="round"/>
<path d="M23 45C25.2091 45 27 43.2091 27 41C27 38.7909 25.2091 37 23 37C20.7909 37 19 38.7909 19 41C19 43.2091 20.7909 45 23 45Z" fill="#43CCF8" stroke="white" stroke-width="4" stroke-linejoin="round"/>
</svg>
