<svg width="64" height="64" viewBox="0 0 64 64" fill="none" xmlns="http://www.w3.org/2000/svg">
<rect width="64" height="64" fill="white" fill-opacity="0.01"/>
<path fill-rule="evenodd" clip-rule="evenodd" d="M60 10C60 8.11438 60 7.17157 59.4142 6.58579C58.8284 6 57.8856 6 56 6H8C6.11438 6 5.17157 6 4.58579 6.58579C4 7.17157 4 8.11438 4 10V54C4 55.8856 4 56.8284 4.58579 57.4142C5.17157 58 6.11438 58 8 58H56C57.8856 58 58.8284 58 59.4142 57.4142C60 56.8284 60 55.8856 60 54V10Z" fill="#2F88FF" stroke="black" stroke-width="4" stroke-linecap="round" stroke-linejoin="round"/>
<path d="M22 6V58" stroke="black" stroke-width="4" stroke-linecap="round" stroke-linejoin="round"/>
<path d="M28 24H54" stroke="white" stroke-width="4" stroke-linecap="round" stroke-linejoin="round"/>
<path d="M28 14H40" stroke="white" stroke-width="4" stroke-linecap="round" stroke-linejoin="round"/>
<path d="M54 12L52 14L50 16" stroke="white" stroke-width="4" stroke-linecap="round" stroke-linejoin="round"/>
<path d="M50 12L52 14L54 16" stroke="white" stroke-width="4" stroke-linecap="round" stroke-linejoin="round"/>
<path d="M28 30H54" stroke="white" stroke-width="4" stroke-linecap="round" stroke-linejoin="round"/>
<path d="M28 36H54" stroke="white" stroke-width="4" stroke-linecap="round" stroke-linejoin="round"/>
<path d="M28 42H41" stroke="white" stroke-width="4" stroke-linecap="round" stroke-linejoin="round"/>
</svg>
