<svg width="64" height="64" viewBox="0 0 64 64" fill="none" xmlns="http://www.w3.org/2000/svg">
<rect width="64" height="64" fill="white" fill-opacity="0.01"/>
<path d="M56 54H8C6.11438 54 5.17157 54 4.58579 53.4142C4 52.8284 4 51.8856 4 50V14C4 12.1144 4 11.1716 4.58579 10.5858C5.17157 10 6.11438 10 8 10H56C57.8856 10 58.8284 10 59.4142 10.5858C60 11.1716 60 12.1144 60 14V50C60 51.8856 60 52.8284 59.4142 53.4142C58.8284 54 57.8856 54 56 54Z" fill="#2F88FF" stroke="black" stroke-width="4" stroke-linecap="round" stroke-linejoin="round"/>
<path d="M35 28L29 24V32L35 28Z" fill="#43CCF8" stroke="white" stroke-width="4" stroke-linecap="round" stroke-linejoin="round"/>
<line x1="6" y1="46" x2="58" y2="46" stroke="black" stroke-width="4" stroke-linecap="round"/>
</svg>
