<svg width="64" height="64" viewBox="0 0 64 64" fill="none" xmlns="http://www.w3.org/2000/svg">
<rect width="64" height="64" fill="white" fill-opacity="0.01"/>
<path d="M56 59H8C6.11438 59 5.17157 59 4.58579 58.4142C4 57.8284 4 56.8856 4 55V9C4 7.11438 4 6.17157 4.58579 5.58579C5.17157 5 6.11438 5 8 5H56C57.8856 5 58.8284 5 59.4142 5.58579C60 6.17157 60 7.11438 60 9V55C60 56.8856 60 57.8284 59.4142 58.4142C58.8284 59 57.8856 59 56 59Z" fill="#2F88FF" stroke="black" stroke-width="4" stroke-linecap="round" stroke-linejoin="round"/>
<path d="M60 33H4" stroke="black" stroke-width="4" stroke-linecap="round" stroke-linejoin="round"/>
<path d="M4 19H60" stroke="black" stroke-width="4" stroke-linecap="round" stroke-linejoin="round"/>
<path d="M24 12H52" stroke="white" stroke-width="4" stroke-linecap="round" stroke-linejoin="round"/>
<path d="M24 26H52" stroke="white" stroke-width="4" stroke-linecap="round" stroke-linejoin="round"/>
<path d="M24 40H52" stroke="white" stroke-width="4" stroke-linecap="round" stroke-linejoin="round"/>
<path d="M24 46L52 46" stroke="white" stroke-width="4" stroke-linecap="round" stroke-linejoin="round"/>
<path d="M24 52H36" stroke="white" stroke-width="4" stroke-linecap="round" stroke-linejoin="round"/>
<path d="M10 11L13 13L16 11" stroke="white" stroke-width="4" stroke-linecap="round" stroke-linejoin="round"/>
<path d="M10 25L13 27L16 25" stroke="white" stroke-width="4" stroke-linecap="round" stroke-linejoin="round"/>
<path d="M10 41L13 39L16 41" stroke="white" stroke-width="4" stroke-linecap="round" stroke-linejoin="round"/>
</svg>
