<svg width="64" height="64" viewBox="0 0 64 64" fill="none" xmlns="http://www.w3.org/2000/svg">
<rect width="64" height="64" fill="white" fill-opacity="0.01"/>
<path d="M60 53V11C60 9.89543 59.1046 9 58 9H6C4.89543 9 4 9.89543 4 11V53C4 54.1046 4.89543 55 6 55H58C59.1046 55 60 54.1046 60 53Z" fill="#2F88FF" stroke="black" stroke-width="4" stroke-linecap="round" stroke-linejoin="round"/>
<path d="M4 49L10 55" stroke="black" stroke-width="4" stroke-linecap="round" stroke-linejoin="round"/>
<path d="M48 33L60 45" stroke="black" stroke-width="4" stroke-linecap="round" stroke-linejoin="round"/>
<path d="M60 55L48 43" stroke="black" stroke-width="4" stroke-linecap="round" stroke-linejoin="round"/>
<path d="M38 43L50 55" stroke="black" stroke-width="4" stroke-linecap="round" stroke-linejoin="round"/>
<path d="M28 43L40 55" stroke="black" stroke-width="4" stroke-linecap="round" stroke-linejoin="round"/>
<path d="M18 43L30 55" stroke="black" stroke-width="4" stroke-linecap="round" stroke-linejoin="round"/>
<path d="M8 43L20 55" stroke="black" stroke-width="4" stroke-linecap="round" stroke-linejoin="round"/>
<path d="M48 13L60 25" stroke="black" stroke-width="4" stroke-linecap="round" stroke-linejoin="round"/>
<path d="M48 23L60 35" stroke="black" stroke-width="4" stroke-linecap="round" stroke-linejoin="round"/>
<path d="M48 9V43H4" stroke="black" stroke-width="4" stroke-linecap="round" stroke-linejoin="round"/>
</svg>
