<svg width="64" height="64" viewBox="0 0 64 64" fill="none" xmlns="http://www.w3.org/2000/svg">
<rect width="64" height="64" fill="white" fill-opacity="0.01"/>
<path d="M11 58V46H9.07143M11 58H14M11 58H8" stroke="black" stroke-width="4" stroke-linecap="round" stroke-linejoin="round"/>
<path d="M24.0714 58H26V52H20V58H24.0714Z" fill="#2F88FF"/>
<path d="M26 46H24.0714H20V52M20 52V58H24.0714H26V52H20Z" stroke="black" stroke-width="4" stroke-linecap="round" stroke-linejoin="round"/>
<path d="M38 46H42.0714H44V58H42.0714H38V46Z" fill="#2F88FF" stroke="black" stroke-width="4" stroke-linecap="round" stroke-linejoin="round"/>
<path d="M32 48V49" stroke="black" stroke-width="4" stroke-linecap="round" stroke-linejoin="round"/>
<path d="M32 55V56" stroke="black" stroke-width="4" stroke-linecap="round" stroke-linejoin="round"/>
<path d="M50 46H54.0714H56V58H54.0714H50V46Z" fill="#2F88FF" stroke="black" stroke-width="4" stroke-linecap="round" stroke-linejoin="round"/>
<circle cx="32" cy="22" r="16" fill="#2F88FF" stroke="black" stroke-width="4" stroke-linecap="round" stroke-linejoin="round"/>
<path d="M32 12V22L39 29" stroke="white" stroke-width="4" stroke-linecap="round" stroke-linejoin="round"/>
</svg>
