<svg width="48" height="48" viewBox="0 0 48 48" fill="none" xmlns="http://www.w3.org/2000/svg">
<path d="M36 12.0002H10V36.0002H36V12.0002Z" fill="#2F88FF" stroke="black" stroke-width="4" stroke-linejoin="round"/>
<path d="M27 24.0002C27 21.7911 25.2091 20.0002 23 20.0002C20.7909 20.0002 19 21.7911 19 24.0002C19 26.2094 20.7909 28.0002 23 28.0002C25.2091 28.0002 27 26.2094 27 24.0002Z" fill="#43CCF8" stroke="white" stroke-width="4" stroke-linejoin="round"/>
<path d="M15 12.0002C15 11.9273 15.0083 11.8545 15.0246 11.7833L16.6321 4.78331C16.7372 4.32578 17.1565 4.00024 17.6409 4.00024H28.3837C28.8681 4.00024 29.2874 4.32578 29.3925 4.78331L31 11.7833" stroke="black" stroke-width="4" stroke-linecap="round"/>
<path d="M15 36.0002C15 36.0732 15.0083 36.1459 15.0246 36.2172L16.6321 43.2172C16.7372 43.6747 17.1565 44.0002 17.6409 44.0002H28.3837C28.8681 44.0002 29.2874 43.6747 29.3925 43.2172L31 36.2172" stroke="black" stroke-width="4" stroke-linecap="round"/>
<path d="M39 16.0002V20.0002" stroke="black" stroke-width="4" stroke-linecap="round"/>
</svg>