<svg width="48" height="48" viewBox="0 0 48 48" fill="none" xmlns="http://www.w3.org/2000/svg">
<path d="M30.2972 18.7786C30.2972 18.7786 27.0679 27.8809 25.5334 29.47C23.9988 31.0591 21.4665 31.1033 19.8774 29.5687C18.2882 28.0341 18.244 25.5019 19.7786 23.9127C21.3132 22.3236 30.2972 18.7786 30.2972 18.7786Z" fill="#2F88FF" stroke="black" stroke-width="4" stroke-linejoin="round"/>
<path d="M38.8492 38.8492C42.6495 35.049 45 29.799 45 24C45 12.402 35.598 3 24 3C12.402 3 3 12.402 3 24C3 29.799 5.35051 35.049 9.15076 38.8492" stroke="black" stroke-width="4" stroke-linecap="round" stroke-linejoin="round"/>
<path d="M24 4V8" stroke="black" stroke-width="4" stroke-linecap="round" stroke-linejoin="round"/>
<path d="M38.8454 11.1421L35.7368 13.6593" stroke="black" stroke-width="4" stroke-linecap="round" stroke-linejoin="round"/>
<path d="M42.5223 27.2328L38.6248 26.333" stroke="black" stroke-width="4" stroke-linecap="round" stroke-linejoin="round"/>
<path d="M5.47737 27.2328L9.37485 26.333" stroke="black" stroke-width="4" stroke-linecap="round" stroke-linejoin="round"/>
<path d="M9.15463 11.142L12.2632 13.6593" stroke="black" stroke-width="4" stroke-linecap="round" stroke-linejoin="round"/>
</svg>