<svg width="48" height="48" viewBox="0 0 48 48" fill="none" xmlns="http://www.w3.org/2000/svg">
<path d="M38 14H6C4.89543 14 4 14.8954 4 16V32C4 33.1046 4.89543 34 6 34H38C39.1046 34 40 33.1046 40 32V16C40 14.8954 39.1046 14 38 14Z" fill="#2F88FF" stroke="black" stroke-width="4" stroke-linecap="round" stroke-linejoin="round"/>
<path d="M42 20H44C45.1046 20 46 20.8954 46 22V26C46 27.1046 45.1046 28 44 28H42V20Z" fill="black"/>
<path d="M13 21V27" stroke="white" stroke-width="4" stroke-linecap="round" stroke-linejoin="round"/>
<path d="M19 21V27" stroke="white" stroke-width="4" stroke-linecap="round" stroke-linejoin="round"/>
<path d="M25 21V27" stroke="white" stroke-width="4" stroke-linecap="round" stroke-linejoin="round"/>
<path d="M31 21V27" stroke="white" stroke-width="4" stroke-linecap="round" stroke-linejoin="round"/>
</svg>