<svg width="48" height="48" viewBox="0 0 48 48" fill="none" xmlns="http://www.w3.org/2000/svg">
<path d="M7.63477 35.5C8.33788 36.4987 9.13011 37.4302 9.99989 38.2829C10.918 39.1829 11.9225 39.9951 12.9999 40.706" stroke="black" stroke-width="4" stroke-linecap="round" stroke-linejoin="round"/>
<path d="M27.8683 43.6262C26.6167 43.8714 25.3233 44 23.9998 44C22.6764 44 21.3829 43.8714 20.1313 43.6262" stroke="black" stroke-width="4" stroke-linecap="round" stroke-linejoin="round"/>
<path d="M43.5491 28.2428C43.8445 26.8754 44 25.4558 44 24C44 22.5745 43.8509 21.1838 43.5674 19.8427" stroke="black" stroke-width="4" stroke-linecap="round" stroke-linejoin="round"/>
<path d="M40.3651 12.5001C39.662 11.5014 38.8698 10.5699 38 9.71728C37.0819 8.81723 36.0773 8.005 35 7.29419" stroke="black" stroke-width="4" stroke-linecap="round" stroke-linejoin="round"/>
<path d="M20.1553 4.36923C21.3995 4.12694 22.685 4 24.0001 4C25.3153 4 26.6008 4.12694 27.845 4.36923" stroke="black" stroke-width="4" stroke-linecap="round" stroke-linejoin="round"/>
<path d="M7.63477 12.5001C8.33788 11.5014 9.13011 10.5699 9.99989 9.71728C10.918 8.81723 11.9225 8.005 12.9999 7.29419" stroke="black" stroke-width="4" stroke-linecap="round" stroke-linejoin="round"/>
<path d="M40.5001 35.2939C39.797 36.2927 39.0048 37.2242 38.135 38.0768C37.2169 38.9769 36.2123 39.7891 35.135 40.4999" stroke="black" stroke-width="4" stroke-linecap="round" stroke-linejoin="round"/>
<path d="M16 24H4" stroke="black" stroke-width="4" stroke-linecap="round" stroke-linejoin="round"/>
<path d="M10 38L18.3431 29.6569" stroke="black" stroke-width="4" stroke-linecap="round" stroke-linejoin="round"/>
<path d="M24 32V44" stroke="black" stroke-width="4" stroke-linecap="round" stroke-linejoin="round"/>
<path d="M37.9999 38L29.6567 29.6569" stroke="black" stroke-width="4" stroke-linecap="round" stroke-linejoin="round"/>
<path d="M32 24H44" stroke="black" stroke-width="4" stroke-linecap="round" stroke-linejoin="round"/>
<path d="M37.9999 10L29.6567 18.3431" stroke="black" stroke-width="4" stroke-linecap="round" stroke-linejoin="round"/>
<path d="M24 16V4" stroke="black" stroke-width="4" stroke-linecap="round" stroke-linejoin="round"/>
<path d="M10 10L18.3431 18.3431" stroke="black" stroke-width="4" stroke-linecap="round" stroke-linejoin="round"/>
<path d="M4.43266 19.8427C4.14914 21.1838 4 22.5745 4 24C4 25.4255 4.14914 26.8162 4.43266 28.1573" stroke="black" stroke-width="4" stroke-linecap="round" stroke-linejoin="round"/>
<path d="M24 32C28.4183 32 32 28.4183 32 24C32 19.5817 28.4183 16 24 16C19.5817 16 16 19.5817 16 24C16 28.4183 19.5817 32 24 32Z" fill="#2F88FF" stroke="black" stroke-width="4" stroke-linecap="round" stroke-linejoin="round"/>
</svg>