<svg width="48" height="48" viewBox="0 0 48 48" fill="none" xmlns="http://www.w3.org/2000/svg">
<path d="M24 44C32.2347 44 38.9998 37.4742 38.9998 29.0981C38.9998 27.0418 38.8953 24.8375 37.7555 21.4116C36.6157 17.9858 36.3861 17.5436 35.1809 15.4279C34.666 19.7454 31.911 21.5448 31.2111 22.0826C31.2111 21.5231 29.5445 15.3359 27.0176 11.6339C24.537 8 21.1634 5.61592 19.1853 4C19.1853 7.06977 18.3219 11.6339 17.0854 13.9594C15.8489 16.2849 15.6167 16.3696 14.0722 18.1002C12.5278 19.8308 11.8189 20.3653 10.5274 22.4651C9.23596 24.565 9 27.3618 9 29.4181C9 37.7942 15.7653 44 24 44Z" fill="#2F88FF" stroke="black" stroke-width="4" stroke-linejoin="round"/>
</svg>