<svg width="48" height="48" viewBox="0 0 48 48" fill="none" xmlns="http://www.w3.org/2000/svg">
<path d="M37 23.8788C37 30.5731 31.1797 36 24 36C16.8203 36 11 30.5731 11 23.8788C11 17.1844 24 4 24 4C24 4 37 17.1844 37 23.8788Z" fill="#2F88FF" stroke="black" stroke-width="4" stroke-linejoin="round"/>
<path d="M24 4V36" stroke="white" stroke-width="4" stroke-linecap="round" stroke-linejoin="round"/>
<path d="M24 36V44" stroke="black" stroke-width="4" stroke-linecap="round" stroke-linejoin="round"/>
<path d="M37 23.8789C37 30.5733 31.1797 36.0001 24 36.0001C16.8203 36.0001 11 30.5733 11 23.8789" stroke="black" stroke-width="4" stroke-linejoin="round"/>
<path d="M37 23.8788C37 17.1844 24 4 24 4C24 4 11 17.1844 11 23.8788" stroke="black" stroke-width="4" stroke-linejoin="round"/>
</svg>