<svg width="48" height="48" viewBox="0 0 48 48" fill="none" xmlns="http://www.w3.org/2000/svg">
<path d="M9 29C11.7614 29 14 26.7614 14 24C14 26.7614 16.2386 29 19 29C21.7614 29 24 26.7614 24 24C24 26.7614 26.2386 29 29 29C31.7614 29 34 26.7614 34 24C34 26.7614 36.2386 29 39 29C41.7614 29 44 26.7614 44 24C44 35.0457 35.0457 44 24 44C12.9543 44 4 35.0457 4 24C4 26.7614 6.23858 29 9 29Z" fill="#2F88FF" stroke="black" stroke-width="4" stroke-linecap="round" stroke-linejoin="round"/>
<path d="M28 13C28 15.2091 26.2091 17 24 17C21.7909 17 20 15.2091 20 13C20 10.7909 24 4 24 4C24 4 28 10.7909 28 13Z" fill="#2F88FF" stroke="black" stroke-width="4" stroke-linecap="round" stroke-linejoin="round"/>
</svg>