<svg width="48" height="48" viewBox="0 0 48 48" fill="none" xmlns="http://www.w3.org/2000/svg">
<path d="M36 4C31.0294 4 27 8.02944 27 13V44H33V21.4879C33.9383 21.8195 34.9481 22 36 22C39.4829 22 42.5038 20.0216 44 17.1272V8.8728C42.5038 5.97844 39.4829 4 36 4Z" fill="#2F88FF" stroke="black" stroke-width="4" stroke-linecap="round" stroke-linejoin="round"/>
<path d="M12 4C16.9706 4 21 8.02944 21 13V44H15V21.4879C14.0617 21.8195 13.0519 22 12 22C8.51707 22 5.49623 20.0216 4 17.1272V8.8728C5.49623 5.97844 8.51707 4 12 4Z" fill="#2F88FF" stroke="black" stroke-width="4" stroke-linecap="round" stroke-linejoin="round"/>
<path d="M15 13H14" stroke="white" stroke-width="4" stroke-linecap="round" stroke-linejoin="round"/>
<path d="M33 13H34" stroke="white" stroke-width="4" stroke-linecap="round" stroke-linejoin="round"/>
</svg>