<svg width="48" height="48" viewBox="0 0 48 48" fill="none" xmlns="http://www.w3.org/2000/svg">
<path d="M40 22C40 12.0589 31.9411 4 22 4C12.0589 4 4 12.0589 4 22C4 31.9411 12.0589 40 22 40" stroke="black" stroke-width="4" stroke-linecap="round" stroke-linejoin="round"/>
<path d="M33.3 30C31.4775 30 30 31.7217 30 33.8455C30 37.6909 33.9 41.1868 36 42C38.1 41.1868 42 37.6909 42 33.8455C42 31.7217 40.5225 30 38.7 30C37.5839 30 36.5972 30.6457 36 31.6339C35.4028 30.6457 34.4161 30 33.3 30Z" stroke="black" stroke-width="4" stroke-linecap="round" stroke-linejoin="round"/>
<path d="M22 27C24.7614 27 27 24.7614 27 22C27 19.2386 24.7614 17 22 17C19.2386 17 17 19.2386 17 22C17 24.7614 19.2386 27 22 27Z" fill="#2F88FF" stroke="black" stroke-width="4"/>
</svg>