<svg width="48" height="48" viewBox="0 0 48 48" fill="none" xmlns="http://www.w3.org/2000/svg">
<path d="M36 32C40.4183 32 44 28.4183 44 24C44 19.5817 40.4183 16 36 16" fill="#2F88FF"/>
<path d="M36 32V32C40.4183 32 44 28.4183 44 24C44 19.5817 40.4183 16 36 16" stroke="black" stroke-width="4" stroke-linejoin="round"/>
<path d="M12 16C7.58172 16 4 19.5817 4 24C4 28.4183 7.58172 32 12 32" fill="#2F88FF"/>
<path d="M12 16C7.58172 16 4 19.5817 4 24C4 28.4183 7.58172 32 12 32V32" stroke="black" stroke-width="4" stroke-linejoin="round"/>
<path d="M12 32V31.5V29V24V16C12 9.37258 17.3726 4 24 4C30.6274 4 36 9.37258 36 16V32C36 38.6274 30.6274 44 24 44" stroke="black" stroke-width="4" stroke-linecap="round" stroke-linejoin="round"/>
</svg>