<svg width="48" height="48" viewBox="0 0 48 48" fill="none" xmlns="http://www.w3.org/2000/svg">
<path d="M24 4C16.268 4 10 10.268 10 18V38H38V18C38 10.268 31.732 4 24 4Z" fill="#2F88FF"/>
<path d="M10 38V18C10 10.268 16.268 4 24 4C31.732 4 38 10.268 38 18V38M4 38H44" stroke="black" stroke-width="4" stroke-linecap="round" stroke-linejoin="round"/>
<path d="M24 44C26.7614 44 29 41.7614 29 39V38H19V39C19 41.7614 21.2386 44 24 44Z" fill="#2F88FF" stroke="black" stroke-width="4" stroke-linecap="round" stroke-linejoin="round"/>
<path d="M19 17L29 27" stroke="white" stroke-width="4" stroke-linecap="round" stroke-linejoin="round"/>
<path d="M29 17L19 27" stroke="white" stroke-width="4" stroke-linecap="round" stroke-linejoin="round"/>
</svg>