<svg width="48" height="48" viewBox="0 0 48 48" fill="none" xmlns="http://www.w3.org/2000/svg">
<path d="M38.1421 38.1421C45.9526 30.3316 45.9526 17.6684 38.1421 9.85786C30.3316 2.04738 17.6684 2.04738 9.85786 9.85786C2.04738 17.6684 2.04738 30.3316 9.85786 38.1421M32.4853 32.4853C37.1716 27.799 37.1716 20.201 32.4853 15.5147C27.799 10.8284 20.201 10.8284 15.5147 15.5147C10.8284 20.201 10.8284 27.799 15.5147 32.4853" stroke="black" stroke-width="4" stroke-linecap="round" stroke-linejoin="round"/>
<path d="M28 24C28 26.2091 26.2091 28 24 28C21.7909 28 20 26.2091 20 24C20 21.7909 21.7909 20 24 20C26.2091 20 28 21.7909 28 24Z" fill="#2F88FF"/>
<path d="M24 28C26.2091 28 28 26.2091 28 24C28 21.7909 26.2091 20 24 20C21.7909 20 20 21.7909 20 24C20 26.2091 21.7909 28 24 28ZM24 28V44M24 44H28M24 44H20" stroke="black" stroke-width="4" stroke-linecap="round" stroke-linejoin="round"/>
</svg>